<svg xmlns="http://www.w3.org/2000/svg" viewBox="0 0 285.98 182.46"><g id="Calque_2" data-name="Calque 2"><g id="Calque_1-2" data-name="Calque 1"><g id="surface1"><path d="M32.13,70.32c-.64.69.37-.11.32-.27C32.4,70.05,32.29,70.16,32.13,70.32Zm-15.79-56c-.32.37-.53.53-.37.75a4,4,0,0,0,.91-1C16.82,13.9,16.61,14,16.34,14.27ZM39.49,57.84c-.27.16-.54.69-.75,1s-.48.8-.69,1.07-.69,1-.59,1.06.11.06.16-.11.37-.47.48-.79a.69.69,0,0,1,.27-.38c.1,0,.53-.85.64-.85s.05-.21.26-.37.22-.21.22-.27.59-.69.59-.85a.61.61,0,0,1,.05-.22c.11,0,.27-.37.37-.48-.1,0-.32.06-.32.11C40,56.88,39.7,57.68,39.49,57.84ZM18.69,11.55c-.27.27-.85,1-1.07.91S16,14,15.7,14.38s-1.22,1.28-1.33,1.54.21.11.27-.05C15.43,14.8,16,14.32,17,13c.37-.37.48-.42.53-.37s.05.11,0,.11-.11.32-.05.32a7.17,7.17,0,0,1,1.12-1.23c.05-.16.74-.69.69-.8S18.8,11.55,18.69,11.55Zm-6.56,7.31c0,.05-.05.05-.11.05s0,.32,0,.32a10.21,10.21,0,0,0,.7-1C12.66,18.16,12.13,18.75,12.13,18.86Zm2.93-3.15c-.26.37-.37.21-.48.53s-1.33,1-1.33,1.23c.32.16.32-.11.11.43a1.54,1.54,0,0,0-.22.42c-.05.16-.69.7-.74.91s-.38.32-.32.48.16-.11.32-.11a3.61,3.61,0,0,0,1.06-1.44,3.49,3.49,0,0,0,.8-1.07c.06-.69.64-.58.75-1C15,15.82,15.7,15.07,15.06,15.71Zm8.37-8.85a25.44,25.44,0,0,0-3.35,2.88c-.65.64-1.07,1-1.39,1.33,0,.37,1.28-1.12,1.39-1.17C21.09,9,22,8.24,22.9,7.44,23,7.28,23.7,6.91,23.43,6.86Zm-4.85,4.58c.16-.37-.37.16-.37.27S18.48,11.6,18.58,11.44ZM46.85,45.31c-.16.21-.27.69-.59,1.23-.16.26-1.17,2.07-.37,1.22.1.05-.06-.53.1-.37s.22-.06.06-.11-.06-.05,0-.05a11.24,11.24,0,0,0,.58-1.07c.11-.1.06-.26.22-.48S47,45.2,46.85,45.31Zm1.06-2.13a6.67,6.67,0,0,0-.64,1.38C47.43,44.45,48.08,43.12,47.91,43.18ZM45.46,48c-.1,0-.32.74-.42.8a1.52,1.52,0,0,0-.32.53c-.11.32-.59.8-.38.86.06,0,.11,0,.11-.06.16-.32.16-.21.53-1C45.09,49,45.73,48.08,45.46,48ZM49,40.67c-.16.42-.53,1.28-.74,1.71-.06.16-.27.48-.16.48.37-.48.69-1.71,1.06-2.14,0,0,.06,0,0-.16S49.14,40.45,49,40.67ZM43.65,51.55c-.38.05-.43.53.05.32C43.81,51.81,43.75,51.55,43.65,51.55ZM39,59.71a3.09,3.09,0,0,0-.32.53C38.58,60.61,39.11,59.76,39,59.71Zm.42-1.23a.34.34,0,0,0-.26.27C39.17,59,39.65,58.48,39.43,58.48Zm3.2-5.39c-.05,0-.21.38-.32.38s-.05.05-.05.1-.21.22-.21.38.21-.05.21-.11,0-.1.05-.1S42.79,52.93,42.63,53.09ZM34.1,68.5c.06.06.48-.42.43-.42S34.1,68.4,34.1,68.5Zm-.69.54c-.27.21-.43.37-.43.53C33.09,69.57,34.26,68.34,33.41,69Zm-.75.8L32.5,70c.06,0,.38-.21.38-.27S32.77,69.68,32.66,69.84Zm5.07-5.71c0,.06-.53.69-.48.75s.32-.32.53-.64S37.84,63.87,37.73,64.13Zm.21-.32c0,.22.43-.32.37-.37S37.94,63.71,37.94,63.81ZM40,61.31l.06-.27a1.07,1.07,0,0,0-.27.48C39.81,61.68,39.86,61.57,40,61.31ZM54.58,15.55a22.83,22.83,0,0,0-3.2-7.84C49.14,4.3,44.45,1.42,40.4.4A21,21,0,0,0,34.31.08C33,.24,32.24.4,31.22.56c-1.49.48-.85-.21-3,1-.75.27-6.66,4.16-5.23,3.79a18.06,18.06,0,0,1,1.93-1.17c.1,0,.1,0-.91.74a47,47,0,0,0-7,6.56A88.55,88.55,0,0,0,6.74,25.2c-4.16,6.88-7,15-6.72,23A19.88,19.88,0,0,0,4.18,58.91a15.1,15.1,0,0,0,2.88,2.66,8.12,8.12,0,0,0,2.4,1.6.21.21,0,0,1,.16.06.12.12,0,0,0,.11.1.69.69,0,0,1,.37.48A25.81,25.81,0,0,0,11,66.59a17.28,17.28,0,0,0,5.49,7.3,8.69,8.69,0,0,0,3.63,1.55,10.08,10.08,0,0,0,4.32-.37c.85-.06,4.91-1.76,5.12-2.35a2.67,2.67,0,0,1,.8-.8c.26-.16,0-.11-.16,0-.32.21-.43,0-.05-.16.21-.16.26-.27.16-.27s-1,1-1.44,1c-.27.11-.38.37-.59.37s-.27.06-.59.22-.48.27-.48.21.69-.75.8-.8a1.81,1.81,0,0,0,.48-.16c.22-.05.11-.21.27-.27s.85-.53,1.07-.58A37.35,37.35,0,0,0,33.73,68c1-1,1.06-1.12,1.06-.48,0,.21,0,.21.11.21a.22.22,0,0,1,.11,0c.05.16.1.32.42,1.23a32.33,32.33,0,0,0,3.36,6.56,5.3,5.3,0,0,0,1.71,1.71c.32.32,1.18.1,1.55.26s.16-.16.42-.21S43,77,43.11,77s.06-.22-.1-.27-.11-.16-.06-.32c.11-.48-.26-.16-.58.1a.66.66,0,0,1-.22.27,7,7,0,0,1-1.22-1.22c-1.12-2.08-2-4-2.83-5.87a32.85,32.85,0,0,1-1.17-3.41c-.11-.53-.43-1.07-.37-1.39,0-.16,0-.27,0-.27s.48-.37.91-1c.42-.48.74-1,1.06-1.33.11,0,.21-.37.27-.37s.1-.11.16-.16c.26-.49,1.55-1.87,1.49-2.14s.75-1.12.86-1.38.74-.91.9-1.29c.11-.16.21-.32.27-.32s.16-.1.42-.74c.06-.27.32-.38.38-.54,0-.42.42-.21.53-.64a9.67,9.67,0,0,0,.7-1.22,1.53,1.53,0,0,1,.32-.75c.48-.48.42-.69.69-1.12.26-.21.8-1.38.48-1.12-.16.16-.64,1.17-.75,1s1.44-2.5,1.65-3c0-.1.27-.32.22-.42s.53-.8.64-1.07a8.45,8.45,0,0,1,.75-1.65c.16,0,0-.11.21-.22s0,0-.05.48c0,.06,0,.11.05.11.16-.21.8-1.71,1-2A64.29,64.29,0,0,0,54,30C54.9,25.74,55.38,19.6,54.58,15.55ZM38.42,73.68c.16,0,.53,1.65,0,.43C38.42,73.84,38.37,73.68,38.42,73.68Zm13-64.48s.11.16,0,.16S51.33,9.2,51.38,9.2Zm-10-8a20.41,20.41,0,0,1,3.73,1.61c0,.1-.16.1-.27,0s-1.44-.75-1.49-.75c-.22,0-1.18-.59-1.5-.64s-.21-.16-.42-.16S41.25,1.26,41.36,1.2ZM40.72,1h.1C41,1.1,40.66,1.1,40.72,1ZM33,.78c.11,0,.11.1,0,.1S32.93.83,33,.78Zm-1.55.69c.22-.16.27.05.16.16S31.11,1.58,31.43,1.47Zm-.58.37c.1-.1.32-.16.37-.05s-.11.05-.27.11S30.79,2,30.85,1.84ZM27.27,3h.11C27.54,3,27.22,3,27.27,3ZM27,2.54c.06,0,.06,0,.11,0S26.79,2.7,27,2.54ZM24.29,5c.05,0,.05.11,0,.11S24.18,5.1,24.29,5ZM9.84,59.17c-.06-.64-.22-.69-.16-1.22a4.24,4.24,0,0,0,.16.53c.1.11.05.59.1.69C10.1,59.71,9.94,60.56,9.84,59.17Zm-.16-2.24v-.1C9.73,56.83,9.73,56.88,9.68,56.93Zm0,.48v-.16C9.73,57.31,9.73,57.41,9.68,57.41ZM10,52.24c.05-.27.16-.16.16.11S9.94,52.56,10,52.24Zm-.06,8.91c0-.11.06-.16.11-.11S10,61.2,9.94,61.15Zm.16,1c-.1.21-.1-.7,0-.27Zm.38.21c-.06.16-.38-.11-.22-.11s.11-.05,0-1.65a9.33,9.33,0,0,0-.05-1.23,2.22,2.22,0,0,1,0-1.06c-.06-.43.05-1,.05-2.14,0-.9.37-2.5.37-3.2,0-.21.16-.32.22-.48s0-.16,0-.16-.11-.16-.06-.21a1.38,1.38,0,0,0,.06-.91c-.11-.1.16-.1.16-.26a11.63,11.63,0,0,1,.26-1.28c.06-.16,0-.54.11-.7.21-.74.58-2.07.8-2.87,0-.43.85-2.35.48-.86A34.69,34.69,0,0,0,11,51.65a33.43,33.43,0,0,0-.59,5.28c-.05,1.6-.16,2.14-.1,3.1A12.67,12.67,0,0,1,10.48,62.32Zm-.27-11.09v.1C10.16,51.49,10.16,51.17,10.21,51.23Zm1.17-4.11s.11,0,.11,0S11.38,47.23,11.38,47.12Zm.11-.32c.11-.26.26-.58.32-.58s0,.42-.11.58S11.49,47,11.49,46.8Zm.64-2.45c-.05-.06,0-.11,0-.16s.06-.16.22-.27c0-.05,0-.11,0-.16,0-.37.38-.9.38-1.22.15-.59.69-1.82.79-2.41,1.28-3,2.78-6.77,4.38-10,.74-1.76,1.65-3.41,2.5-5.07.27-.53.75-1.38,1.07-1.92.16-.21.32-1,.69-.8a.15.15,0,0,0,.16-.1c.06-.22.32-.43.32-.32-.1.26-.32.53-.48.85-.48.85-.9,1.55-1.33,2.45s-.75,1.28-1.12,2.08c-.16.32-.27.54-.38.8-.05.06-.1.11-.16.11s-.05,0-.05.1v.16c-.1.06,0,.32-.16.43s-.32.69-.37.48-.27.11-.11.16,0,.27-.1.54a.47.47,0,0,1-.32.37c-.16,0,.16.05.21.05-1.07,2.13-2.19,4.75-3,6.72a13.18,13.18,0,0,1-1,2.19c0,.1,0,.16,0,.16s0,.37-.16.37a.23.23,0,0,0-.05.16,2.42,2.42,0,0,1-.22.75c-.1.26-.74,2.5-.64,1.49,0-.21.11-.37.06-.48-.32.48,0,.64-.43,1.34-.1.31.05.21.16.37a.23.23,0,0,1-.16.05c-.21,0-.16.27-.32.48s-.21.91-.53,1.12C11.91,45.25,12.18,44.4,12.13,44.35Zm2.24-7.52c0-.22.11.05.05.1S14.37,36.93,14.37,36.83Zm.69-1.65c0-.11.11-.11.11-.27a.12.12,0,0,1,.11-.11C15.54,34.8,15,35.28,15.06,35.18Zm1.12-2.35c.06,0-.27.58-.21.32C15.91,33.09,16.18,32.67,16.18,32.83Zm-.37.8c0,.11-.27.64-.27.48a2.83,2.83,0,0,1,.37-.8C16.08,33.36,15.81,33.52,15.81,33.63Zm.43-1.12a1.67,1.67,0,0,1,.32-.64C16.61,32,16.29,32.72,16.24,32.51Zm.42-.91c.16-.21.11.11,0,.16S16.56,31.76,16.66,31.6Zm1.23-2.51c.16-.05-.27.48-.27.65S16.5,32.13,16.88,31C17,30.75,17.78,28.93,17.89,29.09Zm.05-.42c.11-.22.11-.22.16-.06S17.68,29.25,17.94,28.67Zm2-4c0-.16.11-.06.05,0S20,24.72,20,24.67Zm.21-.37c.06,0,.06.05.06.1S20.18,24.24,20.18,24.3Zm.22-.48c.1-.11.16-.16.16,0S20.29,23.92,20.4,23.82Zm.26-.48c0-.11.16,0,.11.05S20.61,23.44,20.66,23.34Zm.75-1.23c0-.16.05-.05.05.05S21.41,22.22,21.41,22.11Zm.16-.32c.11-.05,0,.21-.05.16S21.46,21.84,21.57,21.79Zm.48-.86a0,0,0,0,1,.05-.05C22.16,20.93,21.94,21.15,22.05,20.93Zm.69.11c.27-.42.37-.53.48-.37s.27-.48.11-.43-.06-.26.1-.16.54-.53.43-.64a.19.19,0,0,1-.05-.16c.05-.1.05-.1.1,0s.17.06.17-.1-.06-.11,0-.11.05-.05,0-.11.05-.32.26-.37.48-.48.43-.64.16-.38.11-.16a.23.23,0,0,0,.05.16c.11-.05.05-.27.16-.32s.05-.22.16-.27c.21-.21.43-.8.69-1.12.59-.85,1.07-1.65,1.44-2.29A4,4,0,0,1,28,13.1c-.05-.11.38-.54.32-.64s.22-.11.27-.32.37-.48.21-.11c-.85,1.33-1.76,2.67-2.66,4.21-.75,1.12-1,1.5-1.6,2.46A7.84,7.84,0,0,1,23.81,20c-.11,0-.06.21-.16.21a.17.17,0,0,0-.06.11c.06.26-.37.58-.48.79s-.31.48-.31.54a.13.13,0,0,1-.11.11C22,22.11,22.48,21.52,22.74,21Zm-.1-1.22c.1-.22.26-.22.16,0S22.53,20,22.64,19.82Zm3.57-5.39a.08.08,0,1,1,.16,0C26.37,14.48,26.21,14.48,26.21,14.43Zm.8-1.18a1.08,1.08,0,0,0,.16-.21c.1-.1.16-.1.1,0S27,13.36,27,13.25Zm-1.55,5.23c-.32.59-.58.8-1,1.55a16.29,16.29,0,0,0-.85,1.49c-.11.22-.22.16-.16,0A30.4,30.4,0,0,1,25.68,18C25.78,18,25.62,18.38,25.46,18.48Zm-2.24,3.68a.18.18,0,0,1,0,.11C23.06,22.27,23.33,21.84,23.22,22.16Zm-.32.54c0-.06.21-.48.21-.27C23.17,22.43,22.8,22.91,22.9,22.7Zm-.21.42s.11-.26.11-.21S22.69,23.18,22.69,23.12Zm-.11.27c0,.11-.1.11-.1,0S22.8,23.12,22.58,23.39Zm-1,1.44c-.05-.16.06-.11.06-.22s.16,0,.16-.1a4.49,4.49,0,0,1,.58-.91c0,.22-.42.75-.64,1.12s-.21.37-.21.32-.05-.16,0-.11S21.62,24.93,21.62,24.83ZM12,43.87c-.06,0-.06-.16,0-.16A.08.08,0,1,1,12,43.87ZM11,65.31c0-.11-.75-1.87-.37-1.55,0,.05,0,.05,0,0C10.8,63.33,11.22,65.63,11,65.31Zm0-8c.11-.22.16.91.05.91s-.05-.75-.05-.75-.11.16,0,.69c0,.27,0,.43,0,.37s0-.21.05-.21a15,15,0,0,1-.1,3c0,.9-.11,1-.16,0A45.75,45.75,0,0,1,11.91,49c.43-1.87.65-2.4,1.13-4.21.16-.48.32-.7.37-.48s-.05-.22.05-.22h0c-.1-.05-.1-.26.16-1,.32-.91.48-1.5.8-2.35,1-2.83,2-5.07,3.15-7.74.27-.8,1-1.86,1.28-2.71a47.63,47.63,0,0,1,2.56-5.07.18.18,0,0,1,.05-.11c.16,0,.06.16,0,.16s-.69,1.6-1.06,2.3c-.11.37-.86,1.17-.65,1.33s.16.16,0,.32-.1.1-.05,0c.05-.38-.21,0-.21.21s0,.11.05,0,.11,0,.05.16-.42-.05-.21.22c.11.05.05.21-.05.16s-.21.21-.27.32l.27-.27c0,.05-.27.75-.27.43s-.21.1-.16.16c-.26.74-.85,1.65-1.12,2.34a.51.51,0,0,0-.1.43c.05.05.05.1-.06.1s-.1.27-.26.59a4.91,4.91,0,0,0-.32.75C17,35,17,35,17.09,35c.27.11-.16.64-.21.91-.16.42-.27.37-.43.21-.05,0-.05.43.05.43s.06.05.06.1a4.62,4.62,0,0,1-.48,1.13,29.19,29.19,0,0,0-1.23,3.14A67.61,67.61,0,0,0,11.6,52.24c-.32,1.28-.43,3.68-.59,5C11,57.31,11,57.36,11,57.31ZM18.9,31.23c-.1.11,0-.27.06-.16A.18.18,0,0,1,18.9,31.23Zm-.16.37c-.48.91-.8,1.92-1.28,2.78-.1,0,.38-.81.38-1,.05-.32.42-.85.42-1.06S18.58,31.6,18.74,31.6Zm-1.38,3.1c0,.1-.06.16-.06,0S17.41,34.48,17.36,34.7Zm-.7,1.7c-.05.16-.05-.16,0-.11ZM24,73.63c-.43.16-.43.16-.43.1C23.81,73.52,25.3,73.25,24,73.63ZM25.25,73c.11-.11.64-.49.64-.27A3,3,0,0,1,25.25,73Zm2.66-1.12c-.1.1-.21,0-.1-.06S28.08,71.76,27.91,71.87Zm.22-.16c-.16,0,0-.06.05,0Zm0-.16c-.05,0-.11,0-.11,0s-.48.21-.59.37-.1,0-.37.21c-.11.06-.85.48-.85.38.21-.22,1-.54,1.33-.85s.7-.38.7-.22A.21.21,0,0,1,28.13,71.55Zm.91-.38c-.11.06-.16.11-.22.11s0-.11.16-.21S29.2,71,29,71.17Zm.1-.53c-.1.11-.21.16-.21.11S29.41,70.32,29.14,70.64Zm.43-.32c-.16.11-.32.21-.16,0S29.84,70.11,29.57,70.32Zm.53-.53c.27-.27.27,0,.11.21S29.94,70,30.1,69.79Zm.22,1a.22.22,0,0,1-.16,0C29.89,70.85,30.42,70.43,30.32,70.75Zm.53-1.5c-.11,0-.06.11-.16.11s-.06,0,0-.16S31,69.25,30.85,69.25Zm.74.27c-.1.11-.16.16-.16,0S31.91,69.15,31.59,69.52Zm1.13-1.07a.42.42,0,0,1-.16.16c-.11,0,0-.16.1-.27S32.93,68.29,32.72,68.45Zm.74-.64c-.05.11-.1.11-.16.06S33.52,67.71,33.46,67.81ZM34,66.48c-.8.85-2.62,2.88-2.62,2.34.05-.26.16-.42.21-.42s.06,0,0,.1c-.1.22.06.16.16-.1s0-.27.22-.37.21-.27.43-.38.1-.21.16-.16.1,0,.1-.1.22-.16.22-.27A.12.12,0,0,1,33,67a3.35,3.35,0,0,0,1-1C34.26,65.31,34.53,66.11,34,66.48Zm0-3.31c0-.26.16-.05.16.06S33.94,63.39,34,63.17ZM33.94,61c0-.16.16.05.11.11S33.94,61.15,33.94,61Zm.53,3.15c-.16.16-.26.21-.26.1S34.79,63.71,34.47,64.19Zm-.21-.32c.11,0,.11.1.05.1S34.21,63.87,34.26,63.87Zm.48.1c-.11,0-.05-.26-.16-.26s0-.32,0-.32S34.79,63.81,34.74,64Zm-.05-2.18a5.2,5.2,0,0,1-.27-1c-.16-.69-.16-.74,0-.58s.16.9.27,1.22S34.79,62,34.69,61.79ZM35,65.15C35,65.15,35,65,35,65A.08.08,0,0,1,35,65.15Zm0-1.87c-.06-.21-.43-1.81-.11-1a9.65,9.65,0,0,1,.32,1.17C35.22,63.65,35.11,63.55,35,63.28Zm.26,1s-.1-.32,0-.37.11.32.16.37S35.27,64.4,35.27,64.24Zm.16.32c.11,0,.11.1,0,.1S35.38,64.56,35.43,64.56Zm.06,2s-.11-.26-.06-.26S35.54,66.53,35.49,66.53Zm.1,1.07s-.1-.16,0-.16S35.65,67.55,35.59,67.6Zm0-2.51c.06.06.06.11,0,.16Zm.22,2.3c-.06.16-.06.16-.06,0s0-.11,0-.11-.05-.32-.05-.43A2.21,2.21,0,0,1,35.81,67.39Zm.16-1v-.16c0-.16-.16-.21-.16-.37s0,0,.1,0S36,66.21,36,66.37Zm.05,1.5c0,.1-.05.1-.11,0S36,67.76,36,67.87ZM36,69.73s-.06,0-.06,0C35.81,69.31,36,69.68,36,69.73Zm.11-.91c-.11.06-.17,0-.06-.1S36.13,68.82,36.08,68.82Zm.1-.26s-.16-.22-.16-.37C36,67.76,36.24,68.5,36.18,68.56Zm.16.69c-.16-.26-.05-.69.16,0S36.45,69.36,36.34,69.25Zm.27,1.92c0,.06,0,.06,0,0s-.16-.1-.11-.26S36.66,71.17,36.61,71.17Zm1.33.27a.23.23,0,0,1,.05.16C38.21,72.13,37.84,71.55,37.94,71.44Zm0,1.22A15.24,15.24,0,0,1,37,70.8c0-.11-.42-.8-.16-.75a22.23,22.23,0,0,1,1,2.19C38.05,72.61,38.15,73,37.89,72.66Zm-.16-1.59a0,0,0,0,1,.05.05C37.89,71.33,37.68,71.17,37.73,71.07Zm-1.12-3.15a20.14,20.14,0,0,0,.85,2.35c.06.16.22.26.11.26a4.57,4.57,0,0,1-.64-1.33A12.9,12.9,0,0,1,36.5,68a9.18,9.18,0,0,1-.42-1.44C36.08,66.11,36.5,67.87,36.61,67.92Zm0-3.47c0,.11-.16-.21-.16-.26S36.66,64.4,36.61,64.45ZM53.09,31.92c-.69,2.78-1.39,5-2.35,8-.43,1-.59,1.5-1,2.67A5.07,5.07,0,0,0,49,44.45c0,.16-.06.16-.16.16S48,45.68,48,45.9c-.27.74-.75,1.7-1.07,2.39,0,.06-.11.06-.16.11-.27.05-.64,1.17-.8,1.44-.21.59-.69,1-.8,1.49,0,.32,0,.32.06.43s.1.05,0,.16c-.16.27-.32.59-.59.69a1.06,1.06,0,0,1,.11-.69c.27-.37-.16-.48-.27-.05-.48.85-2,3.25-2.72,4.37S39.27,60,38.21,61.31c-.43.69-1.55,1.7-1.76,2.45a.08.08,0,1,1-.16,0c-.16-.53-.16-.64,0-.8A3.37,3.37,0,0,1,37,61.68c.11,0,.11,0,.11-.11s0,0,0,0,.22-.32.16-.37-.26.1-.53.48-.59.53-.53,1-.38-.22-.38-.38-.11-.21-.11-.42-.16-.64-.16-.91C35,59,34.47,54.27,34.05,52.19a14.75,14.75,0,0,1-.37-1.71c-.11-.42-.11-.48-.59-.74s-.32,0-.64,0a.23.23,0,0,0-.16,0c0,.05,0,.05-.11.05s-.37.32-.37.43c-.7.48-.38,1.33-.27,2.18.21,2.14.75,3.84,1.07,6,.27,1.7.64,3.14,1,4.85.11.59.54,1.44.32,1.71s0,.37.06.16,0-.06.1,0,.11.1-1.06,1.17c-.32.37-.54.53-.59.48s-.16,0-.21.16c-.16.32-.27.32-.49.53s-.16.16-.16.11c-.8.59-1.86,1.87-2.87,2.56-7.1,6.29-15.15,3.52-16.59-5.87-.11-.42-.05-.48.11-.42A16.78,16.78,0,0,0,15,63.55c.32-.38-.8-.27.8-.8a4,4,0,0,0,.69-.27c.06,0,.91-.11.64-.32-.1,0-.48.27-.64.16a4.19,4.19,0,0,0-1.33.37,7.83,7.83,0,0,1-3,.22c-.37-.11-.37-.06-.43-3.52a40.59,40.59,0,0,1,1.45-11c.64-2.67,1.6-5.28,2.34-7.84.7-1.71,1.71-4.11,2.35-5.81.53-1.29,1.33-2.73,1.86-4a135.34,135.34,0,0,1,9.87-17.23c0-.27.8-1.23.38-.32-.32.48-.06.32.16,0a5.71,5.71,0,0,0,.26-.59c1-1.49.48-.48,0,.38,0,.05,0,.1-.05.1a5.93,5.93,0,0,0-.53,1.23c-.06,0-.06.05-.06.16a5.1,5.1,0,0,0-.58,1.07c-.11.26-.16.16-.22.32a1.59,1.59,0,0,1-.64.8l.38-.75a10.91,10.91,0,0,0,.85-1.81,18.78,18.78,0,0,0-2.08,3.51c-2,4.22-2.45,4.75-4.22,8.22-.21.21-.21.27-.1.27s.48-.65.58-.7c0,.21-.8,1.28-1,1.76-.42.7-.74,1.44-1.17,2s-1,1.87-1.33,2.4c-.16.32-.65,1.33-.75,1.22,0-.85-1.17,2.09-1.44,2.62-.16.37-.21.8-.32,1.12a3.76,3.76,0,0,0,0,1.06c.11.06.59,1.29.75,1h.21c0-.21.21-.43.32-.37s.32-.32.32-.7c0-.69.32-1,.64-1.49a3.93,3.93,0,0,1,.75-1.28c.58-.69.69-1.76,1.17-2.62C23.11,30,24,28.4,25.25,26.27c.75-1.44,1.23-1.71,2.13-3.52.53-1.12.43-.91.8-1.6,1.55-2.93,3.09-5.71,4.75-8.64.91-1.71,2.13-3.36,3.09-5.12A11.63,11.63,0,0,0,37.14,5.2c0-.21,0-.53-.21-.64l-.21-.21c-.06-.16-.64-.11-.64-.27S36,4,35.54,4c-.59-.05-.91.27-1.33.32-1.28.32-2,1.39-3.63,3.2-.64.85-.11.11-1.38,1.81a39.54,39.54,0,0,0-2.78,4.11,13,13,0,0,0-1.28,1.87c-.37.69-1,1.49-1.39,2.23-1,1.66-2.07,3.47-3,5.18A7.29,7.29,0,0,0,20.13,24c0-.16-.7,1.22-.38,1s-.05.53-.16.42-.1,0-.1.22a1.79,1.79,0,0,1-.16.48c-.27.59-.16,0-.37.21s-.11.32-.27.59a1.92,1.92,0,0,0-.21.59c-.06.05-.06.1-.06.21.06.27-.26.8-.32.64s-.21.21-.26.16c-.8,1.33-2.46,5.23-3.1,6.72a73.75,73.75,0,0,0-4.69,15A35.87,35.87,0,0,0,9.52,61c.26,1.65.42,1.44-1,.58a13.67,13.67,0,0,1-5.5-7.25c-1.81-5.44-1.17-11.78.43-16.91.21-.32.11-1,.16-1.22C4.08,35.12,4.4,34,4.88,33a6.6,6.6,0,0,1,.8-1.65,7.53,7.53,0,0,0,.32-.8,11.65,11.65,0,0,1,1.12-2.24c.21-.21.1-.53.32-.8l.8-1.39a6.09,6.09,0,0,1,.85-1.33A10.09,10.09,0,0,0,9.68,24c-.06.05,1.17-1.66,1-2,0-.05-.43.32-.43.38,0,.21-.53.64-.58.85-.27.43-1,1.54-1.23,1.86-.91,1.71-2.29,3.95-3,5.55a22.69,22.69,0,0,0-1,2.56c-.38.8-.27.91-.64,1.76a39,39,0,0,0-2.19,9.12,20.53,20.53,0,0,0,.11,6.51,20.1,20.1,0,0,0,.53,2.61c.21,1,.21.7,0,1,0,.06.06.06.06,0s.16-.1.16,0c0,.37.1.48.21.59s0,0-.11-.06-.1-.1-.1,0a2.06,2.06,0,0,0,.48.91,1.47,1.47,0,0,0,.21.42c.11.11.16.27.11.27C1.68,54.48.77,50.8.77,48.77.24,47.07.5,42,1,39.92c.16-.74.32-1.49.58-2.45.11-.27.22-.48.22-.38s0,0,0-.05a4.53,4.53,0,0,1,.26-1,.19.19,0,0,1,.11-.16s.11-.11,0-.27,0-.26.06-.16.05.11.05,0,0-.48.27-1.07c.21-.42.42-1.17.64-1.49a1,1,0,0,0,.1-.27c0-.11.27-.43.22-.53s.16-.16.1-.32.27-.37.22-.48.05-.37.16-.32,0,0,0-.05.21-.54.21-.64,0-.06.06-.06.1-.48.21-.42.16-.43.22-.43,0-.27.1-.27A.11.11,0,0,0,5,28.93c0-.1.11-.16.16-.16s0,0,0,.16-.06.16.1,0c.11,0,.27-.53.16-.42a.27.27,0,0,0,0,.16s-.27,0-.16-.16.16-.11.21-.27,0-.16,0-.16.16-.48.22-.42.05-.06.05-.11.11-.32.16-.27v-.1c0-.27.21-.27.37-.7.06-.16.38-.37.43-.53a1.81,1.81,0,0,1,.53-.8c.32-.11.48-.75,0-.16,0-.38.69-1,.64-1.17s.32-.16.32-.38.11-.16.16-.16.32-.64.38-.74c.32-.75.32-.16.48-.64s.48-.7.64-1.18c.1-.16.26,0,.26-.32s.32-.21.38-.37a1,1,0,0,1,.26-.43c.32-.37.16-.32.48-.64.22-.16.06-.32.16-.32.43-.32.43-.58,1.12-1.39.43-.69,1.44-1.81,1.87-2.45s1.71-1.86,2.13-2.45c.06.05.22-.11.22-.27s0-.1.05-.1.69-.59.69-.7.38-.21.32-.26.32-.16.43-.38.21-.21.32-.37.59-.37.59-.53a10.24,10.24,0,0,1,.85-.8c2.77-2.67,4.69-3.52,6.93-5,.21-.22,1.18-.54,2-1a2.8,2.8,0,0,1,1.17-.32c.37-.11,0,.16-.1.21a7,7,0,0,0-1,.42c-1.39.75-1.6.86-1.71,1s0,.1.11,0c.32,0-.43.43-.53.48C25.52,6,23.75,7,22.58,8.3c-.58.64.16,0,.43-.22.85-.69,3.2-2.24,4-3,0-.11.26-.27.8-.54,1.55-.74,2.82-1.33,4.32-2C35.7.56,40.88,1,44.4,3c.8.42,1.81,1,2.55,1.49.32,0,1.13.85,1.5,1s.48.59.9,1C50,7.12,51.27,8.51,51.17,9c-.11,0-.16.11-.06.32s.27.86.54,1.07c.1.06.05.32.16.37s.1.06.1,0c0-.21.11-.1.27.16.32.75.43,1.07.32,1v.26c.06.43,0,.22-.16.38a0,0,0,0,1-.05.05s-.11-.05-.11-.16c.06-.32-.16.05,0,.11.16.32.21,1.54.53,1.65.11,0,.11,0,.06-.48,0-.11-.43-1.49-.06-1.12s.53,1,.37,1.28a.43.43,0,0,0,.06.43,3.54,3.54,0,0,1,.37,1.28c-.21.85.16,1,.16,1.7v.75c0,.21-.11.37.05.53s.06.06,0,.06c-.16.74-.05,3.3-.16,4-.1,1.49-.1,1.17-.16,2.23a1.63,1.63,0,0,1-.16.7c0,.11-.1.16,0,.21s.11.32,0,.38,0,.32-.1.48-.06.53-.16.64.1.32,0,.42.16-.05.21,0S53,28,53,28s-.16.16-.21.48-.05.26-.11.53-.16.43-.21.86a32.3,32.3,0,0,0,.43-3.9c-.22,1.12-.43,2.56-.7,3.74a32,32,0,0,0-.8,4.16c.16-.59.53-2.19.7-2.62,0-.1.16-.64.21-1.17.05-.32.16-.27.16.11,0,.53.11.58.16.05s.32-1.18.37-1.71c0-.16.11-.37.11-.16s.1.21,0,.48c-.21,1-.48,2-.69,3-.11.75-.38,1-.32,1.6-.06.22-.06.22,0,0s.37-1.28.42-1.49a66.5,66.5,0,0,0,1.65-10,32.3,32.3,0,0,0-.26-7c-.11-.32-.32-1.28-.48-1.82s-.11-.58-.06-.58a12.6,12.6,0,0,1,1,3.62c.06.27.11,2.46.27,2.14.05-.06.05-.06.05.1A56.92,56.92,0,0,1,53.09,31.92ZM33.89,62.59c0,.16,0-.27,0-.16A.1.1,0,0,1,33.89,62.59Zm-.21-1.12c0-.16.16.27.16.21S33.68,61.57,33.68,61.47Zm-.11-1.18c0-1.33.21.53.16.64S33.62,60.77,33.57,60.29Zm-.69-3.57a1.8,1.8,0,0,0-.11-.64c-.11-.37.11-1.23.11-.43C32.88,55.81,33.25,59.23,32.88,56.72Zm0,2.08c0,.16,0-.27,0-.16ZM33,59a4.85,4.85,0,0,1,.22.91,2.13,2.13,0,0,1,0,.59C33.2,60.24,32.82,59,33,59ZM29.14,10.16c-.1.11.06-.16.06-.1S29.2,10.11,29.14,10.16Zm.16,1.07c.16-.27.27-.37.27-.27S28.88,11.87,29.3,11.23Zm.59-.69c0-.11.43-.59.43-.48s0,0-.06,0S29.89,10.8,29.89,10.54Zm.53-.7c0-.1.11-.1.16-.05S30.42,9.9,30.42,9.84Zm.21-.21a.21.21,0,0,1,.11-.06C30.9,9.57,30.63,9.79,30.63,9.63ZM28.18,17c-.21.27-1.07,2.3-1.23,2.14,0-.06.22-.48.32-.7.32-.58.64-1.12.91-1.6C28.34,16.62,28.29,16.83,28.18,17Zm-2.45,4.59a.2.2,0,0,1-.05.16C25.52,22,25.62,21.52,25.73,21.63Zm-1,2c-.48.9,0-.43.05-.32S24.82,23.39,24.72,23.66Zm28.63-9.23v.11C53.3,14.64,53.3,14.38,53.35,14.43Zm-.1,13c-.16.27-.11,0-.06-.1S53.3,27.39,53.25,27.44Zm.69-7.68c0-.1-.11-.42,0-.37S54.1,20,53.94,19.76Zm0,.32c0,.11,0-.26,0-.16A.1.1,0,0,1,53.94,20.08ZM8.45,24.24C4,31,.45,39.18.72,47.55c0,.42.05.53.11.53s.1-.21.1-1.22A36.39,36.39,0,0,1,4.72,31.34a54.12,54.12,0,0,1,3-5.77,4.59,4.59,0,0,1,.42-.64,12.42,12.42,0,0,0,.75-1.22C8.88,23.66,8.45,24.14,8.45,24.24Zm.91-1.38c-.11.1-.16.21-.22.21-.1.21-.1.69.16.11.06-.27.86-1,.75-1.18A3.48,3.48,0,0,0,9.36,22.86ZM48.13,46.59a12.71,12.71,0,0,0-.86,1.7C47.17,49,48.66,46.16,48.13,46.59Zm-1.07,2.18c-.16.22-.21.54-.43.75h0C46.69,49.63,47.43,48.45,47.06,48.77ZM10.48,21.25c-.06.22.21-.05.32-.26s.32-.48.32-.59S10.58,21,10.48,21.25Zm5.6,16.11a.69.69,0,0,1,.1-.16,1.14,1.14,0,0,0,.16-.75c-.05-.05-.05-.05-.1.06s-.11.16-.16.42-.22.48-.11.7C16,37.63,16.13,37.41,16.08,37.36Zm-2.3,3.36c-.16-.16-.26.69-.26.75A2,2,0,0,0,13.78,40.72Zm.7-1.76c.1,0,0-.32.1-.32s.38-.69.11-.58C14.58,38,14.26,39,14.48,39Zm1.06-.32c.16,0,.05-.32.11-.42s0-.16-.06,0-.1.32-.21.37S15.43,38.86,15.54,38.64Zm-3.2,9.6c.11-.64-.21,0-.16.21S12.29,48.56,12.34,48.24ZM11,59.65c0,.16,0-.9,0-.74A1.54,1.54,0,0,0,11,59.65ZM12.66,47c.06-.32-.05-.32-.05,0S12.61,47.28,12.66,47ZM20,26.64c.22-.48-.21-.05-.21.16S19.91,26.86,20,26.64Zm.38-.74c.16-.43-.16-.11-.16.1S20.29,26.06,20.4,25.9ZM49,42.91c0,.11-.21.32-.21.42s.27-.47.21-.47Zm2.72-8.27c-.05.32-.16.32-.16.54s0,.1.05-.06a2.58,2.58,0,0,0,.32-.9C51.86,34,51.7,34.27,51.7,34.64Zm-.21.75a.11.11,0,0,0-.11.11c0,.16-.21.53-.16.63s.16.06.16-.21,0-.26.11-.26S51.54,35.39,51.49,35.39Zm-.43.32c0-.16.16-.21.16-.37s0-.06-.11,0S51,35.92,51.06,35.71ZM50,38.7c-.05-.06-.05-.06-.05,0s-.16.21-.11.32S50.1,38.7,50,38.7Zm.16-30.51a12,12,0,0,0,.91,1.71C51.11,9.68,50.31,8.08,50.15,8.19ZM51,35.87a1.85,1.85,0,0,0-.27.74C50.69,36.83,51.17,35.81,51,35.87ZM34.85,51.6c-.16-.11-.16.48,0,.48S35,51.65,34.85,51.6Zm18.4-30.4c-.16.64-.06,1.44-.27,2.83a6.59,6.59,0,0,0,0,1.76c.21,0,.26-2.13.26-2.51A8.8,8.8,0,0,0,53.25,21.2Zm-2,15.63c-.11.16,0,.48-.16.58a.19.19,0,0,0-.05.11C51.22,37.74,51.59,36.13,51.22,36.83Zm2-16.37c0,1.06.22-.32.11-.54S53.19,20,53.19,20.46ZM53,17.25a7.44,7.44,0,0,0,.11,1.5c.48,1.23-.11-4.11-.26-4.11C52.61,14.06,53.09,16.72,53,17.25Z"/><path d="M80.66,44.83c0-.11,1.38-1.92,1.12-1.81a4.56,4.56,0,0,0-.54.85A6.77,6.77,0,0,0,80.45,45C80.39,45.15,80.5,45,80.66,44.83Zm2.5-3.15c-.21.11-.69,1.81-.9,1.92s-.11.16-.22.32a40.7,40.7,0,0,1-6.24,7.2c-.1.11-.16,0,0-.11.32-.37.81-.85.16-.53-.1.06,0,0,.22-.26s2.45-2.78,2.93-3.36.43-.27.64-.7.11-.48,0-.32c-1.39,1.49-3.79,4.22-5.28,5.49-1.07.86-2.77,2.08-4.27,1.71-.64-.16-.32-4.91.27-7.09.27-1.28.75-3.47.53-4.38,0-.8-.32-.37-.69-.64,0-.16-.21,0-.27-.1s-1,.21-1,.58a3.71,3.71,0,0,1-.48,1.29,1.41,1.41,0,0,1-.16.32s-.27.42-.27.47-.32.38-.32.48c.32,0,.54-.79.86-1.17.11,0,.11,0,0,.59-.16,1.28-1,2-1.82,3.25-1.54,2.19-5.11,6.67-4.37,5.33.37-.69.16-.8,1-1.7.27-.37.8-1,1.07-1.39.48-.64,1-1.6,1.49-2.24.37-.58,1.44-1.92,1.76-2.45,0-.27-1.39,1.76-1.49,1.92-.69.9-2,2.5-2.67,3.46-1.39,1.66-3,4-5,4.91-.64.21.48-3.68.48-3.84.64-2.4,1.39-4.42,2-6.61a18.71,18.71,0,0,1,.85-2.46c.21-.58,1.38-2.82.32-3-.16-.05-.22-.21-.43-.16h-.21c0-.11-.59,0-.75,0s-.1.11-.16.21a.4.4,0,0,1-.1.22c-.11,0-.38.48-.38.63a4,4,0,0,1-.59,1.18c-1.17,1.28-2.18,3.62-3.52,5.55-.32.48-.37.74-.16.69s.11,0,.06,0c0,.16-.32.58.1.37s.75.37,1,0c0,0,.69-1.06.48-.42a39.78,39.78,0,0,0-1.23,4.8c-.1.64-.16,2.67.32,2.93a.7.7,0,0,1,.22.37,3.14,3.14,0,0,0,1.38,1.28,5,5,0,0,0,1.23,0c1.12-.27,3.46-2.72,4-3.57,1.65-1.92,3-4.38,4.53-6.29-.27,1.7-.59,4,0,5.7a2.19,2.19,0,0,0,.59,1,2.13,2.13,0,0,0,.53.64c.53,1.23,3,1.39,4.48.59a17.35,17.35,0,0,0,5.23-4.91A17.85,17.85,0,0,0,81.72,45c.16-.32.7-1.28.86-1.6s.53-.69.48-.91S83.43,41.63,83.16,41.68Zm-26,8.75s0,0,0,0S57.3,50.38,57.19,50.43Z"/><path d="M87,36.83c.16.16.32.53.48.53a1.5,1.5,0,0,0,1.33-.21,1.22,1.22,0,0,0,.27-1.87c-.8-.74-1.7-.42-2.18.53C86.9,36,86.84,36.93,87,36.83Zm8.69,6.88A6.28,6.28,0,0,1,95,44.93c-.32.43-.37.54-.26.48s.1,0,0,.16-.27.11-.43.43c0,.16-.11.27-.16.27s-.43.48-.53.53c-.33.37-.86.85-1.18,1.23,0,.16-.16,0-.16.16s0,.05,0,.05-.11-.05-.11,0,0,.11-.11.16-.31.32-.42.37-.16.16,0,.11,0,0,0,.16a30.82,30.82,0,0,1-2.78,2.56c.64-.75.75-.69,1.76-1.7a2,2,0,0,0,.54-.59s.26-.22,0-.11c-1.66,1.5-4.27,4-6.24,4.8-.54.16-1.55.59-1.65-.21a6.54,6.54,0,0,1-.22-2,17.63,17.63,0,0,1,1-5.43A16.51,16.51,0,0,1,86.2,41.2c.06-.11.11-.21.16-.32.32-.32-.1-.91-.48-.91a3.19,3.19,0,0,0-1.33-.21c-1,.59-.91.69-1.44,1.81-.37.91-1.17,1.92-1.55,2.67-.16.32-1.17,1.87-.21,1.6.21-.1.27-.05.21.11C81,48,80.39,51,81.08,53a6.43,6.43,0,0,0,1.55,2c.64.54.69.48,1.7.64,2,.27,3.9-1.27,5.23-2.56a32.12,32.12,0,0,0,3.09-3,3.07,3.07,0,0,1,.48-.65c.11-.16.06-.16.16-.26A.12.12,0,0,0,93.4,49c0-.16-.32.21-.27.21-.32.38-2.23,2.14-1.75,1.55.16-.1-.16-.1-.11-.21v-.11c-.16-.16.16,0,.16.06s.48-.22.32-.27,0-.11.1-.05.16-.06.38-.22c1.76-1.65,0-.53.9-1.39.11-.1.27-.1.06.06s-.16.21-.06.26a2.2,2.2,0,0,0,.81-.8c0-.16.1-.1.1-.26a.21.21,0,0,1,.06-.16c.32-.11.32-.54.64-.75s.16-.26.37-.48c0-.1.11-.16.11-.21a.51.51,0,0,0,.26-.43A3,3,0,0,1,96,45c.27-.32.48-1-.1-.22a11.42,11.42,0,0,0-.69,1.13,13.33,13.33,0,0,1-1.71,1.91c-1.55,1.5-1.92,1.93-4.11,3.84-1.92,1.66-1.54,1-.32,0a49.81,49.81,0,0,0,6-6.08c.1-.05,1.75-2.24.9-1.44a2.75,2.75,0,0,1,.48-.85C96.92,42.32,95.8,43.44,95.69,43.71Zm-1.81,4.16a.17.17,0,0,0,.11-.06C94,47.87,93.72,48.08,93.88,47.87Zm-1.65,1.65a4.12,4.12,0,0,1,.42-.48c.16-.11.16.05-.05.21s-.16.22-.27.27S92.23,49.57,92.23,49.52Zm-.27.32c.05-.32.37-.27.11-.05A.19.19,0,0,1,92,49.84Zm-.42.32c0-.1.21-.16.31-.1s-.21,0-.21.1S91.48,50.22,91.54,50.16Zm-.54.59s-.1.16-.1.1S91,50.75,91,50.75Zm-.16.64c0,.1-.26.1-.1-.06S90.84,51.28,90.84,51.39Zm-.16-.48c.22.1-.05.16-.05.05S90.63,50.91,90.68,50.91Zm-.64.64c.06,0,.27-.38.27-.32C90.31,51.55,89.94,51.6,90,51.55Zm-.75.53h.11C89.51,52.13,89.24,52.13,89.29,52.08Zm-1.75.43c0,.05.79-.59.85-.59S87.32,53,87.54,52.51Zm.95-.7a.06.06,0,0,1,.06.06C88.55,51.92,88.33,51.87,88.49,51.81Zm7.36-7.52c-.21.22-.26.54-.58.8-.64.48-.37.16.11-.32.16-.16.31-.53.47-.58A.05.05,0,0,1,95.85,44.29Z"/><path d="M68,101.28a35.06,35.06,0,0,0-9.92,3.36c-.08.08-.56.16-.48-.08-.08-.48-3.84,1.44-5,2.24-.16.08-.32.24-.4.24-.16.4-.48-1.76-.56-1.92-.88-3.6-2.08-8.72-.4-12.32.88-2.32,4.4-5,6.56-5.12.48.08,1.36-.48,1.76,0,2.08,1.52,1-3-.88-3.6-3.12-1.28-5.84.8-8,3.28-2.88,3.52-2.8,9-1.76,13.6.4,2.16.8,3.6,1.36,5.84.08.64.24,1.2.24,1.28a.61.61,0,0,0,.16.32c.24.16,0,.56-.24.72a77,77,0,0,0-11.12,8.56c-.32.32-.64.24-.16-.24,3.28-4.08-3.6,3-4,3.76a16.36,16.36,0,0,0-2.4,4.24,6.85,6.85,0,0,0-.4,4.56c.72,3.52,4.48,5.2,8,4.8,5.28-.48,8.24-3,11.28-6.8,1.76-2.4,2.16-3.76,2.4-7.44a30.42,30.42,0,0,0-.88-8.8c0-.56-.56-1.6-.08-2.08.32-.32.32-.16.8-.64,2.16-1.84,6.08-3.6,8.24-4.8.24-.24,3.84-1.6,2.88-1.36-.16,0-.88.24-1.52.4-1.28.48-1.6.56-1.52.32s2.72-1.28,4.8-1.68a5.64,5.64,0,0,0,1.68-.56C68.67,101.2,68.43,101.12,68,101.28ZM48.51,110.8c.16-.08.4-.16.16,0S48.27,111,48.51,110.8Zm-.8.64a.25.25,0,0,1,.16-.08C48,111.52,47.31,111.76,47.71,111.44Zm-1.92,1.36c.16,0-.08.24-.08.08A.08.08,0,0,1,45.79,112.8ZM35.23,122c.16,0,.08.08,0,.08S35.15,122,35.23,122ZM36,133c-.8-.4.08-.16.32,0C36.67,133,36.67,133.36,36,133Zm2.32.64c-.32,0,0-.08.08,0Zm0-1.12c-.24,0,.08-.08.16,0Zm1.36,1.12c-.24,0-.8.16-1,0S40.75,133.52,39.63,133.6Zm-.08-1.84c-1.2.48-4.16-.24-5-.88-.32-.48.88.4,1.92.64a17.53,17.53,0,0,0,3,.08C40.11,131.52,40.11,131.6,39.55,131.76Zm12.4-12c-1.12,6.56-8.08,12.24-14.88,11.36-1.2-.24-3.52-1-3.28-2.24a10.89,10.89,0,0,1,1.76-3.76,91.05,91.05,0,0,1,6.08-6.8c.8-.64,2.08-2.32,2.64-2.64.4-.24.56-.48.4-.48a13.91,13.91,0,0,0-1.2,1c-.08,0-.16.16-1,.8-.24.16-.4.32-.4.4s-.4.64-.48.56a.29.29,0,0,0-.24.08c-.32.4-.4.32-.56.48a2.88,2.88,0,0,1-1.12.88,41.87,41.87,0,0,1,3.76-3.68,22.42,22.42,0,0,1,3.68-2.8c.8-.56,2.4-1.92,3.36-2.48.24-.08,1-.72,1.12-.48-.16.32-.48.4-.24.88C51.87,113.6,52.51,117.84,52,119.76Zm2.8-12.88c.08-.16.56-.24.24,0C54.91,107,54.51,107.12,54.75,106.88Zm-.24.24h.16C54.83,107.2,54.43,107.2,54.51,107.12Zm-1.28.8c0-.08.08-.08.16-.08S53.15,108,53.23,107.92Zm-.56.48c.16-.08.16-.08.08.08C52.51,108.72,52.43,108.4,52.67,108.4Zm3.76-1.28c-.48.16-1.76,1.12-2,1.12-.08-.08-.64.56-.72.56a4.35,4.35,0,0,0-.64.32c-.88.72-.8.16-.16-.16C53.07,108.88,58,105.92,56.43,107.12Zm.64-.48c-.08.08-.24.16-.16,0S57.23,106.4,57.07,106.64ZM58,105.2c-.08.08-.48.08-.48.08S58,105.12,58,105.2Zm1.68-.72c-.16,0-.24,0-.24.08.08.24-.48.16-.56.24s-.16.16-.16,0,.8-.48,1-.32Zm.24-.08s-.16-.24,0-.24S60,104.32,59.87,104.4Zm1.52-.64c-.4.16-.24.48-.72.32-.16-.08-.16-.24.08-.24a.61.61,0,0,0,.32-.16C61.47,103.36,62,103.44,61.39,103.76Z"/><path d="M78.51,93.12A6.56,6.56,0,0,0,76.75,93a2.66,2.66,0,0,1,.24-.48c.4-.56-.16-1.2-.72-1.44a2.82,2.82,0,0,0-2.4-.08c-.32,0-.24.16-.56.16-.24-.24-1.12,1-1.28,1.2a25.14,25.14,0,0,0-3.44,5.6c-.64,1.6-1.44,2.88-1.84,4.24-1,2.72-2.24,6-2.24,8.8a20.92,20.92,0,0,0,.56,3,5.85,5.85,0,0,0,1.84,2.24c3.52.8,6.08-2.16,8-4.56a46.41,46.41,0,0,0,5.28-8.56C81.63,99.92,83.63,94.32,78.51,93.12ZM70.67,96c.08-.56.16.16,0,.24S70.59,96.32,70.67,96Zm-1.36,2.48c.08-.64.24-.64.48-1,0-.16.24-.4.32-.56s.08,0,.08.08-.64,1.12-.64,1.36S69.23,99,69.31,98.48Zm-2.88,5.84c0-.48.24-.4.16-.16S66.35,104.72,66.43,104.32Zm-.24.8c0,.08.08.16,0,.16Zm-.8,3.28a17.14,17.14,0,0,1,.64-2.72c.24.24-.64,2.72-.64,3.2Zm-.16.72c.08,0,0,.24,0,.08Zm.48,1.84c-.08.08-.08-.32,0-.24Zm.64-3.44c-.24,1-.64,2.72-.64,2.88s0,.08-.08.08c-.32.08-.32.8-.4,1.12,0-.4-.08-1.6.16-1.68.48-1.44.32-1.84,1.12-4.24.64-2.16,1.44-3.6,2.16-5.44.24-.24.16-1.28.56-1.36.16.24-.16.4-.08.72s-1,2.48-.88,2.4A37.72,37.72,0,0,0,66.35,107.52Zm5,4.48c-1.6,1.44-2.64,2.24-4.56,2.32a22.29,22.29,0,0,1,1.92-9.68c.4-1,.32-1.12.64-1.92a32.83,32.83,0,0,1,3.12-6c-.32,1.12-2.4,4.88-1.52,5,.32-.16,0,.32.24.24.64-.08.8-.08.8,0,.56.24.72,0,.72-.72,0-.88.88-2.08,1.52-3.36C75.71,95,75.55,95.28,76,95.12a8.47,8.47,0,0,1,2.48-.72c.56-.24,1,.56,1.12,1.36,0,.08,0,.16.08.16s-.08-1.12,0-1.2.24,0,.24.16c.16.56.4,3,0,3-.16,0-.08.16-.16.4a22.8,22.8,0,0,1-2.24,5.28c0,.16-.16.08-.16.24s-.24.08-.16.24.08.16,0,.08-.24.08-.24.24,0,.16-.08.16.08.16-.08.24-.32.24-.56.64A35,35,0,0,1,71.39,112Zm3.2-2.16c-.24.24-.8,1.12-1,1,0-.08.4-.64.48-.8a31.63,31.63,0,0,0,2.56-3.76c.32-1,.4-.72.64-1.28a8.07,8.07,0,0,0,.72-1.44c1.28-2.8,2.64-5.28,2.32-8-.4-.8.16-.56.24,0a.81.81,0,0,0,.08.24c.16,0-.08.48,0,.48s0,.4.08.56.08.16.08.24c-.16.16,0,.48-.16.56s-.08.16,0,.48c.08.48-.16.48-.24,1A34.51,34.51,0,0,1,74.59,109.84Zm6.56-11.12c0,.24-.24.8-.24,1.12s-.16.24-.24.48c0,.48-.24.64-.32,1.12a18.86,18.86,0,0,1-1,2.24c-.08.32-.4.64-.4,1s-.56.72-.56,1c-.32.72-1.12,1.76-1.44,2.48-.08.16-2.08,3.28-2,2.72a.25.25,0,0,1,.08-.16c.08,0,0-.48.16-.56s.4-.72.64-.88c.08,0,.24-.48.32-.48s.4-.4.16-.24c.56-1.2,1.44-2.24,2-3.44a11.17,11.17,0,0,1,.72-1.36c.08-.08,0-.24.08-.32s.24-.64.4-.8.08-.32.24-.4c.4-.24.16-.64.32-1,.08,0,.16-.16.16-.24a12.13,12.13,0,0,0,.8-4.8,3.22,3.22,0,0,1,.16,1.68C81.15,97.84,81.23,98.64,81.15,98.72Z"/><path d="M135.54,105.28s.09-.08,0-.08a.27.27,0,0,1,.09-.16c.15,0,.55-.8.55-1s-.08-.16-.24.08S135.22,105.28,135.54,105.28Zm-.4.72c.16-.08.08-.24.16-.4s.17-.16,0-.16S135.06,105.92,135.14,106Zm-36.48,9c.16.4.64-1,.48-1.12S98.59,114.8,98.66,115ZM116.5,101.6c0,.16-.23.08-.39.24s-.16.16,0,.16.16-.24.32-.24c0,0,.16-.08.16-.16C116.75,101.44,116.5,101.44,116.5,101.6ZM135.22,107c-.24.32-1.52,3-1.92,2.64-.08,0,1.44-3.2.56-2.32a17.12,17.12,0,0,1-3,4.16c-1.12,1.28-1.12,2.32-3.12,2.4-1.75-3-1.43-8.24-2.64-10.88-.48-.64-.72-1.36-1.2-1.92-1.91-1.68-5.11-1.92-6.88-.48.49,0,.81-.32,1.29-.48.63-.24,1-.24.39,0-4.64,1.76-8.39,5.84-11.75,9.12-1,.8-3.84,4.16-5,5.6-1.28,1.68-1.37,1.76-1.37,1.52,0-.4.41-1.28.57-2,1.11-3.68,2.4-8.24,3.43-12.16,1.13-4.4,2.41-9,1.77-13.68-.48-3-1-3.12-2.25-5a6.4,6.4,0,0,0-2.23-1.29,5.13,5.13,0,0,0-4.56.32c-3.76,2.24-6.16,5.68-8.72,9.52a63.19,63.19,0,0,0-8.88,21.84c-.24,1.28-2.16,11.28-.88,3.84.08-.72.72-3.84.16-2.48a48.81,48.81,0,0,0-1.44,9c-.08.08.08.48.48.88a3,3,0,0,1,.4,1.76,1.88,1.88,0,0,1,.8.4c1.52,1,1.28.64,3.2-3.36,1.76-4,3.52-7.76,4.72-10.8,2-4.64,3.52-8.64,5-13.28.4-1.36,3.44-9.2,1.92-9.76-.32-.08-.24-.24-.56-.24-.56.08-.08-.56,0-.72a30.65,30.65,0,0,1,3.12-3.52c1.52-1.2,5.2-3.6,5.84-1.12,1.52,2.56,1,5.6.8,9-.09.64.07.72-.09,1.12-.07.08-.16.16-.23,1a4.9,4.9,0,0,0-.16.56c-.09.08.07.24.07.08.25-.32.25.32.09.4s-.09,2.16.07,2a1.39,1.39,0,0,0,.16-.8c0-.24.25-.56.16-.88v-.4c0-.16,0-.16.09-.08.24.4-.09-1,.24-1.2.16-.08.23-.32.08-.32s-.16-.4,0-.48a.22.22,0,0,1,.15.08c.25-.24.25-1.44.48-1.68s.09-.24.16.08-.16.72,0,1-.16.72-.16,1.36c-.39,2.48-1.11,5.44-1.68,7.84-.55,1.68-1.19,3.84-1.59,5.6a20.3,20.3,0,0,0-1.12,3.6c-.4,2-1.13,3.92-1.52,6,.07.56-.8.32-.72.08s-.16-.64-.08-.88.08-.24,0-.24-.16-.24,0-.4c.64-.56-.16-.64.4-1.12.15-.16.15-.56,0-.56s0-.08.08-.08c.23-.16.16-.32.32-.56v-.24c-.09,0-.16-.56,0-.32s.07.16.07-.08c0-.08.16-.16.09-.32s.23-.08.23-.32a17.88,17.88,0,0,1,.57-2.08,2.94,2.94,0,0,1,.4-1.28c.16-.24.16-.64-.08-.72-.08,0-.08-.32.08-.48.32-.24-.16-.08.08-.24.08-.08,0-.4.16-.4,0,.08.08,0,.08-.16-.08-.72.32-.16.39-.56s.57-1.2.09-1.2c-.25,0,.88-.88.23-.64-.16.08-.16.08-.16-.08s.41,0,.41-.24c0-.08-.09-.08-.09-.08s-.23-.16-.07-.16,0-.24.23-.32.16-.24,0-.16-.16,0-.16-.16,0-.16.09,0,.23,0,.4-.72.48-1.12.64-1.12a7.4,7.4,0,0,0,.8-3.6c-1,.08-1.2,1.68-1.52,2.64-.32,1.2-.57,1.44-.8,2.4-.09.48-.48,1.44-.48,1.76s-.16.24-.16.64c-.65,2.32-1.52,5-2.24,8-.24,1.36-1,3.2-.41,4.4.17.16.41.72.57.88.08,0,.24.56.47.56s.16.32.32.48c.25.32,1.29.48,1.29.16l.32-.32c2-1.6,3.52-4.4,5-6.4a3,3,0,0,1,.65-1c.07-.08.55-1,.71-.88,0,0,.09,0,0-.08s.09-.08.16-.08.32-.32.16-.24-.23-.08-.07-.08.16-.16.16-.24v-.08a16.63,16.63,0,0,0,1.2-1.2c.07-.16.23-.32.32-.24a.34.34,0,0,0,.32-.32c-.09-.16,1-1.28,1.2-1.2a.29.29,0,0,0,.07-.16c0-.48.32.32-.07.32-.09,0-.16.08-.09.16s-.16.32-.32.32l-.07.08a3.49,3.49,0,0,1-1,1.12c-.09,0,0-.24-.16.08s-.57.88-.73.88-.07.08-.07.16c-.08.4-1.45,1.28-1,1.76,1.84-1.6,3.43-3.76,5.36-5.2,2.32-2.48,6.16-5.92,9.75-6.4,1.68.08,1.6,7.36,2.8,9.84a9.94,9.94,0,0,0,1.92,2.72,4.14,4.14,0,0,0,1.76,1.76c.08.32,2,.24,2.24.08.64-.32,1.21-.64,1.37-1a11.41,11.41,0,0,0,1.75-2.56c.16-.48,1.12-2.08,1.2-2.56-.08.08,1-2.56,1-2.88C136,105.68,135.63,105.84,135.22,107ZM79.07,120.24c-.08.24,0,.56-.08.72a3.18,3.18,0,0,1,0-1.28,6.86,6.86,0,0,0,.24-1c.08-.72.24-1.28.24-.88A18.05,18.05,0,0,1,79.07,120.24Zm1.2,5.36c-.24.48-.16-.24,0-.4C80.51,124.64,80.43,125.36,80.27,125.6Zm0-1.28c-.8,2.08-.08-2.08,0-2.4a10.39,10.39,0,0,1,.72-3.2c.16-.24.08.48-.08.64a4.06,4.06,0,0,0-.16.72c.08.08-.32,1.6-.4,2.4.08.48-.24.8,0,1.12.16-.16.24-.72.4-.88.16-.4.08-.64.24-.88.56-.88,1.12-2.8,1.68-3.6.16,0,.08-.56.24-.56.16-.24-.08-.64.24-.88a2.71,2.71,0,0,0,.72-1.44c-.08-.16-.08-.16.08-.08s.16,0,.16-.16a1.22,1.22,0,0,1,.32-.8.29.29,0,0,0,.08-.24c0-.16.32-.4.24-.64.08-.48.32-.16.32-.64-.08-.32.16-.32.16-.64,0-.16.16-.16.16-.4,0-.08,0-.16.08-.16.16.16.08.64-.8,2.64-.24.64-.48,1.2-.48,1.28a9.24,9.24,0,0,1-1.2,2.56C82.75,118.8,81.23,122.48,80.27,124.32Zm5.2-14.4c.16,0-.33.32-.08.64a.25.25,0,0,1,.08.16c-.08.16.16.32.32.24s.16-.08,0,.32-.16.48-.32.24-.48-.16-.4,0-.24.08-.32,0v.08c.08.24-.08.32-.16.16a.08.08,0,0,0-.08-.08c-.08.16.24.24.16.56s-.16.24-.08-.08-.24-.4-.4,0c-.32.72-.32.72-.16.8h0c-.48,0,.24.32.08.4s-.16.56-.24.24a.17.17,0,0,0-.16-.16c-.32,0,.08.24,0,.4s-.24-.32-.16,0a.28.28,0,0,1-.08.16c-.08,0-.24.48-.17.56s-.39.32-.15.4.15.08,0,.08-.32.64-.4.8c-.32.24-.48.88-.64,1s-.08.08,0,.24,0,.24-.08.08-.24.24-.24,0c0-.08,0-.16.08-.16a27.76,27.76,0,0,0,1.52-3.44,30,30,0,0,1,1.36-3.12c.24-.48.39-1.12.64-1.6.08-.16.08-.16,0,.16C85.3,109.76,85.3,109.92,85.47,109.92Zm.48-2.4c.32-.72,0,.4-.08.48S85.79,107.84,86,107.52ZM81.79,117.6c-.16.08-.16.48-.32.48s-.17-.16,0-.24.08-.4.24-.48S81.87,117.52,81.79,117.6Zm.16,4.32c-.4.72-.24,1.76-1,2.16-.08,0-.08-.16,0-.16.16-.24.08-.48.31-.88C81.47,122.8,82.19,121,82,121.92Zm2-3.44c0,.16-.08-.24,0-.16S84,118.4,84,118.48Zm.56-1a.08.08,0,0,1-.08-.08C84.43,117.12,84.59,117.28,84.51,117.44Zm1.2-4c-.32.48-.32,1-.57,1.36-.07,0,0,.24-.15.24-.16.16-.08.48-.24.72s-.16.88-.4,1.2a7,7,0,0,0-.8,1.76c-.08.48-.56.72-.64,1.12,0,.24-.24.24-.24.72-.16.48-.24.32-.4.8-.16.32-.16.32-.16.16a1.38,1.38,0,0,1,.24-.8c.4-1,.32-.64.48-1.12.08-.08.08-.16.16-.16s.08-.08.08-.16a17.88,17.88,0,0,1,1.2-2.72,20.47,20.47,0,0,1,1-2.56c.07,0,.16-.32.32-.64.08-.48.32-.56.32-.88,0-.08,0-.16.08-.08S86,112.64,85.71,113.44Zm.8-1.68c-.08.24-.4.64-.4.56-.16-.32.24-.72.24-1S86.59,111.36,86.51,111.76Zm0-2.4c.47-1.44.88-2.32,1.44-3.84.32-.64.24-1,.48-1.2.08,0,.08,0,0-.16-.24-.08.48-.72.39-.8.16-.24.41-.08.09.4-.32,1-.8,2.24-1.12,3.12a9.46,9.46,0,0,1-.72,1.84C86.67,109.6,86.19,110.08,86.51,109.36Zm.08-3.12v.16C86.51,106.56,86.51,106.16,86.59,106.24Zm.24-.4c0,.08-.16.08-.16,0s.4-.56.4-.56S86.83,105.76,86.83,105.84Zm.72-1.52c.08.08.08.16,0,.16s-.16,0-.16.08c-.16.32-.16-.32.08-.64.16-.16.16-.24.24-.08S87.47,104.08,87.55,104.32ZM89,101.68c.25.16.25.32.16.4s-.47,1.2-.55.8c-.08-.08,0-.08,0-.08s.64-1,.23-1c-.15-.08-.23,0-.47.56-.4,1-.56,1.36-.56,1.2a7.8,7.8,0,0,1,.64-1.76c.16-.16.32-1.44.48-1C88.82,101.2,88.59,101.2,89,101.68Zm-2.31,9.44h-.16C86.35,110.88,86.83,110.88,86.67,111.12Zm.16-.72v-.16C87,110.08,87,110.72,86.83,110.4Zm.72-1c-.25.08-.64,1-.57.64-.07-.08,0-.32.16-.48a6,6,0,0,1,.81-1.6C88.11,107.92,87.79,109,87.55,109.36Zm.56-1.92c-.16.24-.16.24-.08-.08C88.11,106.88,88.43,107.2,88.11,107.44Zm1.19-2.72c-.07.24-.16,1-.39,1s-.16.08-.24.16c-.16.32.08-.24.08-.32,0-.24.16-.24.16-.48S89.55,104.16,89.3,104.72Zm-.07-5c-.09.24-.25.72-.41.8.16-.24.32-1.12.48-1.28C89.39,99.28,89.39,99.2,89.23,99.76Zm.16-.56c0-.08-.09-.4.08-.4S89.47,99.2,89.39,99.2Zm.16,1.12c-.08.16-.08-.24-.08-.16A.25.25,0,0,1,89.55,100.32Zm-1.68,0c-.08.32-.16.88-.48.72-.48-.32-.41.56-.64,1-.4,1-.56,1.36-.48,1.52a26.17,26.17,0,0,0-1.2,4,9,9,0,0,1-.88,3c-1,2-2.16,5.28-3.12,7.28-.24-.16.4-2,.48-2.56.32-1.84,1-4.64,1.52-6.56.08-.72.8-2,.72-2.64-.08-.4.8-1.28.48-1.52,0-.16-.08-.16,0-.24s0-.4.16-.4c.32-.24.48-.24.71-.72A53.18,53.18,0,0,1,88,97.12c.72-1.44,1.76-3,2.8-4.88.55-.64-.24,1.44-.32,1.76C89.87,95.6,88.11,99.6,87.87,100.32Zm-6.48,13.12c.08-.4.08.24,0,.32S81.3,113.76,81.39,113.44Zm.16-.8c0,.08.08.16,0,.24S81.47,112.48,81.55,112.64Zm.24-.88c.32-1,0,.56-.08.64S81.63,112.16,81.79,111.76Zm.32-1.28c.24-.4.16.32,0,.32S82,110.64,82.11,110.48Zm8.55-10.16a.29.29,0,0,1-.07.16C90.43,100.4,90.66,99.92,90.66,100.32Zm.25-.72c-.32.48-.09-.48.07-.56A1.54,1.54,0,0,1,90.91,99.6ZM91.3,91c-.07.08-.07-.24,0-.16S91.39,91,91.3,91Zm.41-.56c-.08.4-.41.08-.16-.08.08-.08.16-.08.08-.16C91.63,90,91.87,90.08,91.71,90.48ZM92,90c-.16,0-.16-.16,0-.16S92,90,92,90Zm.8-.8c-.16,0-.09.24-.32.4-.24.4-.32.08-.16,0s.08-.72.16-.72h.23C92.82,88.72,92.82,89.12,92.75,89.2Zm.64-.8c-.09.08-.16.16-.25.16S93.63,87.92,93.39,88.4Zm.4-.56c-.08,0-.08-.08,0-.16S93.87,87.84,93.79,87.84ZM94,87.6c-.16.08-.08-.16,0-.16S94.11,87.6,94,87.6Zm2.47-2.32c-.07,0-.07,0-.07-.08S96.66,85.12,96.5,85.28ZM97,83.76a21.52,21.52,0,0,0-5.43,5.68,43.66,43.66,0,0,0-4.88,7.84c-.48,1-1,1.6-1.37,2.56-.39,1.2-1.75,3.6-2.15,5,.08.08-.16.56-.32.56a.83.83,0,0,0-.08.32c-.08,1-.72,2.32-1,3.52-.4,1.36-.49,2-1,3.28-.24,1.12-.48,2-.8,3.36a3.45,3.45,0,0,1-.32,1.12c-.08.32-.16.32-.16.08a18.68,18.68,0,0,1,.32-2.08c.48-2.32.72-3,1.28-5.2.15-.48.32-2.08.56-1.92s.16.08.08-.08c-.16-.48.32-1.12.4-1.6-.08-.16.16-.08.08-.32s0-.16.08-.16c.24-.24.16-.8.48-1.36.4-1,.56-1.44.88-2.24a.28.28,0,0,0,.08-.16c.08-.24.4-.48.4-.72s.16-.32.4-1c.88-2,1.2-2.32,1.92-3.76a18.3,18.3,0,0,1,1.92-3.44c2.48-3.84,4.8-7.36,9-9.92C98.34,82.72,98.11,83,97,83.76Zm1.52.16c-.16.16-.23.16-.23,0S98.82,83.6,98.5,83.92Zm1-.48c-.08,0-.08,0-.08-.08S99.71,83.44,99.47,83.44Zm4.39,9.44a1.83,1.83,0,0,1-.07.4c-.08-.08.07-.48,0-.56C103.79,92.4,104,92.56,103.86,92.88Zm-1.84,8.4c.25-.08,0,.24-.07.08A.07.07,0,0,1,102,101.28ZM100.18,107c.25-.08.16.24,0,.24S100.11,107.12,100.18,107Zm-.55,2.32c.08,0,.08.08,0,.16S99.55,109.28,99.63,109.36Zm3-5.2a64.37,64.37,0,0,0,1.84-8,14.76,14.76,0,0,1-.79,5c-.32,1.44-.57,1.84-.64,2.4a2.74,2.74,0,0,1-.25.8C102.66,104.56,102.5,104.4,102.66,104.16Zm-3.43,13.2a.75.75,0,0,0-.09.24c-.07.32-.07-.4,0-.48C99.3,116.56,99.3,117.28,99.23,117.36Zm1-3.52c.09.16-.23.08-.15.24s0,.24.08.24.23.24.07.16-.55.48-.23.4c.08-.08.08,0,.08.08v.16c-.08,0-.4.8-.48.72-.25,0,.32-1.36.32-1.68.31-.88.63-2.72,1-3.12.23,0-.09-.24,0-.32a14.93,14.93,0,0,1,.64-2.32,15.39,15.39,0,0,1,1-3.36,3.13,3.13,0,0,1-.07.72,27.91,27.91,0,0,0-.56,3c-.16.24-.16.64-.32.56,0-.08-.08,0,0,.08s-.25.48-.25.64-.16.24-.07.56c-.09.64-.32.56-.25,1.36a2.37,2.37,0,0,1-.16,1.12c-.07.32-.39,0-.07-.16.07-.16.07-.56,0-.48s-.32.48-.25.56S100.11,113.76,100.18,113.84Zm17.52-13c.16-.08,0,.16-.07.16S117.54,100.88,117.7,100.8Zm-8.07,7.12c-1.45,1.36-3.29,3.44-3.93,4.16-.72,1-1.11,1.36-1.84,2.32-.47.48-.56-.08-.15-.48.15-.32.4-.64.47-.88a19.35,19.35,0,0,1,2.09-2.56,4,4,0,0,0,.8-1c1.84-2.16,6.56-6.72,9.27-8,.64-.48,1.13-.56.57-.16-.32.16.07.16.07.08a.08.08,0,0,1,.08-.08c.08,0,.41-.24.24-.32h.08c.64,0,2.41-.8,3.05-.64C116.43,101.44,112.59,105,109.63,107.92Zm1,.4a.16.16,0,0,1-.16-.16C110.43,107.76,110.91,108.24,110.59,108.32ZM121,101a5.17,5.17,0,0,1-1.35.64c-.49.16-.49.32-.81.32-.07,0-.16.08-.23.16s-.41.08-.64.32c-.41.24-.41.16-.73.48s-.63.24-1.11.72a6.44,6.44,0,0,0-1.52,1.2c-.41.4-1.37.88-2.09,1.6-.71.88-.87.56-1.43,1.36a1.55,1.55,0,0,1-.16.24c-.16.08-.48-.16-.32-.24a.07.07,0,0,1,.07.08c0,.16.16,0,.16-.16s.25-.24.32-.4h0c.09,0,.4-.24.4-.4-.07,0,0-.08,0-.08,1.21-.88,2.64-2.24,3.76-3a3.74,3.74,0,0,1,1.13-.72c.07.08.07.08.07-.08-.16-.16.41-.16.48-.24s.81-.4.81-.56C118.27,101.92,121.22,100.56,121,101Z"/><path d="M185,105.28s.08-.08,0-.08a.28.28,0,0,1,.08-.16c.16,0,.56-.8.56-1s-.08-.16-.24.08S184.66,105.28,185,105.28Zm-.4.72c.16-.08.08-.24.16-.4s.16-.16,0-.16S184.5,105.92,184.58,106Zm-36.48,9c.16.4.64-1,.48-1.12S148,114.8,148.1,115Zm17.84-13.36c0,.16-.24.08-.4.24s-.16.16,0,.16.16-.24.32-.24c0,0,.16-.08.16-.16C166.18,101.44,165.94,101.44,165.94,101.6ZM184.66,107c-.24.32-1.52,3-1.92,2.64-.08,0,1.44-3.2.56-2.32a17.39,17.39,0,0,1-3,4.16c-1.12,1.28-1.12,2.32-3.12,2.4-1.76-3-1.44-8.24-2.64-10.88-.48-.64-.72-1.36-1.2-1.92-1.92-1.68-5.12-1.92-6.88-.48.48,0,.8-.32,1.28-.48.64-.24,1-.24.4,0-4.64,1.76-8.4,5.84-11.76,9.12-1,.8-3.84,4.16-5,5.6-1.28,1.68-1.36,1.76-1.36,1.52,0-.4.4-1.28.56-2,1.12-3.68,2.4-8.24,3.44-12.16,1.12-4.4,2.4-9,1.76-13.68-.48-3-1-3.12-2.24-5a6.45,6.45,0,0,0-2.24-1.29,5.13,5.13,0,0,0-4.56.32c-3.76,2.24-6.16,5.68-8.72,9.52a63.19,63.19,0,0,0-8.88,21.84c-.24,1.28-2.16,11.28-.88,3.84.08-.72.72-3.84.16-2.48a48.81,48.81,0,0,0-1.44,9c-.08.08.08.48.48.88a3,3,0,0,1,.4,1.76,1.88,1.88,0,0,1,.8.4c1.52,1,1.28.64,3.2-3.36,1.76-4,3.52-7.76,4.72-10.8,2-4.64,3.52-8.64,5-13.28.4-1.36,3.44-9.2,1.92-9.76-.32-.08-.24-.24-.56-.24-.56.08-.08-.56,0-.72A30.65,30.65,0,0,1,146,85.6c1.52-1.2,5.2-3.6,5.84-1.12,1.52,2.56,1,5.6.8,9-.08.64.08.72-.08,1.12-.08.08-.16.16-.24,1-.08.32-.16.48-.16.56s.08.24.08.08c.24-.32.24.32.08.4s-.08,2.16.08,2a1.48,1.48,0,0,0,.16-.8c0-.24.24-.56.16-.88v-.4c0-.16,0-.16.08-.08.24.4-.08-1,.24-1.2.16-.08.24-.32.08-.32s-.16-.4,0-.48a.25.25,0,0,1,.16.08c.24-.24.24-1.44.48-1.68.08-.24.08-.24.16.08s-.16.72,0,1-.16.72-.16,1.36c-.4,2.48-1.12,5.44-1.68,7.84-.56,1.68-1.2,3.84-1.6,5.6a21.16,21.16,0,0,0-1.12,3.6c-.4,2-1.12,3.92-1.52,6,.08.56-.8.32-.72.08s-.16-.64-.08-.88.08-.24,0-.24-.16-.24,0-.4c.64-.56-.16-.64.4-1.12.16-.16.16-.56,0-.56s0-.08.08-.08c.24-.16.16-.32.32-.56v-.24c-.08,0-.16-.56,0-.32s.08.16.08-.08c0-.08.16-.16.08-.32s.24-.08.24-.32a20,20,0,0,1,.56-2.08,2.94,2.94,0,0,1,.4-1.28c.16-.24.16-.64-.08-.72-.08,0-.08-.32.08-.48.32-.24-.16-.08.08-.24.08-.08,0-.4.16-.4,0,.08.08,0,.08-.16-.08-.72.32-.16.4-.56s.56-1.2.08-1.2c-.24,0,.88-.88.24-.64-.16.08-.16.08-.16-.08s.4,0,.4-.24a.08.08,0,0,0-.08-.08c-.08.08-.24-.16-.08-.16s0-.24.24-.32.16-.24,0-.16-.16,0-.16-.16,0-.16.08,0,.24,0,.4-.72.48-1.12.64-1.12a7.18,7.18,0,0,0,.8-3.6c-1,.08-1.2,1.68-1.52,2.64-.32,1.2-.56,1.44-.8,2.4-.08.48-.48,1.44-.48,1.76s-.16.24-.16.64c-.64,2.32-1.52,5-2.24,8-.24,1.36-1,3.2-.4,4.4.16.16.4.72.56.88.08,0,.24.56.48.56s.16.32.32.48c.24.32,1.28.48,1.28.16l.32-.32c2-1.6,3.52-4.4,5-6.4a2.82,2.82,0,0,1,.64-1c.08-.08.56-1,.72-.88,0,0,.08,0,0-.08s.08-.08.16-.08.32-.32.16-.24-.24-.08-.08-.08.16-.16.16-.24v-.08a14.6,14.6,0,0,0,1.2-1.2c.08-.16.24-.32.32-.24a.34.34,0,0,0,.32-.32c-.08-.16,1-1.28,1.2-1.2a.28.28,0,0,0,.08-.16c0-.48.32.32-.08.32-.08,0-.16.08-.08.16s-.16.32-.32.32l-.08.08a3.49,3.49,0,0,1-1,1.12c-.08,0,0-.24-.16.08s-.56.88-.72.88-.08.08-.08.16c-.08.4-1.44,1.28-1,1.76,1.84-1.6,3.44-3.76,5.36-5.2,2.32-2.48,6.16-5.92,9.76-6.4,1.68.08,1.6,7.36,2.8,9.84a9.94,9.94,0,0,0,1.92,2.72,4.14,4.14,0,0,0,1.76,1.76c.08.32,2,.24,2.24.08.64-.32,1.2-.64,1.36-1a11.2,11.2,0,0,0,1.76-2.56c.16-.48,1.12-2.08,1.2-2.56-.08.08,1-2.56,1-2.88C185.46,105.68,185.06,105.84,184.66,107ZM128.5,120.24c-.08.24,0,.56-.08.72a3.18,3.18,0,0,1,0-1.28,6.86,6.86,0,0,0,.24-1c.08-.72.24-1.28.24-.88A18.05,18.05,0,0,1,128.5,120.24Zm1.2,5.36c-.24.48-.16-.24,0-.4C129.94,124.64,129.86,125.36,129.7,125.6Zm0-1.28c-.8,2.08-.08-2.08,0-2.4a10.39,10.39,0,0,1,.72-3.2c.16-.24.08.48-.08.64a4.06,4.06,0,0,0-.16.72c.08.08-.32,1.6-.4,2.4.08.48-.24.8,0,1.12.16-.16.24-.72.4-.88.16-.4.08-.64.24-.88.56-.88,1.12-2.8,1.68-3.6.16,0,.08-.56.24-.56.16-.24-.08-.64.24-.88a2.71,2.71,0,0,0,.72-1.44c-.08-.16-.08-.16.08-.08s.16,0,.16-.16a1.22,1.22,0,0,1,.32-.8.29.29,0,0,0,.08-.24c0-.16.32-.4.24-.64.08-.48.32-.16.32-.64-.08-.32.16-.32.16-.64,0-.16.16-.16.16-.4,0-.08,0-.16.08-.16.16.16.08.64-.8,2.64-.24.64-.48,1.2-.48,1.28a9.24,9.24,0,0,1-1.2,2.56C132.18,118.8,130.66,122.48,129.7,124.32Zm5.2-14.4c.16,0-.32.32-.08.64a.25.25,0,0,1,.08.16c-.08.16.16.32.32.24s.16-.08,0,.32-.16.48-.32.24-.48-.16-.4,0-.24.08-.32,0v.08c.08.24-.08.32-.16.16a.08.08,0,0,0-.08-.08c-.08.16.24.24.16.56s-.16.24-.08-.08-.24-.4-.4,0c-.32.72-.32.72-.16.8h0c-.48,0,.24.32.08.4s-.16.56-.24.24a.17.17,0,0,0-.16-.16c-.32,0,.08.24,0,.4s-.24-.32-.16,0a.28.28,0,0,1-.08.16c-.08,0-.24.48-.16.56s-.4.32-.16.4.16.08,0,.08-.32.64-.4.8c-.32.24-.48.88-.64,1s-.08.08,0,.24,0,.24-.08.08-.24.24-.24,0c0-.08,0-.16.08-.16a27.76,27.76,0,0,0,1.52-3.44,30,30,0,0,1,1.36-3.12c.24-.48.4-1.12.64-1.6.08-.16.08-.16,0,.16C134.74,109.76,134.74,109.92,134.9,109.92Zm.48-2.4c.32-.72,0,.4-.08.48S135.22,107.84,135.38,107.52Zm-4.16,10.08c-.16.08-.16.48-.32.48s-.16-.16,0-.24.08-.4.24-.48S131.3,117.52,131.22,117.6Zm.16,4.32c-.4.72-.24,1.76-1,2.16-.08,0-.08-.16,0-.16.16-.24.08-.48.32-.88C130.9,122.8,131.62,121,131.38,121.92Zm2-3.44c0,.16-.08-.24,0-.16S133.46,118.4,133.38,118.48Zm.56-1a.08.08,0,0,1-.08-.08C133.86,117.12,134,117.28,133.94,117.44Zm1.2-4c-.32.48-.32,1-.56,1.36-.08,0,0,.24-.16.24-.16.16-.08.48-.24.72s-.16.88-.4,1.2a7,7,0,0,0-.8,1.76c-.08.48-.56.72-.64,1.12,0,.24-.24.24-.24.72-.16.48-.24.32-.4.8-.16.32-.16.32-.16.16a1.38,1.38,0,0,1,.24-.8c.4-1,.32-.64.48-1.12.08-.08.08-.16.16-.16s.08-.08.08-.16a18.94,18.94,0,0,1,1.2-2.72,20.47,20.47,0,0,1,1-2.56c.08,0,.16-.32.32-.64.08-.48.32-.56.32-.88,0-.08,0-.16.08-.08S135.46,112.64,135.14,113.44Zm.8-1.68c-.08.24-.4.64-.4.56-.16-.32.24-.72.24-1S136,111.36,135.94,111.76Zm0-2.4c.48-1.44.88-2.32,1.44-3.84.32-.64.24-1,.48-1.2.08,0,.08,0,0-.16-.24-.08.48-.72.4-.8.16-.24.4-.08.08.4-.32,1-.8,2.24-1.12,3.12a9.46,9.46,0,0,1-.72,1.84C136.1,109.6,135.62,110.08,135.94,109.36Zm.08-3.12v.16C135.94,106.56,135.94,106.16,136,106.24Zm.24-.4c0,.08-.16.08-.16,0s.4-.56.4-.56S136.26,105.76,136.26,105.84Zm.72-1.52c.08.08.08.16,0,.16s-.16,0-.16.08c-.16.32-.16-.32.08-.64.16-.16.16-.24.24-.08S136.9,104.08,137,104.32Zm1.44-2.64c.24.16.24.32.16.4s-.48,1.2-.56.8c-.08-.08,0-.08,0-.08s.64-1,.24-1c-.16-.08-.24,0-.48.56-.4,1-.56,1.36-.56,1.2a7.8,7.8,0,0,1,.64-1.76c.16-.16.32-1.44.48-1C138.26,101.2,138,101.2,138.42,101.68Zm-2.32,9.44h-.16C135.78,110.88,136.26,110.88,136.1,111.12Zm.16-.72v-.16C136.42,110.08,136.42,110.72,136.26,110.4Zm.72-1c-.24.08-.64,1-.56.64-.08-.08,0-.32.16-.48.16-.32.48-1.36.8-1.6C137.54,107.92,137.22,109,137,109.36Zm.56-1.92c-.16.24-.16.24-.08-.08C137.54,106.88,137.86,107.2,137.54,107.44Zm1.2-2.72c-.08.24-.16,1-.4,1-.08,0-.16.08-.24.16-.16.32.08-.24.08-.32,0-.24.16-.24.16-.48S139,104.16,138.74,104.72Zm-.08-5c-.08.24-.24.72-.4.8.16-.24.32-1.12.48-1.28C138.82,99.28,138.82,99.2,138.66,99.76Zm.16-.56c0-.08-.08-.4.08-.4S138.9,99.2,138.82,99.2Zm.16,1.12c-.08.16-.08-.24-.08-.16A.25.25,0,0,1,139,100.32Zm-1.68,0c-.08.32-.16.88-.48.72-.48-.32-.4.56-.64,1-.4,1-.56,1.36-.48,1.52a26.17,26.17,0,0,0-1.2,4,9,9,0,0,1-.88,3c-1,2-2.16,5.28-3.12,7.28-.24-.16.4-2,.48-2.56.32-1.84,1-4.64,1.52-6.56.08-.72.8-2,.72-2.64-.08-.4.8-1.28.48-1.52,0-.16-.08-.16,0-.24s0-.4.16-.4c.32-.24.48-.24.72-.72a51.43,51.43,0,0,1,2.8-6.08c.72-1.44,1.76-3,2.8-4.88.56-.64-.24,1.44-.32,1.76C139.3,95.6,137.54,99.6,137.3,100.32Zm-6.48,13.12c.08-.4.08.24,0,.32S130.74,113.76,130.82,113.44Zm.16-.8c0,.08.08.16,0,.24S130.9,112.48,131,112.64Zm.24-.88c.32-1,0,.56-.08.64S131.06,112.16,131.22,111.76Zm.32-1.28c.24-.4.16.32,0,.32S131.46,110.64,131.54,110.48Zm8.56-10.16a.28.28,0,0,1-.08.16C139.86,100.4,140.1,99.92,140.1,100.32Zm.24-.72c-.32.48-.08-.48.08-.56A1.36,1.36,0,0,1,140.34,99.6Zm.4-8.56c-.08.08-.08-.24,0-.16S140.82,91,140.74,91Zm.4-.56c-.08.4-.4.08-.16-.08.08-.08.16-.08.08-.16C141.06,90,141.3,90.08,141.14,90.48Zm.24-.48c-.16,0-.16-.16,0-.16S141.46,90,141.38,90Zm.8-.8c-.16,0-.08.24-.32.4-.24.4-.32.08-.16,0s.08-.72.16-.72h.24C142.26,88.72,142.26,89.12,142.18,89.2Zm.64-.8c-.08.08-.16.16-.24.16S143.06,87.92,142.82,88.4Zm.4-.56c-.08,0-.08-.08,0-.16S143.3,87.84,143.22,87.84Zm.24-.24c-.16.08-.08-.16,0-.16S143.54,87.6,143.46,87.6Zm2.48-2.32c-.08,0-.08,0-.08-.08S146.1,85.12,145.94,85.28Zm.48-1.52A21.56,21.56,0,0,0,141,89.44a43.66,43.66,0,0,0-4.88,7.84c-.48,1-1,1.6-1.36,2.56-.4,1.2-1.76,3.6-2.16,5,.08.08-.16.56-.32.56a.83.83,0,0,0-.08.32c-.08,1-.72,2.32-1,3.52-.4,1.36-.48,2-1,3.28-.24,1.12-.48,2-.8,3.36a3.45,3.45,0,0,1-.32,1.12c-.08.32-.16.32-.16.08a18.68,18.68,0,0,1,.32-2.08c.48-2.32.72-3,1.28-5.2.16-.48.32-2.08.56-1.92s.16.08.08-.08c-.16-.48.32-1.12.4-1.6-.08-.16.16-.08.08-.32s0-.16.08-.16c.24-.24.16-.8.48-1.36.4-1,.56-1.44.88-2.24a.28.28,0,0,0,.08-.16c.08-.24.4-.48.4-.72s.16-.32.4-1c.88-2,1.2-2.32,1.92-3.76a19.52,19.52,0,0,1,1.92-3.44c2.48-3.84,4.8-7.36,9-9.92C147.78,82.72,147.54,83,146.42,83.76Zm1.52.16q-.24.24-.24,0C147.62,83.84,148.26,83.6,147.94,83.92Zm1-.48c-.08,0-.08,0-.08-.08S149.14,83.44,148.9,83.44Zm4.4,9.44a1.63,1.63,0,0,1-.08.4c-.08-.08.08-.48,0-.56C153.22,92.4,153.38,92.56,153.3,92.88Zm-1.84,8.4c.24-.08,0,.24-.08.08A.08.08,0,0,1,151.46,101.28ZM149.62,107c.24-.08.16.24,0,.24S149.54,107.12,149.62,107Zm-.56,2.32c.08,0,.08.08,0,.16S149,109.28,149.06,109.36Zm3-5.2a68.17,68.17,0,0,0,1.84-8,14.54,14.54,0,0,1-.8,5c-.32,1.44-.56,1.84-.64,2.4a3,3,0,0,1-.24.8C152.1,104.56,151.94,104.4,152.1,104.16Zm-3.44,13.2a.81.81,0,0,0-.08.24c-.08.32-.08-.4,0-.48C148.74,116.56,148.74,117.28,148.66,117.36Zm1-3.52c.08.16-.24.08-.16.24s0,.24.08.24.24.24.08.16-.56.48-.24.4c.08-.08.08,0,.08.08v.16c-.08,0-.4.8-.48.72-.24,0,.32-1.36.32-1.68.32-.88.64-2.72,1-3.12.24,0-.08-.24,0-.32a16.13,16.13,0,0,1,.64-2.32,14.86,14.86,0,0,1,1-3.36,2.76,2.76,0,0,1-.08.72,27.91,27.91,0,0,0-.56,3c-.16.24-.16.64-.32.56,0-.08-.08,0,0,.08s-.24.48-.24.64-.16.24-.08.56c-.08.64-.32.56-.24,1.36a2.37,2.37,0,0,1-.16,1.12c-.08.32-.4,0-.08-.16.08-.16.08-.56,0-.48s-.32.48-.24.56S149.54,113.76,149.62,113.84Zm17.52-13c.16-.08,0,.16-.08.16S167,100.88,167.14,100.8Zm-8.08,7.12c-1.44,1.36-3.28,3.44-3.92,4.16-.72,1-1.12,1.36-1.84,2.32-.48.48-.56-.08-.16-.48.16-.32.4-.64.48-.88a17.7,17.7,0,0,1,2.08-2.56,4,4,0,0,0,.8-1c1.84-2.16,6.56-6.72,9.28-8,.64-.48,1.12-.56.56-.16-.32.16.08.16.08.08a.08.08,0,0,1,.08-.08c.08,0,.4-.24.24-.32h.08c.64,0,2.4-.8,3-.64C165.86,101.44,162,105,159.06,107.92Zm1,.4a.17.17,0,0,1-.16-.16C159.86,107.76,160.34,108.24,160,108.32Zm10.4-7.36a5.31,5.31,0,0,1-1.36.64c-.48.16-.48.32-.8.32-.08,0-.16.08-.24.16s-.4.08-.64.32c-.4.24-.4.16-.72.48-.48.32-.64.24-1.12.72a6.65,6.65,0,0,0-1.52,1.2c-.4.4-1.36.88-2.08,1.6-.72.88-.88.56-1.44,1.36a1,1,0,0,1-.16.24c-.16.08-.48-.16-.32-.24a.08.08,0,0,1,.08.08c0,.16.16,0,.16-.16s.24-.24.32-.4h0c.08,0,.4-.24.4-.4-.08,0,0-.08,0-.08,1.2-.88,2.64-2.24,3.76-3a3.71,3.71,0,0,1,1.12-.72c.08.08.08.08.08-.08-.16-.16.4-.16.48-.24s.8-.4.8-.56C167.7,101.92,170.66,100.56,170.42,101Z"/><path d="M184.18,106.64s0-.08.16-.16.16-.16,0-.24c-.24-.24-.4.72-.24.72S184.34,106.72,184.18,106.64Zm33.19-6.16-3.43,3.44c-.08.08-.08.32-.41.48-.39.32-.71,1.28-1.12,1.2,0-.24-1.84,1.6-1.75,1.6.07.16-.41.64-.64.64s-.24.08-.24.16-.57.64-.57.72a.24.24,0,0,1-.16.08c-.07-.08-.55.64-.71.56s-.08.24-.24.24c-.57.16-1.21.72-.16-.32,1.43-1.28,2-1.92,2-2.08s.08-.4.56-.88.8-1,.55-1a16.77,16.77,0,0,1-1.27,1.28c-4,3.68-7.6,6.48-12.41,8.48-3,1.2-7,2.32-10.15.8-1.28-.48-1.2-2.24-1.36-3.36-.08-2.72,1-5,1.76-7.6.48.16,1.68.72,2.32,1,3.59.64,7.68-2.32,9.68-5.28,1.84-3.12,5.75-9.52,3.36-12.56a6.59,6.59,0,0,0-4.08-1.6c-.72.16-2,.32-2.8.56-.64.08-1,.32-2.48,1.76a33.29,33.29,0,0,0-5.2,6.64,42.09,42.09,0,0,0-4.64,10c-1.2,3.68-1.28,7.28.8,10.24.88,2.08,4,3.12,6.08,3.6a30.72,30.72,0,0,0,6-.72,44.26,44.26,0,0,0,7-3.2,27.21,27.21,0,0,0,4.56-3.36,6.63,6.63,0,0,1,1.28-1.12,30.27,30.27,0,0,0,3.84-4.08C217.37,102.56,219.3,99.52,217.37,100.48Zm-29.51.56c-.08,0-.17.16-.17.4-.07.56-.55.64-.63,1.28-.08.48-.08.48-.32.32s-.24-.4-.08-.4c.16-.48,1.28-2.8,1.52-3.36s.32-.24.56-.72a4.31,4.31,0,0,1,.72-1.28c.16-.08.4-.72.4-.24a14.63,14.63,0,0,1-1.12,2.24c0,.16-.8,1.44-.8,1.68A.08.08,0,0,1,187.86,101Zm13.35-7.76c-.23.08.09-.24.09-.08S201.3,93.28,201.21,93.28Zm.57-1.92c.08.08.08.16,0,.16C201.69,91.76,201.69,91.28,201.78,91.36Zm-.8.8a21.71,21.71,0,0,0,.48-3,4.33,4.33,0,0,1-.25,2.64C201.05,92.4,200.82,92.64,201,92.16Zm-.16,2s-.08.24-.16.56c-.32.64-.56,1-.48.48C200.26,94.88,200.74,94.08,200.82,94.16Zm-4-3.44c.55-.4,3.2-2.88,3.68-2,1.28,1.84-2.4,8.24-3.6,9.92-1.44,2.32-4,4.72-6.64,5.28-1,.16-2.64.32-2.08-.8C190.42,99,193,93.68,196.82,90.72Zm-5,1c.08-.08.08-.16.16-.16S191.78,92.16,191.78,91.76Zm-6.56,11.36c.08.08.08.08.08,0s.32-1.52.8-1.52c.08.08.08.08.08-.16s-.08-.24,0-.16.08,0,.08-.16a4.11,4.11,0,0,1,.4-1c.16-.16,0-.56.24-.64s0,.48,0,.56c.16-.16.56-.56.32-.56s.16-.48.16-.72.24-.4.31-.64.09-.16.09.08.08.32.16,0,.24-.16.32-.32-.24-.08-.32,0v-.16c.08-.32.24-.24.32-.56,0-.16.08-.32.16-.32s.56-.88.64-.88a.28.28,0,0,0,.08-.16c-.08-.4.72.08.39-.32s.09-.64,0-.24c-.07.08-.07.08.09,0,.32-.24-.24-.48.16-.72s.72-1.2,1.12-1.44c.08,0,.16,0,.08-.08-.08-.24.48-.88.71-.8s.73-.64.73-.4-.4.24-.4.48-.16.08-.16.24-.33.4-.33.56a.31.31,0,0,1-.23.08c-.16,0-.24.08-.16.24a20.23,20.23,0,0,1-1,1.76c-.08.4-.32,0-.24.32s-.56,1-.72.88-.32.16-.08.16.16.16-.08.4c-.4,1-1,1.84-1.6,3-.16.24-1.44,3.36-1.52,2.64-.16-.56-.16.48-.32.64C185.22,103.92,185,103.2,185.22,103.12Zm.48.4c.08.08-.4,1-.32.48C185.38,103.92,185.7,103.44,185.7,103.52Zm-2.16,5v-.24C183.62,108.48,183.46,109.12,183.54,108.48Zm0,3.12a6.14,6.14,0,0,1-.08-2.08c.16-.48.08.64.32-.8,0-.56,0-.72-.08-.72-.4.24.72-3.76,1.44-4.4.08,0,0,.72-.08.88s-.4-.16-.32.24-.16.08-.08.48c0,.08,0,.16-.08.16s-.16.08-.08.24.48-.32.48-.56l.16-.16c.16-.16.16,0-.16.8a40.24,40.24,0,0,0-1.28,5.2c-.08-.24-.08.24,0,.24S183.7,112.08,183.54,111.6Zm.8,1.36c-.08-.24-.08-.88,0-.88C184.58,112.08,184.5,113.28,184.34,113Zm1-5.92c-.08,0-.16.08-.16.32,0,.4-.16.4-.08.72s.08.8-.16.4c0-.24.08.56,0,.4s-.08.88-.24.72c-.08,0-.16.16,0,.32s0,.16-.08.32-.16.4-.24.88c0,.8-.16,1-.16.24a16.87,16.87,0,0,1,1.36-6.16c.48-.88.24-1.52.8-1.92.08,0,.16.16.16.24.08.4-.4.16-.32.4a16.21,16.21,0,0,1-.64,2.48C185.46,106.72,185.62,107.12,185.38,107Zm25.76,1-.32.32c-.09,0,0-.16.16-.32C211.37,107.68,211.46,107.68,211.14,108Zm.8-.72-.08.08C211.53,107.36,212,107.12,211.94,107.28Zm.47-.48c-.39.4-.47.32-.07,0S212.89,106.4,212.41,106.8ZM189.94,94.88c.16,0,.4-.4.32-.48S189.78,95,189.94,94.88Zm1.52-2.08c0-.08.07-.24.16-.24s.07-.24,0-.24S191.22,93.2,191.46,92.8Z"/><path d="M236.81,101.28a35.06,35.06,0,0,0-9.92,3.36c-.08.08-.56.16-.48-.08-.08-.48-3.83,1.44-5,2.24-.16.08-.32.24-.4.24-.15.4-.47-1.76-.56-1.92-.88-3.6-2.08-8.72-.4-12.32.88-2.32,4.4-5,6.56-5.12.48.08,1.36-.48,1.76,0,2.08,1.52,1-3-.88-3.6-3.12-1.28-5.84.8-8,3.28-2.88,3.52-2.79,9-1.76,13.6.4,2.16.81,3.6,1.36,5.84.08.64.24,1.2.24,1.28a.61.61,0,0,0,.16.32c.24.16,0,.56-.24.72a78.12,78.12,0,0,0-11.12,8.56c-.31.32-.63.24-.16-.24,3.28-4.08-3.6,3-4,3.76a16.09,16.09,0,0,0-2.41,4.24,6.91,6.91,0,0,0-.39,4.56c.71,3.52,4.48,5.2,8,4.8,5.27-.48,8.23-3,11.27-6.8,1.76-2.4,2.16-3.76,2.41-7.44a30.41,30.41,0,0,0-.89-8.8c0-.56-.56-1.6-.08-2.08.32-.32.32-.16.81-.64,2.15-1.84,6.07-3.6,8.23-4.8.24-.24,3.84-1.6,2.88-1.36-.16,0-.88.24-1.52.4-1.28.48-1.6.56-1.52.32s2.72-1.28,4.8-1.68a5.64,5.64,0,0,0,1.68-.56C237.45,101.2,237.21,101.12,236.81,101.28Zm-19.52,9.52c.16-.08.4-.16.16,0S217.06,111,217.29,110.8Zm-.8.64a.27.27,0,0,1,.16-.08C216.74,111.52,216.09,111.76,216.49,111.44Zm-1.91,1.36c.16,0-.09.24-.09.08A.08.08,0,0,1,214.58,112.8ZM204,122c.15,0,.07.08,0,.08S203.93,122,204,122Zm.72,11c-.81-.4.07-.16.32,0S205.45,133.36,204.74,133Zm2.32.64c-.32,0,0-.08.07,0Zm0-1.12c-.25,0,.07-.08.16,0Zm1.35,1.12c-.24,0-.8.16-1,0S209.54,133.52,208.41,133.6Zm-.08-1.84c-1.2.48-4.16-.24-5-.88-.32-.48.87.4,1.91.64a17.56,17.56,0,0,0,3,.08C208.9,131.52,208.9,131.6,208.33,131.76Zm12.41-12c-1.13,6.56-8.09,12.24-14.88,11.36-1.21-.24-3.53-1-3.28-2.24a10.88,10.88,0,0,1,1.75-3.76,91.05,91.05,0,0,1,6.08-6.8c.81-.64,2.08-2.32,2.65-2.64.39-.24.55-.48.39-.48a15.59,15.59,0,0,0-1.2,1c-.08,0-.16.16-1,.8-.25.16-.41.32-.41.4s-.4.64-.48.56a.29.29,0,0,0-.24.08c-.32.4-.39.32-.55.48a2.91,2.91,0,0,1-1.13.88,43.27,43.27,0,0,1,3.76-3.68,22.85,22.85,0,0,1,3.68-2.8c.8-.56,2.4-1.92,3.36-2.48.24-.08,1-.72,1.12-.48-.16.32-.48.4-.24.88C220.65,113.6,221.29,117.84,220.74,119.76Zm2.79-12.88c.08-.16.56-.24.24,0C223.69,107,223.29,107.12,223.53,106.88Zm-.24.24h.16C223.61,107.2,223.21,107.2,223.29,107.12Zm-1.28.8c0-.08.08-.08.16-.08S221.93,108,222,107.92Zm-.56.48c.16-.08.16-.08.08.08C221.29,108.72,221.21,108.4,221.45,108.4Zm3.76-1.28c-.47.16-1.76,1.12-2,1.12-.08-.08-.63.56-.72.56a4.35,4.35,0,0,0-.64.32c-.88.72-.8.16-.16-.16C221.85,108.88,226.81,105.92,225.21,107.12Zm.64-.48c-.08.08-.24.16-.16,0S226,106.4,225.85,106.64Zm.88-1.44c-.08.08-.48.08-.48.08S226.81,105.12,226.73,105.2Zm1.68-.72c-.16,0-.24,0-.24.08.08.24-.48.16-.56.24s-.16.16-.16,0,.8-.48,1-.32Zm.24-.08s-.16-.24,0-.24S228.73,104.32,228.65,104.4Zm1.52-.64c-.4.16-.24.48-.72.32-.16-.08-.16-.24.08-.24a.61.61,0,0,0,.32-.16C230.25,103.36,230.81,103.44,230.17,103.76Z"/><path d="M191.62,158.79c-.1,0-.16.11-.26.43-.27.69-.22,1.07-.54,1.92-.1,0-.26.16-.32.42s-.21.38-.32.64a16,16,0,0,0-1.33,2.19,21.42,21.42,0,0,0,1.55-2.29c-.54,1.6.85-1.49.9-1.81s.22-.38.27-.81C191.52,159.27,191.68,159,191.62,158.79Zm-1.12,3.15v-.06a1,1,0,0,1,.11-.26C190.56,161.72,190.56,161.83,190.5,161.94Zm-2.88,4a16.32,16.32,0,0,1-1.54,1.7c-.22.27-.38.38-.43.32s.48-.64.27-.58-.59.74-.91.85c.21-.59,1.28-1.49,1.71-2.24a13.21,13.21,0,0,0,.74-1.28,40.05,40.05,0,0,0,3.52-5c0-.06-.21.21-.32.37-.16.38-.48.59-.58.8a42.67,42.67,0,0,1-3,4.06c-1.76,2.29-2.67,3.78-4.64,4.74,0,.11-.85.27-1.07.21-.53-2.18.27-5.06.48-6.93s.54-3.52.7-5.22a8.53,8.53,0,0,0,.05-2.3c-.1-.21,0-.48-.16-.64a2.5,2.5,0,0,1-.16-.64,2.13,2.13,0,0,0-1.55-1.92,1.8,1.8,0,0,1-.37-.11c-.21-.16-.27-.16-.75-.16-2.24,0-3.78,2.35-5.27,3.84.05-.69.74-2.23.53-2.77-.16-.1,0-.58,0-.69s-.32-.59-.59-.54-.32,0-.32-.1-.64-.32-.75-.22c-.64.06-.69.48-1,1-.54,1-1.44,2.82-1.81,3.57a26.49,26.49,0,0,0-1.66,4.32c-.05.11-.27,1.44-.05,1.65a.29.29,0,0,0,.21.06c.21,0,.37.26.53.32s.16.16-.1,1a54.77,54.77,0,0,0-2,6.61c.37.21.37.59.69.91s.48-.06.8.32c.11.21.27.21.59.21s.32,0,.37-.53c.22-1.28,1.18-4.16,1.45-5.07a11.29,11.29,0,0,0,.47-1.49c.27-.59.48-1.18.75-1.82.53-1.22,1.66-3,2-4.1-.05-.16.11.1.11,0a2.36,2.36,0,0,0,.37-.59.17.17,0,0,1,.05-.1c.06-.06.37-.54.48-.54s.32-.32.32-.42c.16-.38.37-.27.69-.75.75-.7,2.72-2.93,3.63-2.93.8,1.49.43,3.78.32,5.22s-.32,2.08-.48,3.31c0,.37,0,.58.05.32s.06-.91.22-1.07a9.27,9.27,0,0,1-.43,2.51,10,10,0,0,0-.27,1.71c-.32.85-.58,3.89.22,4.69.21.16.85.42.85.64s.37.37.59.58c0,.27.8.11,1,.22.69.37,2.72-.59,3-1.18a17.93,17.93,0,0,0,1.77-2c.48-.64.64-1.17,1.12-1.81a6.8,6.8,0,0,0,.42-.86C189,164.12,188.37,164.93,187.62,165.94ZM172.1,159c-.16.11.06-.32.11-.37S172.21,159,172.1,159Zm.16-.48c0,.06,0-.21,0-.1Zm1.34-.26c-.06.05-.11.05-.11,0S173.6,158.15,173.6,158.26Zm5.07-5.44a17.22,17.22,0,0,0-2.57,2.29c-.42.11,1.28-1.6,2.09-2.13C178.82,152.55,179.73,152.23,178.67,152.82Zm2.71,6.24c.06-.06.06,0,.06,0C181.49,159.22,181.28,159.11,181.38,159.06Zm-.1.37c.05-.43.16,0,.1.11s0,.26-.1.32S181.22,159.75,181.28,159.43Zm-1-.11c.05-.16.1-1.22.26-1.12a2.56,2.56,0,0,1-.26,1.6Zm.26,1.66c-.1.11-.1-.27-.05-.16A.2.2,0,0,1,180.58,161Zm-.37-.53v-.06C180.21,160.23,180.26,160.39,180.21,160.45Zm.85,1.75c-.1,2.19-.85,5-.69,7.36.16.06.59.32.11.22-1.81-.59-.59-3.79-.43-5.17,0-.81.69-2.62.32-.81-.16.75-.16,1.66-.32,2.19a1.31,1.31,0,0,0-.05.64.42.42,0,0,0,.1.43c.06-.22,0-1,.06-1.18.21-.63.1-.9.32-1.76.21-1.17.42-2.71.69-3.94C181.38,159.86,181.06,161.88,181.06,162.2ZM180,167.64c0,.16-.11.48,0,.48S180.05,166.58,180,167.64Zm10.66-7.73c.11-.16.32-.53.27-.59S190.29,160.18,190.66,159.91Z"/><path d="M197.65,154.63a4.26,4.26,0,0,0-1.17-.11,1.9,1.9,0,0,1,.16-.32c.26-.37-.11-.79-.49-.95a1.86,1.86,0,0,0-1.59-.06c-.22,0-.16.11-.38.11-.16-.16-.74.64-.85.8a16.49,16.49,0,0,0-2.29,3.73c-.43,1.07-1,1.92-1.23,2.83a18,18,0,0,0-1.5,5.86,14.28,14.28,0,0,0,.38,2,3.8,3.8,0,0,0,1.23,1.49c2.34.54,4.05-1.43,5.33-3a31.06,31.06,0,0,0,3.52-5.7C199.73,159.16,201.06,155.43,197.65,154.63Zm-5.23,1.92c.06-.37.11.11,0,.16S192.37,156.77,192.42,156.55Zm-.91,1.65a.92.92,0,0,1,.32-.63c0-.11.16-.27.22-.38s0,0,0,.06-.43.74-.43.9S191.46,158.52,191.51,158.2Zm-1.91,3.9c0-.32.16-.27.1-.11S189.54,162.36,189.6,162.1Zm-.16.53c0,.05.05.11,0,.11Zm-.54,2.19a11.69,11.69,0,0,1,.43-1.82c.16.16-.43,1.82-.43,2.14Zm-.1.48s0,.16,0,0Zm.32,1.22c-.06.06-.06-.21,0-.16Zm.42-2.29c-.16.64-.42,1.81-.42,1.92s0,0-.06,0c-.21.06-.21.54-.26.75,0-.27-.06-1.07.1-1.12.32-1,.22-1.22.75-2.83.43-1.44,1-2.39,1.44-3.62.16-.16.1-.86.37-.91.11.16-.11.27-.05.48s-.69,1.66-.59,1.6A25.55,25.55,0,0,0,189.54,164.23Zm3.36,3a4.48,4.48,0,0,1-3,1.55,15,15,0,0,1,1.28-6.46c.27-.64.21-.75.43-1.28a22,22,0,0,1,2.08-4c-.21.75-1.6,3.26-1,3.31.21-.11,0,.21.16.16.42-.05.53-.05.53,0,.37.16.48,0,.48-.48a7.23,7.23,0,0,1,1-2.24c1-1.92.85-1.71,1.12-1.82a6.16,6.16,0,0,1,1.66-.48c.37-.16.69.38.74.91,0,.06,0,.11.06.11s-.06-.75,0-.8.16,0,.16.1c.1.38.26,2,0,2s-.06.1-.11.26a15.16,15.16,0,0,1-1.49,3.52c0,.11-.11.06-.11.16s-.16.06-.11.16.06.11,0,.06-.16.05-.16.16,0,.1-.05.1.05.11-.05.16-.22.16-.38.43A22.87,22.87,0,0,1,192.9,167.22Zm2.13-1.44c-.15.16-.53.74-.63.64a5,5,0,0,1,.32-.54,20.66,20.66,0,0,0,1.7-2.5c.22-.64.27-.48.43-.86a5.38,5.38,0,0,0,.48-1c.85-1.86,1.76-3.52,1.54-5.33-.26-.53.11-.37.16,0a.44.44,0,0,0,.06.16c.1,0-.06.32,0,.32s0,.27,0,.38.05.1.05.16,0,.32-.1.37-.06.11,0,.32-.11.32-.16.69A22.91,22.91,0,0,1,195,165.78Zm4.38-7.42c0,.16-.16.54-.16.75s-.11.16-.16.32c0,.32-.16.43-.22.75a13.32,13.32,0,0,1-.63,1.49c-.06.21-.27.43-.27.64s-.37.48-.37.64c-.22.48-.75,1.17-1,1.66-.06.1-1.39,2.18-1.34,1.81a.17.17,0,0,1,0-.11c.06,0,0-.32.11-.37s.27-.48.43-.59.16-.32.21-.32.27-.26.11-.16c.37-.8,1-1.49,1.33-2.29a8,8,0,0,1,.48-.91c.06,0,0-.16.06-.21s.16-.43.26-.53.06-.22.16-.27c.27-.16.11-.43.21-.64.06,0,.11-.11.11-.16a8,8,0,0,0,.53-3.2,2.09,2.09,0,0,1,.11,1.12C199.41,157.78,199.46,158.31,199.41,158.36Z"/><path d="M226.39,159.38c0-.11,1.39-1.92,1.12-1.81a4.52,4.52,0,0,0-.53.85,6.77,6.77,0,0,0-.8,1.12C226.13,159.7,226.23,159.59,226.39,159.38Zm2.51-3.15c-.21.11-.7,1.81-.91,1.92s-.11.16-.21.32a41.12,41.12,0,0,1-6.24,7.2c-.11.11-.16,0,0-.11.32-.37.8-.85.16-.53-.11.06,0,0,.21-.26s2.45-2.78,2.94-3.36.42-.27.64-.7.1-.48,0-.32c-1.39,1.49-3.79,4.22-5.29,5.49-1.06.86-2.76,2.08-4.26,1.71-.64-.16-.32-4.91.27-7.09a15.37,15.37,0,0,0,.53-4.38c-.05-.8-.32-.37-.69-.64-.06-.16-.22,0-.27-.1s-1,.21-1,.58a3.92,3.92,0,0,1-.48,1.29,2.09,2.09,0,0,1-.16.32c0,.05-.27.42-.27.47s-.32.38-.32.48c.32,0,.53-.79.85-1.17.11,0,.11,0,0,.59-.16,1.28-.95,2-1.81,3.25-1.55,2.19-5.12,6.67-4.37,5.33.37-.69.16-.8,1-1.7.27-.37.8-1,1.06-1.39.48-.64,1-1.6,1.5-2.24.37-.58,1.44-1.92,1.76-2.45-.05-.27-1.39,1.76-1.5,1.92-.69.9-2,2.5-2.66,3.46-1.39,1.66-3,4-5,4.91-.64.21.48-3.68.48-3.84.65-2.4,1.39-4.42,2-6.61a20.31,20.31,0,0,1,.85-2.46c.22-.58,1.39-2.82.32-3-.16,0-.21-.21-.42-.16h-.22c0-.11-.58,0-.74,0s-.11.11-.16.21a.38.38,0,0,1-.11.22c-.1,0-.37.48-.37.63a4,4,0,0,1-.59,1.18c-1.17,1.28-2.19,3.62-3.52,5.55-.32.48-.37.74-.16.69s.11,0,.06,0c0,.16-.32.58.1.37.27-.11.75.37,1,0,0,0,.7-1.06.48-.42a39.73,39.73,0,0,0-1.22,4.8c-.11.64-.16,2.67.32,2.93a.67.67,0,0,1,.21.37,3.22,3.22,0,0,0,1.39,1.28,5,5,0,0,0,1.23-.05c1.11-.27,3.46-2.72,4-3.57,1.65-1.92,3-4.38,4.53-6.29-.27,1.7-.59,4,0,5.7a2.09,2.09,0,0,0,.58,1,2,2,0,0,0,.54.64c.53,1.23,3,1.39,4.48.59a17.3,17.3,0,0,0,5.22-4.91,17.89,17.89,0,0,0,2.83-4.37c.16-.32.69-1.28.85-1.6s.54-.69.48-.91S229.17,156.18,228.9,156.23Zm-26,8.75c-.06.05-.06,0-.06,0S203,164.93,202.93,165Z"/><path d="M239.94,160.07a23.71,23.71,0,0,0-6.62,2.24c0,.05-.37.11-.32-.05-.05-.32-2.56,1-3.3,1.49-.11.05-.22.16-.27.16-.11.27-.32-1.17-.37-1.28-.59-2.4-1.39-5.81-.27-8.21a6.52,6.52,0,0,1,4.37-3.42c.32.06.91-.32,1.18,0,1.39,1,.69-2-.59-2.39-2.08-.86-3.89.53-5.33,2.18-1.92,2.35-1.87,6-1.17,9.07.26,1.44.53,2.4.9,3.89.06.43.16.8.16.86a.43.43,0,0,0,.11.21c.16.11,0,.37-.16.48a50.85,50.85,0,0,0-7.41,5.7c-.22.22-.43.16-.11-.16,2.19-2.72-2.4,2-2.67,2.51a11.29,11.29,0,0,0-1.6,2.83,4.56,4.56,0,0,0-.26,3c.48,2.35,3,3.47,5.33,3.21,3.52-.32,5.49-2,7.52-4.54,1.17-1.59,1.44-2.51,1.6-5a20.37,20.37,0,0,0-.59-5.86c0-.38-.37-1.07,0-1.39s.21-.11.53-.42a36.45,36.45,0,0,1,5.5-3.21c.16-.16,2.56-1.06,1.91-.9-.1,0-.58.16-1,.27-.85.31-1.06.37-1,.21a9.77,9.77,0,0,1,3.2-1.12,3.75,3.75,0,0,0,1.12-.38C240.36,160,240.2,160,239.94,160.07Zm-13,6.35c.1-.06.26-.11.1,0S226.77,166.58,226.93,166.42Zm-.54.42a.17.17,0,0,1,.11-.05C226.55,166.9,226.12,167.06,226.39,166.84Zm-1.28.91c.11,0-.05.16-.05.05A0,0,0,0,1,225.11,167.75Zm-7,6.13c.11,0,.05.06,0,.06S218,173.88,218.07,173.88Zm.48,7.31c-.53-.27.06-.11.22,0S219,181.46,218.55,181.19Zm1.55.43c-.21,0,0-.06.05,0Zm0-.75c-.16,0,.05-.05.11,0Zm.91.75c-.16,0-.54.1-.7,0S221.75,181.56,221,181.62Zm-.06-1.23a5,5,0,0,1-3.31-.59c-.21-.32.59.27,1.29.43a11.22,11.22,0,0,0,2,.06C221.32,180.23,221.32,180.29,221,180.39Zm8.27-8c-.75,4.37-5.39,8.16-9.92,7.57-.8-.16-2.35-.64-2.19-1.49a7.46,7.46,0,0,1,1.17-2.51c.75-1,3-3.51,4.06-4.53.53-.43,1.39-1.55,1.76-1.76s.37-.32.27-.32a8.39,8.39,0,0,0-.8.69c-.06,0-.11.11-.7.54-.16.1-.26.21-.26.26s-.27.43-.33.38a.22.22,0,0,0-.16.05c-.21.27-.26.21-.37.32a1.94,1.94,0,0,1-.74.59,26.78,26.78,0,0,1,2.5-2.46,14.68,14.68,0,0,1,2.45-1.86c.54-.38,1.61-1.28,2.25-1.66.16,0,.63-.48.74-.32-.11.22-.32.27-.16.59C229.16,168.29,229.59,171.11,229.22,172.39Zm1.87-8.59c0-.1.37-.16.16,0C231.19,163.86,230.93,164,231.09,163.8Zm-.16.16h.1C231.14,164,230.87,164,230.93,164Zm-.86.54c0-.05.05-.05.11-.05S230,164.55,230.07,164.5Zm-.37.32c.1,0,.1,0,.05.05S229.54,164.82,229.7,164.82Zm2.51-.86c-.32.11-1.18.75-1.34.75s-.43.38-.48.38a2.84,2.84,0,0,0-.43.21c-.58.48-.53.1-.1-.11C230,165.14,233.27,163.16,232.21,164Zm.42-.32c0,.06-.16.11-.1,0S232.74,163.48,232.63,163.64Zm.59-1c-.06.06-.32.06-.32.06S233.27,162.63,233.22,162.68Zm1.12-.48c-.11,0-.16,0-.16.06s-.32.1-.38.16-.1.1-.1,0,.53-.32.64-.22Zm.16,0s-.11-.16,0-.16S234.55,162.1,234.5,162.15Zm1-.43c-.26.11-.16.32-.48.22-.1-.06-.1-.16.06-.16a.43.43,0,0,0,.21-.11C235.57,161.46,235.94,161.51,235.51,161.72Z"/><path d="M285.86,124.93c-.16-.54-.54-1.82-.7-2.19-.21-1.12-2.45-3.36-3.36-3.89a11,11,0,0,0-3.84-1.12,5.38,5.38,0,0,0-2.08.26c-7.57,1.76-15.73,8-19.73,15.31-.11.43-.27.37-.21.75a4.58,4.58,0,0,0,.37,2.18,1.39,1.39,0,0,0,1.39,1.18c.69.16.53-.16.8-.54s.1-1.12.37-1.39c.64-.9-.75-.42.69-2.55a17.68,17.68,0,0,1,4.27-5c1.44-1.17,3.47-3.25,4.58-4a10.33,10.33,0,0,0,1.55-.9c2.61-1.6,5.76-3.25,8.86-3.36.47,0,.58,0,.69.16s.21.11.48.11a5.37,5.37,0,0,1,2.29,1,7.83,7.83,0,0,1,1.07,4.69c-.22,3.47-1.65,6.24-3,9.6a5.33,5.33,0,0,0-.91,1.5s0,.1,0,.16c-.16,0-.11.26-.22.42-.63,1.23-1.7,3.2-2.56,4.86-.21.32-.26.79-.48.95s-.58,1-1,1.45c-.74,1-1.38,2-2,3-.1.11.11.16.11,0s.21,0,.21,0c-.58,1.07-2.18,3.2-2.55,4.21-.06.27-.32.27-.38.54s-.1.43-.16.64c.11-.11.43-.37.43-.53a.38.38,0,0,1,.11-.22c.16-.16,0-.27.16-.43s.48-.69.63-.8,0-.26.06-.26.26-.48.42-.64.11-.27.27-.43.21-.48.32-.53a9.47,9.47,0,0,0,1-1.66.91.91,0,0,1,.16-.21c.32-.16.1-.37.26-.53,1.12-1.55,3-4.91,3.63-6a10.52,10.52,0,0,1,1-1.71c.16-.11-.05-.43.16-.59s.59-1.28.69-1.49a13.8,13.8,0,0,0,.64-1.28c.11-.22.43-.27.48-.59s.38-.8.48-.8.16-.32.27-.37.16-.11.16-.16.22-.48.22-.59.69-1.44.69-.74c-.05.1,0,.21.05.21.22,0,.22.11,0,.48a11.32,11.32,0,0,1-.37,1.12c-.48,1.06-1.07,2.51-1.66,3.63-.8,1.33-1.7,3-2.5,4.37-2.77,4.85-4.59,7.57-7.25,11.94a95.05,95.05,0,0,0-7.74,13.5c-.21.21-.1.59-.32.75s-.1.1-.05.16-.11.74-.21.85-.06.53-.16.64-.16.1-.22-.16.16-1.12-.16-1.17a.11.11,0,0,0-.1.1c0,.06-.06.06-.11-.1s-.05-.11-.16.69c-.27.8.27,2.61.69,1.76a2.38,2.38,0,0,1,1-1.23c.26-.21.32-.91.58-1.33a31.34,31.34,0,0,1,2.46-5.5,9.4,9.4,0,0,1,1.06-2.07c.11-.06.27-.54.43-.59s.16-.43.37-.54.21-.64-.05-.42c-.43.32-.43.64-.64.91-.16.05-.11.26-.21.37l-.32.53c-.8,1.44-1.87,3.36-2.51,4.75a19.16,19.16,0,0,0-1,2.61c-.16.43-.43,1-.53.91a15.58,15.58,0,0,1,1.7-4.69,28.75,28.75,0,0,1,1.55-2.83c1.55-2.88,6.24-10.24,8.21-13.33,1.87-2.83,2.83-4.65,4.27-7.1.32-.42,1.12-2.08,1.22-2a.11.11,0,0,0,.11-.1,4.59,4.59,0,0,1,.59-1.17c.26-.22.26-.64.48-1,.1-.16.16-.32.21-.32.05-.38.43-.86.43-1s.11-.16.16-.11c.21.11,0-.37.11-.32a.11.11,0,0,0,.1-.1c0-.11.38-.27.48-.32-.05.48-.8,1.71-.64,1.81s.11.06.11-.05.05-.21.11-.21c.26-.27.85-1.82,1-1.71a20.78,20.78,0,0,1-1.23,2.56c-3.94,7.68-9.44,15.73-14,23.36a32.82,32.82,0,0,0-3.25,6.13l.11-.11c.32-.26.16-.37.42-.64a10,10,0,0,0,.59-1.11c.16-.38.59-.75.64-1.07a.17.17,0,0,1,.06-.11c.16,0,.42-.48.48-.64,4.69-8,11.25-17.38,15.2-24.85a40,40,0,0,0,3.09-7.47A14.65,14.65,0,0,0,285.86,124.93Zm-15.2-3.57a3.75,3.75,0,0,0-.7.37c-.37.32-.59.42-.59.32C269.21,122.05,270.87,120.87,270.66,121.36Zm6.5-2.3c-.64.21-1.92.53-2.77.85s-1.71.75-2.46,1.13c-.21.1-.69.26-.37-.11.16-.27.11-.43.43-.43a.46.46,0,0,0,.21-.11c0-.16.32-.1.32,0s0,0,.05,0c.11-.27.38,0,.32-.21s.75-.54,1-.48c.05,0,.1,0,.16-.06s.64-.37.64-.21.1.11.1.05.8-.42,1.23-.48c.21,0,.26,0,.26.06s.16.16.27-.06c.05,0,.11-.16.16-.16s.48-.1.43.06S277.37,119,277.16,119.06Zm1.18-.21c-.32-.06-.27-.16,0-.16S278.6,118.85,278.34,118.85Zm4.05,12.48c-.27.37.11-.59.11-.32A1.34,1.34,0,0,1,282.39,131.33Zm.58.58c-.26.54-.15-.53.06-.21C283.08,131.7,283,131.8,283,131.91ZM260.57,177c-.31,0-.58-.27-1.06-.16-1.17,0-.75,1.12-.48,1.6.27.11-.11.74-.21,1.23,0,.05-.06.1-.11.16a.24.24,0,0,0,.16.43c.37.1.59,1,1.17.74.27-.16.64.59,1,.75s.8.8,1.12.16a4,4,0,0,0,.43-1.76c.11-1.18.11-1.13-.27-1.66A2.55,2.55,0,0,0,260.57,177Zm2.89-12c.05-.32.21-.32.26-.58s.43-.7.27-.86c-.05,0-.16.16-.21.37-.22.54-.54.7-.43,1.23C263.35,165.3,263.4,165.3,263.46,165Zm3.41-6.56c-.37.11-.69,1.12-1,1.55a.69.69,0,0,0-.11.27c-.05.16-.38.32-.38.53s-.64,1.12-.69,1.33.59-.53.64-.85.16-.05.27-.48.32-.43.37-.64.11-.16.22-.27-.16-.11.16-.32.05-.37.42-.75.32-.58.48-.8c.11.06,0-.16.06-.16s.48-.74.58-.85.05-.37-.05-.37S267,158,266.92,158s-.1.16-.05.27S267,158.52,266.87,158.47Zm2.77-4.43c.27,0,.27-.26.48-.58a.89.89,0,0,0,.16-.37c0-.06-.32.16-.32.26s-.16.11-.26.38-.65.9-.7,1.22a.12.12,0,0,1-.11.11,5.13,5.13,0,0,0-1,1.6c.06.21.16.16.38-.21a6,6,0,0,1,.32-.54c.21-.16.05-.16.21-.32s.43-1,.69-1.07S269.48,154,269.64,154Zm-7.09,12.8c-.21.06-.53,1.5-.59,1.82.22.16.27-.37.32-.54s0-.26.11-.48A1.85,1.85,0,0,0,262.55,166.84Z"/></g></g></g></svg>