<svg version="1.1" id="Calque_1" xmlns="http://www.w3.org/2000/svg" xmlns:xlink="http://www.w3.org/1999/xlink" x="0px" y="0px"
	 viewBox="0 0 375 375" style="enable-background:new 0 0 375 375;" xml:space="preserve">
<g id="parapluie">
	<path d="M165,42c-6-1.3-14.2-1.4-19.8,1.3c-0.3,0.2-0.2,0.7,0.2,0.7c3.2-0.4,6.4-1,9.7-1.2c3.3-0.2,6.6,0.1,10-0.2
		C165.4,42.6,165.3,42.1,165,42z"/>
	<path d="M170.3,37.7c-5.9-0.2-12.2,0.4-18,1.4c-0.4,0.1-0.3,0.7,0.1,0.7c5.8,0.1,12.3,0.4,18-1.2C170.8,38.4,170.9,37.7,170.3,37.7
		z"/>
	<path d="M175.4,34.5c-5-0.5-11.2-0.6-16.1,0.9c-0.2,0.1-0.2,0.4,0,0.4c5,1,11.1,0.4,16.1-0.2C176,35.5,176,34.6,175.4,34.5z"/>
	<path d="M184,31.3c-5.4-1.4-11.8-0.6-17.2,0.4c-0.4,0.1-0.3,0.7,0.1,0.6c5.6-0.3,11.6,0.3,17.1-0.6C184.2,31.7,184.2,31.3,184,31.3
		z"/>
	<path d="M190.6,26.3c-3-0.5-6.1-0.1-9.2,0c-2.5,0.1-5.1,0-7.6,0.6c-0.3,0.1-0.3,0.5,0,0.6c2.6,0.6,5.2,0.4,7.9,0.3
		c3-0.1,6,0,8.9-0.8C191.1,27,191.1,26.4,190.6,26.3z"/>
	<path d="M196.7,22.2c-4.4-0.4-9.1,0.1-13.5,0.2c-0.4,0-0.5,0.6,0,0.7c4.4,0.6,9.3,1,13.6-0.4C197,22.6,196.9,22.3,196.7,22.2z"/>
	<path d="M200.6,18.6c-1.5-0.6-3.1-0.4-4.7-0.4c-1.8,0-3.6-0.1-5.3,0.3c-0.5,0.1-0.5,0.7,0,0.8c1.7,0.4,3.6,0.3,5.3,0.3
		c1.6,0,3.2,0.1,4.6-0.4C200.9,19.1,200.9,18.7,200.6,18.6z"/>
	<path d="M205.1,14.8c-1.3-0.6-2.7-0.4-4.1-0.4c-1.5,0-3,0.1-4.5,0.2c-0.5,0-0.5,0.8,0,0.8c1.6,0.2,3.1,0.2,4.7,0.2
		c1.3,0,2.7,0.1,3.9-0.4C205.3,15.2,205.4,14.9,205.1,14.8z"/>
	<path d="M206.1,11.6c-0.9-0.1-1.7-0.1-2.6-0.3c-0.6-0.1-0.8,0.6-0.3,0.9c0.9,0.4,1.9,0.6,2.9,0.5C206.8,12.6,206.7,11.7,206.1,11.6
		z"/>
	<g>
		<g>
			<path d="M233.6,232.1c1.4-4.1-8.5-167.8-8.5-172c-0.1-4.1,0.1-8.5-0.8-12.6c23.8,0.2,48,0.6,71.5-2.4c1.6-0.2,1.3-3-0.3-2.8
				c-0.1,0-0.1,0-0.2,0c0.2-0.5,0.1-1.2-0.3-1.5c-2.8-2.4-6.8-3.7-10.1-5.2c-7.3-3.3-14.3-7.1-21.4-10.7c-7.5-3.9-15-7.9-22.6-11.8
				c-7.1-3.6-14.4-8.2-22.1-10.3c0-0.2-0.1-0.3-0.2-0.4c-0.1-0.5-0.8-0.7-1.2-0.3c0,0.1-0.1,0.1-0.1,0.1
				c-12.7,7.4-25.2,14.8-38.3,21.6c-12.9,6.6-26,13.1-38.4,20.7c-0.8,0.5-0.8,1.4-0.4,2c-1.5,0.1-1.8,2.4-0.2,2.4
				c24.7,0.9,49.5-1.3,74.2-1.3c-0.1,3.5,0.4,7.1,0.8,10.5c0.6,6.1,6.2,166.1,5.7,172.3L233.6,232.1z M214.5,44.8
				c-23.8,0.2-47.5,0.3-71.3,1.3c11.4-6.8,23.2-13,34.9-19.2c11.6-6.1,23.9-12,34.7-19.6c-4,5.2-7.8,10.6-12,15.6
				c-5.2,6.2-11,12.4-14.3,19.8c-0.2,0.5,0.4,0.8,0.8,0.4c5.6-5.8,10.4-12.6,15.6-18.9c5.3-6.3,11.5-12.9,15-20.5
				c0.1,0.2,0.2,0.3,0.3,0.5c0,0-0.1,0.1-0.1,0.2c-3.1,12-4.1,27.5-1.9,39.8c0.1,0.5,0.7,0.5,0.8,0c1-5.5,0.9-11.3,1.1-16.9
				c0.3-7.2,1-14.5,0.9-21.8c4.5,6.8,10.8,12.8,16.1,18.9c3.2,3.7,6.3,7.4,9.2,11.4c2,2.7,3.2,5.4,5.8,7.5c0.4,0.3,1.1-0.1,1-0.6
				c-1.4-6.7-8.2-12.9-12.5-18c-5.2-6.1-10.5-12.7-16.2-18.4c4.1,2.4,8.4,4.3,12.6,6.4c7.4,3.8,14.7,7.7,22.1,11.6
				c11.2,5.9,23.1,13.7,35.2,17.9c-25.6,1.9-51.2,2.2-76.8,2.4C215.1,44.6,214.7,44.6,214.5,44.8z M216.2,47.4c1.9,0,3.9,0,5.8,0
				c-0.6,4.2-0.1,8.6,0,12.9c0.1,4.2,7.6,160.9,9.5,164.8c-2.4,0.7-4.8,1.4-7.1,2c0.1-4.6-7.8-160.5-7.6-165
				C217,57.4,217.4,52.1,216.2,47.4z M243.7,71.9"/>
		</g>
	</g>
</g>
<g id="verre2">
	<path d="M151.4,95.4c-0.4-0.4-1.1,0-0.8,0.6c2.3,4.4,5,8.4,6.9,13c2.1,5.1,2.8,10.7,3.5,16.1c0.1,0.6,0.9,0.5,1-0.1
		C163,115,159,102.3,151.4,95.4z"/>
	<path d="M280.1,159.5c-5.4-15-15.1-28-22.8-41.7c-4-7.1-7.1-14.3-9.3-22.1c-2.1-7.5-1.7-15-2.5-22.7c0-0.2-0.3-0.3-0.4,0
		c-4.1,15.7,2.6,32.7,10.6,48.1c-6,0.8-12.1,3.1-17.9,4.7c-8.7,2.5-17.5,4.9-26.2,7.3c-8.1,2.2-16.2,4.4-24.2,6.7
		c-7.3,2.1-15.4,3.8-22.2,7.3c0.1-3-0.1-6.1-0.5-9.1c-0.1-0.6-0.9-0.5-1,0.1c-2.8,25.5-9.1,53.3,3.8,77
		c8.9,16.3,31.7,30.3,50.6,26.7c0.2,0,0.3-0.1,0.5-0.2c6.1,0.8,14.2-2.5,19.6-4c5.9-1.7,13.7-3.4,19.5-6.7c0.1,0,0.2,0,0.2-0.1
		c11.6-6.8,18.7-17.9,23.5-30.2C286.7,187.1,284.8,172.6,280.1,159.5z M280.3,185.2c-0.5,15.8-8.4,32-21.1,41.6
		c-6.6,0.3-13.6,4.1-19.7,6c-4.9,1.5-9.8,2.9-14.7,4.2c-2.4,0.7-4.7,1.1-6.7,2.2c-5.9-1.9-12.1-2-18.1-3.7
		c-4.5-1.3-8.8-3.3-12.8-5.6c-8.5-5-15.1-12.8-19.3-21.6c-5.5-11.4-6.2-24-5.2-36.5c0.6-7.8,2-15.6,2.3-23.5
		c7-0.9,13.8-3.6,20.5-5.5c8.7-2.5,17.5-4.9,26.3-7.2c8.1-2.2,16.2-4.2,24.2-6.4c6.7-1.8,14.3-3.2,20.7-6.1
		c3.5,6.4,7.1,12.5,10.1,18.1C274.5,154.8,280.8,169.4,280.3,185.2z"/>
	<g>
		<g>
			<path d="M221.9,70.5c-14.6,4.2-29.2,8.4-44,12.3c0-0.1,0-0.2,0-0.3c-0.4-15.9-20.4-25.6-34.2-25.2c-9.4,0.2-20.9,4.9-28.1,12.5
				c0,0,0,0-0.1,0c-11,10.7-11.5,29.4-5.4,42.6c6.7,14.5,24.5,22.9,40.1,20c-0.1,6.3-1,12.7-1.7,18.9c-1.9,16.6-3.5,32.5,0.3,48.9
				c3.3,14.4,10.9,27.4,21.9,37.3c12.2,11,27.6,13.5,43.2,15.2c0,0.2,0.1,0.3,0.2,0.5c4.2,5.1,8.5,9.6,12,15.3
				c4.4,7.2,7.8,15.1,10.6,23c2.5,6.9,4.3,14.1,5.7,21.2c1.3,6.9,0.6,13.2,0,19.9c-3.3,7.1-7.4,12.5-14,17.6
				c-7.5,5.7-15.9,10.4-23.8,15.4c-1,0.7-0.6,1.9,0.3,2.2c-0.4,0.2-0.8,0.3-1.2,0.5c-0.8,0.4-0.3,1.4,0.5,1.3
				c9.1-1,18.3-4.4,27.2-6.8c9.8-2.7,19.6-5.3,29.4-7.9c20.3-5.4,40.4-11.9,60.9-16.4c0.3-0.1,0.5-0.2,0.7-0.4c1-0.2,2-0.4,3-0.7
				c0.7-0.2,0.7-1.1,0.1-1.3c-7.2-2.4-15.6-2-23.2-3.1c-7.4-1-14.4-3.9-21.6-5.4c-4-4.4-7.7-8.4-10.9-13.8
				c-4.1-6.9-6.2-14.8-7.8-22.5c-1.8-8.4-2.6-17-3.2-25.6c-0.4-6.2-0.1-12.8-1.2-18.9c0.2-0.1,0.5-0.2,0.7-0.5
				c11.2-14.5,27-23.3,34.8-40.6c6.4-14.3,5.1-30.2,0.3-44.7c-5.6-16.6-16.3-30.8-25.4-45.6c-5-8.1-9.3-16.6-12.2-25.7
				c-2.9-9-1.7-17.3-2.8-26.3c0-0.2-0.2-0.4-0.5-0.4c-0.4-0.5-1.1-0.8-1.9-0.6c-6.3,1.7-12.5,3.5-18.8,5.3 M230.7,68
				c-2.4,0.7-4.8,1.4-7.1,2 M263,351.4c-9.9,2.8-19.9,5.5-29.8,8.2c-8,2.2-16.6,3.8-24.4,6.7c11.7-6.5,29.5-15.3,34.9-28.3
				c8.1-14.4,1-35.6-4.3-49.8c-2.8-7.5-6.3-14.8-10.3-21.7c-2.9-5-6.7-11.1-11.9-14.2c0.2-0.6-0.1-1.3-0.7-1.5
				c-8.1-2.1-16.3-2.4-24.2-5.5c-7.3-2.9-14-7.6-19.8-12.8c-11.9-10.5-18.3-25.8-20.9-41.1c-5.3-31.2,15.8-71.8-11-97.5
				c-0.8-0.8-1.9-0.3-2.3,0.5c0,0,0,0,0-0.1c-0.1-0.3-0.2-0.5-0.4-0.7c-3.3-2-6.9-3.5-10.2-5.5c-2.9-1.8-5.6-4.5-8.8-5.8
				c-0.3-0.1-0.6,0.2-0.6,0.5c-2.7,0.5-3.8,4.6-4.2,6.9c-0.5,3.2,0.2,6.6,1.6,9.5c0.1,0.2,0.2,0.3,0.3,0.4c-0.2,0.2,0,0.5,0.2,0.5
				c7,0.4,14.9-3.1,21.8-4.4c0.2,0,0.3-0.1,0.4-0.2c0,0.1,0.1,0.2,0.2,0.3c0.1,0.2,0.3,0.4,0.4,0.6c-3.9,0.9-7.6,2.3-11.4,3.3
				c-3,0.8-7.1,1.2-9.6,3.3c-0.2-0.1-0.5,0-0.7,0.2c-2.8,2.5-1,6.4,0.6,8.9c1.5,2.3,5.6,7,8.8,6.1c0.3,0.1,0.6,0.1,0.8-0.2
				c4.3-6.5,9-13,12.7-19.8c0.3,0.5,0.6,1,0.9,1.5c-2.2,2.5-3.7,5.8-5.3,8.7c-2,3.8-4.1,7.4-6.3,11.1c-0.4,0.7,0.3,1.2,0.9,1
				c-0.7,1.6,4.1,3.6,4.8,3.8c3.8,1.3,9.9,1.6,12.6-2c0.1-0.1,0.1-0.3,0.1-0.4c0.3-0.1,0.6-0.3,0.6-0.7c-0.1-3.8-1-7.3-1.9-11
				c0-0.1-0.1-0.3-0.1-0.4c1.8,4.4,3.1,9,3.6,14.3c0.2,1.5,0.2,3.1,0.3,4.6c-15.9-0.1-30.2-4-37.6-19.6c-5.2-11-3-21.6,0.8-32.1
				c1.9-2.8,3.9-5.4,6.6-7.8c7.1-6.1,17.4-8.5,26.6-7.6c5.2,0.5,10.2,2.3,14.6,5c6.8,4.1,8.9,11.2,14,16.6c0,0,0,0,0.1,0
				c-0.1,0-0.1,0-0.2,0c-1.6,0.4-3.3,0.9-4.9,1.3c0,0,0-0.1,0-0.1c-1.2-3.4-2.8-6.7-5.3-9.4c-1.4-1.5-4.4-3.6-6.4-2.4
				c-0.2-0.1-0.4-0.1-0.6,0c-2.6,2.2-4,5.7-5.5,8.7c-1.6,3.1-3.4,6.1-5.1,9.3c-2.8,0.8-7.2,2.3-6.3,3.3c2.2,2.5,10.3-1.2,12.9-1.9
				c7.7-2,15.5-4.1,23.2-6.1c24.7-6.4,49.3-12.8,73.8-20c-3.7,11.8,1.4,27,6,37.4c6.1,13.7,15,26,22.5,38.9
				c10.4,17.9,17.1,38.6,10.1,58.9c-2.8,8.2-7.7,16.4-13.6,22.8c-6.3,6.8-13.7,12.3-19.5,19.4c-0.3,0-0.7,0.1-0.8,0.5
				c0,0.2-0.1,0.4-0.1,0.6c-0.1,0.2-0.1,0.4-0.1,0.5c-1.3,7.3-0.4,15.5,0.1,22.8c0.6,9.4,1.9,18.7,4,27.9c2,8.9,5.4,17,10,24.9
				c2.8,4.7,6.5,9.3,12.2,10.3c0.2,0,0.4,0,0.5-0.1c4.4,2.6,10,3.6,14.7,4.6c4.1,0.9,8.8,1.8,13.6,2.3
				C294.5,342.1,278.8,346.9,263,351.4z M144.5,109.4c1,4,1.7,8.1,2.4,12.1c-1.9,0.2-3.6,1.1-5.5,1.2c-1.9,0.1-3.8-0.2-5.6-0.7
				c-0.9-0.3-3.9-2.4-5-2c2-3,3.8-6.2,5.6-9.4c1.8-3.1,4-6.2,5.4-9.5c0.5,0.9,1.1,1.8,1.5,2.6C143.3,105.7,144,107.5,144.5,109.4z
				 M135.1,94.7c-5.6,1.1-12.2,1.5-17.3,4c0,0,0-0.1,0-0.1c-1.5-3.1-1.9-6.5-1.3-9.9c0.3-1.8,1.7-3.2,2.2-4.8
				c1.8,2.7,5.2,4.5,7.8,6.2C129.2,91.8,132.1,93.5,135.1,94.7z M138.8,98c-4.7,5.7-8.2,12.6-12.1,18.9c-1.3-1.1-3.2-1.1-4.6-2.2
				c-1.2-0.9-2.1-2.1-2.9-3.4c-1.3-2.3-1.1-4.8-0.9-7.2c2.7,0.2,5.5-1.2,8-2C130.6,100.8,134.9,99.7,138.8,98z M167.9,85.4
				c-6.1,1.6-12.3,3.2-18.4,4.8c0,0-0.2,0.1-0.5,0.1c1.3-1.7,2.4-3.5,3.5-5.2c2.1-3.3,5-7.1,6-11.1c0.5,0.2,1.1,0.4,1.7,0.6
				c1.5,0.4,2.7,1.9,3.7,3c1.8,2.1,3.1,4.9,4,7.5C167.8,85.3,167.9,85.3,167.9,85.4z"/>
		</g>
	</g>
	<path d="M154.5,71.5c0,0,0-0.1,0-0.1c0,0,0,0,0-0.1c0-0.1,0-0.2-0.1-0.3c-0.8-3.9-5.6-5-8.9-5.4c-1.9-0.2-3.9,0-5.5,1.1
		c-0.7,0.5-1.7,1.4-1.7,2.3c-0.1,0-0.1-0.1-0.2-0.1c0,0,0,0-0.1,0c-1.5,2.2,0.8,6.6,1.5,8.9c1.2,4.3,1.6,8.8,2.7,13.2
		c0.3,1.1,1.9,0.7,1.7-0.4c0-0.2-0.1-0.3-0.1-0.5c1.9-2.3,3.3-5.2,4.9-7.8c1.9-3.1,4.3-6.5,5.5-10C154.4,72.1,154.6,71.8,154.5,71.5
		z M147.8,80.2c-1.5,2.5-3.4,5.2-4.4,8c-0.8-3.6-1.7-7.2-2.4-10.8c-0.3-2-0.5-5.7-1.9-7.6c0.8-0.5,1.1-1.4,2-1.9
		c1.2-0.7,2.8-0.7,4.2-0.6c2.8,0.2,6,2,7.2,4.6c0.1,0.1,0.2,0.2,0.3,0.3C151,74.7,149.5,77.6,147.8,80.2z"/>
	<path d="M138.8,82.2c-1.3-4.4-1.9-9.3-4-13.4c-0.1-0.2-0.3-0.3-0.6-0.3c-0.2-0.2-0.5-0.4-0.9-0.4c-5.4,0.2-13,4.7-13.3,10.6
		c-0.2,0.2-0.4,0.4-0.1,0.7c2.3,2.9,5.9,4.9,9,6.8c3.5,2.2,7.1,4.2,10.6,6.5c0.6,0.4,1.2,0.1,1.4-0.4c0.1,0,0.3-0.1,0.3-0.3
		C141.7,88.9,139.7,85.2,138.8,82.2z M130.1,84.7c-2.7-1.8-5.4-4-8.3-5.5c0,0,0-0.1,0-0.1c0,0,0,0.1-0.1,0.1c0,0,0,0,0,0
		c0-0.1,0.1-0.1,0.1-0.2c0,0,0,0,0,0c0.2-0.4,0.2-1,0.4-1.4c0.5-1.3,1.6-2.5,2.5-3.4c2.2-2.2,5.3-3.9,8.4-3.7c0.2,0,0.3,0,0.5-0.1
		c0.7,4.1,2.3,8.2,3.5,12.2c0.6,2.3,1.1,5.3,2.2,7.6C136.2,88.5,133.1,86.6,130.1,84.7z"/>
	<path d="M246.5,72c-8.1,3-16.4,5.2-24.4,8.5c-0.3,0.1-0.2,0.6,0.2,0.5c8.2-2.1,16.8-4.6,24.5-8.2C247.3,72.5,247,71.8,246.5,72z"/>
	<path d="M253.7,105.1c-3,0.9-6,1.7-9.1,2.7c0.2-0.1,0.4-0.4,0.2-0.6c-0.4-0.9-0.8-1.8-1.1-2.7c2.6-1,5.1-2,7.5-3.3
		c0.3-0.2,0.2-0.7-0.2-0.6c-2.7,0.5-5.4,1.2-8.1,2c-0.4-1-0.8-2.1-1.1-3.1c2.2-0.8,4.3-1.7,6.1-3c0.2-0.2,0.1-0.5-0.2-0.4
		c-2.2,0.3-4.3,1.1-6.4,1.9c-0.3-1.1-0.6-2.2-0.8-3.4c0-0.1,0-0.2,0-0.3c2.4-1.1,4.7-2.2,6.9-3.4c0.2-0.1,0.1-0.5-0.2-0.4
		c-2.3,0.7-4.6,1.5-7,2.3c-0.1-1.2-0.2-2.4-0.2-3.7c2.3-0.6,4.9-1.3,6.4-2.8c0.1-0.1,0-0.2-0.1-0.2c-1.9-0.3-4.2,0.5-6.4,1.3
		c0-1,0-1.9,0-2.9c2.7-1,5.4-2.2,7.9-3.5c0.3-0.1,0.1-0.5-0.2-0.5c-2.6,0.7-5.1,1.4-7.7,2.2c0-1.1,0-2.2,0-3.3
		c2.3-0.9,4.6-1.8,6.9-2.7c0.5-0.2,0.2-1-0.4-0.8c-8.5,3.1-17.5,5.3-25.8,8.8c-0.3,0.1-0.2,0.6,0.1,0.6c6.1-1.3,12.2-3.3,18.2-5.5
		c-0.3,1.1-0.5,2.3-0.6,3.5c-6.2,2-12.3,4.2-18.4,6.2c-0.3,0.1-0.2,0.5,0.1,0.4c5-0.8,10.1-2.1,15-3.7c-0.2,1-0.4,2-0.5,3.1
		c-1.2,0.4-2.4,0.8-3.6,1.1c0-0.3-0.1-0.5-0.1-0.8c0-0.6-1-0.6-1.1,0c0,0.4,0,0.8,0,1.2c-1.8,0.6-3.7,1.3-5.4,2
		c-0.4,0.2-0.3,0.8,0.2,0.7c1.8-0.4,3.5-0.8,5.3-1.3c0,1.5,0.1,3,0.5,4.4c-0.8,0.3-1.6,0.7-2.4,1c-0.2-1.1-0.5-2.1-0.7-3.1
		c-0.1-0.6-1.1-0.6-1,0.1c0.1,1.1,0.1,2.4,0.3,3.6c-1.4,0.6-2.8,1.3-4.1,2c-0.3,0.1-0.2,0.7,0.2,0.6c1.5-0.3,3-0.8,4.4-1.2
		c0.1,0.2,0.3,0.5,0.4,0.7c0.2,0.2,0.6,0.1,0.6-0.2c0.1-0.3,0.1-0.6,0.1-0.9c0.9-0.3,1.8-0.6,2.7-0.9c0.3,0.8,0.7,1.6,1.2,2.3
		c0.2,0.3,0.8,0.2,0.8-0.2c0-0.9-0.2-1.8-0.4-2.6c0.9-0.3,1.7-0.7,2.6-1.1c0.2,1.2,0.6,2.3,1,3.3c-3.7,1.3-7.4,2.5-10.9,4
		c-0.4,0.2-0.1,0.7,0.3,0.7c3.7-0.7,7.3-1.9,10.9-3.1c0.1-0.1,0.3-0.1,0.4-0.1c0.2,0.4,0.4,0.8,0.7,1.2c0.2,0.3,0.6,0,0.6-0.3
		c0-0.4-0.1-0.9-0.1-1.3c0.8-0.3,1.6-0.5,2.4-0.8c0.4,1,0.7,2,1.2,3c-5.1,1.7-10.1,3.8-14.8,5.8c-0.5,0.2-0.2,1,0.3,0.8
		c5-1.5,10.3-3,15.4-4.8c0.5,0.9,1,1.8,1.6,2.7c0.1,0.1,0.2,0.2,0.3,0.2c-6.8,2.1-13.6,4.3-20.1,6.9c-0.3,0.1-0.2,0.6,0.1,0.5
		c9.9-2,20.4-5.3,29.5-9.6C254.3,105.5,254.1,105,253.7,105.1z M232.2,95.9c-0.3-1.4-0.6-2.8-0.8-4.1c1.1-0.3,2.2-0.7,3.4-1
		c0,1.3,0,2.7,0.2,4.1C234,95.1,233.1,95.5,232.2,95.9z M236.1,85.9c0.8-0.3,1.6-0.5,2.3-0.8c-0.1,1-0.1,2-0.1,2.9
		c-0.4,0.2-0.9,0.3-1.3,0.5c-0.3,0.1-0.5,0.2-0.8,0.3C236.2,87.8,236.2,86.8,236.1,85.9z M236.7,94.1c-0.2-1.3-0.3-2.6-0.4-3.9
		c0.4-0.1,0.9-0.3,1.3-0.4c0.2-0.1,0.5-0.1,0.8-0.2c0.1,1.3,0.2,2.5,0.3,3.8C238,93.5,237.4,93.8,236.7,94.1z M237.7,99.3
		c-0.2-1.2-0.5-2.3-0.8-3.5c0.7-0.3,1.4-0.6,2.1-0.9c0.2,1.2,0.5,2.4,0.9,3.6C239.1,98.8,238.4,99.1,237.7,99.3z"/>
	<path d="M254.7,110.2c-9.6,2.7-19.7,6.1-28.8,10.1c-0.5,0.2-0.3,0.8,0.2,0.7c9.6-2.1,20.3-5.3,28.9-10.1
		C255.5,110.7,255.2,110,254.7,110.2z"/>
	<path d="M257.5,115.1c-4.2,0.2-8.6,2.2-12.7,3.3c-5.4,1.5-11,2.8-16.1,5c-0.5,0.2-0.2,1,0.3,0.9c5.5-1,10.9-2.7,16.2-4.3
		c3.9-1.2,9.2-2,12.4-4.7C257.7,115.3,257.7,115.1,257.5,115.1z"/>
	<path d="M263.2,125.7c-8.3,1.2-16.8,5.3-24.6,8.5c-0.4,0.2-0.1,0.8,0.3,0.7c8.1-2.2,16.8-5.2,24.4-8.8
		C263.5,125.9,263.4,125.6,263.2,125.7z"/>
	<path d="M267.5,130.3c-10.3,2.4-20.9,7-30.4,11.6c-0.6,0.3-0.3,1.2,0.3,1c10.2-3.2,20.5-7.4,30.4-11.7
		C268.4,131,268.1,130.2,267.5,130.3z"/>
	<path d="M269.5,135.1c-9.2,3-18.4,6.7-27.4,10.4c-0.4,0.2-0.3,0.8,0.2,0.7c9.2-2.2,19.5-5.2,27.5-10.4
		C270.2,135.5,269.9,135,269.5,135.1z"/>
	<path d="M273.2,140.1c-10,3.5-20.6,7.2-30.1,11.8c-0.3,0.2-0.1,0.6,0.2,0.5c10-2.4,21.7-5.9,30.2-11.9
		C273.8,140.4,273.5,140,273.2,140.1z"/>
	<path d="M276.5,146.5c-4.9,1.6-9.6,3.7-14.3,5.6c-5.5,2.1-11.2,3.9-16.3,6.8c-0.3,0.2-0.2,0.7,0.2,0.6c10.1-2.7,21.8-6.8,30.7-12.3
		C277,146.9,276.9,146.3,276.5,146.5z"/>
	<path d="M278.7,152.1c-9.1,3.1-18.6,7.5-26.8,12.7c-0.3,0.2,0,0.6,0.3,0.5c9-3.6,18.2-8,26.7-12.5
		C279.2,152.6,279.1,152,278.7,152.1z"/>
	<path d="M290.1,184.1c0.4-0.2,0-0.9-0.4-0.7c-5.5,2.8-11.2,5.4-16.9,8c0.5-1.9,0.8-3.9,1-5.9c4.9-2.4,9.6-5.1,13.8-7.8
		c0.1,0,0-0.1-0.1-0.1c-4.5,1.3-9.1,3.2-13.5,5.3c0.1-1.7,0.1-3.4,0.1-5c3.8-1.8,7.4-3.8,10.9-5.8c0.3-0.2,0.1-0.7-0.2-0.6
		c-3.6,1.1-7.2,2.5-10.8,4c-0.1-1.6-0.3-3.1-0.6-4.6c3.2-1.4,6.4-2.8,9.6-4.4c0.2-0.1,0.1-0.4-0.1-0.3c-3.3,0.9-6.5,2.1-9.7,3.3
		c-0.3-1.7-0.8-3.3-1.3-4.8c3.4-1.6,6.8-3.2,10-4.9c0.4-0.2,0.1-0.8-0.3-0.7c-10.2,3.9-20.9,7.9-30.4,13.1c-0.4,0.2-0.1,0.8,0.3,0.7
		c6.5-2.2,13.1-4.9,19.4-7.8c0.3,1.7,0.5,3.3,0.7,5c-1.1,0.4-2.2,0.9-3.3,1.3c-5.7,2.3-12.2,4.1-17.4,7.4c-0.4,0.2-0.1,0.8,0.3,0.7
		c4.7-0.9,9.4-3,13.9-5c-0.1,1.7-0.2,3.4-0.4,5.1c-1.3,0.6-2.5,1.2-3.8,1.8c-0.3-0.1-0.7,0-0.8,0.4c-2.6,1.3-5.2,2.5-7.8,3.7
		c-0.3,0.2-0.2,0.7,0.2,0.6c2.5-0.6,5-1.4,7.5-2.3c-0.2,2.4-0.7,4.6-1.2,6.9c-0.4,0.2-0.9,0.5-1.3,0.7c-0.3,0.2,0,0.6,0.3,0.5
		c0.3-0.1,0.6-0.2,0.8-0.3c-0.3,1.4-0.6,2.8-0.8,4.2c-0.1,0.4,0.5,0.5,0.7,0.2c1-1.5,1.6-3.2,2.1-5c0.7-0.3,1.5-0.5,2.2-0.8
		c-0.6,2.3-1.3,4.7-2,7.1c-1.9,1-3.9,2.1-5.8,3.1c-0.4,0.2,0,0.9,0.4,0.7c1.6-0.6,3.1-1.1,4.7-1.8c-0.1,0.3-0.2,0.5-0.3,0.8
		c-0.2,0.4,0.5,0.6,0.7,0.3c0.3-0.5,0.6-1.1,1-1.6c2.7-1.1,5.5-2.3,8.2-3.5c-0.4,1.6-0.9,3.1-1.5,4.7c-4.8,2.6-9.5,5.2-14.1,7.8
		c-0.4,0.2-0.1,0.9,0.3,0.7c4.1-1.7,8.4-3.5,12.6-5.5c-0.5,1.2-1.1,2.5-1.7,3.7c-4.8,2.4-9.6,4.9-14.2,7.5c-0.4,0.2-0.1,0.8,0.3,0.7
		c11.1-3.5,22.6-9.3,31.9-16.3c0.4-0.3,0.1-0.8-0.4-0.6c-5.4,2.7-10.9,5.4-16.4,8.1c0.8-1.3,1.6-2.6,2.3-4c6.7-3.3,13.1-7,18.8-11.2
		c0.2-0.2,0.1-0.6-0.2-0.5c-5.7,2.5-11.5,5.4-17.1,8.4c0.6-1.5,1.1-3,1.6-4.6C278.4,191.2,284.5,187.8,290.1,184.1z M270.4,172.1
		c0.5-0.2,0.9-0.4,1.4-0.6c0.1,1.6,0.2,3.2,0.3,4.7c-1.8,0.8-3.6,1.6-5.4,2.4c0-1.6-0.2-3.2-0.4-4.7
		C267.7,173.3,269.1,172.7,270.4,172.1z M261,189.5c0.4-2.1,0.5-4.2,0.4-6.3c1-0.4,2.1-0.8,3.1-1.2c-0.3,2.1-0.7,4.1-1.1,6.2
		C262.5,188.7,261.8,189.1,261,189.5z M270.5,192.5c-2.6,1.2-5.1,2.4-7.6,3.7c1-2.2,1.9-4.5,2.5-6.9c2.1-0.8,4.2-1.7,6.2-2.7
		C271.3,188.5,270.9,190.5,270.5,192.5z M265.9,186.9c0.4-1.9,0.6-3.8,0.7-5.7c1.8-0.8,3.7-1.6,5.5-2.5c0,1.7-0.1,3.4-0.2,5.1
		C269.9,184.8,267.9,185.8,265.9,186.9z"/>
	<path d="M277.6,206c-9.6,5-20.1,8.7-29.2,14.6c-0.4,0.2-0.1,0.9,0.4,0.7c9.9-4.2,20-8.9,29.2-14.5
		C278.4,206.5,278.1,205.7,277.6,206z"/>
	<path d="M274.4,212.7c-8.3,3.8-16.5,8.2-24.5,12.6c-0.4,0.2,0,0.9,0.4,0.7c8.6-3.1,16.9-7.5,24.5-12.6
		C275.2,213.1,274.9,212.5,274.4,212.7z"/>
	<path d="M131.6,71.5c-2.9,0.4-6.1,3.4-7.3,6c-0.2,0.4,0.3,0.7,0.6,0.4c1-0.9,1.9-2,3-2.8c1.3-1.1,2.8-2,3.9-3.2
		C131.9,71.8,131.8,71.5,131.6,71.5z"/>
	<path d="M132.1,73.7c-1.3,0.3-2.5,0.9-3.6,1.8c-0.8,0.7-2.1,1.8-1.9,2.9c0,0.3,0.3,0.4,0.6,0.3c0.5-0.1,0.8-0.5,1.1-0.9
		c0.4-0.5,0.8-0.9,1.3-1.3c0.9-0.8,1.9-1.4,2.9-2C132.9,74.3,132.6,73.5,132.1,73.7z"/>
	<path d="M131.1,76.6c-0.9,0.6-2.5,1.6-2.4,2.7c0,0.2,0.3,0.4,0.5,0.4c0.4-0.1,0.5-0.3,0.8-0.6c0.6-0.7,1-1.2,1.7-1.8
		C132.2,77,131.6,76.3,131.1,76.6z"/>
	<path d="M131.6,79.6c-0.3,0.4-0.7,0.7-0.7,1.3c0,0.2,0.2,0.4,0.4,0.4c0.6-0.1,0.8-0.5,1.1-0.9C133,79.8,132.1,79,131.6,79.6z"/>
	<path d="M119.9,88.6c0-0.2-0.2-0.3-0.3-0.1c-1.3,1.8-2.2,5.2-0.6,7.1c0.2,0.2,0.6,0.1,0.6-0.2c0.1-1-0.2-1.9-0.2-2.9
		C119.3,91.1,119.6,89.8,119.9,88.6z"/>
	<path d="M121.8,89.5c-0.6,1.4-1.2,3.4-0.3,4.7c0.1,0.2,0.4,0.2,0.4,0c0.2-0.4,0.3-0.7,0.3-1.1c0-1.1,0.2-2.2,0.5-3.3
		C122.9,89.2,122,89,121.8,89.5z"/>
	<path d="M123.9,91.4c-0.1,0.7-0.6,1.9-0.1,2.5c0.1,0.2,0.4,0.3,0.6,0.1c0.5-0.6,0.4-1.7,0.5-2.4C125,90.9,124,90.7,123.9,91.4z"/>
	<path d="M125,112.1c-0.7-0.7-1.6-1.2-2.2-1.9c-0.6-0.7-1.1-1.4-1.4-2.3c-0.1-0.3-0.6-0.2-0.5,0.1c0.3,1.8,1.8,4.5,4,4.3
		C125.1,112.4,125.1,112.2,125,112.1z"/>
	<path d="M126.7,108.8c-0.3-0.6-0.8-1-1.2-1.5c-0.4-0.4-0.6-0.9-0.8-1.5c-0.2-0.5-1-0.2-0.9,0.3c0.4,1.3,1.2,2.9,2.7,3.1
		C126.7,109.3,126.8,109,126.7,108.8z"/>
	<path d="M128.5,106.7c-0.3-0.8-1-1.2-1.4-1.9c-0.2-0.5-1.1-0.1-0.9,0.4c0.3,0.8,1,1.8,1.9,1.9C128.4,107.2,128.6,106.9,128.5,106.7
		z"/>
	<path d="M149.8,70.4c-2.1-1.8-5.5-2-8.1-1c-0.4,0.2-0.3,0.8,0.2,0.8c2.8-0.4,5-0.1,7.7,0.6C149.8,70.8,150,70.5,149.8,70.4z"/>
	<path d="M148.4,72.7c-0.4-0.7-1.2-0.9-2-1c-1.1-0.2-2.1-0.1-3.1,0.3c-0.4,0.1-0.3,0.9,0.2,0.8c0.9-0.1,1.9-0.1,2.8,0
		c0.7,0.1,1.2,0.5,1.9,0.4C148.4,73.1,148.5,72.8,148.4,72.7z"/>
	<path d="M144.4,74.1c-0.7,0.1-0.6,1.1,0.1,1.1c0.4,0,0.8,0,1.2,0c0.3,0,0.6,0.2,0.9,0.2c0.4,0,0.8-0.1,0.7-0.6
		C147.3,73.8,145,74,144.4,74.1z"/>
	<path d="M162.2,80.2c-0.3-0.4-0.7-0.8-1.1-1.1c-0.3-0.3-0.7-0.4-1-0.7c-0.2-0.2-0.5,0.1-0.3,0.3c0.1,0.2,0.1,0.4,0.2,0.5
		c0.3,0.6,0.7,1.1,1.1,1.6c0.6,0.7,1.4,2,2.3,2.3c0.2,0.1,0.6-0.1,0.6-0.4C163.8,81.8,162.8,80.9,162.2,80.2z"/>
	<path d="M159.2,80.3c-0.4-0.2-0.8,0.5-0.4,0.7c0.6,0.3,1,0.7,1.5,1.2c0.4,0.5,0.7,1.1,1.2,1.4c0.3,0.2,0.7-0.1,0.7-0.4
		C162.2,81.9,160.4,80.8,159.2,80.3z"/>
	<path d="M158.4,82.2c-0.5-0.1-0.9,0.5-0.4,0.8c0.5,0.3,0.9,0.6,1.4,1c0.2,0.2,0.4,0.3,0.8,0.3c0.2,0,0.3-0.2,0.4-0.3
		C160.7,82.9,159.2,82.4,158.4,82.2z"/>
	<path d="M141.8,118.7c-0.9-0.4-1.9-0.4-2.8-0.6c-1.1-0.2-2.2-0.6-3.3-1c-0.4-0.2-0.8,0.4-0.4,0.6c1.7,1.2,4.5,2.5,6.5,1.6
		C142,119.2,142,118.8,141.8,118.7z"/>
	<path d="M141.4,116c-0.7-0.1-1.4-0.3-2.1-0.4c-0.7-0.1-1.3-0.4-1.9-0.7c-0.4-0.2-1,0.3-0.6,0.7c0.6,0.6,1.3,1,2.1,1.2
		c1,0.3,1.7,0.2,2.6-0.1C141.8,116.6,141.8,116,141.4,116z"/>
	<path d="M141.8,113.6c-0.4-0.5-1.2-0.4-1.8-0.7c-0.7-0.3-1.3,0.7-0.6,1.1c0.7,0.3,1.7,0.7,2.3,0.1
		C141.9,114,141.9,113.7,141.8,113.6z"/>
	<path d="M121.3,72.4c-3.9,4-6.9,9.2-7.7,14.8c0,0.2,0.2,0.2,0.2,0.1c1.8-5.4,5.1-9.6,8-14.4C122.1,72.5,121.6,72.1,121.3,72.4z"/>
	<path d="M117.9,73.7c-3.2,3.1-5.3,7.1-5.7,11.6c0,0.3,0.4,0.3,0.5,0.1c1.7-3.9,3.1-7.8,5.7-11.3C118.6,73.7,118.2,73.4,117.9,73.7z
		"/>
</g>
</svg>
