<?xml version="1.0" encoding="UTF-8"?><svg xmlns="http://www.w3.org/2000/svg" xmlns:xlink="http://www.w3.org/1999/xlink" width="375" zoomAndPan="magnify" viewBox="0 0 375 374.999991" height="374.999991" preserveAspectRatio="xMidYMid meet" version="1.0"><path fill="rgb(0%, 0%, 0%)" d="M 130.699219 343.46875 C 130.28125 330.769531 129.113281 318.117188 129.046875 305.339844 C 128.980469 291.859375 130.980469 277.617188 128.945312 264.21875 C 131.226562 264.125 133.457031 263.683594 135.355469 262.695312 C 137.4375 261.609375 139.257812 257.851562 138.597656 255.246094 C 168.617188 232.917969 172.199219 188.289062 163.273438 154.496094 C 163.109375 153.882812 162.445312 153.761719 162.007812 154.023438 C 161.738281 153.648438 161.320312 153.375 160.71875 153.375 C 148.625 153.398438 136.796875 153.789062 124.664062 153.347656 C 110.425781 152.839844 96.027344 151.136719 81.824219 153.050781 C 81.617188 153.011719 81.410156 153.035156 81.214844 153.125 C 80.953125 153.160156 80.691406 153.179688 80.425781 153.21875 C 79.648438 153.339844 79.582031 154.667969 80.390625 154.792969 C 80.425781 154.796875 80.460938 154.804688 80.496094 154.808594 C 74.875 189.863281 74.570312 230.023438 105.359375 253.507812 C 105.578125 254.046875 106.019531 254.46875 106.679688 254.582031 C 106.414062 255.269531 106.25 256.011719 106.230469 256.945312 C 106.199219 258.636719 106.863281 260.046875 108.039062 261.242188 C 109.867188 263.117188 113.328125 264.300781 116.121094 264.265625 C 114.882812 290.34375 115.226562 316.382812 114.820312 342.457031 C 105.304688 345.917969 94.277344 349.941406 87.273438 357.570312 C 84.140625 360.980469 84.675781 369.691406 89.890625 368.285156 C 96.628906 374.304688 112.347656 373.875 119.769531 374.210938 C 130.207031 374.6875 141.632812 373.644531 151.078125 368.867188 C 151.148438 369.15625 151.378906 369.410156 151.703125 369.363281 C 158.980469 368.242188 158.859375 360.730469 154.277344 356.597656 C 147.707031 350.671875 139.375 345.507812 130.699219 343.46875 Z M 153.667969 196.980469 C 152.980469 206.359375 149.3125 215.648438 145.644531 224.1875 C 142.027344 232.597656 136.527344 237.542969 130.066406 243.289062 C 92.136719 250.925781 89.554688 203.804688 90.304688 172.433594 C 111.046875 172.808594 132.640625 174.304688 153.195312 170.832031 C 153.429688 179.546875 154.296875 188.367188 153.667969 196.980469 Z M 120.703125 156.761719 C 131.761719 156.773438 142.714844 156.746094 153.710938 156.746094 C 153.234375 160.445312 153.117188 164.203125 153.148438 167.984375 C 132.378906 171.601562 111.265625 168.105469 90.378906 169.78125 C 90.53125 164.527344 90.761719 159.785156 90.898438 155.957031 C 100.808594 156.746094 111.074219 156.753906 120.703125 156.761719 Z M 152.316406 367.050781 C 143.898438 368.21875 135.789062 370.457031 127.164062 370.671875 C 118.109375 370.898438 97.277344 372.425781 89.660156 364.359375 C 86.894531 357.75 109.074219 347.207031 114.785156 344.664062 C 114.785156 344.75 114.785156 344.839844 114.785156 344.929688 C 114.785156 344.953125 114.773438 344.96875 114.773438 344.992188 L 114.78125 345.335938 C 114.765625 346.222656 115.457031 346.679688 116.144531 346.6875 C 116.832031 346.71875 117.511719 346.304688 117.496094 345.417969 L 117.503906 345.066406 C 117.503906 345.046875 117.496094 345.03125 117.496094 345.015625 C 117.019531 317.957031 119.453125 290.652344 118.203125 263.648438 C 118.675781 263.082031 118.605469 262.242188 118.09375 261.757812 C 117.886719 261.054688 116.886719 260.941406 116.4375 261.4375 C 114.097656 261.707031 110.785156 260.625 109.300781 258.882812 C 108.285156 257.699219 108.523438 255.570312 108.8125 254.171875 C 108.816406 254.144531 108.828125 254.050781 108.839844 253.933594 C 109.578125 253.097656 109.570312 251.695312 108.414062 250.964844 C 92.695312 240.984375 84.027344 220.820312 81.199219 203.074219 C 78.613281 186.839844 83.023438 171.1875 82.695312 155.101562 C 84.738281 155.378906 86.824219 155.59375 88.914062 155.785156 C 89.054688 156.0625 89.316406 156.28125 89.714844 156.296875 C 86.933594 156.191406 87.59375 189.996094 87.6875 192.714844 C 88.074219 204.121094 89.953125 215.347656 93.871094 226.058594 C 99.699219 242 114.339844 253.007812 130.394531 245.015625 C 143.429688 242.945312 149.070312 224.785156 152.660156 214.265625 C 158.707031 196.523438 158.265625 175.171875 155.242188 156.742188 C 157.070312 156.742188 158.886719 156.738281 160.71875 156.738281 C 161.105469 156.742188 161.402344 156.605469 161.652344 156.429688 C 161.984375 174.371094 166.160156 191.492188 161.65625 209.550781 C 157.390625 226.65625 150.203125 242.699219 135.738281 253.527344 C 135.726562 253.535156 135.722656 253.542969 135.710938 253.550781 C 135.59375 253.644531 135.496094 253.753906 135.425781 253.875 C 135.042969 254.386719 135.085938 254.988281 135.390625 255.472656 C 136.0625 262.402344 124.648438 261.105469 120.242188 262.488281 C 119.964844 262.574219 119.96875 262.960938 120.246094 263.046875 C 122.289062 263.675781 124.644531 264.109375 127.011719 264.21875 C 124.960938 277.378906 125.945312 291.898438 126.457031 305.109375 C 127.003906 318.925781 127.167969 332.824219 127.230469 346.640625 C 127.230469 346.640625 127.226562 346.644531 127.226562 346.644531 L 127.230469 346.988281 C 127.242188 349.332031 130.804688 348.847656 130.820312 346.558594 L 130.820312 346.515625 C 136.757812 348.285156 142.078125 350.789062 147.105469 354.472656 C 151.546875 357.730469 157.070312 361.074219 152.316406 367.050781 Z M 152.316406 367.050781 " fill-opacity="1" fill-rule="nonzero"/><path fill="rgb(0%, 0%, 0%)" d="M 126.097656 253.277344 C 123.902344 253.617188 121.699219 253.152344 119.507812 252.980469 C 117.214844 252.804688 114.910156 252.773438 112.613281 252.8125 C 111.445312 252.828125 111.566406 254.550781 112.699219 254.597656 C 113.695312 254.636719 127.632812 255.257812 127.625 254.496094 C 127.636719 255.40625 129.054688 255.214844 129.03125 254.304688 C 128.992188 252.796875 127.109375 253.117188 126.097656 253.277344 Z M 126.097656 253.277344 " fill-opacity="1" fill-rule="nonzero"/><path fill="rgb(0%, 0%, 0%)" d="M 297.222656 243.058594 C 296.800781 210.492188 300.234375 176.578125 297.300781 144 C 300.003906 132.261719 297.160156 118.382812 289.269531 109.269531 C 283.996094 103.183594 272.894531 99.070312 264.890625 100.851562 C 264.925781 91.234375 263.4375 81.617188 263.960938 71.941406 C 264.453125 62.84375 265.675781 52.898438 264.285156 43.789062 C 266.4375 42.953125 268.417969 41.640625 269.652344 39.640625 C 271.34375 36.902344 270.578125 34.203125 269.691406 31.292969 C 268.832031 28.5 265.648438 25.636719 262.34375 24.40625 C 264.183594 18.902344 265.082031 12.8125 261.796875 7.679688 C 258.734375 2.890625 251.179688 3.359375 246.421875 4 C 237.972656 5.140625 230.289062 0.0820312 223.066406 6.734375 C 218.09375 11.308594 219.765625 18.941406 222.191406 24.40625 C 221.042969 24.675781 219.832031 25.359375 219.011719 25.789062 C 216.160156 27.289062 214.875 30.941406 214.109375 33.855469 C 213.339844 36.777344 216.371094 43.429688 219.894531 43.679688 C 219 52.347656 220.09375 61.320312 219.804688 70.019531 C 219.449219 80.671875 219.898438 91.339844 220.546875 101.976562 C 193.722656 100.179688 182.820312 124.09375 186.511719 147.152344 C 184.953125 162.261719 186.113281 178.214844 185.742188 193.285156 C 185.277344 212.09375 184.667969 230.898438 184.742188 249.71875 C 184.808594 267.304688 185.398438 284.910156 185.242188 302.496094 C 185.152344 312.414062 186.152344 322.203125 185.644531 332.136719 C 185.21875 340.371094 184.726562 348.277344 186.148438 356.441406 C 186.226562 356.882812 186.421875 357.210938 186.660156 357.484375 C 187.289062 360.765625 189.355469 363.808594 191.726562 366.183594 C 193.910156 368.375 199.734375 372.78125 203.246094 371.355469 C 207.851562 373.292969 212.488281 372.710938 217.566406 372.742188 C 225.570312 372.789062 233.582031 373.035156 241.585938 373.164062 C 253.9375 373.367188 266.351562 372.929688 278.644531 371.675781 C 283.664062 372.296875 289.261719 368.742188 292.625 365.410156 C 294.28125 363.765625 295.589844 361.730469 296.511719 359.527344 C 297.402344 360 298.734375 359.710938 298.753906 358.496094 C 299.320312 320.054688 297.710938 281.515625 297.222656 243.058594 Z M 229.242188 6.746094 C 232.828125 5.597656 237.992188 7.15625 241.671875 7.710938 C 244.828125 8.1875 247.980469 7.414062 251.125 7.335938 C 262.011719 7.0625 260.273438 16.714844 258.484375 23.566406 C 252.394531 22.597656 245.78125 22.808594 239.710938 22.863281 C 235.976562 22.898438 228.8125 21.972656 224.429688 23.464844 C 224.363281 23.449219 224.308594 23.417969 224.234375 23.410156 C 224.351562 21.972656 224.117188 20.589844 223.546875 19.261719 C 221.894531 14 223.796875 9.832031 229.242188 6.746094 Z M 189.496094 147.675781 C 190.078125 141.34375 189.640625 134.945312 191.164062 128.488281 C 192.742188 121.785156 194.5625 116.367188 200.003906 111.722656 C 201.46875 110.472656 220.226562 103.402344 220.550781 104.011719 C 220.578125 104.070312 220.636719 104.085938 220.675781 104.132812 C 220.695312 104.453125 220.710938 104.773438 220.730469 105.09375 C 220.832031 106.621094 223.160156 106.382812 223.320312 104.96875 C 223.359375 104.597656 223.402344 104.226562 223.445312 103.855469 C 223.46875 103.644531 223.410156 103.46875 223.328125 103.316406 C 223.503906 92.179688 222.828125 81.140625 223.183594 69.988281 C 223.46875 61.167969 223.949219 51.660156 222.144531 42.925781 C 222.222656 42.871094 222.300781 42.828125 222.378906 42.753906 C 222.292969 42.769531 222.203125 42.785156 222.117188 42.796875 C 221.988281 42.175781 221.875 41.546875 221.722656 40.933594 C 221.578125 40.375 221.050781 40.253906 220.652344 40.445312 C 219.84375 39.484375 218.9375 38.542969 218.660156 38.132812 C 217.867188 36.976562 217.488281 35.855469 217.640625 34.445312 C 217.945312 31.675781 220.527344 25.644531 224.316406 26.296875 C 224.628906 26.351562 224.855469 26.183594 224.957031 25.953125 C 230.550781 26.550781 236.246094 26.019531 241.851562 26.074219 C 247.335938 26.121094 252.742188 26.636719 258.171875 25.871094 C 258.507812 27.066406 260.003906 27.609375 261.019531 26.972656 C 262.433594 27.527344 263.816406 28.136719 265.035156 29.289062 C 268.980469 33.023438 268.296875 38.84375 263.496094 40.8125 C 262.863281 40.371094 261.734375 40.671875 261.605469 41.535156 C 261.605469 41.542969 261.605469 41.542969 261.605469 41.542969 C 260.820312 42.101562 260.796875 43.261719 261.308594 43.917969 C 258.910156 63.570312 261.484375 83.15625 262.046875 102.804688 C 262.097656 104.625 264.773438 104.554688 264.871094 102.785156 C 267.808594 103.980469 270.878906 104.542969 273.992188 105.34375 C 281.265625 107.214844 286.097656 111.636719 289.628906 118.128906 C 292.835938 124.03125 293.546875 130.644531 294.523438 137.160156 C 293.3125 154.925781 293.175781 172.878906 293.3125 190.851562 C 279.695312 187.6875 262.972656 190.179688 249.238281 190.378906 C 229.347656 190.660156 209.121094 189.566406 189.285156 190.65625 C 189.738281 176.628906 191.160156 161.695312 189.496094 147.675781 Z M 189.195312 193.4375 C 206.140625 195.644531 223.890625 194.355469 240.90625 194.089844 C 251.054688 193.929688 261.199219 193.765625 271.347656 193.738281 C 278.5625 193.71875 286.214844 194.601562 293.324219 193.125 C 293.488281 211.304688 293.90625 229.488281 293.78125 247.496094 C 293.652344 266.070312 293.066406 284.714844 294.039062 303.277344 C 294.304688 308.371094 294.382812 313.476562 294.410156 318.589844 C 259.707031 318.136719 224.804688 317.671875 190.113281 318.890625 C 190.257812 314.867188 190.375 310.832031 190.394531 306.78125 C 190.480469 287.625 189.101562 268.410156 188.890625 249.253906 C 188.683594 230.644531 188.769531 212.042969 189.195312 193.4375 Z M 288.871094 362.941406 C 286.171875 365.671875 282.683594 366.847656 279.566406 368.691406 C 279.5 368.6875 279.445312 368.660156 279.378906 368.660156 C 266.636719 368.800781 253.925781 369.179688 241.179688 369.035156 C 230.734375 368.914062 214.5 365.492188 204.351562 369.699219 C 203.144531 367.125 198.839844 366.273438 196.605469 364.738281 C 193.542969 362.632812 191.914062 359.8125 190.175781 356.949219 C 190.292969 356.652344 190.359375 356.320312 190.320312 355.925781 C 189.109375 344.417969 189.585938 333.0625 190.011719 321.652344 C 224.796875 322.066406 259.648438 321.726562 294.429688 321.269531 C 294.453125 331.683594 294.34375 342.113281 295.160156 352.453125 C 293.65625 356.347656 291.949219 359.820312 288.871094 362.941406 Z M 288.871094 362.941406 " fill-opacity="1" fill-rule="nonzero"/><path fill="rgb(0%, 0%, 0%)" d="M 256.261719 41.472656 C 250.976562 40.101562 245.058594 40.621094 239.617188 40.632812 C 234.828125 40.644531 230.164062 40.6875 225.4375 41.328125 C 225.125 41.371094 224.90625 41.808594 225.152344 42.054688 C 227.613281 44.476562 232.386719 43.585938 235.542969 43.59375 C 242.257812 43.609375 249.863281 44.433594 256.371094 42.734375 C 257.066406 42.554688 256.835938 41.621094 256.261719 41.472656 Z M 256.261719 41.472656 " fill-opacity="1" fill-rule="nonzero"/><path fill="rgb(0%, 0%, 0%)" d="M 110.324219 159.097656 C 105.714844 158.015625 100.335938 157.804688 95.082031 158.039062 C 95.066406 157.859375 95.0625 157.671875 95.050781 157.492188 C 95.019531 157.15625 94.5625 157.199219 94.496094 157.488281 C 94.449219 157.675781 94.417969 157.875 94.375 158.0625 C 90.949219 158.242188 87.59375 158.601562 84.558594 159.035156 C 84.199219 159.089844 84.199219 159.683594 84.550781 159.75 C 87.691406 160.339844 90.757812 160.28125 93.921875 160.234375 C 93.804688 160.859375 93.6875 161.488281 93.585938 162.125 C 91.222656 162.417969 88.90625 162.804688 86.746094 163.222656 C 86.195312 163.328125 86.246094 164.105469 86.820312 164.09375 C 88.925781 164.054688 91.101562 164.074219 93.296875 164.097656 C 93.195312 164.832031 93.109375 165.574219 93.035156 166.320312 C 90.527344 166.460938 88.046875 166.683594 85.6875 167.0625 C 85.078125 167.160156 84.863281 168.179688 85.59375 168.238281 C 87.945312 168.433594 90.382812 168.484375 92.828125 168.472656 C 92.660156 170.691406 92.589844 172.929688 92.585938 175.167969 C 89.730469 175.28125 86.933594 175.542969 84.335938 176 C 83.84375 176.085938 83.78125 176.839844 84.316406 176.90625 C 86.949219 177.203125 89.753906 177.417969 92.601562 177.53125 C 92.640625 179.070312 92.71875 180.589844 92.828125 182.101562 C 90.460938 182.066406 88.097656 182.082031 85.710938 182.199219 C 85.289062 182.21875 85.171875 182.898438 85.621094 182.957031 C 88.078125 183.300781 90.511719 183.519531 92.949219 183.660156 C 93.074219 185.070312 93.21875 186.457031 93.402344 187.816406 C 91.09375 187.933594 88.785156 188.105469 86.484375 188.386719 C 85.714844 188.480469 85.78125 189.542969 86.542969 189.574219 C 92.960938 189.839844 99.390625 189.5 105.78125 188.945312 C 106.371094 188.894531 106.285156 187.984375 105.730469 187.941406 C 101.808594 187.640625 97.886719 187.609375 93.972656 187.789062 C 94.046875 186.449219 94.136719 185.101562 94.230469 183.746094 C 97.441406 183.886719 100.652344 183.859375 103.917969 183.617188 C 104.507812 183.574219 104.421875 182.652344 103.863281 182.609375 C 100.675781 182.363281 97.515625 182.1875 94.347656 182.113281 C 94.460938 180.613281 94.570312 179.105469 94.683594 177.59375 C 99.453125 177.699219 104.285156 177.511719 108.65625 176.890625 C 109.136719 176.820312 109.203125 176.097656 108.695312 176.019531 C 104.394531 175.394531 99.589844 175.058594 94.855469 175.113281 C 95.003906 172.886719 95.132812 170.664062 95.214844 168.445312 C 99.0625 168.328125 102.914062 168.003906 106.582031 167.480469 C 107.03125 167.414062 106.867188 166.808594 106.496094 166.753906 C 102.914062 166.257812 99.082031 166.097656 95.269531 166.203125 C 95.28125 165.503906 95.285156 164.808594 95.285156 164.109375 C 99.925781 164.132812 104.613281 164.042969 108.964844 163.199219 C 109.304688 163.132812 109.328125 162.613281 108.988281 162.523438 C 104.753906 161.429688 99.945312 161.445312 95.265625 161.921875 C 95.25 161.359375 95.222656 160.789062 95.199219 160.226562 C 100.203125 160.183594 105.320312 160.351562 110.273438 159.707031 C 110.574219 159.667969 110.636719 159.171875 110.324219 159.097656 Z M 110.324219 159.097656 " fill-opacity="1" fill-rule="nonzero"/><path fill="rgb(0%, 0%, 0%)" d="M 115.292969 228.953125 C 114.117188 228.902344 112.902344 228.859375 111.6875 228.820312 C 111.042969 227.335938 110.402344 225.851562 109.796875 224.359375 C 111.015625 224.296875 112.234375 224.214844 113.4375 224.054688 C 113.890625 223.996094 113.992188 223.285156 113.496094 223.222656 C 112.085938 223.039062 110.667969 222.957031 109.242188 222.910156 C 108.617188 221.3125 108.023438 219.691406 107.464844 218.054688 C 108.894531 217.902344 110.308594 217.703125 111.683594 217.367188 C 112.085938 217.273438 112.046875 216.601562 111.628906 216.558594 C 110.089844 216.402344 108.527344 216.421875 106.960938 216.492188 C 106.679688 215.621094 106.371094 214.765625 106.117188 213.875 C 105.964844 213.34375 105.226562 213.605469 105.238281 214.089844 C 105.257812 214.921875 105.324219 215.746094 105.40625 216.574219 C 103.949219 216.664062 102.488281 216.777344 101.050781 216.839844 C 100.703125 215.511719 100.390625 214.171875 100.101562 212.820312 C 103.1875 212.617188 106.261719 212.324219 109.261719 211.886719 C 109.867188 211.800781 109.757812 210.890625 109.179688 210.847656 C 106.050781 210.617188 102.863281 210.597656 99.664062 210.660156 C 99.425781 209.386719 99.210938 208.097656 99.003906 206.796875 C 102.855469 206.789062 106.855469 206.730469 110.527344 205.804688 C 110.855469 205.71875 110.859375 205.277344 110.519531 205.214844 C 106.796875 204.519531 102.96875 204.738281 99.191406 204.71875 C 99.027344 204.71875 98.855469 204.714844 98.691406 204.714844 C 98.550781 203.707031 98.414062 202.6875 98.285156 201.660156 C 102.058594 201.476562 105.820312 201.070312 109.464844 200.472656 C 109.789062 200.417969 109.800781 199.894531 109.453125 199.882812 C 105.683594 199.789062 101.886719 199.855469 98.085938 199.992188 C 97.902344 198.410156 97.730469 196.804688 97.566406 195.171875 C 100.980469 194.96875 104.375 194.601562 107.605469 193.96875 C 108.089844 193.867188 108.164062 193.125 107.621094 193.0625 C 100.058594 192.164062 91.828125 192.9375 84.320312 194.109375 C 83.800781 194.191406 83.777344 195.003906 84.328125 195.050781 C 88.207031 195.367188 92.277344 195.449219 96.328125 195.265625 C 96.261719 196.84375 96.253906 198.445312 96.300781 200.066406 C 92.847656 200.210938 89.394531 200.394531 85.96875 200.574219 C 85.527344 200.597656 85.425781 201.324219 85.894531 201.371094 C 89.320312 201.738281 92.835938 201.8125 96.355469 201.714844 C 96.410156 202.703125 96.476562 203.695312 96.570312 204.6875 C 92.886719 204.636719 89.164062 204.585938 85.554688 205.21875 C 84.984375 205.320312 85.03125 206.246094 85.582031 206.339844 C 89.28125 206.96875 93.066406 206.820312 96.8125 206.808594 C 96.96875 208.105469 97.15625 209.40625 97.386719 210.699219 C 93.191406 210.859375 89 211.191406 84.90625 211.59375 C 84.148438 211.671875 84.199219 212.6875 84.933594 212.75 C 89.164062 213.128906 93.507812 213.171875 97.835938 212.96875 C 98.117188 214.292969 98.425781 215.601562 98.78125 216.90625 C 95.1875 216.972656 91.5625 216.9375 88.035156 217.554688 C 87.46875 217.652344 87.527344 218.4375 88.066406 218.527344 C 91.730469 219.136719 95.449219 218.804688 99.140625 218.582031 C 99.1875 218.578125 99.230469 218.574219 99.277344 218.574219 C 99.707031 219.996094 100.175781 221.40625 100.699219 222.789062 C 96.984375 222.703125 93.226562 222.59375 89.585938 223.371094 C 88.933594 223.511719 89.128906 224.359375 89.699219 224.441406 C 93.269531 224.980469 96.894531 224.683594 100.492188 224.554688 C 100.796875 224.542969 101.105469 224.542969 101.410156 224.539062 C 102 225.957031 102.640625 227.34375 103.339844 228.695312 C 99.816406 228.746094 96.316406 228.953125 93.015625 229.476562 C 92.441406 229.566406 92.488281 230.511719 93.042969 230.59375 C 96.714844 231.148438 100.65625 231.195312 104.59375 231.003906 C 105.277344 232.179688 106.015625 233.3125 106.789062 234.414062 C 103.496094 234.359375 100.179688 234.609375 97.105469 235.304688 C 96.726562 235.390625 96.777344 235.917969 97.148438 235.964844 C 100.671875 236.402344 104.378906 236.34375 108.035156 236.125 C 108.503906 236.730469 108.980469 237.339844 109.476562 237.917969 C 109.695312 238.175781 110.078125 237.894531 109.898438 237.605469 C 109.578125 237.09375 109.285156 236.582031 108.984375 236.070312 C 110.675781 235.957031 112.363281 235.824219 114.003906 235.671875 C 114.007812 235.671875 114.007812 235.671875 114.011719 235.667969 C 114.324219 235.902344 114.707031 235.511719 114.546875 235.167969 C 113.800781 233.554688 113.074219 231.957031 112.359375 230.359375 C 113.382812 230.25 114.414062 230.144531 115.40625 230.027344 C 116.035156 229.953125 115.886719 228.980469 115.292969 228.953125 Z M 102.851562 222.828125 C 102.347656 221.378906 101.890625 219.921875 101.480469 218.457031 C 102.855469 218.394531 104.242188 218.324219 105.621094 218.222656 C 105.851562 219.785156 106.164062 221.339844 106.609375 222.851562 C 105.351562 222.84375 104.097656 222.84375 102.851562 222.828125 Z M 103.4375 224.5 C 104.675781 224.484375 105.917969 224.472656 107.160156 224.449219 C 107.675781 225.925781 108.28125 227.363281 109.007812 228.746094 C 107.726562 228.714844 106.449219 228.679688 105.15625 228.679688 C 104.535156 227.289062 103.957031 225.894531 103.4375 224.5 Z M 113.363281 234.964844 C 111.636719 234.699219 109.855469 234.539062 108.046875 234.457031 C 107.382812 233.273438 106.773438 232.09375 106.195312 230.90625 C 107.492188 230.824219 108.78125 230.707031 110.058594 230.585938 C 111.015625 232.144531 112.125 233.605469 113.363281 234.964844 Z M 113.363281 234.964844 " fill-opacity="1" fill-rule="nonzero"/><path fill="rgb(0%, 0%, 0%)" d="M 116.503906 238.859375 C 113.960938 238.3125 111.3125 238.5 108.730469 238.589844 C 106.550781 238.664062 104.304688 238.734375 102.347656 239.75 C 102.046875 239.902344 101.90625 240.40625 102.3125 240.558594 C 104.773438 241.484375 107.484375 241.121094 110.058594 240.910156 C 112.207031 240.730469 114.40625 240.574219 116.453125 239.875 C 116.890625 239.726562 117.082031 238.984375 116.503906 238.859375 Z M 116.503906 238.859375 " fill-opacity="1" fill-rule="nonzero"/><path fill="rgb(0%, 0%, 0%)" d="M 121.1875 271.679688 C 120.644531 270.101562 119.777344 268.664062 119.191406 267.097656 C 118.742188 265.890625 118.554688 264.597656 117.996094 263.433594 C 117.882812 263.199219 117.46875 263.179688 117.359375 263.429688 C 116.117188 266.257812 117.800781 270.613281 120.203125 272.34375 C 120.679688 272.683594 121.394531 272.296875 121.1875 271.679688 Z M 121.1875 271.679688 " fill-opacity="1" fill-rule="nonzero"/><path fill="rgb(0%, 0%, 0%)" d="M 121.148438 302.839844 C 121.621094 303.023438 122.234375 302.582031 121.996094 302.046875 C 121.230469 300.320312 119.8125 298.988281 119.050781 297.230469 C 118.429688 295.796875 118.214844 294.226562 118.09375 292.679688 C 118.839844 293.898438 119.839844 294.921875 121.234375 295.53125 C 121.625 295.703125 122.027344 295.242188 121.851562 294.871094 C 121.027344 293.121094 119.800781 291.625 119.070312 289.824219 C 118.4375 288.285156 118.167969 286.597656 118.058594 284.925781 C 118.574219 285.492188 119.167969 285.972656 119.914062 286.242188 C 120.296875 286.382812 120.660156 286.007812 120.585938 285.632812 C 120.371094 284.527344 119.765625 283.574219 119.269531 282.570312 C 118.246094 280.484375 117.769531 278.21875 117.519531 275.917969 C 118.332031 277.144531 119.40625 278.132812 120.613281 278.585938 C 121.21875 278.816406 121.699219 278.183594 121.386719 277.644531 C 120.53125 276.183594 119.429688 274.921875 118.695312 273.382812 C 118.011719 271.953125 117.71875 270.386719 116.949219 268.996094 C 116.765625 268.660156 116.316406 268.820312 116.214844 269.125 C 115.589844 271.003906 116.085938 273.414062 117.214844 275.375 C 116.875 275.171875 116.359375 275.296875 116.253906 275.777344 C 115.796875 277.863281 115.882812 280.953125 116.960938 283.289062 C 116.910156 283.351562 116.847656 283.394531 116.828125 283.484375 C 116.269531 286.144531 116.417969 289.488281 117.722656 292.082031 C 117.347656 291.933594 116.8125 292.132812 116.730469 292.613281 C 116.34375 294.824219 116.722656 297.742188 117.980469 299.953125 C 117.699219 299.753906 117.296875 299.738281 117.144531 300.132812 C 115.65625 303.984375 116.21875 310.644531 120.976562 312.097656 C 121.433594 312.234375 121.78125 311.769531 121.605469 311.359375 C 120.941406 309.785156 119.632812 308.578125 118.875 307.027344 C 117.90625 305.042969 117.859375 302.652344 118.257812 300.523438 C 118.273438 300.429688 118.230469 300.359375 118.207031 300.277344 C 118.933594 301.425781 119.894531 302.363281 121.148438 302.839844 Z M 121.148438 302.839844 " fill-opacity="1" fill-rule="nonzero"/><path fill="rgb(0%, 0%, 0%)" d="M 121.957031 326.898438 C 121.554688 325.152344 119.914062 323.828125 119.039062 322.277344 C 118.207031 320.800781 117.9375 319.070312 117.921875 317.378906 C 118.378906 317.953125 118.898438 318.457031 119.539062 318.792969 C 119.996094 319.035156 120.535156 318.566406 120.375 318.078125 C 119.9375 316.757812 119.035156 315.640625 118.441406 314.382812 C 117.671875 312.742188 117.335938 310.789062 117.289062 308.988281 C 117.269531 308.128906 116.035156 307.980469 115.929688 308.875 C 115.703125 310.835938 115.929688 313.535156 116.886719 315.699219 C 116.648438 315.789062 116.441406 315.964844 116.371094 316.242188 C 115.722656 318.757812 115.816406 321.039062 116.785156 323.441406 C 116.867188 323.640625 116.964844 323.855469 117.070312 324.0625 C 116.859375 324.070312 116.664062 324.148438 116.570312 324.402344 C 115.167969 328.152344 115.71875 333.796875 119.90625 335.535156 C 120.328125 335.707031 120.703125 335.214844 120.53125 334.835938 C 120.019531 333.710938 119.320312 332.714844 118.726562 331.632812 C 117.640625 329.667969 117.53125 327.371094 117.734375 325.183594 C 118.636719 326.488281 119.921875 327.621094 121.417969 327.632812 C 121.808594 327.636719 122.039062 327.246094 121.957031 326.898438 Z M 121.957031 326.898438 " fill-opacity="1" fill-rule="nonzero"/><path fill="rgb(0%, 0%, 0%)" d="M 119.617188 338.726562 C 118.570312 337.332031 117.863281 335.71875 117.324219 334.074219 C 117.027344 333.175781 115.699219 333.496094 115.898438 334.433594 C 116.257812 336.15625 116.800781 337.78125 117.59375 339.351562 C 118.296875 340.753906 119.695312 343.117188 121.503906 342.910156 C 121.878906 342.867188 122.089844 342.503906 122.0625 342.152344 C 121.949219 340.828125 120.382812 339.753906 119.617188 338.726562 Z M 119.617188 338.726562 " fill-opacity="1" fill-rule="nonzero"/><path fill="rgb(0%, 0%, 0%)" d="M 119.949219 353.167969 C 118.1875 352.832031 116.492188 352.417969 114.828125 351.929688 C 115.015625 351.726562 115.203125 351.527344 115.394531 351.328125 C 115.773438 350.929688 115.132812 350.367188 114.722656 350.671875 C 114.339844 350.957031 113.984375 351.257812 113.617188 351.550781 C 112.859375 351.296875 112.097656 351.027344 111.347656 350.726562 C 112.757812 349.46875 114.113281 348.167969 115.269531 346.691406 C 115.457031 346.453125 115.140625 346.058594 114.875 346.230469 C 113.117188 347.355469 111.441406 348.667969 109.816406 350.046875 C 109.480469 349.894531 109.144531 349.765625 108.804688 349.601562 C 108.355469 349.378906 108.019531 349.964844 108.34375 350.296875 C 108.527344 350.484375 108.730469 350.644531 108.921875 350.820312 C 108.207031 351.445312 107.5 352.078125 106.804688 352.71875 C 106.363281 352.375 105.914062 352.046875 105.4375 351.753906 C 105.042969 351.511719 104.609375 351.828125 104.734375 352.277344 C 104.894531 352.875 105.15625 353.425781 105.492188 353.941406 C 105.097656 354.3125 104.699219 354.679688 104.308594 355.046875 C 103.65625 355.65625 103.003906 356.292969 102.355469 356.945312 C 102.019531 356.730469 101.691406 356.503906 101.347656 356.304688 C 101.078125 356.152344 100.660156 356.429688 100.792969 356.746094 C 100.957031 357.152344 101.167969 357.542969 101.402344 357.929688 C 100.320312 359.082031 99.277344 360.296875 98.375 361.589844 C 97.964844 361.296875 97.5625 361 97.140625 360.726562 C 96.253906 360.148438 95.445312 361.199219 95.964844 362.003906 C 96.3125 362.546875 96.730469 363.050781 97.175781 363.535156 C 96.707031 364.382812 96.289062 365.25 95.972656 366.152344 C 95.84375 366.53125 96.425781 366.820312 96.667969 366.511719 C 97.183594 365.847656 97.683594 365.195312 98.1875 364.539062 C 99.394531 365.605469 100.824219 366.507812 102.375 367.234375 C 102.355469 367.328125 102.324219 367.417969 102.3125 367.503906 C 102.238281 367.964844 102.835938 368.203125 103.121094 367.855469 C 103.183594 367.777344 103.230469 367.6875 103.292969 367.609375 C 107.539062 369.355469 112.488281 369.789062 116.277344 368.417969 C 116.824219 368.21875 116.824219 367.308594 116.1875 367.238281 C 114.015625 366.984375 111.910156 366.914062 109.824219 366.664062 C 110.164062 365.835938 110.5 365.011719 110.84375 364.1875 C 113.414062 364.851562 116.023438 364.914062 118.121094 364.140625 C 118.714844 363.925781 118.621094 363.171875 118.0625 362.992188 C 116.109375 362.351562 114.109375 362.113281 112.125 361.734375 C 112.679688 360.84375 113.277344 359.980469 113.949219 359.171875 C 114.097656 358.992188 114.121094 358.808594 114.078125 358.640625 C 115.59375 358.917969 117.0625 359.007812 118.269531 358.871094 C 118.984375 358.792969 119.019531 357.738281 118.304688 357.625 C 115.914062 357.226562 113.589844 356.683594 111.363281 355.738281 C 112.007812 354.984375 112.664062 354.242188 113.335938 353.515625 C 115.421875 354.308594 117.699219 354.601562 119.945312 354.253906 C 120.503906 354.167969 120.484375 353.269531 119.949219 353.167969 Z M 106.179688 355.261719 C 106.253906 355.191406 106.335938 355.125 106.410156 355.054688 C 106.992188 355.652344 107.703125 356.15625 108.460938 356.613281 C 108.140625 356.992188 107.816406 357.363281 107.507812 357.761719 C 107.082031 358.3125 106.636719 358.910156 106.195312 359.519531 C 105.335938 358.980469 104.507812 358.394531 103.671875 357.8125 C 104.46875 356.945312 105.296875 356.089844 106.179688 355.261719 Z M 103.132812 364.753906 C 101.929688 364.113281 100.828125 363.347656 99.734375 362.554688 C 100.601562 361.441406 101.492188 360.351562 102.40625 359.285156 C 103.101562 360.082031 103.960938 360.796875 104.886719 361.453125 C 104.214844 362.515625 103.601562 363.625 103.132812 364.753906 Z M 108.171875 366.417969 C 107.066406 366.222656 105.960938 365.953125 104.847656 365.542969 C 104.8125 365.527344 104.78125 365.511719 104.742188 365.5 C 105.351562 364.503906 105.925781 363.484375 106.507812 362.46875 C 107.347656 362.929688 108.234375 363.320312 109.136719 363.652344 C 108.699219 364.546875 108.359375 365.472656 108.171875 366.417969 Z M 112.898438 358.367188 C 112.890625 358.375 112.882812 358.375 112.878906 358.378906 C 112.0625 359.269531 111.230469 360.277344 110.484375 361.359375 C 109.863281 361.195312 109.246094 361.03125 108.632812 360.789062 C 108.34375 360.671875 108.070312 360.527344 107.789062 360.394531 C 107.949219 360.152344 108.09375 359.898438 108.261719 359.660156 C 108.8125 358.894531 109.382812 358.136719 109.972656 357.402344 C 110.910156 357.820312 111.90625 358.121094 112.898438 358.367188 Z M 109.894531 354.996094 C 109.222656 354.59375 108.589844 354.144531 107.980469 353.660156 C 108.699219 353.042969 109.414062 352.417969 110.136719 351.796875 C 110.726562 352.222656 111.355469 352.589844 112.003906 352.917969 C 111.273438 353.582031 110.570312 354.273438 109.894531 354.996094 Z M 109.894531 354.996094 " fill-opacity="1" fill-rule="nonzero"/><path fill="rgb(0%, 0%, 0%)" d="M 242.980469 9.722656 C 240.472656 8.90625 237.542969 9.285156 234.9375 9.242188 C 232.851562 9.207031 229.722656 8.503906 227.804688 9.445312 C 227.558594 9.566406 227.570312 9.910156 227.78125 10.054688 C 229.402344 11.113281 232.300781 10.753906 234.148438 10.808594 C 236.957031 10.890625 240.328125 11.34375 242.980469 10.238281 C 243.191406 10.152344 243.222656 9.800781 242.980469 9.722656 Z M 242.980469 9.722656 " fill-opacity="1" fill-rule="nonzero"/><path fill="rgb(0%, 0%, 0%)" d="M 242.296875 13.503906 C 239.691406 12.707031 236.96875 12.832031 234.265625 12.839844 C 231.226562 12.851562 228.109375 12.875 225.167969 13.691406 C 224.832031 13.785156 224.785156 14.324219 225.160156 14.402344 C 227.8125 14.933594 230.5 14.851562 233.195312 14.863281 C 236.191406 14.875 239.375 15.03125 242.257812 14.148438 C 242.558594 14.058594 242.640625 13.613281 242.296875 13.503906 Z M 242.296875 13.503906 " fill-opacity="1" fill-rule="nonzero"/><path fill="rgb(0%, 0%, 0%)" d="M 240.488281 17.78125 C 238.46875 17.007812 236.164062 17.488281 234.042969 17.667969 C 231.433594 17.894531 228.84375 18.382812 226.269531 18.859375 C 225.820312 18.945312 225.953125 19.6875 226.402344 19.648438 C 228.925781 19.414062 231.453125 19.277344 233.984375 19.09375 C 236.175781 18.9375 238.492188 19.242188 240.550781 18.425781 C 240.863281 18.300781 240.742188 17.875 240.488281 17.78125 Z M 240.488281 17.78125 " fill-opacity="1" fill-rule="nonzero"/><path fill="rgb(0%, 0%, 0%)" d="M 239.296875 28.910156 C 236.265625 28.742188 233.242188 28.382812 230.199219 28.222656 C 227.988281 28.105469 224.65625 27.414062 222.625 28.4375 C 222.398438 28.554688 222.378906 28.878906 222.59375 29.015625 C 224.308594 30.121094 226.949219 29.71875 228.910156 29.804688 C 232.410156 29.960938 235.808594 29.640625 239.292969 29.464844 C 239.609375 29.453125 239.613281 28.929688 239.296875 28.910156 Z M 239.296875 28.910156 " fill-opacity="1" fill-rule="nonzero"/><path fill="rgb(0%, 0%, 0%)" d="M 241.84375 29.292969 C 241.617188 29.484375 241.476562 29.546875 241.382812 29.820312 C 241.328125 29.996094 241.578125 30.074219 241.648438 29.914062 C 241.757812 29.769531 241.894531 29.652344 242.054688 29.566406 C 242.261719 29.421875 242.039062 29.125 241.84375 29.292969 Z M 241.84375 29.292969 " fill-opacity="1" fill-rule="nonzero"/><path fill="rgb(0%, 0%, 0%)" d="M 240.71875 32.941406 C 235.015625 31.742188 227.714844 31.433594 222.050781 32.804688 C 221.546875 32.925781 221.507812 33.582031 222.03125 33.707031 C 227.730469 35.089844 234.964844 34.757812 240.679688 33.582031 C 240.984375 33.519531 241.058594 33.015625 240.71875 32.941406 Z M 240.71875 32.941406 " fill-opacity="1" fill-rule="nonzero"/><path fill="rgb(0%, 0%, 0%)" d="M 240.570312 36.496094 C 237.699219 35.476562 233.546875 36.523438 230.527344 36.699219 C 228.703125 36.804688 224.480469 36.257812 223.132812 37.671875 C 223.085938 37.726562 223.0625 37.8125 223.121094 37.871094 C 224.574219 39.359375 228.855469 38.425781 230.71875 38.34375 C 233.679688 38.214844 237.988281 38.710938 240.621094 37.222656 C 240.882812 37.078125 240.867188 36.601562 240.570312 36.496094 Z M 240.570312 36.496094 " fill-opacity="1" fill-rule="nonzero"/><path fill="rgb(0%, 0%, 0%)" d="M 239.667969 57.492188 C 238.898438 57.179688 238.113281 57.003906 237.320312 56.878906 C 237.339844 56.074219 237.316406 55.261719 237.308594 54.449219 C 237.304688 54.226562 237.300781 54.003906 237.296875 53.777344 C 238.152344 53.675781 238.953125 53.453125 239.636719 52.988281 C 239.800781 52.878906 239.90625 52.632812 239.734375 52.46875 C 239.058594 51.820312 238.175781 51.484375 237.214844 51.308594 C 237.15625 50.476562 237.054688 49.652344 236.875 48.847656 C 237.570312 48.734375 238.226562 48.566406 238.730469 48.242188 C 238.933594 48.113281 238.996094 47.808594 238.761719 47.664062 C 237.039062 46.621094 234.160156 46.921875 232.128906 46.980469 C 232.113281 46.890625 232.109375 46.796875 232.09375 46.703125 C 231.996094 46.070312 231.144531 46.242188 231.058594 46.789062 C 231.046875 46.867188 231.039062 46.941406 231.027344 47.023438 C 229.941406 47.058594 228.871094 47.140625 227.859375 47.296875 C 227.851562 47.066406 227.84375 46.828125 227.832031 46.601562 C 227.808594 45.898438 226.820312 45.882812 226.746094 46.574219 C 226.71875 46.882812 226.703125 47.207031 226.671875 47.515625 C 226.355469 47.589844 226.03125 47.65625 225.730469 47.742188 C 225.722656 47.746094 225.722656 47.753906 225.714844 47.757812 C 225.683594 47.773438 225.664062 47.789062 225.644531 47.816406 C 225.628906 47.839844 225.609375 47.855469 225.601562 47.878906 C 225.597656 47.894531 225.601562 47.910156 225.601562 47.925781 C 225.601562 47.960938 225.597656 47.988281 225.609375 48.019531 C 225.621094 48.039062 225.632812 48.054688 225.648438 48.070312 C 225.667969 48.097656 225.691406 48.117188 225.71875 48.132812 C 225.730469 48.132812 225.730469 48.144531 225.742188 48.148438 C 226.039062 48.234375 226.320312 48.261719 226.609375 48.328125 C 226.5 49.527344 226.410156 50.742188 226.324219 51.957031 C 225.457031 52.148438 224.59375 52.371094 223.746094 52.667969 C 223.027344 52.917969 223 54.089844 223.878906 54.089844 C 224.640625 54.089844 225.398438 54.042969 226.164062 54.015625 C 226.105469 54.984375 226.078125 55.964844 226.035156 56.945312 C 224.761719 57.042969 223.492188 57.175781 222.214844 57.375 C 221.582031 57.472656 221.746094 58.328125 222.296875 58.414062 C 223.527344 58.605469 224.75 58.730469 225.972656 58.828125 C 225.933594 60.132812 225.863281 61.429688 225.84375 62.734375 C 224.652344 62.859375 223.496094 62.988281 222.433594 63.089844 C 221.644531 63.167969 221.734375 64.378906 222.492188 64.445312 C 223.546875 64.542969 224.683594 64.667969 225.855469 64.792969 C 225.851562 66.382812 225.863281 67.972656 225.894531 69.554688 C 224.640625 69.683594 223.417969 69.859375 222.277344 70.089844 C 221.789062 70.191406 221.714844 70.929688 222.257812 70.996094 C 223.441406 71.144531 224.667969 71.289062 225.917969 71.417969 C 225.941406 72.4375 226.011719 73.425781 226.054688 74.429688 C 224.808594 74.359375 223.578125 74.410156 222.664062 74.886719 C 222.53125 74.953125 222.550781 75.125 222.632812 75.21875 C 223.347656 76.054688 224.710938 76.417969 226.15625 76.582031 C 226.203125 77.5 226.222656 78.433594 226.28125 79.339844 C 226.304688 79.679688 226.84375 79.867188 226.929688 79.460938 C 227.125 78.554688 227.265625 77.617188 227.410156 76.6875 C 228.441406 76.742188 229.429688 76.742188 230.15625 76.785156 C 232.664062 76.9375 235.785156 77.3125 238.125 76.199219 C 238.535156 76.003906 238.484375 75.417969 238.070312 75.261719 C 235.476562 74.289062 232.257812 74.765625 229.53125 74.714844 C 228.992188 74.703125 228.367188 74.640625 227.714844 74.574219 C 227.835938 73.589844 227.953125 72.601562 228.03125 71.597656 C 231.316406 71.875 234.660156 71.988281 237.742188 71.625 C 238.316406 71.554688 238.574219 70.613281 237.933594 70.421875 C 234.988281 69.539062 231.523438 69.253906 228.164062 69.390625 C 228.246094 67.941406 228.296875 66.480469 228.320312 65.015625 C 229.210938 65.082031 230.113281 65.125 231.007812 65.140625 C 231.066406 65.816406 231.121094 66.488281 231.183594 67.148438 C 231.199219 67.378906 231.496094 67.378906 231.53125 67.160156 C 231.632812 66.488281 231.722656 65.808594 231.816406 65.125 C 234.027344 65.109375 236.179688 64.878906 238.019531 64.148438 C 238.316406 64.035156 238.449219 63.550781 238.089844 63.40625 C 236.320312 62.703125 234.265625 62.460938 232.144531 62.417969 C 232.261719 61.3125 232.363281 60.195312 232.441406 59.078125 C 233.640625 59.105469 234.835938 59.140625 236.023438 59.0625 C 236.058594 59.253906 236.078125 59.445312 236.125 59.636719 C 236.253906 60.128906 236.902344 59.921875 236.996094 59.539062 C 237.050781 59.335938 237.074219 59.128906 237.113281 58.929688 C 237.964844 58.808594 238.808594 58.636719 239.632812 58.300781 C 239.972656 58.160156 240.042969 57.644531 239.667969 57.492188 Z M 227.914062 48.601562 C 228.835938 48.75 229.785156 48.835938 230.785156 48.871094 C 230.699219 49.691406 230.628906 50.519531 230.582031 51.351562 C 229.730469 51.417969 228.878906 51.5 228.03125 51.628906 C 227.992188 50.609375 227.953125 49.601562 227.914062 48.601562 Z M 228.128906 53.949219 C 228.917969 53.90625 229.707031 53.875 230.496094 53.839844 C 230.476562 54.804688 230.480469 55.769531 230.503906 56.742188 C 229.742188 56.761719 228.980469 56.773438 228.226562 56.808594 C 228.195312 55.851562 228.167969 54.898438 228.128906 53.949219 Z M 228.339844 62.511719 C 228.335938 61.328125 228.324219 60.148438 228.292969 58.96875 C 229.054688 59.003906 229.824219 59.015625 230.589844 59.03125 C 230.640625 60.15625 230.707031 61.277344 230.789062 62.394531 C 229.976562 62.410156 229.152344 62.453125 228.339844 62.511719 Z M 232.371094 48.933594 C 233.558594 48.992188 234.941406 49.058594 236.21875 48.9375 C 236.0625 49.671875 235.949219 50.414062 235.890625 51.171875 C 234.734375 51.113281 233.550781 51.199219 232.542969 51.238281 C 232.503906 50.464844 232.449219 49.695312 232.371094 48.933594 Z M 232.574219 56.695312 C 232.613281 55.714844 232.625 54.734375 232.617188 53.757812 C 233.609375 53.757812 234.710938 53.851562 235.792969 53.855469 C 235.78125 54.808594 235.746094 55.761719 235.765625 56.710938 C 234.710938 56.652344 233.644531 56.667969 232.574219 56.695312 Z M 232.574219 56.695312 " fill-opacity="1" fill-rule="nonzero"/><path fill="rgb(0%, 0%, 0%)" d="M 238.085938 80.996094 C 236.175781 80 234.117188 80.03125 231.992188 79.964844 C 228.695312 79.867188 225.339844 79.957031 222.144531 80.824219 C 221.566406 80.980469 221.621094 81.867188 222.203125 81.976562 C 225.367188 82.5625 228.617188 82.53125 231.828125 82.496094 C 233.964844 82.472656 236.050781 82.632812 238.050781 81.804688 C 238.414062 81.65625 238.433594 81.175781 238.085938 80.996094 Z M 238.085938 80.996094 " fill-opacity="1" fill-rule="nonzero"/><path fill="rgb(0%, 0%, 0%)" d="M 236.554688 87.304688 C 234.179688 86.5625 231.582031 86.464844 229.113281 86.417969 C 226.800781 86.371094 224.34375 86.070312 222.125 86.820312 C 221.679688 86.972656 221.800781 87.566406 222.152344 87.730469 C 224.273438 88.699219 226.757812 88.597656 229.042969 88.789062 C 231.46875 88.992188 234.046875 89.109375 236.441406 88.621094 C 237.082031 88.488281 237.230469 87.515625 236.554688 87.304688 Z M 236.554688 87.304688 " fill-opacity="1" fill-rule="nonzero"/><path fill="rgb(0%, 0%, 0%)" d="M 238.316406 95.046875 C 233.792969 92.882812 227.21875 93.941406 222.347656 94.234375 C 221.441406 94.289062 221.355469 95.621094 222.296875 95.671875 C 225.101562 95.816406 227.898438 95.945312 230.707031 96.039062 C 233.242188 96.128906 235.777344 96.507812 238.246094 95.792969 C 238.582031 95.695312 238.636719 95.199219 238.316406 95.046875 Z M 238.316406 95.046875 " fill-opacity="1" fill-rule="nonzero"/><path fill="rgb(0%, 0%, 0%)" d="M 238.980469 101.066406 C 236.492188 100.109375 233.863281 100.234375 231.226562 100.210938 C 228.257812 100.179688 225.171875 100.140625 222.277344 100.828125 C 221.773438 100.945312 221.734375 101.609375 222.257812 101.730469 C 224.332031 102.21875 226.425781 102.253906 228.546875 102.339844 C 231.964844 102.472656 235.683594 102.921875 238.988281 101.941406 C 239.398438 101.820312 239.34375 101.207031 238.980469 101.066406 Z M 238.980469 101.066406 " fill-opacity="1" fill-rule="nonzero"/><path fill="rgb(0%, 0%, 0%)" d="M 233.914062 109.207031 C 228.238281 108.492188 222.535156 108.703125 216.832031 109 C 211.359375 109.28125 205.074219 109.238281 200.121094 111.761719 C 199.96875 111.835938 200.042969 112.035156 200.1875 112.058594 C 203.238281 112.550781 206.480469 112.355469 209.714844 112.039062 C 207.894531 113.390625 206.207031 114.988281 204.714844 116.785156 C 201.542969 116.984375 198.414062 117.257812 195.371094 117.582031 C 194.640625 117.660156 194.636719 118.777344 195.367188 118.867188 C 197.796875 119.175781 200.269531 119.328125 202.757812 119.421875 C 201.515625 121.28125 200.457031 123.269531 199.632812 125.347656 C 196.644531 125.621094 193.710938 125.964844 190.921875 126.410156 C 190.511719 126.480469 190.351562 127.144531 190.847656 127.207031 C 193.410156 127.527344 196.066406 127.75 198.753906 127.917969 C 198.285156 129.503906 197.957031 131.109375 197.785156 132.726562 C 194.925781 132.933594 192.097656 133.214844 189.339844 133.640625 C 188.929688 133.707031 188.777344 134.363281 189.265625 134.4375 C 192.011719 134.851562 194.816406 135.085938 197.644531 135.25 C 197.632812 137.238281 197.855469 139.207031 198.375 141.121094 C 195.222656 141.261719 192.113281 141.507812 189.082031 141.953125 C 188.570312 142.027344 188.542969 142.773438 189.0625 142.859375 C 202.183594 144.917969 217.429688 144.828125 230.53125 142.75 C 230.933594 142.6875 230.855469 142.070312 230.46875 142.058594 C 220.429688 141.617188 209.652344 140.6875 199.289062 141.066406 C 199.570312 139.15625 199.75 137.269531 199.941406 135.394531 C 202.144531 135.480469 204.363281 135.5 206.589844 135.488281 C 206.625 136.328125 206.691406 137.164062 206.835938 137.980469 C 206.90625 138.363281 207.441406 138.316406 207.550781 137.988281 C 207.816406 137.164062 208.023438 136.328125 208.226562 135.484375 C 216.414062 135.382812 224.667969 134.816406 232.546875 134.675781 C 233.261719 134.660156 233.296875 133.476562 232.585938 133.425781 C 227.613281 133.074219 222.449219 132.746094 217.234375 132.546875 C 217.742188 131.085938 218.101562 129.578125 218.433594 128.0625 C 219.734375 128.007812 221.011719 127.921875 222.296875 127.851562 C 222.253906 128.566406 222.273438 129.269531 222.433594 129.933594 C 222.566406 130.472656 223.292969 130.449219 223.535156 130.023438 C 223.929688 129.320312 224.140625 128.535156 224.316406 127.742188 C 227.417969 127.546875 230.480469 127.320312 233.425781 127.027344 C 233.917969 126.972656 233.960938 126.234375 233.464844 126.15625 C 230.726562 125.730469 227.84375 125.449219 224.914062 125.21875 C 225.328125 123.53125 225.828125 121.871094 226.558594 120.277344 C 226.867188 119.601562 225.785156 118.992188 225.402344 119.640625 C 224.503906 121.164062 223.472656 123.101562 222.84375 125.089844 C 221.628906 125.015625 220.433594 124.910156 219.203125 124.863281 C 219.28125 124.578125 219.34375 124.292969 219.425781 124.011719 C 219.925781 122.339844 220.539062 120.707031 221.199219 119.089844 C 225.101562 118.910156 228.980469 118.738281 232.773438 118.695312 C 233.332031 118.691406 233.273438 117.839844 232.769531 117.753906 C 229.355469 117.191406 225.816406 116.859375 222.226562 116.671875 C 222.578125 115.867188 222.925781 115.066406 223.277344 114.269531 C 223.417969 113.949219 222.957031 113.71875 222.761719 113.988281 C 222.148438 114.804688 221.558594 115.691406 220.976562 116.613281 C 218.90625 116.527344 216.828125 116.472656 214.742188 116.476562 C 215.464844 115.316406 216.21875 114.175781 217.015625 113.082031 C 217.351562 112.625 216.726562 112.113281 216.339844 112.527344 C 215.242188 113.703125 214.167969 115.035156 213.15625 116.472656 C 211.039062 116.503906 208.921875 116.570312 206.820312 116.679688 C 208.375 114.890625 210.148438 113.292969 212.050781 111.804688 C 213.734375 111.628906 215.410156 111.449219 217.03125 111.351562 C 222.660156 111.023438 228.300781 111.007812 233.878906 110.074219 C 234.34375 109.996094 234.4375 109.273438 233.914062 109.207031 Z M 206.703125 132.386719 C 204.546875 132.40625 202.390625 132.4375 200.261719 132.546875 C 200.453125 131.050781 200.695312 129.5625 201.039062 128.070312 C 203.167969 128.171875 205.332031 128.203125 207.5 128.230469 C 207.125 129.613281 206.851562 131.003906 206.703125 132.386719 Z M 216.183594 132.503906 C 213.761719 132.417969 211.332031 132.359375 208.90625 132.351562 C 209.175781 130.984375 209.449219 129.621094 209.761719 128.257812 C 211.957031 128.257812 214.152344 128.21875 216.339844 128.148438 C 216.113281 129.621094 216.046875 131.078125 216.183594 132.503906 Z M 219.507812 119.167969 C 218.558594 120.957031 217.738281 122.84375 217.136719 124.777344 C 215.019531 124.726562 212.890625 124.710938 210.761719 124.746094 C 211.378906 122.921875 212.144531 121.140625 213.050781 119.421875 C 215.207031 119.359375 217.355469 119.261719 219.507812 119.167969 Z M 211.226562 119.472656 C 210.242188 121.167969 209.367188 122.960938 208.640625 124.800781 C 206.371094 124.871094 204.105469 124.976562 201.878906 125.148438 C 202.585938 123.085938 203.550781 121.222656 204.691406 119.503906 C 206.859375 119.546875 209.039062 119.523438 211.226562 119.472656 Z M 211.226562 119.472656 " fill-opacity="1" fill-rule="nonzero"/><path fill="rgb(0%, 0%, 0%)" d="M 230.683594 150.59375 C 217.152344 149.484375 203.382812 148.980469 189.820312 150 C 189.132812 150.050781 189.085938 151.035156 189.796875 151.085938 C 203.371094 152.042969 217.089844 151.246094 230.675781 150.945312 C 230.902344 150.9375 230.90625 150.609375 230.683594 150.59375 Z M 230.683594 150.59375 " fill-opacity="1" fill-rule="nonzero"/><path fill="rgb(0%, 0%, 0%)" d="M 228.597656 156.984375 C 218.507812 156.925781 207.503906 155.195312 197.183594 156.03125 C 197.132812 155.242188 197.09375 154.445312 197.035156 153.65625 C 196.996094 153.144531 196.171875 153.121094 196.132812 153.640625 C 196.066406 154.472656 196.023438 155.3125 195.972656 156.152344 C 193.910156 156.359375 191.875 156.667969 189.886719 157.136719 C 189.449219 157.238281 189.546875 157.921875 189.960938 157.980469 C 191.886719 158.25 193.847656 158.433594 195.816406 158.574219 C 195.714844 160.453125 195.640625 162.332031 195.589844 164.222656 C 193.441406 164.347656 191.324219 164.496094 189.300781 164.695312 C 189 164.722656 188.945312 165.230469 189.25 165.300781 C 191.253906 165.761719 193.386719 166.109375 195.554688 166.398438 C 195.515625 168.621094 195.507812 170.847656 195.527344 173.074219 C 193.609375 173.144531 191.691406 173.257812 189.792969 173.464844 C 189.1875 173.53125 188.980469 174.53125 189.675781 174.605469 C 191.621094 174.816406 193.578125 174.90625 195.539062 174.957031 C 195.566406 176.445312 195.609375 177.9375 195.660156 179.425781 C 193.441406 179.546875 191.238281 179.765625 189.082031 180.140625 C 188.578125 180.234375 188.539062 180.960938 189.0625 181.046875 C 191.273438 181.421875 193.503906 181.554688 195.742188 181.617188 C 195.808594 183.210938 195.886719 184.804688 195.976562 186.398438 C 193.53125 186.417969 191.089844 186.445312 188.648438 186.558594 C 187.992188 186.585938 187.867188 187.679688 188.554688 187.734375 C 191.058594 187.9375 193.574219 188.070312 196.089844 188.171875 C 196.269531 190.953125 196.476562 193.726562 196.722656 196.472656 C 196.753906 196.828125 197.335938 196.796875 197.34375 196.445312 C 197.433594 193.722656 197.511719 190.984375 197.578125 188.238281 C 206.96875 188.558594 216.4375 188.308594 225.78125 188.179688 C 226.816406 188.164062 226.675781 186.558594 225.640625 186.574219 C 216.320312 186.734375 206.957031 186.328125 197.625 186.359375 C 197.660156 184.796875 197.683594 183.230469 197.707031 181.664062 C 200.335938 181.671875 202.96875 181.582031 205.582031 181.5625 C 211.964844 181.503906 218.53125 182.375 224.875 181.601562 C 225.210938 181.5625 225.21875 181.050781 224.910156 180.960938 C 220.488281 179.621094 215.914062 179.6875 211.316406 179.546875 C 206.867188 179.410156 202.277344 179.195312 197.734375 179.332031 C 197.75 177.886719 197.761719 176.445312 197.757812 175.003906 C 200.84375 175.023438 203.929688 174.949219 206.996094 174.9375 C 213.625 174.90625 220.515625 175.660156 227.070312 174.707031 C 227.296875 174.675781 227.363281 174.351562 227.117188 174.289062 C 221.515625 172.898438 215.632812 173.199219 209.894531 173.113281 C 205.867188 173.054688 201.800781 172.957031 197.746094 173.027344 C 197.734375 170.90625 197.703125 168.785156 197.652344 166.671875 C 207.425781 167.742188 218.265625 167.335938 227.292969 166.328125 C 227.492188 166.304688 227.570312 165.992188 227.339844 165.949219 C 218.265625 164.066406 207.507812 163.667969 197.589844 164.117188 C 197.527344 162.296875 197.449219 160.480469 197.355469 158.667969 C 207.710938 159.28125 218.507812 158.515625 228.695312 158.5625 C 229.710938 158.566406 229.609375 156.992188 228.597656 156.984375 Z M 228.597656 156.984375 " fill-opacity="1" fill-rule="nonzero"/><path fill="rgb(0%, 0%, 0%)" d="M 224.402344 199.582031 C 213.824219 196.375 199.375 196.320312 188.519531 198.121094 C 187.828125 198.238281 188.089844 199.214844 188.695312 199.253906 C 194.617188 199.65625 200.597656 199.511719 206.539062 199.722656 C 212.445312 199.9375 218.492188 200.851562 224.367188 200.035156 C 224.625 199.996094 224.65625 199.664062 224.402344 199.582031 Z M 224.402344 199.582031 " fill-opacity="1" fill-rule="nonzero"/><path fill="rgb(0%, 0%, 0%)" d="M 222.722656 207.277344 C 212.316406 204.273438 199.203125 204.628906 188.554688 206.285156 C 187.890625 206.386719 188.105469 207.277344 188.664062 207.355469 C 193.839844 208.105469 199.117188 207.726562 204.335938 207.675781 C 210.398438 207.613281 216.433594 208.148438 222.492188 208.183594 C 222.984375 208.1875 223.285156 207.4375 222.722656 207.277344 Z M 222.722656 207.277344 " fill-opacity="1" fill-rule="nonzero"/><path fill="rgb(0%, 0%, 0%)" d="M 224.457031 231.789062 C 216.414062 229.910156 206.621094 229.695312 197.585938 230.492188 C 197.625 228.355469 197.648438 226.222656 197.628906 224.09375 C 206.117188 224.707031 215.019531 224.125 223.183594 224.007812 C 224.089844 223.996094 224.164062 222.734375 223.269531 222.609375 C 215.0625 221.449219 206.179688 221.542969 197.574219 221.769531 C 197.539062 219.921875 197.496094 218.074219 197.40625 216.238281 C 205.621094 217.105469 214.4375 217.210938 222.097656 216.269531 C 222.300781 216.246094 222.378906 215.9375 222.144531 215.890625 C 214.5625 214.269531 205.566406 213.261719 197.230469 213.578125 C 197.144531 212.265625 197.089844 210.949219 196.96875 209.644531 C 196.945312 209.371094 196.519531 209.335938 196.488281 209.617188 C 196.328125 210.953125 196.222656 212.308594 196.089844 213.652344 C 193.738281 213.773438 191.433594 213.984375 189.253906 214.351562 C 188.871094 214.414062 188.894531 215.03125 189.261719 215.09375 C 191.371094 215.472656 193.59375 215.785156 195.855469 216.050781 C 195.691406 217.972656 195.550781 219.898438 195.429688 221.828125 C 192.992188 221.898438 190.578125 221.972656 188.222656 222.015625 C 187.789062 222.027344 187.699219 222.679688 188.132812 222.777344 C 190.453125 223.296875 192.859375 223.632812 195.300781 223.878906 C 195.171875 226.167969 195.074219 228.457031 194.992188 230.757812 C 192.542969 231.03125 190.152344 231.359375 187.910156 231.769531 C 187.464844 231.847656 187.617188 232.4375 187.996094 232.492188 C 190.289062 232.816406 192.597656 232.9375 194.914062 232.984375 C 194.859375 234.902344 194.824219 236.820312 194.792969 238.742188 C 192.546875 238.832031 190.308594 239.007812 188.125 239.433594 C 187.738281 239.507812 187.769531 240.097656 188.132812 240.179688 C 190.304688 240.667969 192.523438 240.875 194.757812 240.949219 C 194.734375 243.089844 194.722656 245.234375 194.714844 247.378906 C 192.597656 247.550781 190.484375 247.726562 188.390625 247.988281 C 187.570312 248.09375 187.714844 249.242188 188.511719 249.25 C 190.582031 249.257812 192.648438 249.226562 194.707031 249.183594 C 194.707031 251.292969 194.707031 253.398438 194.714844 255.503906 C 192.152344 255.617188 189.609375 255.894531 187.160156 256.554688 C 186.703125 256.675781 186.832031 257.367188 187.253906 257.429688 C 189.710938 257.785156 192.214844 257.816406 194.722656 257.742188 C 194.730469 260.292969 194.734375 262.832031 194.738281 265.371094 C 192.25 265.417969 189.761719 265.535156 187.285156 265.808594 C 186.804688 265.863281 186.742188 266.621094 187.25 266.675781 C 189.636719 266.945312 192.15625 267.1875 194.738281 267.382812 C 194.738281 269.386719 194.722656 271.375 194.707031 273.363281 C 192.875 273.617188 191.09375 273.945312 189.464844 274.445312 C 189.082031 274.566406 189.097656 275.140625 189.492188 275.226562 C 191.195312 275.59375 192.9375 275.71875 194.691406 275.773438 C 194.664062 277.996094 194.621094 280.21875 194.574219 282.441406 C 193.238281 282.582031 191.917969 282.742188 190.617188 282.921875 C 190.039062 283 190.105469 283.894531 190.671875 283.925781 C 191.945312 284.003906 193.234375 284.078125 194.535156 284.152344 C 194.488281 286.234375 194.433594 288.316406 194.375 290.402344 C 192.722656 290.582031 191.089844 290.777344 189.515625 291.003906 C 189.117188 291.0625 189.207031 291.617188 189.5625 291.664062 C 191.089844 291.882812 192.691406 292.066406 194.324219 292.230469 C 194.269531 294.167969 194.214844 296.109375 194.164062 298.054688 C 192.300781 298.148438 190.449219 298.339844 188.625 298.703125 C 188.253906 298.777344 188.3125 299.257812 188.648438 299.324219 C 190.453125 299.6875 192.28125 299.847656 194.113281 299.9375 C 194.054688 302.316406 194 304.699219 193.953125 307.082031 C 192.433594 307.253906 190.933594 307.449219 189.492188 307.695312 C 189.136719 307.753906 189.125 308.347656 189.484375 308.40625 C 190.914062 308.652344 192.402344 308.84375 193.925781 309.007812 C 193.894531 310.769531 193.871094 312.53125 193.855469 314.296875 C 192.03125 314.457031 190.199219 314.621094 188.425781 314.863281 C 187.980469 314.925781 187.871094 315.632812 188.371094 315.695312 C 190.164062 315.921875 192 316.042969 193.855469 316.113281 C 193.84375 319.550781 193.867188 322.984375 193.957031 326.414062 C 191.90625 326.546875 189.890625 326.707031 187.972656 326.898438 C 187.320312 326.960938 187.1875 327.953125 187.878906 328.074219 C 189.847656 328.417969 191.921875 328.667969 194.027344 328.867188 C 194.097656 330.910156 194.179688 332.957031 194.292969 334.996094 C 192.453125 335.214844 190.621094 335.46875 188.8125 335.804688 C 188.246094 335.910156 188.285156 336.777344 188.863281 336.8125 C 192.527344 337.003906 196.226562 337.007812 199.929688 336.894531 C 199.996094 338.636719 200.0625 340.367188 200.125 342.078125 C 196.5 342.453125 192.933594 342.996094 189.546875 343.710938 C 189.257812 343.773438 189.203125 344.253906 189.542969 344.265625 C 192.996094 344.394531 196.578125 344.480469 200.1875 344.464844 C 200.21875 346.269531 200.191406 348.167969 200.21875 350.09375 C 196.550781 350.285156 192.933594 350.613281 189.503906 351.105469 C 189.082031 351.164062 189.203125 351.742188 189.566406 351.796875 C 192.984375 352.28125 196.621094 352.59375 200.316406 352.730469 C 200.425781 354.542969 200.652344 356.328125 201.074219 358.019531 C 198.015625 358.199219 194.945312 358.4375 192.125 359.5 C 191.824219 359.609375 191.925781 360.0625 192.191406 360.140625 C 195.300781 361.078125 198.625 360.875 201.894531 360.535156 C 202.105469 360.9375 202.625 360.804688 202.777344 360.4375 C 203.683594 360.34375 204.582031 360.238281 205.472656 360.152344 C 206.277344 360.070312 207.085938 360.003906 207.898438 359.933594 C 208.019531 360.476562 208.117188 361.035156 208.261719 361.558594 C 208.390625 362 209.03125 361.890625 209.109375 361.484375 C 209.21875 360.929688 209.300781 360.367188 209.371094 359.804688 C 210.644531 359.695312 211.917969 359.558594 213.1875 359.40625 C 213.34375 360.183594 213.546875 360.933594 213.808594 361.644531 C 213.96875 362.082031 214.675781 361.992188 214.78125 361.570312 C 214.972656 360.773438 215.054688 359.964844 215.097656 359.15625 C 216.242188 358.972656 217.371094 358.734375 218.492188 358.453125 C 218.457031 359.929688 218.5 361.40625 219.039062 362.769531 C 219.222656 363.238281 219.855469 363.074219 220.007812 362.6875 C 220.605469 361.195312 220.558594 359.527344 220.503906 357.898438 C 220.53125 357.890625 220.554688 357.882812 220.582031 357.875 C 220.941406 357.753906 220.917969 357.285156 220.539062 357.214844 C 220.519531 357.214844 220.5 357.214844 220.488281 357.210938 C 220.480469 356.945312 220.464844 356.679688 220.464844 356.417969 C 220.464844 354.777344 220.414062 353.125 220.359375 351.480469 C 220.59375 351.441406 220.839844 351.410156 221.070312 351.367188 C 221.535156 351.277344 221.359375 350.652344 220.960938 350.609375 C 220.757812 350.585938 220.539062 350.578125 220.332031 350.558594 C 220.3125 349.929688 220.292969 349.300781 220.277344 348.671875 C 220.253906 347.671875 218.757812 347.742188 218.734375 348.730469 C 218.722656 349.296875 218.710938 349.863281 218.695312 350.429688 C 217.445312 350.324219 216.203125 350.203125 214.917969 350.132812 C 214.882812 347.945312 214.859375 345.75 214.890625 343.554688 C 216.519531 343.34375 218.136719 343.097656 219.714844 342.78125 C 220.183594 342.6875 220.003906 342.066406 219.609375 342.023438 C 216.285156 341.652344 212.808594 341.527344 209.292969 341.574219 C 209.253906 339.839844 209.167969 338.105469 209.070312 336.375 C 212.460938 336.125 215.839844 335.839844 219.183594 335.523438 C 219.324219 335.507812 219.304688 335.296875 219.171875 335.277344 C 213.605469 334.554688 207.886719 334.234375 202.199219 334.410156 C 202.207031 332.707031 202.199219 331 202.140625 329.300781 C 207.992188 329.386719 213.898438 329.007812 219.195312 328.222656 C 219.523438 328.171875 219.503906 327.730469 219.199219 327.664062 C 213.910156 326.472656 207.917969 326.070312 201.96875 326.109375 C 201.824219 324.242188 201.585938 322.386719 201.191406 320.578125 C 201.117188 320.234375 200.542969 320.203125 200.480469 320.570312 C 200.175781 322.394531 199.996094 324.265625 199.890625 326.148438 C 198.558594 326.179688 197.226562 326.226562 195.914062 326.292969 C 195.820312 322.921875 195.738281 319.554688 195.664062 316.183594 C 202.847656 316.300781 210.300781 315.492188 217.195312 314.707031 C 217.578125 314.660156 217.519531 314.070312 217.152344 314.046875 C 210.210938 313.628906 202.785156 313.585938 195.625 314.117188 C 195.589844 312.460938 195.5625 310.808594 195.53125 309.152344 C 204.019531 309.890625 213.457031 309.425781 221.257812 307.84375 C 221.765625 307.742188 221.8125 306.949219 221.253906 306.90625 C 213.25 306.246094 203.960938 306.09375 195.488281 306.925781 C 195.453125 304.617188 195.433594 302.3125 195.414062 300.007812 C 197.882812 300.070312 200.363281 300.007812 202.824219 299.992188 C 208.304688 299.960938 213.835938 300.210938 219.265625 299.382812 C 219.644531 299.324219 219.625 298.695312 219.253906 298.636719 C 214.542969 297.925781 209.792969 298.074219 205.039062 298.046875 C 201.851562 298.027344 198.617188 297.890625 195.410156 297.996094 C 195.394531 296.105469 195.390625 294.214844 195.390625 292.320312 C 204.734375 293.160156 215.257812 292.964844 223.738281 290.628906 C 223.929688 290.574219 223.941406 290.246094 223.726562 290.222656 C 214.933594 289.167969 204.691406 289.351562 195.386719 290.300781 C 195.394531 288.265625 195.414062 286.230469 195.441406 284.199219 C 204.265625 284.664062 213.640625 284.875 222.140625 283.582031 C 222.792969 283.480469 222.941406 282.449219 222.210938 282.367188 C 213.667969 281.386719 204.28125 281.476562 195.480469 282.359375 C 195.511719 280.175781 195.554688 277.996094 195.613281 275.8125 C 197.894531 275.847656 200.191406 275.761719 202.445312 275.789062 C 208.335938 275.867188 214.261719 276.140625 220.132812 275.609375 C 220.457031 275.582031 220.488281 275.039062 220.167969 274.96875 C 213.058594 273.398438 203.710938 272.304688 195.664062 273.234375 C 195.683594 272.566406 195.683594 271.898438 195.703125 271.226562 C 195.75 269.980469 195.8125 268.722656 195.867188 267.464844 C 204.160156 268.035156 213.050781 268.046875 220.570312 266.558594 C 220.9375 266.484375 220.882812 266 220.542969 265.933594 C 214.710938 264.761719 208.5625 265.269531 202.640625 265.3125 C 200.414062 265.328125 198.183594 265.324219 195.957031 265.351562 C 196.082031 262.800781 196.210938 260.242188 196.355469 257.675781 C 198.398438 257.589844 200.4375 257.464844 202.453125 257.414062 C 208.265625 257.261719 214.441406 257.925781 220.117188 256.617188 C 220.394531 256.554688 220.5 256.082031 220.171875 256.003906 C 214.410156 254.683594 208.113281 255.347656 202.222656 255.40625 C 200.328125 255.421875 198.402344 255.40625 196.484375 255.449219 C 196.601562 253.347656 196.722656 251.242188 196.839844 249.140625 C 205.210938 248.929688 213.546875 248.542969 221.957031 249.1875 C 222.976562 249.265625 223.277344 247.707031 222.234375 247.597656 C 213.898438 246.746094 205.371094 246.605469 196.949219 247.167969 C 197.058594 245.109375 197.167969 243.046875 197.261719 240.984375 C 199.511719 240.972656 201.773438 240.875 204.003906 240.8125 C 210.152344 240.652344 216.414062 240.949219 222.535156 240.351562 C 223.089844 240.292969 223.359375 239.394531 222.699219 239.285156 C 216.613281 238.292969 210.296875 238.660156 204.140625 238.671875 C 201.894531 238.671875 199.625 238.640625 197.351562 238.664062 C 197.425781 236.785156 197.5 234.902344 197.550781 233.023438 C 199.976562 233.019531 202.402344 232.964844 204.820312 232.941406 C 211.335938 232.886719 217.96875 233.339844 224.429688 232.464844 C 224.78125 232.417969 224.789062 231.863281 224.457031 231.789062 Z M 218.664062 351.761719 C 218.625 353.34375 218.585938 354.921875 218.550781 356.503906 C 218.546875 356.664062 218.539062 356.832031 218.53125 356.992188 C 217.394531 356.898438 216.253906 356.851562 215.109375 356.878906 C 215.066406 355.753906 214.996094 354.628906 214.976562 353.511719 C 214.96875 353.085938 214.964844 352.660156 214.953125 352.234375 C 216.210938 352.105469 217.445312 351.941406 218.664062 351.761719 Z M 209.554688 357.296875 C 209.613281 355.753906 209.585938 354.203125 209.53125 352.652344 C 210.625 352.601562 211.691406 352.488281 212.773438 352.402344 C 212.699219 353.960938 212.714844 355.507812 212.84375 357.003906 C 211.75 357.082031 210.652344 357.179688 209.554688 357.296875 Z M 213.597656 343.699219 C 213.386719 345.6875 213.113281 347.847656 212.925781 350.0625 C 211.765625 350.015625 210.613281 349.957031 209.4375 349.941406 C 209.417969 349.304688 209.398438 348.671875 209.390625 348.042969 C 209.378906 346.730469 209.355469 345.421875 209.332031 344.113281 C 210.769531 344.007812 212.1875 343.859375 213.597656 343.699219 Z M 202.34375 344.433594 C 203.976562 344.402344 205.609375 344.339844 207.238281 344.257812 C 207.085938 346.132812 207.003906 348.027344 206.984375 349.914062 C 205.589844 349.921875 204.191406 349.9375 202.796875 349.984375 C 202.640625 348.117188 202.464844 346.257812 202.34375 344.433594 Z M 205.171875 357.75 C 204.472656 357.8125 203.765625 357.859375 203.054688 357.902344 C 203.140625 356.230469 203.09375 354.519531 202.996094 352.792969 C 204.339844 352.808594 205.683594 352.792969 207.023438 352.757812 C 207.085938 354.382812 207.222656 355.976562 207.449219 357.519531 C 206.691406 357.601562 205.929688 357.683594 205.171875 357.75 Z M 208.125 336.433594 C 207.890625 338.097656 207.667969 339.820312 207.480469 341.609375 C 205.726562 341.664062 203.96875 341.75 202.214844 341.894531 C 202.214844 341.789062 202.203125 341.675781 202.203125 341.570312 C 202.167969 340 202.175781 338.402344 202.1875 336.804688 C 204.167969 336.71875 206.148438 336.570312 208.125 336.433594 Z M 199.789062 329.214844 C 199.761719 330.984375 199.796875 332.765625 199.851562 334.542969 C 198.613281 334.613281 197.375 334.664062 196.148438 334.78125 C 196.09375 332.867188 196.042969 330.953125 195.992188 329.042969 C 197.242188 329.136719 198.519531 329.167969 199.789062 329.214844 Z M 199.789062 329.214844 " fill-opacity="1" fill-rule="nonzero"/><path fill="rgb(0%, 0%, 0%)" d="M 225.902344 358.761719 C 225.664062 357.289062 225.675781 355.796875 225.84375 354.316406 C 225.953125 353.371094 224.496094 353.371094 224.375 354.300781 C 224.066406 356.675781 223.855469 360.421875 225.507812 362.390625 C 225.722656 362.652344 226.207031 362.636719 226.269531 362.238281 C 226.460938 361.042969 226.089844 359.945312 225.902344 358.761719 Z M 225.902344 358.761719 " fill-opacity="1" fill-rule="nonzero"/><path fill="rgb(0%, 0%, 0%)" d="M 231.820312 360.304688 C 231.441406 359.480469 231.355469 358.695312 231.503906 357.808594 C 231.679688 356.777344 230.167969 356.535156 229.917969 357.535156 C 229.523438 359.109375 229.699219 362.433594 231.804688 362.683594 C 232.023438 362.707031 232.285156 362.53125 232.332031 362.316406 C 232.503906 361.535156 232.144531 361.015625 231.820312 360.304688 Z M 231.820312 360.304688 " fill-opacity="1" fill-rule="nonzero"/><path fill="rgb(0%, 0%, 0%)" d="M 236.773438 360.019531 C 236.765625 358.953125 235.101562 358.726562 235.105469 359.8125 C 235.113281 360.828125 235.109375 361.855469 236.164062 362.304688 C 236.433594 362.421875 236.757812 362.1875 236.835938 361.933594 C 237.027344 361.28125 236.777344 360.6875 236.773438 360.019531 Z M 236.773438 360.019531 " fill-opacity="1" fill-rule="nonzero"/></svg>