<svg xmlns="http://www.w3.org/2000/svg"
    xmlns:xlink="http://www.w3.org/1999/xlink" viewBox="0 0 7.96 347.63">
    <defs>
        <style>.cls-1{fill:none;}.cls-2{clip-path:url(#clip-path);}.cls-3{clip-path:url(#clip-path-2);}.cls-4{clip-path:url(#clip-path-3);}.cls-5{clip-path:url(#clip-path-4);}.cls-6{clip-path:url(#clip-path-5);}.cls-7{clip-path:url(#clip-path-6);}.cls-8{clip-path:url(#clip-path-7);}.cls-9{clip-path:url(#clip-path-8);}</style>
        <clipPath id="clip-path" transform="translate(-0.44 -0.02)">
            <rect class="cls-1" x="0.7" y="112.25" width="2.31" height="46" transform="translate(-1.67 0.03) rotate(-0.71)"/>
        </clipPath>
        <clipPath id="clip-path-2" transform="translate(-0.44 -0.02)">
            <rect class="cls-1" x="0.19" y="78.25" width="2.31" height="31" transform="translate(-1.16 0.02) rotate(-0.71)"/>
        </clipPath>
        <clipPath id="clip-path-3" transform="translate(-0.44 -0.02)">
            <rect class="cls-1" x="6.22" y="296.19" width="2.5" height="35" transform="translate(-3.87 0.12) rotate(-0.71)"/>
        </clipPath>
        <clipPath id="clip-path-4" transform="translate(-0.44 -0.02)">
            <rect class="cls-1" x="6.9" y="279.19" width="1.5" height="18" transform="translate(-3.56 0.12) rotate(-0.71)"/>
        </clipPath>
        <clipPath id="clip-path-5" transform="translate(-0.44 -0.02)">
            <rect class="cls-1" x="0.39" y="0.02" width="3" height="8.22" transform="translate(-0.05 0.02) rotate(-0.71)"/>
        </clipPath>
        <clipPath id="clip-path-6" transform="translate(-0.44 -0.02)">
            <rect class="cls-1" x="5.77" y="274.19" width="2.5" height="6" transform="translate(-3.42 0.11) rotate(-0.71)"/>
        </clipPath>
        <clipPath id="clip-path-7" transform="translate(-0.44 -0.02)">
            <rect class="cls-1" x="0.4" y="108.25" width="2.31" height="5" transform="translate(-1.37 0.03) rotate(-0.71)"/>
        </clipPath>
        <clipPath id="clip-path-8" transform="translate(-0.44 -0.02)">
            <rect class="cls-1" x="5.63" y="347.21" width="1" height="0.44" transform="translate(-4.29 0.1) rotate(-0.71)"/>
        </clipPath>
    </defs>
    <g id="Calque_2" data-name="Calque 2">
        <g id="Calque_1-2" data-name="Calque 1">
            <g id="surface1">
                <path d="M1.45,61.55H1.26a.31.31,0,0,1,.12-.24.25.25,0,0,0-.13-.37.22.22,0,0,1-.06-.18c0-.18.12-.36.11-.55s.13-.18.13-.3l-.07-.06c-.06-.06-.06-.06-.06-.12s0-.37.05-.55a.06.06,0,0,0-.06-.06.2.2,0,0,1,0-.25c.06-.12.06-.18-.07-.24s-.06-.12-.06-.24a.22.22,0,0,1,.06-.18.82.82,0,0,0,.06-.37.87.87,0,0,1,.05-.42c.06-.07.06-.13,0-.25l-.06-.06c-.07-.12,0-.18.06-.24h.25a.23.23,0,0,0,.18-.07c.06,0,.06-.06.06-.12s0-.12-.06-.12a.89.89,0,0,1-.51-.42c-.06-.12-.12-.18-.12-.3v-.79a1.63,1.63,0,0,1,0-.79,2.48,2.48,0,0,0,0-.61.49.49,0,0,1,.06-.31.36.36,0,0,0,0-.36.28.28,0,0,1,.06-.31l.06-.05a.27.27,0,0,0,.06-.37c-.13-.12-.13-.24-.13-.43v-.48a.49.49,0,0,1,.06-.49c.06-.06.06-.12.06-.24a.24.24,0,0,0-.06-.19v-.24a.27.27,0,0,0,0-.3c-.06-.12-.13-.24-.07-.37s0-.24.06-.36a1.55,1.55,0,0,0,.06-.55.19.19,0,0,1,.06-.18c.06-.06.06-.06,0-.12a.06.06,0,0,1-.06-.06v-.07c0-.18-.13-.24-.13-.36a.89.89,0,0,0-.07-.42V46.9c0-.06-.07-.12,0-.18a.27.27,0,0,0,0-.36.47.47,0,0,1,.06-.31c.06-.06.06-.06.06-.12a.29.29,0,0,0,0-.31v-.06a.81.81,0,0,1-.2-.6A2.15,2.15,0,0,0,1,44.29c0-.06-.06-.12,0-.18a.64.64,0,0,0,0-.49V43a2.55,2.55,0,0,1,0-.73,1.33,1.33,0,0,0-.07-.48c0-.06-.07-.18,0-.25a4,4,0,0,0,0-.85c0-.12,0-.18.12-.24s.12-.13.06-.19A.68.68,0,0,1,1,39.79v-.61a5,5,0,0,1,.05-1v-.37a.57.57,0,0,1,.24-.49.11.11,0,0,0,0-.18c-.06-.06-.06-.06,0-.12a.18.18,0,0,0,0-.24c-.07-.06-.07-.06-.07-.12a.39.39,0,0,0-.07-.37.27.27,0,0,1,0-.3c.06-.06,0-.19,0-.24s.06-.07.06-.13.06-.06.12-.06l-.12-.12c-.07-.06-.13-.06-.13-.12a.69.69,0,0,1,0-.49c.07-.06,0-.12-.06-.24a.45.45,0,0,1-.07-.3A.59.59,0,0,1,1,34c0-.18.06-.36,0-.48a.47.47,0,0,1-.06-.31c0-.24.06-.48,0-.73,0-.06.06-.18.12-.18a.88.88,0,0,0,.31-.25.54.54,0,0,1,.06-.3v.06a1.23,1.23,0,0,1-.44-.3.45.45,0,0,1-.06-.3c0-.13.06-.18.06-.31a3,3,0,0,1,0-.79c0-.12.18-.24.31-.18s.12,0,.18,0l.07-.06v-.36H1.43c-.07.06-.13.06-.25,0s-.13-.06-.13-.12S1,29.27,1,29.21V29c.06-.18.06-.37.12-.49v-.12c-.13-.18-.07-.3,0-.49v-.12c-.06-.24-.06-.24.19-.31h.06v-.06c-.07-.06-.13-.06-.13-.11a.36.36,0,0,1-.13-.25c.06-.12,0-.3,0-.42a1.75,1.75,0,0,1,0-1,.21.21,0,0,1,.06-.12c.19-.06.18-.18.18-.31V25c0-.18-.13-.36-.07-.48A1.58,1.58,0,0,0,1.36,24c0-.06.06-.18,0-.24a.8.8,0,0,1-.06-.37c0-.36.06-.36.37-.49a.14.14,0,0,0-.06.12.06.06,0,1,0,.12,0v-.18a.77.77,0,0,1-.32-.3c0-.06-.06-.18,0-.25l.18-.18c0-.06,0-.12-.06-.12a1.33,1.33,0,0,1-.13-.67c0-.12,0-.24.06-.3a.93.93,0,0,1,.05-.43,1.14,1.14,0,0,0,0-.66c-.06-.19.06-.31,0-.49s.06-.19.06-.25A.45.45,0,0,0,1.67,19a.2.2,0,0,0,0-.25s-.07-.12-.13-.17-.06-.07-.06-.13.12-.18.18-.3c.06.12.06.12.13.12s.12-.07.18-.07v-.05H2v.05a.81.81,0,0,0-.31-.05,1.07,1.07,0,0,1,.06-.43v-.06h0v.06a.35.35,0,0,1-.07-.48c.06-.13.12-.19,0-.31l-.06-.06a.22.22,0,0,1,.06-.18.54.54,0,0,1,.44-.07.42.42,0,0,0,.37-.06h.07l.06.06a1.29,1.29,0,0,1,0,.48c0,.12-.06.19-.12.37s.13.12.19.24.07.18-.06.24-.06.07-.12.07-.06.12-.06.18a.13.13,0,0,0,.13.12H2.6c.06.06,0,.24-.06.3l-.06.07c-.06,0-.13.06-.19.06s-.06.12-.06.18L2.3,19c.12.12.12.12,0,.3s-.06.13-.06.25v.24c0,.06,0,.12.13.12h.06l.06.06a1.08,1.08,0,0,1-.12.43.22.22,0,0,0,.13.3l.07.06v.12c-.06,0-.06.07-.13.07s-.06.06-.06.12a.26.26,0,0,1,0,.3,1.63,1.63,0,0,1-.25.49c-.06.06,0,.12.07.12h.12L2.4,22l-.19.18a.91.91,0,0,0,.13.37.27.27,0,0,1,0,.3c0,.06-.06.13-.06.18s.07.19,0,.25a.41.41,0,0,0-.13.24l-.06.06a2.13,2.13,0,0,1-.31.07v0c-.06.06-.19.06-.19.12v.07l.06.05h.12a.31.31,0,0,1,.38.06c.06.06.13.06.19.18v.06s-.06.06-.06,0-.07-.06-.13-.06-.25.12-.18.25a.71.71,0,0,0,.31.42c.13.06.13.18,0,.3l-.06.06c-.06.06-.06.06,0,.12s0,.19,0,.31.07.12.07.24a1.69,1.69,0,0,1,0,.55c0,.18,0,.3,0,.49a.45.45,0,0,1-.12.24c-.13.12-.13.24.06.36a.12.12,0,0,1,0,.19l-.13.12c-.06.06-.06.12,0,.12a.7.7,0,0,1,.2.49v.66a.19.19,0,0,1-.06.19c-.12.12,0,.3-.18.42v.06c0,.19-.12.25-.12.43s.07.12.13.24a.13.13,0,0,0,.13.12c.06,0,.06.06.12.13v.24c-.06.18,0,.36-.06.55a1.11,1.11,0,0,1-.12.42.06.06,0,0,1-.06.06v-.06H2v.05H2v.25a.62.62,0,0,0,.13.54.18.18,0,0,1,0,.25c0,.05-.07.12-.06.18a.16.16,0,0,0,0,.24.39.39,0,0,1,.07.43.66.66,0,0,0,0,.48c.07.19.07.19-.18.25s-.13.12-.06.18l.06.06a1,1,0,0,1,0,.43v.12c0,.06.06.06.06.12s.07.36.07.55a.57.57,0,0,1-.12.42c-.06.07-.12.19-.18.25a.06.06,0,0,0,.06.06c.06.12.06.12-.06.18s-.06.06,0,.12H2L2,37.1c0,.12-.06.24,0,.31a2.12,2.12,0,0,1,.07.66c.07.19,0,.25,0,.43a.38.38,0,0,0,0,.36l.06.06.07.07v.6a.67.67,0,0,0-.12.31c0,.12.07.18.07.3a1.07,1.07,0,0,1-.06.43.61.61,0,0,0,0,.48c.06.06,0,.19,0,.24a.41.41,0,0,0,.07.25c.06.12.06.18-.06.24s-.19.19-.12.31a4.33,4.33,0,0,0,.25.6c.07.13.07.25,0,.31a.76.76,0,0,0-.06.36.21.21,0,0,1-.06.18c0,.07-.06.13-.06.19.13.24.13.24.07.48,0,.07-.06.07-.06.13a.17.17,0,0,0,0,.24.46.46,0,0,1,.13.3.22.22,0,0,0,.06.18c0,.06.07.12.07.19s-.06.42-.12.61,0,.18.13.24a.21.21,0,0,1,.06.18,1,1,0,0,1-.18.43c-.12.12-.06.24,0,.36a.49.49,0,0,1-.06.31v-.07H2.08v.07c.07.05.13.12.19.12s.13.18.13.3-.06.12-.12.18-.12.12-.12.19,0,.12.06.18.13.06.19.12-.06.3-.18.42a.37.37,0,0,0-.12.49c0,.06.06.06.12.06a.23.23,0,0,1,.19.06c.07,0,.07.06.07.12s0,.12-.06.12-.07.13,0,.13a.27.27,0,0,1,.06.36c-.06.06-.06.18-.12.24H2.25c-.07-.18-.07-.18-.19-.17H1.93c-.18,0-.25.06-.12.24s.06.12.07.18h.06A.06.06,0,0,0,2,50.72V50.6c0-.12.06-.12.18-.12s.07.12.13.18l.06.06c.07.12.07.12,0,.18a.9.9,0,0,1-.25.18c-.06,0-.06.06-.19.07a4,4,0,0,1,.44.11s.06.06,0,.06l-.18.19a1,1,0,0,1,.13.36c.06.06.06.12.06.24a1.09,1.09,0,0,0-.06.43V53a2.43,2.43,0,0,1,0,1v.55a.33.33,0,0,1-.25.36C2,55,1.93,55,2,55l.19.18c-.06.06-.06.06-.06.12a.47.47,0,0,0-.06.48c0,.07.13.12.19.12s-.18.19-.24.31-.06.19.06.31.13.06.13.11.06.13.06.25-.06.18-.18.24H2c-.06,0-.12.06-.12.18a.08.08,0,0,0,.13.06L2,57.34a.2.2,0,0,1,.12.07.17.17,0,0,1-.06.18c0,.06-.06.12-.05.24s-.06.25.13.43l.06.06v.12c-.06.18-.18.3-.24.49s-.13.18-.19.3H1.73c.06.12.06.18-.06.24s-.06.06-.12.06-.13.18,0,.3.13.06.13.13V59.9c.06,0,.12,0,.12.07a.12.12,0,0,1,.13.11c0,.06-.06.06-.06.13a.23.23,0,0,0,.06.18l.06.06a.76.76,0,0,1,.26.6c0,.18-.06.37,0,.55s-.13.18-.19.25a.22.22,0,0,1-.18.06c-.07,0-.19-.06-.25,0s-.19.13-.19.25H1.27c0-.12.06-.19.05-.31s.13-.24.13-.3h.31a.05.05,0,0,0-.06,0v-.07l.07.07v0c-.06,0-.06,0-.13,0S1.45,61.49,1.45,61.55ZM2.06,20A.06.06,0,0,1,2,19.9V20C2,19.9,2.06,19.9,2.06,20Zm.14,6.2h0v.06c.06,0,0-.06,0-.06l.06-.07c.06,0,.06-.06,0-.06v.06ZM2.07,61.24c-.07,0-.07-.06-.07,0h.07v0ZM1.88,46.47v.12a.06.06,0,0,0,.06.06s.06,0,.06-.06v-.07c-.06,0-.12,0-.13-.05a.21.21,0,0,1-.06-.12c0-.07-.06-.07-.06,0v.06C1.76,46.47,1.82,46.47,1.88,46.47ZM1.81,60.63v.06a.06.06,0,0,0,.06.06A.13.13,0,0,0,2,60.63c0-.06-.07-.06-.13-.06a.06.06,0,0,1-.06.06H1.68C1.62,60.69,1.69,60.69,1.81,60.63Zm-.33-6.07c0,.12.07.3.07.42v.12a.14.14,0,0,0,.13.12c.06,0,.19,0,.19-.12a1.17,1.17,0,0,0-.26-.48c0-.06-.06-.06-.13-.06.13-.13.06-.19,0-.31s-.12-.06-.12,0-.07.12,0,.24S1.42,54.56,1.48,54.56ZM2.06,35A.07.07,0,0,0,2,34.91a.28.28,0,0,0-.31.07c-.06.06,0,.12,0,.18s.07.06.13,0A.94.94,0,0,1,2.06,35ZM1.68,24.52l.12.12h.07c.12,0,.18-.06.12-.18a.21.21,0,0,1-.07-.19c0-.06,0-.06-.06-.05s-.13,0-.12.06S1.68,24.46,1.68,24.52Zm.48,3.89c.06-.07.06-.12.12-.19v-.06s-.06-.06-.06,0a1.4,1.4,0,0,0-.31.19v.06a.06.06,0,0,0,.06.06C2,28.41,2,28.41,2.16,28.41ZM1.77,57.59a.06.06,0,0,0-.06.06s-.06.07,0,.07l.06.05s.07,0,.07-.06v-.06A.07.07,0,0,0,1.77,57.59ZM1.9,32.3A.13.13,0,0,0,2,32.18a.12.12,0,0,0-.13-.12.06.06,0,0,0-.06.06C1.77,32.24,1.83,32.3,1.9,32.3ZM2,43.67a.07.07,0,0,0-.07-.06c-.06,0-.06-.06-.12-.06l-.07.06c0,.06.13.12.26.06C1.91,43.73,1.91,43.67,2,43.67ZM1.79,54.25h0a.25.25,0,0,0,.19.06c.06,0,.06-.13,0-.12s-.13-.12-.19.06Zm.14-4.44a.2.2,0,0,0-.07.12c0,.06.07.12.07.06L2,49.93v-.06A.06.06,0,0,0,1.93,49.81Zm0-2.19a.21.21,0,0,1-.12-.06l-.07.06c0,.06.07.06.07.06A.21.21,0,0,0,2,47.62Zm.27-28.94h0c-.06.06,0,.06,0,.06Zm-.3,36.78H2l-.07-.06ZM1.84,22.63h0l-.06.07h.06ZM2,32.54v.12h.06c.06,0,.06-.06.06-.12ZM1.78,38h0l-.06-.07a.07.07,0,0,0-.07.07c0,.06,0,.06.13,0Zm.3-16.54H2s0,.06.07,0ZM1.77,42.27c-.06.06-.06.06-.06.12h.06c.13,0,.13-.06,0-.12ZM1.5,55.41H1.43v.06l.07.06a.06.06,0,0,0,.06-.06ZM1.79,44c-.06,0-.06.05,0,0L1.73,44h.06ZM2,55.83H2v0Zm-.33-21.4s.07,0,.07-.06v-.06H1.67C1.61,34.37,1.67,34.37,1.67,34.43Zm.27-9.06c-.07.06,0,.06,0,.06s.06,0,0-.06S2,25.37,1.94,25.37Zm-.06-4.5c0-.06-.06-.06-.06,0S1.82,20.93,1.88,20.87ZM1.56,40.21v.06S1.62,40.21,1.56,40.21Z" transform="translate(-0.44 -0.02)"/>
                <g class="cls-2">
                    <path d="M1.88,137.29c-.13-.06-.19-.11-.19-.24a1,1,0,0,0-.13-.54c-.07-.06-.07-.13-.07-.25s.06-.3,0-.42a.22.22,0,0,1,.06-.18.73.73,0,0,0,.12-.43c0-.06,0-.06-.06-.12a.38.38,0,0,1,.06-.55c.06-.06.12-.12.06-.18a.48.48,0,0,1,.05-.43.06.06,0,0,0-.06-.06H1.65c-.06,0-.06.06-.13.06s-.12,0-.12-.06a1.63,1.63,0,0,1,0-.54.71.71,0,0,1,.12-.37.22.22,0,0,0,.06-.18c0-.06,0-.06-.06-.12a.37.37,0,0,1-.07-.43c.06-.06.06-.12.06-.24s-.06-.12-.13-.18a1.14,1.14,0,0,1-.13-.49,2.12,2.12,0,0,0-.07-.66.68.68,0,0,1,.06-.49v-.12a.57.57,0,0,0-.07-.31.83.83,0,0,1,.18-.24.1.1,0,0,0,0-.18c-.06-.06-.12-.06-.19-.12a.23.23,0,0,1-.06-.19c0-.05,0-.05.06-.06s.06-.24-.07-.3-.06-.18.06-.3.06-.06,0-.13-.06-.12-.06-.24,0-.06.06-.12H1.2c.06-.06,0-.18.06-.24a.19.19,0,0,0-.07-.13c-.06-.05-.12-.05-.12-.12s-.07-.36.05-.54a.36.36,0,0,0,0-.49.68.68,0,0,1-.07-.37v-.6a.7.7,0,0,0-.13-.49.21.21,0,0,0-.06-.12c.06-.18,0-.42.05-.61a.65.65,0,0,0,.06-.3c0-.12.06-.18.12-.31L1,123.45c-.07-.07-.07-.07-.07-.13V123C.89,123,1,123,1,123h.13s-.07,0-.07-.12-.06-.12-.06-.18,0-.24,0-.36-.12-.24-.12-.36a.19.19,0,0,1,.06-.19c.06-.06.12-.12.18-.12v-.06l-.06-.06H.93c-.06,0-.12,0-.12-.06s-.07-.24,0-.31a.38.38,0,0,0,0-.36v-.24c0-.12,0-.18.12-.25a.06.06,0,0,0,.06-.06c-.07-.24.12-.43-.07-.67,0-.06-.06-.06-.07-.12s-.06-.06-.06-.12.06-.3,0-.48,0-.31-.06-.43.06-.12.12-.18.06-.18,0-.3v-.07l.07-.06c.12-.12.18-.18.06-.3a.83.83,0,0,1-.13-.37.4.4,0,0,1,.05-.3.18.18,0,0,0,.06-.18c0-.12-.06-.12-.12-.19a.17.17,0,0,1,0-.24c.07-.06.07-.12.13-.18S1,116,1,115.91s0-.07-.07-.13H.8c-.06,0-.13,0-.13-.12a1.68,1.68,0,0,0,.12-.43c.06-.12.13-.19.12-.31a.29.29,0,0,1,.13-.24c0-.06,0-.12-.07-.12a.06.06,0,0,1-.06-.06.14.14,0,0,1-.13-.12v-.12a.83.83,0,0,0-.13-.37c-.06-.06,0-.12.06-.18s.19-.06.12-.18a1.35,1.35,0,0,1,.31-.25c.07,0,.06-.12,0-.18s-.06-.06-.12-.06H.89L.83,113l.06-.06h.56c.06,0,.13,0,.13.06a.54.54,0,0,1,0,.43s-.06,0-.06,0h.06c-.06.13,0,.19.13.25l.07.06v.12c0,.24-.06.42-.06.67a.13.13,0,0,1-.12.12c-.06.06-.13.06-.25.13s-.06.12,0,.12.19.12.25.18a.17.17,0,0,1,.07.12H1.48c-.06,0-.06.12-.06.18a.34.34,0,0,0,.19.12.32.32,0,0,1,.13.24.81.81,0,0,0,.13.67c.07.06.07.12.07.24v.25c-.19.12-.25.12-.19.24H1.69c.13.06.19.12.2.24v.31c-.06.24,0,.55-.12.79a.2.2,0,0,0,.07.18.55.55,0,0,1,.07.61c0,.06-.06.06-.06.12s.06.06.06.12a.32.32,0,0,1,.07.24,1.12,1.12,0,0,0-.05.79.37.37,0,0,1-.06.25c-.07.12-.13.18-.07.3a.67.67,0,0,0,.14.49c.12.12.06.24,0,.36a.88.88,0,0,1-.25.43c-.06.06-.06.12.07.18a.06.06,0,0,1,.06.06c.07.06.13.12.07.18a.35.35,0,0,0-.06.25v.18a.27.27,0,0,0,.07.36c.06.06.06.06.06.13s0,.18,0,.24,0,.12-.06.18-.07.06,0,.18l.06.07c-.06.12,0,.17,0,.24s-.06.18,0,.24.06.18,0,.24a.51.51,0,0,0,.07.43c.06.06,0,.12-.06.12s-.06.06,0,.06.06.12.13.12,0,.18-.06.24-.13.07-.19.13.07.3.13.42a2.4,2.4,0,0,1,.14.91.14.14,0,0,1-.13.13H1.88a.13.13,0,0,0-.12.12,1.57,1.57,0,0,1,.13.55.14.14,0,0,0,.13.12h.13l.06.07v.06a2.51,2.51,0,0,0,0,.67v.3a1.69,1.69,0,0,0-.05.55c0,.12.06.24,0,.36v.43c.06.12-.06.24-.06.36a1,1,0,0,0,.13.37c0,.12,0,.18-.06.24s-.12.18-.06.24a.52.52,0,0,0,.13.31.55.55,0,0,1,0,.54c-.06.19-.13.31-.19.49a.41.41,0,0,0,.13.18h.06l.07.06c0,.06,0,.06-.06.12l-.07.06c-.25.13-.31.19-.18.43,0,.06.07.18.07.25a.65.65,0,0,1,.13.48c0,.06-.06.18-.06.24s.06.12.13.18v.13l-.07-.06c.07.06.07,0,.13,0v.05a1,1,0,0,1,0,.74v.12c.13.36.19.24,0,.67-.06.06-.06.18-.13.24a.26.26,0,0,0,0,.3.45.45,0,0,1-.06.49.06.06,0,0,1-.06.06c0,.12.06.12.07.25a.64.64,0,0,1,.06.48.69.69,0,0,1-.11.49v.12a.29.29,0,0,1,0,.31l-.07.06a1.07,1.07,0,0,1-.11.49.2.2,0,0,0,.06.17l.06.07c.07.05.2.05.2.18a.65.65,0,0,1-.06.3c0,.06,0,.18.06.18s.13.18.07.24a.24.24,0,0,0-.06.19.68.68,0,0,1,.07.48,2.71,2.71,0,0,0,.13.3v.13c-.13.12-.06.3,0,.42a.51.51,0,0,1-.05.43v.18c0,.06.06.18.06.24s-.06.12,0,.24a.47.47,0,0,0,.06.31.19.19,0,0,1-.06.12c-.06.06-.06.06-.12,0s-.07-.06-.13-.06-.13,0-.13.07a.22.22,0,0,0-.06.18l.07.06h.12c.07.12.2.24.26.36s0,.12-.06.18H2.36c-.13-.06-.26.07-.32.19v.06H2v-.06a.61.61,0,0,1,.32.06.28.28,0,0,1,.19.24v1.46c0,.06,0,.06-.06.12-.25.37-.19.37-.06.67a1.5,1.5,0,0,1,.08.91v.06c.06.06.12.12.12.18s0,.06-.06.06-.18,0-.25,0H2.22v.06a.62.62,0,0,0,.25.3c.07.06.13.12.07.18s-.06.06,0,.06.06.36.13.48.07.43.07.61a.37.37,0,0,1-.06.25l-.18.37v.12a.25.25,0,0,0,.19.36c.06,0,.06.12,0,.12a.06.06,0,0,0-.06.06c-.06,0-.06.06-.12.06v.06a.27.27,0,0,0,.19.12.23.23,0,0,1,.06.19.76.76,0,0,0-.06.36c.07.24,0,.49.07.73s0,.24,0,.36a.21.21,0,0,1-.07.13.35.35,0,0,1,0,.42v.12a.41.41,0,0,0,.13.25c0,.06-.07.06-.06.12s-.06.18.06.3l.13.12s.06.06,0,.06,0,.19.07.31a.36.36,0,0,1,.06.24,1.18,1.18,0,0,0-.24.49c-.12.3-.13.24.19.3-.06.06-.13.06-.19.12s-.12.06-.18.13-.19.12-.25.18-.19.06-.19,0-.13-.19-.07-.25v-.06a.37.37,0,0,0,.12-.55.88.88,0,0,1-.07-.42v-.12c-.13-.31.06-.55.05-.85.13-.13.06-.31.13-.43s.06-.12,0-.19.13-.18.12-.3a.36.36,0,0,0-.06-.24c-.06-.06-.06-.06-.13-.06s-.13.06-.19.18a.22.22,0,0,1-.06.19H1.9c-.06,0-.06-.06-.06-.12A.34.34,0,0,1,2,154a.24.24,0,0,1,.19-.06l.06-.06s0-.07-.06-.07-.07,0-.13,0a.14.14,0,0,1-.13-.12A.73.73,0,0,1,2,153v-.07c-.07,0-.19-.11-.13-.29v-.13c0-.12.06-.18.18-.24s-.06-.06-.06-.12a.2.2,0,0,0-.07-.12.27.27,0,0,0,0-.31.87.87,0,0,1-.13-.36c0-.06.06-.06.06-.12a.2.2,0,0,0,0-.25c-.06-.06-.13-.06-.13-.12s-.06-.06-.06-.12v-.06a1.81,1.81,0,0,0,.12-.55.21.21,0,0,1,.12-.06c0-.06-.06-.06-.06-.12a.75.75,0,0,1-.13-.36.24.24,0,0,1,.06-.19.2.2,0,0,0-.07-.18.27.27,0,0,1-.06-.36.54.54,0,0,0,0-.43.52.52,0,0,1,.06-.61c.06-.12.12-.18.05-.3s.07-.06.06-.12.07-.13,0-.18-.12-.13-.19-.13-.06-.12,0-.18.06-.06.13-.06H1.68c0-.18-.13-.3-.13-.42s-.06-.25-.13-.43a.38.38,0,0,1,0-.36c0-.12.12-.25.12-.37s.06-.24.06-.36a.28.28,0,0,0-.07-.31l-.06-.06v-.06a.62.62,0,0,0,0-.48,1.21,1.21,0,0,1-.07-.49.22.22,0,0,1,.06-.18c.06-.06.13-.06.25-.13s.12-.06.19-.06S2,143,2,143s-.13-.12-.25-.12l-.06.06v-.55h0c-.06.06-.19.13-.25.19s-.12-.12-.12-.18.06-.13.05-.25.06-.18,0-.24-.06-.24-.13-.36.06-.12.06-.25a1,1,0,0,1,0-.73c0-.12.06-.24-.06-.36a.17.17,0,0,1,0-.24c0-.13.06-.19.25-.19s.13,0,.12-.06,0-.18-.06-.18-.13-.06-.19-.06-.12-.12-.13-.24v-.25c0-.06,0-.12-.06-.12s-.13-.12-.07-.18.13-.06.19-.06l.06-.06a.06.06,0,0,0-.06-.06.6.6,0,0,1-.2-.43c0-.18,0-.3.19-.36s.18-.19.24-.25.07-.12,0-.12H1.38c-.06,0-.13,0-.13-.06.57.18.57.11.63,0Zm-.51-16c0-.06-.07-.06-.07-.12H1.24v.06a.2.2,0,0,0,.13.06c.06,0,.06.06,0,0l.06.06C1.49,121.25,1.43,121.25,1.37,121.25Zm1.46,32.39c-.06,0-.06-.06-.12,0v.06h.06l.06-.06v-.18c0-.07-.06-.07-.06-.13H2.7c-.06,0-.06.07,0,.06A.45.45,0,0,0,2.83,153.64Zm-.1-3.35H2.6a.25.25,0,0,0-.06.19l.07.06a.06.06,0,0,0,.06-.06C2.86,150.35,2.79,150.29,2.73,150.29ZM1.09,114.14c0,.06,0,.06.07.12s.06.06.12.06.06-.06.06-.12a.06.06,0,0,0-.06-.06s-.06-.06-.06,0C1.15,114,1.15,114.08,1.09,114.14ZM1.86,136a.06.06,0,0,0-.12,0c0,.06,0,.12.12,0C1.8,136,1.86,136,1.86,136Zm1,19.93a.21.21,0,0,0-.12.06c0,.06.06.06.12.06S3,156,2.92,156A.06.06,0,0,1,2.86,155.89Zm-.39-6.08v-.06a.06.06,0,0,0-.06-.06H2.35a.11.11,0,0,0,0,.18l.06.06a.21.21,0,0,0,.06-.12Zm.1-2.61s-.07,0-.07.06,0,.12.07.12.06,0,.12-.06S2.63,147.2,2.57,147.2Zm-.35-2.74.06.06s.07,0,.07-.06a.07.07,0,0,0-.07-.06Zm.31-.49-.07.06a.14.14,0,0,0,.13.12.06.06,0,0,0,.06-.06C2.65,144,2.59,144,2.53,144Zm.09,7.54a.07.07,0,0,0-.12.06v.07c0-.07.06-.07.12-.13S2.62,151.57,2.62,151.51ZM1.4,118.76l.06.06a.06.06,0,0,0,.06-.07.05.05,0,0,0-.06,0H1.4Zm-.29-3.52s-.07.06,0,.05a.06.06,0,0,1,.06.07s.06-.07,0-.07A0,0,0,0,0,1.11,115.24Zm.2,1.39a.06.06,0,0,1,.06.06v-.06a.06.06,0,0,0-.06-.06ZM2.8,155.7h0c.06.06.06,0,.06,0s0-.06-.06,0S2.86,155.7,2.8,155.7Zm.13.61h0v0ZM1.88,132.43Zm.45,16.11Zm-.24-9.3c0,.06.07,0,0,0Z" transform="translate(-0.44 -0.02)"/>
                </g>
                <path d="M4.46,204.74a.21.21,0,0,1-.06-.18c0-.06.06-.12.06-.18a.64.64,0,0,0,0-.49c-.06-.06,0-.18-.06-.3a.69.69,0,0,1-.19-.24.17.17,0,0,1,0-.24l.13-.13c0-.12-.07-.3-.07-.42v-.36c-.07-.07-.07-.19-.13-.25s0-.12.06-.18.18-.06.25-.19-.13-.18-.2-.3v.06s-.07,0-.07-.06-.13-.18,0-.24h.06c.13-.06.19-.12.19-.24v-.13c0-.06-.06-.06-.06-.12a.46.46,0,0,1-.07-.55c.06-.12.06-.18,0-.24v-.06a.21.21,0,0,1,.12-.3.12.12,0,0,0,0-.19.65.65,0,0,1-.2-.54c0-.12,0-.18.12-.25a.17.17,0,0,0,0-.24c-.06-.06-.06-.18-.13-.3a1.69,1.69,0,0,1,0-.55c0-.06.06-.12.06-.18s.06-.12,0-.19l-.06-.05c-.06-.06-.06-.12.06-.12s.13-.13.06-.19l-.06-.06c-.06-.06-.13-.06-.13-.12v-.85a.42.42,0,0,0,.06-.37.59.59,0,0,0-.07-.48v-.12c0-.06.06-.13.06-.18a.28.28,0,0,0,0-.31.48.48,0,0,1-.07-.3A.51.51,0,0,0,4,193.5a.47.47,0,0,1,.06-.48,1,1,0,0,1,.25-.31c.06-.06,0-.12-.07-.12H4.13c-.07,0-.07-.06-.07-.12s.13-.25,0-.43v-.18a.86.86,0,0,0,0-.55c0-.06-.06-.12-.07-.18v-.24a.36.36,0,0,0,.06-.24c0-.12,0-.19.12-.25l.06-.06c0-.06-.06-.06-.06-.12S4,190.1,4.1,190s.06-.13.06-.19v-.3a.15.15,0,0,0,.13-.12,3.21,3.21,0,0,1-.07-.43c0-.06-.07-.12-.07-.18S4,188.58,4,188.4v-1c0-.06,0-.18.12-.18l.07-.06v-.06a.2.2,0,0,1,0-.25.18.18,0,0,0,0-.24c-.19-.24-.13-.48-.2-.73s.06-.18.06-.3.06-.06.06-.12.13-.13.12-.19a.13.13,0,0,0-.12-.12.1.1,0,0,1,0-.18c.06-.06.06-.12.12-.12s.06-.06.12-.06.07-.07-.06-.12h0v.24c-.19-.06-.31-.12-.31-.37v-.12c0-.18.06-.3.06-.48V182.8a1.42,1.42,0,0,1,0-.54v-.06a.53.53,0,0,1,0-.31c0-.06-.07-.12-.07-.24s0-.12.06-.13.06-.05.13-.06.06-.12,0-.12S4,181.1,3.92,181s-.06-.18-.06-.24v-.49c0-.06.06-.12.12-.24a.21.21,0,0,0-.06-.18,1.51,1.51,0,0,1-.07-.55v-.18a.3.3,0,0,1,.12-.25s.06-.12,0-.12a.71.71,0,0,1-.2-.6v-.55a.87.87,0,0,1,0-.67,2.19,2.19,0,0,1,.24-.55c.12-.13.12-.18.06-.3s0-.13.06-.19v-.06c0-.06-.07-.06-.13-.06H3.92a.06.06,0,0,0-.06.06c-.06,0-.06,0-.13-.06s0-.18.06-.24.06-.12,0-.3l-.07-.06v-.31a.36.36,0,0,1,.18-.36v.06c0,.06,0,.06.07.06v-.06a.06.06,0,0,0-.07-.06c-.06-.06-.06-.13-.12-.19,0-.24-.07-.42-.07-.6v-.12a1.78,1.78,0,0,0,0-.61.62.62,0,0,1,0-.49c.07-.06.06-.18.06-.3s0-.25.12-.37a.18.18,0,0,0,0-.24l-.06-.06a.48.48,0,0,1,0-.43c.07-.06.06-.12,0-.24s-.06-.12-.06-.25a1,1,0,0,0-.13-.42c-.07-.12-.07-.12.12-.18s.06-.06.06-.13-.13-.12-.13-.17-.06-.12-.06-.25.06-.18.18-.18H4c.06,0,.06,0,.06-.07H4c-.07,0-.07.07-.13.07s0-.19-.06-.24-.07-.06,0-.13H4c.06,0,.06-.06.06-.12a1.35,1.35,0,0,1-.32-.48V168a.13.13,0,0,1,.12-.13c.06,0,.06,0,.07.06s.12,0,.12-.06a.37.37,0,0,0-.19-.36c.06-.07.12-.13.12-.19a1,1,0,0,0-.25-.24v-.06h.12c.06,0,.06,0,.06-.06H3.69a.36.36,0,0,0,0-.36c-.06-.13-.06-.19.06-.19a.77.77,0,0,0,.25-.18v-.06l-.06-.06H3.8c0-.12-.06-.24-.07-.36a.62.62,0,0,0-.13-.43.89.89,0,0,1-.06-.42c.06-.13,0-.31.12-.43s.06-.06.12-.12.06-.19-.07-.31a.56.56,0,0,1,.57.18v.06c0,.06-.06.12,0,.18s.07.24.19.36V165c-.06.19,0,.31-.12.49l.2.36c.12.12.06.12-.06.31l-.06.06a.31.31,0,0,1,.12.24.62.62,0,0,1-.11.49.17.17,0,0,0-.06.18v.31a.13.13,0,0,0,.13.12c.06,0,.12.06.06.12v.42c-.12.19,0,.31.07.43s.07.06.07.12,0,.18-.06.18H4.58l-.06.06a.66.66,0,0,0,.13.49c.13.12.07.3.13.42v.13a1.31,1.31,0,0,0,0,.48.85.85,0,0,1-.12.37c-.06.12-.06.12.06.24s.07.06.13.12,0,.24-.12.31a.11.11,0,0,0,0,.18.88.88,0,0,1,.07.42v.06c-.06.07-.12.13-.06.19a.83.83,0,0,1,0,.54c-.07.13-.06.19.06.25s.13.18.13.3a4,4,0,0,1,0,.91v.12c-.12.19-.05.43-.05.61s0,.55.13.79a.36.36,0,0,1-.06.24.84.84,0,0,0,0,.43c0,.12.06.18.06.3a.36.36,0,0,1-.12.43H4.75s.06-.06,0-.06v.06c.06.06.06.18.13.24s.06.12,0,.12a.4.4,0,0,0,0,.37c.07.18.07.36.2.48v.18a.21.21,0,0,1-.19.07H4.83c-.06,0-.06.12-.06.18l.13.12a.47.47,0,0,1,.13.61c-.06.06-.06.12-.06.24v1a.13.13,0,0,1-.12.12.34.34,0,0,0-.19.12c-.06.06-.06.13,0,.13s.19.11.19.24a.69.69,0,0,1,.07.24.37.37,0,0,1,.07.24c-.07.06-.06.18-.06.3a.12.12,0,0,0,.12.12c0,.19.07.37.07.55a.39.39,0,0,1-.18.43v0c0,.06-.06.06-.06.12s-.06.06,0,.12A.83.83,0,0,1,5,184c0,.06.06.12.07.24a.22.22,0,0,1-.06.18c-.07,0-.07.06-.13.06v.31c0,.06-.06.18-.06.24s.12.06.25.06a.66.66,0,0,0,0,.48.8.8,0,0,1,0,.55,2.66,2.66,0,0,1-.18.67.22.22,0,0,1-.06.13c0,.06.06.12.06.18a.35.35,0,0,0,.2.3.22.22,0,0,1,.06.18v.36c-.18,0-.37.07-.49.07.06.06.06.06.12.06a.24.24,0,0,1,.19.06c.12.06.19.12.19.24a.22.22,0,0,1-.06.18c.06,0,.06.07.06.07a.18.18,0,0,1,.07.17l-.13.13-.18.18a.2.2,0,0,0,0,.25l.06.06a.55.55,0,0,1,.2.66v.24c.07.07.13.12.13.19a.37.37,0,0,0,.07.36V191c-.06.19-.12.43-.18.67a.22.22,0,0,0,.07.19c.06.18.06.3.13.48a.38.38,0,0,0-.12.3c-.07.07-.13.19-.06.25s.12.12.19.18l.06.06a.11.11,0,0,1,0,.18c-.06.13-.12.19-.25.19s-.12.06-.06.12.07.12.13.12.07.3.13.49l-.06.05c0,.07-.06.13-.06.19s.06.12.13.18a.11.11,0,0,1,0,.18V195c.19.17.07.48.13.66a.56.56,0,0,1-.18.37.45.45,0,0,0-.12.24c0,.13,0,.18.06.25s.13.17,0,.3a.17.17,0,0,0,0,.24c.06.06.06.12,0,.25s0,.06-.06.12.06.06.07.12a.56.56,0,0,1,.19.6.49.49,0,0,0,.07.31.28.28,0,0,1-.06.36c-.06,0-.06.07-.12.13a.1.1,0,0,0,0,.18l.06.06c.06.06.13.18,0,.24a.28.28,0,0,0,0,.37c0,.18.12.3.13.48a.4.4,0,0,1-.06.25c-.13.06-.13.18-.12.3v.3a1.82,1.82,0,0,0,.07.25c-.07.06-.07.12-.13.18s0,.12.07.18l.06.06c.06.06.13.12.07.25a.85.85,0,0,1-.12.36.13.13,0,0,0,.12.12h.13v.06c-.06.19-.06.31-.12.49l-.18.37a3,3,0,0,0,.25.66.11.11,0,0,1,0,.18.7.7,0,0,0-.12.61v.25a.77.77,0,0,0,0,.54H5.48s-.07,0-.07,0h.07l.06-.06.06-.06h.06c0,.06.07.12.07.24v.31c0,.06,0,.12-.06.12s-.18.12-.18.18-.06.19-.06.25.06.06.06.12h.13c.18.06.25.11.19.24a.26.26,0,0,0,0,.3.22.22,0,0,1,.06.18c0,.12-.06.19-.18.13H5.63c-.07,0-.13.06-.07.06a2.22,2.22,0,0,0,.26.54c.13.12.13.12-.06.25s-.12.06-.12.12a.21.21,0,0,0,0,.31c.06.06.07.12,0,.18s0,.12.07.18,0,.12-.06.06-.13-.06-.19-.06-.06,0-.13-.06-.12-.18-.19-.3v-.06H5.2c0-.12.06-.24,0-.3a.2.2,0,0,1,0-.25l.06-.06v-.12a.28.28,0,0,1-.07-.42c.06-.07,0-.13-.07-.19l-.06-.06c0-.12.06-.18.06-.3v-.06c.12,0,.25.06.31-.07s-.07-.36-.07-.55,0-.12-.06-.12-.19-.11-.13-.24v-.3c.12.06.18,0,.31,0v.06H5.17v-.18a.25.25,0,0,1,.06-.19c.07-.06.13-.06.19-.12a.11.11,0,0,0,0-.18c-.82-.36-.88-.41-1-.48h.13l.06-.06v-.06H4.59C4.53,204.68,4.53,204.74,4.46,204.74Zm-.87-25.28H3.9c-.06,0-.06-.06,0-.06v.06c-.12,0-.25-.06-.31,0v0Zm.46,6.81c-.06-.06-.19-.06-.19-.18s-.07-.18-.07-.3H3.67a.85.85,0,0,0-.12.36c0,.12.13.18.25.24A.32.32,0,0,0,4.05,186.27ZM3.91,175h0a.2.2,0,0,0,0,.25H4l.06-.06C4,175.08,4,175,3.91,175Zm.78,27.41a.07.07,0,0,0-.07-.06.06.06,0,0,0-.06.06s0,.06.13,0ZM3.51,173c-.06,0-.06,0-.06.06v.06c.06,0,.12,0,.06-.12Zm.74,19.08h0c-.07,0-.07.06,0,0v.06l.06-.06Zm-.31-14.59Zm.18,9.79Z" transform="translate(-0.44 -0.02)"/>
                <path d="M5.3,216.83c.07.06.19.12.25.18a.11.11,0,0,1,0,.18c-.07.07-.13.07-.13.13a.57.57,0,0,1,0,.55c-.06.06,0,.18,0,.3s.13.12.19.12.13.12.07.18a1.2,1.2,0,0,0-.06.49c0,.12-.06.3-.06.42s-.06.13-.06.25a.36.36,0,0,0,.07.42c.06,0,.06.06.07.12s0,.19,0,.31-.19.12-.19.24-.12.19-.24.19-.06.06-.06.12a.06.06,0,0,0,.06.06h.06c.13.06.19.12.19.24s.07.18.07.3.06.12.13.18.06.12,0,.12-.25,0-.19.19.13.06.19.12h.06a.26.26,0,0,1,0,.3c-.13.07-.25.07-.31.13s-.13.18-.06.24.06.06.12.06a.41.41,0,0,1,.13.24.56.56,0,0,0,.26.49.19.19,0,0,0,.06.12c-.06.18,0,.36-.12.6v.07a.25.25,0,0,1,0,.3v.12a1.27,1.27,0,0,1,0,.67v.3a.6.6,0,0,1,.07.31c0,.12,0,.24-.12.3s-.07.06,0,.06,0,.12-.06.19-.06.12,0,.18h.12c.07,0,.07.06.07.12s0,.12-.06.12-.13,0-.13.06a.2.2,0,0,0-.18.07c0,.06,0,.12.06.12s.06.06.13.06.12.06.06.12-.06.06-.06.12a.11.11,0,0,0,0,.18,6.07,6.07,0,0,1,.32.67.27.27,0,0,1,0,.3.56.56,0,0,0-.06.3v.13c.13.24,0,.48.13.72a1.84,1.84,0,0,0-.25.13c-.06.12-.18.18-.24.37a.36.36,0,0,0,.06.24c.07.06.13,0,.19,0l.06-.07c.06-.06.06-.06.13,0a.23.23,0,0,1,.06.19.54.54,0,0,0-.06.3.06.06,0,0,1-.06.06H6c-.06,0-.12.07-.06.06a1.4,1.4,0,0,0,.19.31.11.11,0,0,1,0,.18c-.06.12-.06.18.07.3v.06c-.06.06-.06.12-.06.25a1.67,1.67,0,0,1,.07.54c0,.12,0,.19-.06.24a1.14,1.14,0,0,0-.18.37l.06.06c.12.06.19.12.19.18a.37.37,0,0,1-.06.25.11.11,0,0,0,0,.18c.07.12,0,.18,0,.24a.54.54,0,0,0,0,.43c.06.06.06.18.13.24s-.06.25-.25.19H5.84v.06c.07.06.13.12.19.12s0,.12,0,.12H5.91c-.06.06-.12.19-.06.19a.35.35,0,0,1,.25.36.17.17,0,0,1-.12.18c-.06,0-.12,0-.12.06a.06.06,0,0,0,.06.06c.06.06.06.12.06.24s-.12.07-.12.19a.06.06,0,0,0,.07.06H6c.06-.06,0-.12,0-.25.07.07.13.07.19.12v.07a.56.56,0,0,1,.13.36c0,.18,0,.36,0,.54s-.06.13-.12.19a.41.41,0,0,0-.13.24,3,3,0,0,0,0,.67H6c.06,0,.07.06.13.12a.56.56,0,0,0,.13.43.21.21,0,0,1,.06.12v.18a1.78,1.78,0,0,1,0,.61c0,.12-.06.18,0,.3v.12c0,.13-.06.25-.06.37a2.28,2.28,0,0,0,.07.3c0,.06-.13.06-.13.12a.12.12,0,0,0,0,.19,1.07,1.07,0,0,0-.43.06c-.06,0-.06.07-.06.07v.05c.19.06.37.06.5.18a.23.23,0,0,1,.07.36c0,.07-.07.07-.06.13v.12a.64.64,0,0,1,.13.79c0,.06-.06.18-.06.24a.89.89,0,0,0-.12.37,2.28,2.28,0,0,0,.07.3.29.29,0,0,0,.13.24c.06.06,0,.13-.13.19s-.06.06-.06.12V245l.07.06c.19.12.19.3.06.49s-.06.12,0,.24V246a.65.65,0,0,0,.07.49.18.18,0,0,1,0,.24.48.48,0,0,0,.13.48.12.12,0,0,1,0,.19.46.46,0,0,0-.12.3.21.21,0,0,1-.06.18c0,.07-.06.13-.12.19s0,.18.13.24h.12l.06.06c0,.12.07.3.07.43a.4.4,0,0,1-.24.3H6.2a.38.38,0,0,0-.31.19c-.06.06-.12,0-.13-.06a.27.27,0,0,1,0-.3c.06-.07.06-.13.06-.25v-.54c.06-.13-.06-.31,0-.43a.26.26,0,0,1,0-.3.5.5,0,0,0,0-.43,1.44,1.44,0,0,1-.13-.73.66.66,0,0,0-.07-.3c-.13-.12-.07-.24,0-.42s.07-.07.13-.13.06-.12,0-.24-.12-.12-.18-.12L5.46,245a1.4,1.4,0,0,1,.06-.49.37.37,0,0,0,0-.49c0-.06,0-.06.06-.06h.07a.06.06,0,0,0,.06-.06s0-.12-.07-.12-.12-.06-.18-.12-.13-.06-.13-.18v-.24a.19.19,0,0,1,.06-.19c.06-.06.12-.12.12-.18a.11.11,0,0,0,0-.18c-.13-.06-.13-.18-.13-.31s-.07-.12.12-.24.06-.12,0-.12a.07.07,0,0,1-.07-.06.22.22,0,0,1-.06-.18c0-.06.06-.19.06-.25s.06-.12,0-.12a.66.66,0,0,1-.07-.36c0-.12-.06-.24-.07-.36v-.13c0-.06-.06-.18,0-.24a.55.55,0,0,1,.31-.13h.13v-.12c-.06-.06-.12-.12-.19-.12s-.25-.18-.25-.3a1.33,1.33,0,0,0-.07-.3c0-.12,0-.18.06-.25s.13-.12.06-.18-.06-.06-.06-.12-.06-.12,0-.18.06-.18-.07-.25a.1.1,0,0,1,0-.17c.12-.13.12-.31.18-.5H5.25c-.13-.06-.19-.12-.13-.24a.59.59,0,0,0,.06-.31V237c.06-.12.06-.19,0-.24a.16.16,0,0,1,.06-.25c.13-.06.13-.18.06-.3l-.06-.06c-.07-.12,0-.19.12-.25h.13s0-.06.06-.06v-.06H5.47c-.12,0-.18-.06-.19-.12a1.78,1.78,0,0,1-.07-.79v-.24c0-.07-.07-.19-.07-.24v-.19c.13-.12.06-.3,0-.42s0-.07-.07-.12a.56.56,0,0,1,.25-.31v.06a.47.47,0,0,1-.26-.42V233c.07-.06.06-.19.06-.25s-.06-.3-.07-.48,0-.18.06-.19a.67.67,0,0,0,.31-.42c-.06-.13-.12-.12-.19-.19S5,231.18,5.1,231s.06-.12.06-.18a.31.31,0,0,0-.13-.25.4.4,0,0,1-.13-.42c.06-.24,0-.55.06-.79s.06-.3,0-.42-.06-.31,0-.43-.07-.24-.07-.3a.4.4,0,0,1,.06-.25c.06-.06,0-.12,0-.18s-.07-.12.06-.18.12-.07.06-.19-.07-.12,0-.18.06-.06.06-.12,0-.18-.13-.24-.06-.06-.13-.06a.11.11,0,0,1,0-.18.2.2,0,0,0,.12-.07c.13,0,.19-.06.32-.12v-.06H5.23a.06.06,0,0,0-.06.06c-.06.06-.19,0-.25,0s-.13-.12-.13-.18-.06-.42.06-.61v-.12c-.07-.12,0-.24.05-.36a.25.25,0,0,0,0-.31.22.22,0,0,0-.06-.18.48.48,0,0,1-.07-.3v-.19c-.13-.11-.07-.3,0-.42a2.08,2.08,0,0,1,.18-.55c.07-.06,0-.18-.06-.18-.25-.12-.19-.36-.2-.55s.07-.06.07-.12.12-.06.18-.06a.06.06,0,0,0,.06-.06l-.06-.06H4.87c-.13,0-.19-.06-.19-.18s0-.19-.07-.24-.06-.19.06-.31.06-.06,0-.12a.22.22,0,0,1-.06-.18,2,2,0,0,0-.07-.55.93.93,0,0,1,0-.43.38.38,0,0,0,0-.36l-.06-.06a.37.37,0,0,1,0-.43.22.22,0,0,0,0-.36c-.07-.06-.07-.18.06-.24s.06-.07.12-.07a.22.22,0,0,0,.06-.18c0-.06-.06-.06-.06-.12s-.13,0-.13-.06-.06-.06-.06-.12v-.12a1.52,1.52,0,0,0,0-.73c0-.13-.07-.3-.07-.43v-.18a.4.4,0,0,0,.06-.36c-.07-.13.06-.25,0-.37s0-.18.13-.24a2.48,2.48,0,0,0,.31-.19c.06.12.06.18.19.18v.67H5.17c-.12.06-.12.06-.12.12S5.24,216.65,5.3,216.83Zm.13,15.69a.18.18,0,0,1,.19.06h.06v-.06a.06.06,0,0,0-.06-.06c-.06-.06-.06-.12-.13-.12S5.43,232.34,5.43,232.52Zm.66,7.59c-.12.06-.12.12-.06.18s.12.06.12,0,.07-.12-.06-.18Zm-1-15.92h0c-.06.06,0,.06,0,.06s.06.06,0-.06ZM6,241Zm-.56-10ZM5,222.31H5c-.06.06,0,.06,0,.06S5.06,222.37,5,222.31Z" transform="translate(-0.44 -0.02)"/>
                <g class="cls-3">
                    <path d="M1.31,106.42a.48.48,0,0,1,.13.24.24.24,0,0,1-.19.06c-.06,0-.12.12-.06.19s.06.17,0,.24l-.12.12v.06l.06.06a.45.45,0,0,0,.25-.12.24.24,0,0,1,.19.06.27.27,0,0,1,0,.3.91.91,0,0,0-.12.43.28.28,0,0,1-.12.24.5.5,0,0,1-.43.13,1.36,1.36,0,0,1-.26-.36c0-.13,0-.13.12-.25H.83c.06,0,.06-.06.06-.12s-.13-.3-.32-.36-.13-.12-.13-.25.18-.54.3-.79c0-.06.07-.12,0-.18s-.07-.43-.13-.61a.13.13,0,0,1,.12-.12H1v-.12c-.12-.13-.19-.25-.31-.37s-.07-.05-.07-.12-.06-.24-.07-.36a3,3,0,0,0,0-.73.28.28,0,0,1,.12-.24H.71c.25-.19.25-.25.06-.49L.7,102.9a1.43,1.43,0,0,1-.13-.49v-.24a.47.47,0,0,1,0-.42.82.82,0,0,0,.06-.37.81.81,0,0,1,.06-.67,1.28,1.28,0,0,1,.11-.49A.36.36,0,0,0,.73,100a.29.29,0,0,1-.07-.37s.06-.12,0-.17,0-.25.18-.31l.07-.06L.84,99H.78c-.13-.06-.19-.12-.13-.25s.06-.12.06-.18.06-.12.06-.18,0-.43-.13-.61v-.12c0-.18,0-.36.18-.49v.06a.46.46,0,0,1-.13-.3c-.06-.12,0-.3-.13-.42v-.13a.27.27,0,0,0,0-.3c0-.12.06-.18.18-.25s.06-.06.12-.06a.06.06,0,0,0-.06-.06c-.19,0-.19-.12-.13-.24l.07-.06v-.06c-.06,0-.06-.06-.12-.06l-.06-.06v-.06a.8.8,0,0,0,0-.55c.06-.12.12-.18.06-.3s0-.12.06-.13H.78c.07,0,.13,0,.13-.06A.2.2,0,0,0,.84,94a.25.25,0,0,1-.19-.06.11.11,0,0,1-.06-.18,1.29,1.29,0,0,0,.11-.85c-.12-.24-.06-.49-.13-.73s0-.24.12-.24l.06-.07c-.06-.06,0-.18-.06-.3l-.07-.06c-.06-.06-.12-.06-.06-.18a1.81,1.81,0,0,1,.11-.79v-.19c.06,0,.13,0,.13-.06l.06-.06v-.06c-.07-.12-.07-.24-.13-.3s-.13-.12-.07-.25v-.3A.45.45,0,0,1,.72,89a1.12,1.12,0,0,0,.05-.79v-.55c0-.12.06-.25,0-.37v-.12c.06-.18,0-.36.05-.55s0-.12-.06-.12a.77.77,0,0,1-.07-.36,3.18,3.18,0,0,0,.12-.73A.8.8,0,0,0,.86,85c0-.06,0-.12.06-.12a1.1,1.1,0,0,0,.31-.25.22.22,0,0,1,.06-.18v0A.39.39,0,0,1,1,84.41c-.13,0-.19-.18-.19-.3s0-.06.06-.06A.3.3,0,0,0,1,83.68c-.07-.12,0-.24-.07-.36V82.9a1.17,1.17,0,0,0-.07-.49.18.18,0,0,1,0-.24,2.57,2.57,0,0,0,.06-.67c0-.06.06-.12.12-.19s.06-.06.06-.12a.66.66,0,0,1,.12-.61c0-.06,0-.06-.07-.06s-.06-.12-.06-.24C.86,80,.92,79.79,1,79.49L1,79.43c.06-.06.06-.13.06-.25S1,79.12,1,79.06s.06-.3.19-.36.12-.07.19-.07.25.06.37.12a.22.22,0,0,1,.13.3c-.06.12-.12.19-.18.31s0,.12.06.12a.34.34,0,0,1,.07.42.44.44,0,0,0-.25.07v.12c.07.06.13,0,.25,0v.12a.26.26,0,0,1,0,.3.61.61,0,0,1-.31.37c-.06,0,0,.12,0,.12s.06.06.13.06.06.06,0,.12l-.06.06c-.13.19-.12.31.07.49a.3.3,0,0,1,0,.36,1.17,1.17,0,0,0,0,.67,1.41,1.41,0,0,1,.07.49c0,.12,0,.18-.06.24s-.06.12-.06.24V84c0,.12-.06.18-.18.24s-.13.13-.06.19.06.12,0,.18v.12c0,.06.06.06.13.12a.71.71,0,0,1,.13.49v.24a.36.36,0,0,1-.12.37c.06,0,.13.12.13.18s-.06.24-.06.36-.06.06-.13.06-.12.07-.19.13a.15.15,0,0,0,.07.24h.13l.06.06V87c-.12.12-.25.19-.31.31v.06l.19.18a.7.7,0,0,0,.2.48.56.56,0,0,1,.06.3,1.53,1.53,0,0,1-.05.31v.12c.06.12,0,.24-.06.37a.45.45,0,0,0-.12.24c-.07.06,0,.18.13.24h.06c.06.06.12.12.06.19a.4.4,0,0,0-.06.36h0a.13.13,0,0,1,.13.12v.18a.5.5,0,0,0,0,.43.68.68,0,0,1-.06.48.27.27,0,0,0,0,.31,1.08,1.08,0,0,1-.06.61.32.32,0,0,1-.25.12c-.06,0-.13-.06-.25-.06H1.14s-.07.07,0,.07.12.18.25.18H1.7s.07.06,0,.06-.07.12-.13.19a.11.11,0,0,0,0,.18.2.2,0,0,1,.07.18.36.36,0,0,0-.06.24c.06.13-.06.19-.12.31v-.06c.07.06.2.06.2.12s.12.18.06.3-.06.12,0,.12,0,.25,0,.31a.22.22,0,0,0,.13.3l.06.06a.11.11,0,0,1,0,.18c-.06.06-.12.13-.18.18a.12.12,0,0,0,0,.19l.06.06c.07.12.13.18,0,.24l-.07.06c-.06.07-.12.19-.05.25v.06c.12.12,0,.24-.06.37a.26.26,0,0,1,.13.36l-.06.06c0,.06.06.12.06.24a1.69,1.69,0,0,1,0,.55.49.49,0,0,0,.07.42.19.19,0,0,0,.06.12c0,.06-.06.19-.06.25a.58.58,0,0,0-.06.54v.43c-.06.06-.12.06-.19.12s-.06.07,0,.07a.61.61,0,0,1,.19.24V100c-.07,0-.07,0-.13.06s-.13,0-.13.06a.14.14,0,0,0,.13.12c.07,0,.07.06.13.06a.32.32,0,0,1,.19.3.21.21,0,0,1-.06.12.51.51,0,0,1-.31.07H1.49v.12c.06,0,.06.06.13.06.31,0,.31.12.13.36a.3.3,0,0,0-.19.07v.06h.07a.23.23,0,0,0,.06-.19,3.21,3.21,0,0,0,.19.31c.06.06.06.12-.06.18s-.25.31-.38.43-.06.18-.06.31v0h.06c.06-.06.06-.12.12-.18l.07-.06a.13.13,0,0,1,.12.12l-.06.06c-.06.06-.06.12-.06.24a.47.47,0,0,1-.06.31s0,.12.07.12a.48.48,0,0,0,.25.12c.12.06.13.18,0,.3l-.06.06c0,.06-.06.07-.06.13s-.06.18-.19.18H1.53c-.06,0-.13,0-.13.07s.07.12.07.12h.12c.07,0,.13,0,.13.06s.07.06.07.12,0,.13-.06.13c-.13.18-.06.3.13.48V105c-.06.12-.19.25-.25.37s-.06.24.13.3a.06.06,0,0,1,.06.06c.07.06.07.06.07.12a3.73,3.73,0,0,0-.18.43c0,.06-.07.06-.13.12a.15.15,0,0,0-.06.25c-.25-.18-.19-.18-.19-.18ZM1.24,80.76l-.12.13C1,81,1,81,1.06,81.07h.12c.06-.07,0-.12,0-.25,0,.06,0,0,.06-.06s.06,0,.13-.06v-.06H1.3A.21.21,0,0,1,1.24,80.76Zm-.25,25a.12.12,0,0,0,.19,0l.06-.06v-.06H1.17c-.12,0-.12.06-.18.12s0-.06-.07-.12-.06,0-.06,0v.06C.93,105.75,1,105.75,1,105.81ZM.84,93.41c.06-.12.12-.18.18-.3v-.06C1,93,1,93,1,92.92H.83c-.06.07-.06.13-.12.19S.77,93.29.84,93.41Zm.33-8.15.19-.18V85H1v.06C1.05,85.14,1.11,85.2,1.17,85.26Zm-.06,9.85h0a.08.08,0,0,0,.12,0l-.06-.06C1.17,95.11,1.17,95.11,1.11,95.11ZM1,87.88a.06.06,0,0,1,.06.06c.06,0,.12-.06.06-.06l-.06-.06ZM1.07,92h0c.06.06.06,0,.06,0s.06-.06-.06,0C1.13,91.89,1.13,92,1.07,92Zm.19,15.93c-.06-.06-.06-.06-.06,0s0,.06.06,0ZM.61,90.68a.07.07,0,0,0,.07.06.06.06,0,0,0,.06-.06.06.06,0,0,1-.06-.06S.61,90.62.61,90.68ZM.83,83c0,.06.06,0,0,0ZM1,94.44s.07,0,.07.06v-.06ZM.86,85.63a.06.06,0,0,0-.06.06.06.06,0,0,0,.07.06.06.06,0,0,0,.06-.06C.93,85.63.93,85.63.86,85.63Z" transform="translate(-0.44 -0.02)"/>
                </g>
                <g class="cls-4">
                    <path d="M7.6,307c0-.07-.06-.12-.12-.19s-.13-.18-.13-.3v-.18c.06-.13.05-.25,0-.3s-.06-.19.06-.25.12-.18.06-.3-.07-.49-.2-.73a.91.91,0,0,1-.06-.43c.06-.06,0-.18,0-.3a.13.13,0,0,1,.13-.12l.06-.07c0-.12-.07-.17-.07-.3s-.06-.18-.07-.3V303c-.06-.12-.13-.19-.07-.31v-.3a.54.54,0,0,1,.06-.3c.06-.13.12-.19.12-.31a.22.22,0,0,0-.06-.18c-.07,0-.07-.07-.13-.06a.11.11,0,0,1,0-.18c.06-.07.06-.07.12-.07a.28.28,0,0,0,0-.42l-.07-.06c.07,0,.07-.07.06-.12s.07-.13.19-.13h.06l-.12-.12c-.13-.12-.13-.12,0-.24s.07-.06,0-.12a.12.12,0,0,1,0-.19.36.36,0,0,0,.06-.24c-.06-.12-.13-.18-.13-.3s-.06-.25.12-.31c0,0,.06-.06,0-.06a2.51,2.51,0,0,0-.19-.61.24.24,0,0,1,.06-.3l.06-.06c.06-.12.12-.24,0-.36s-.06-.31-.13-.49a.73.73,0,0,0,.25-.49h.12c.07,0,.07.06.07.12s-.07.06-.06.12a.1.1,0,0,0,0,.18.06.06,0,0,0,.06.06l.12-.12a.18.18,0,0,1,.26.12v.73c.06.18.06.3-.13.36v.07c0,.05.06.05.12.12s.07.05.07.12a.45.45,0,0,1-.06.3c0,.06-.06.06-.13.06s-.12.12-.12.25,0,.12.07.12,0,.18-.06.24l-.07.06c-.06.13,0,.19,0,.25s.06.18.12.18.13.18.19.24.07.12,0,.12-.13.24,0,.36V301a.19.19,0,0,1-.12.06.21.21,0,0,1-.12.06v.49c.06,0,.07.06.13.06s.06.06.06.12S8,301.91,8,302s.19.18.19.31a1.68,1.68,0,0,1,.07.3c0,.12,0,.18-.12.24s-.13.13-.13.25v.12a.22.22,0,0,1-.06.18c-.07.06-.06.12,0,.19a.31.31,0,0,1,.19.29c0,.13,0,.25.07.31a.38.38,0,0,1,0,.36,2.86,2.86,0,0,0-.06.31.2.2,0,0,0,.07.18c.12.12.12.18.06.36s-.06.07-.06.13a1.09,1.09,0,0,1-.18.79c0,.06,0,.12.07.12s.06,0,.12.06a.27.27,0,0,0,.07.18.23.23,0,0,1-.12.31.22.22,0,0,0-.06.18c.06.18.13.3.19.48s.07.18-.06.25a.35.35,0,0,0,0,.48.12.12,0,0,1,0,.19c-.06.12-.12.18-.12.3s0,.06-.06.12a.9.9,0,0,0-.19.25v.06h.19c.13,0,.19.12.13.18l-.19.18a.22.22,0,0,1-.18.06c-.13.07-.13.19,0,.31s.13.06.13.12l.19.18a1.24,1.24,0,0,1-.06.49c-.06.06-.19.06-.25.18s-.12.31.07.43a.22.22,0,0,1,.13.3v.12c-.12.12-.06.31-.06.49-.06,0-.06.06-.12.06a.11.11,0,0,0,0,.18l.07.06c.06.06.12.06.06.18s-.06.31-.06.49-.06.18-.06.25a.11.11,0,0,0,0,.18c0,.06.06.06.06.12s.06.18,0,.24-.06.19-.12.31a.36.36,0,0,0,0,.36c.25.18.13.43.19.61s0,.12-.06.12-.12.06-.19.12a.25.25,0,0,0-.06.19v.06a.64.64,0,0,1,.07.66c0,.07-.07.07-.07.13l-.18.18c0,.12.06.12.13.18a.06.06,0,0,0,.06-.06h.06V317a.39.39,0,0,0,0,.55v.12a.22.22,0,0,1-.06.18c-.13.07-.19.13-.06.31s.06.12,0,.24v.06c0,.13.07.25,0,.37a2.6,2.6,0,0,1-.06.3l.12.12a.26.26,0,0,1,.13.36,1.54,1.54,0,0,0,0,.74.24.24,0,0,1-.06.3.45.45,0,0,0-.12.24c-.06,0-.12.06-.18.07a.56.56,0,0,0-.31.25.27.27,0,0,0,0,.3.24.24,0,0,0,.19.06.62.62,0,0,0,.24-.31h.07v.12c-.06.12-.06.25-.19.31a.44.44,0,0,0-.12.36l.07.06a.25.25,0,0,1,.19.06c.5.24.5.3.5.42s-.06.25-.25.25H7.86c-.12,0-.18.12-.12.18a1.43,1.43,0,0,1,.13.49.32.32,0,0,1,.19.3.33.33,0,0,1-.24.36c-.07,0-.13,0-.13.07a.3.3,0,0,0-.06.18l.13.12a.22.22,0,0,1,.06.18c-.06.06-.06.19-.12.25s0,.18.19.24.19.12.13.24a.06.06,0,0,1-.06.06c-.06.12-.13.18-.06.3s0,.13.06.13a1.41,1.41,0,0,1,0,.73c-.06.18-.12.3-.18.49s0,.24.13.36.06.12.12.12v.06l-.18.19a.11.11,0,0,0,0,.18l.13.12a.22.22,0,0,1,.06.18c-.06.06-.06.12,0,.24s.06.37.06.55a.4.4,0,0,1-.05.3c-.13.12-.13.19,0,.31a.22.22,0,0,1,.06.18c0,.12-.06.24-.05.3s-.13.19-.19.25a.39.39,0,0,1-.44,0l-.06-.06v-.24a.13.13,0,0,1,.12-.12h.13a.14.14,0,0,0,.12-.13.13.13,0,0,0-.13-.12.29.29,0,0,0-.13-.24c-.06-.06-.12-.12-.12-.18s.06-.18.06-.3a.5.5,0,0,1,.18-.37.11.11,0,0,0,0-.18.43.43,0,0,1-.13-.31,1.63,1.63,0,0,1,0-.54v-.07a.83.83,0,0,1,0-.54V327c.06-.06.13-.06.19-.13s.06-.06,0-.12-.07-.06-.07-.12,0-.12,0-.18a.77.77,0,0,1,.37-.13.21.21,0,0,0,.13-.06c0-.06-.06-.06-.13-.06a.56.56,0,0,0-.43.07l-.07-.06a1.75,1.75,0,0,1,.12-.55c0-.06.06-.06.06-.12s.06-.07.13-.07-.13-.18-.13-.36.12-.25.18-.43.06-.24-.13-.3a.06.06,0,0,1-.06-.06c-.13-.06-.13-.12-.13-.24a.82.82,0,0,1,.49-.68c0,.07-.06.13,0,.25H8c0-.06-.07-.12-.07-.18s-.25-.18-.38-.24a.4.4,0,0,0-.06-.25.48.48,0,0,1,0-.42v-.31c0-.06.06-.12.12-.18s.13-.06.06-.18l-.06-.06a4.78,4.78,0,0,1-.14-.91.49.49,0,0,1,.06-.31.4.4,0,0,0,.06-.36.07.07,0,0,1,.06-.07c.06,0,.06,0,.13-.06,0-.24.05-.48.05-.73l-.2-.54c-.06-.18-.06-.24.19-.25h.06a.11.11,0,0,0,.06-.18l-.19-.18a2.35,2.35,0,0,0-.07-.67c-.06-.12,0-.18.06-.24s.06-.07.06-.12-.06-.19-.06-.25-.13-.3,0-.43.07-.05.13-.12a.15.15,0,0,0-.07-.24c-.06-.06-.12-.06-.13-.18a.82.82,0,0,1,.06-.37,2.07,2.07,0,0,0,.06-.61.77.77,0,0,0-.07-.36.36.36,0,0,1,0-.36c0-.06.06-.13,0-.19a.27.27,0,0,1,0-.3c.06-.06.06-.12.06-.24a.69.69,0,0,1-.07-.49v-.12c.31-.13.31-.18.06-.37a.42.42,0,0,1-.13-.3V312a.44.44,0,0,1,0-.31c.06-.12.19-.3.25-.42s.06-.13-.07-.19-.12-.18-.06-.3v-.12l-.13-.12a.27.27,0,0,1-.07-.18c0-.06.07-.06.13-.13s.12-.06.12-.18,0-.24-.13-.3-.06-.18-.13-.31a1.62,1.62,0,0,0,.19-.18.11.11,0,0,0,0-.18c-.07,0-.07-.06-.13-.06s-.13-.12-.06-.18a.23.23,0,0,0,.06-.18,1,1,0,0,1,0-.61c.06,0,.06-.06.12-.06a.21.21,0,0,0,.06-.31c-.06-.06-.12-.06-.12-.12a.32.32,0,0,1-.07-.24c-.13-.06-.06-.18-.07-.3.13.05.13.05.19-.07C7.79,307,7.73,307,7.6,307Zm0-4.5h.06v-.06H7.61Zm-.07,9.66a.06.06,0,0,1-.06.06c.13,0,.13,0,.06-.06Zm.2-9h0v0Zm0,3.22a.06.06,0,0,0-.06-.06H7.66v.07Zm-.06-.36h0c-.07-.12-.07-.06,0,0s-.07,0,0,0Zm-.12-4h0c0,.12.07.06,0,0S7.67,302,7.6,302Zm0,2.43h0C7.57,304.47,7.57,304.53,7.63,304.47Z" transform="translate(-0.44 -0.02)"/>
                </g>
                <path d="M2.08,67.19a1.45,1.45,0,0,0,0,.55V68a.56.56,0,0,0,.06.31c.07.06.07.12,0,.12a.4.4,0,0,0,0,.37V69a.13.13,0,0,1-.12.12c-.06,0-.13,0-.12.06v.19s.06,0,.12.12.19.18.13.24-.06.12-.12.18-.12.18-.06.31a.11.11,0,0,1,0,.18.65.65,0,0,0-.05.36.67.67,0,0,1,.06.3,2.13,2.13,0,0,0,.07.31v.12c0,.06-.06.18,0,.25s0,.24-.06.3-.06.06-.06.12c.13.24.13.24.07.55H2c-.06,0-.06.06,0,.12l.06.06.07.06c0,.06,0,.12-.06.12H1.78a.21.21,0,0,0-.13.06v.12l.19.18a.11.11,0,0,1,0,.18c0,.06-.07.12-.06.19V74l.19.18c.06.06,0,.18-.06.24s-.19-.06-.25.06v.07c0,.06.06.06.12.06s.13,0,.13.12v1c0,.06-.06.12-.12.18s-.12.12-.06.25.06.12.07.18,0,.06-.07.12-.12-.06-.12.06,0,.06.06.12l.07.06c.12.06.12.12.13.24s-.06.25-.06.37v.06c.06.06.13.18.06.24s-.24.43-.43.62,0,.18.13.24a2.43,2.43,0,0,1,.31.06c-.06,0-.12.12-.18.18s-.19.12-.25.06-.38,0-.51-.17-.12-.19-.06-.37A.13.13,0,0,1,1,78,.06.06,0,0,0,1,78c-.07-.06-.13-.12-.07-.18s.06-.13.06-.18.06-.25.19-.25a.22.22,0,0,0,.06-.18c0-.07,0-.19-.13-.19S1,76.93.94,76.88s0-.13.06-.19h.07c.06-.06.12-.06,0-.12a.54.54,0,0,1-.2-.3.8.8,0,0,1,.06-.37c.06-.12.19-.24.25-.36s0-.19-.13-.19H1c-.13,0-.13-.07-.13-.19a.73.73,0,0,1,.18-.6A.08.08,0,0,0,1,74.44c-.13-.06-.13-.12-.13-.18a1.09,1.09,0,0,1,.06-.49c.06-.12.12-.12.18-.12s.06-.06.06-.12v-.12c.13-.13.13-.19.06-.31s-.06-.12-.13-.18S1,72.74,1,72.62V72.2c.06-.19,0-.43.05-.61V71.4a.86.86,0,0,1,0-.55.91.91,0,0,1,.12-.54v-.06a.57.57,0,0,1-.06-.31c0-.18-.07-.36.05-.49V69c0-.06.06-.12.06-.18s-.07-.12,0-.18a1.07,1.07,0,0,0,0-.67v-.12a.94.94,0,0,0,.12-.43.94.94,0,0,1,.12-.37c-.06-.12-.13-.18-.19-.3a.16.16,0,0,1,0-.24v-.06a.31.31,0,0,0,0-.49c-.07-.12-.13-.18-.07-.31v-.12a1.36,1.36,0,0,1,0-.72c0-.07.07-.07.13-.07s.12,0,.18-.12a.36.36,0,0,0-.06-.24.24.24,0,0,0-.19-.06c-.13,0-.13-.06-.06-.19a.05.05,0,0,1,.06,0c0-.07.06-.13.06-.19.12-.36.18-.36.5-.19A1.24,1.24,0,0,1,2.1,64c.06.06.13.18.07.24v.13c-.13.12-.19.24-.06.36a.11.11,0,0,1,0,.18.27.27,0,0,0,0,.31.54.54,0,0,1,.06.3,2.86,2.86,0,0,0-.31.06c-.06.13-.12.13-.25.13s-.18.18-.24.31v.06c0,.06.12.06.18.06s.07-.06.13-.13v-.06c0-.12,0-.18.12-.24s.12-.13.06-.25c.06.07.12.06.19.12a.41.41,0,0,1,.13.18,3.08,3.08,0,0,0-.06.74s-.06.12-.12.18a.39.39,0,0,0-.25.06c-.06.07-.12.19-.06.25a.62.62,0,0,0,.25.3C2,67.14,2,67.13,2.08,67.19Zm-.54-3.33h0a.41.41,0,0,0,.25.36.06.06,0,0,0,.06-.06V64.1C1.79,64,1.66,64,1.54,63.86Zm0,6.44h0a.21.21,0,0,0-.12.06v.06a.08.08,0,0,0,.13,0S1.62,70.42,1.55,70.3Zm-.29,7s0,.06.07,0h.06c-.06,0-.06,0-.13,0Zm0-2.74c-.06,0-.06.06-.06.12H1.3c.06,0,.06-.06.06-.12Zm0-5.17Zm0,6.93c-.06,0-.06.06,0,.06S1.32,76.38,1.25,76.32Zm.16-2.25h0c0,.06,0,.06.07.06v-.06Z" transform="translate(-0.44 -0.02)"/>
                <g class="cls-5">
                    <path d="M7.22,286.18V286a.82.82,0,0,1-.14-.73c0-.12.07-.18,0-.3a.89.89,0,0,1,.06-.42.12.12,0,0,0,0-.19c-.07-.12-.07-.18.06-.24s.06-.06.06-.12a.57.57,0,0,1,0-.55c.06-.12.06-.12-.07-.24l-.06-.06a.22.22,0,0,1-.06-.18.44.44,0,0,1,.12-.31c.06-.18.12-.31,0-.48a.23.23,0,0,1,.06-.19.22.22,0,0,0,.06-.18,1,1,0,0,0-.25-.24,4,4,0,0,0,0-.85v-.31c0-.12.19-.24.31-.24a.18.18,0,0,1,.19.06c.07,0,.07.17.07.3a1.7,1.7,0,0,0,.07.79c0,.06.06.06.06.12a.7.7,0,0,0,.2.48.54.54,0,0,1,0,.61c0,.06-.07.06-.07.12s.07.12.07.18.07.25-.12.37-.06.06-.12.06v.06a1.49,1.49,0,0,1,.31.37c.07.05,0,.17-.06.24l-.06.06a.06.06,0,0,0-.06.06v-.24l-.07-.06a.21.21,0,0,0-.12.06c0,.06,0,.12.06.12a.25.25,0,0,0,.19.06c0,.06.06.06.07.12a.75.75,0,0,1,.19.55v.24c0,.12,0,.18-.12.24s-.18.31-.24.49a.06.06,0,0,0,.06.06H8c.06,0,.06.06.06.12l-.18.37c-.06.12-.06.18,0,.24s.06.06.06.12.07.12.13.18a.28.28,0,0,1,.07.19c-.07.06-.13.18-.25.24a.15.15,0,0,0,.06.24c.13.06.19.12.19.24a.38.38,0,0,0,.07.25c.06.12,0,.18,0,.3s-.12.12-.18.12l-.06.07c0,.06.06.06.12.06s.06,0,.13.05.06.12,0,.19-.12.06-.19.12a.37.37,0,0,0,.07.24v.19c-.06.12,0,.3,0,.42l.12.12a.2.2,0,0,1,.07.18l-.13.13a.35.35,0,0,0,0,.48l.06.06a.33.33,0,0,1,.07.24.54.54,0,0,0,0,.43.94.94,0,0,1,0,.61v.42c0,.13-.13.19-.19.31a.45.45,0,0,0-.06.3.12.12,0,0,1-.12.13c-.06,0-.12.06-.19.06v.12c.06,0,.06.06.12.06a.53.53,0,0,1,.32.3.86.86,0,0,0,.13.3,2.28,2.28,0,0,0-.12.67.46.46,0,0,1-.12.31.22.22,0,0,0,.06.18l.19.18s.07.06,0,.06l-.06.06H8.15l-.06.06c-.07.12,0,.24.06.36l-.06.06h.06a1.11,1.11,0,0,0,.07.43.22.22,0,0,1-.06.18,1.25,1.25,0,0,1-.43.31H7.54a.77.77,0,0,1-.07-.36c0-.06.06-.13.06-.18s.06-.07,0-.19-.06-.06-.06-.12a2.19,2.19,0,0,1,0-.67v0c-.06-.06-.13-.12-.13-.18a.28.28,0,0,1,.06-.36c.06-.07.06-.13.12-.19s-.06-.24-.12-.3a.87.87,0,0,1-.08-.79,1.4,1.4,0,0,1,.06-.49v-.48a.18.18,0,0,0,0-.25.52.52,0,0,1,0-.6,1.09,1.09,0,0,0,.06-.43v-.24a.31.31,0,0,0-.07-.25.38.38,0,0,1,0-.36c0-.06.06-.12.06-.19s.06-.18,0-.3a.27.27,0,0,1,0-.3.82.82,0,0,0,0-.67c-.06-.06,0-.12.06-.25s.06-.12-.06-.12-.19-.12-.19-.24a.76.76,0,0,1,.24-.55h.12c.07,0,.07,0,.07-.06H7.49c0-.18.12-.36.12-.55a.32.32,0,0,0-.13-.3c-.06-.06-.13-.18-.07-.24a2.09,2.09,0,0,0,.19-.37Zm.32.48h0l.06-.06H7.54C7.48,286.6,7.54,286.66,7.54,286.66Zm-.19,5.11Z" transform="translate(-0.44 -0.02)"/>
                </g>
                <path d="M6.51,269.34a.34.34,0,0,0,.12-.42.66.66,0,0,1-.07-.49.22.22,0,0,0-.06-.18V268a.59.59,0,0,0,.06-.31v-.24a.22.22,0,0,0-.06-.18.75.75,0,0,1-.13-.37.48.48,0,0,1,0-.42.66.66,0,0,0,.06-.49.58.58,0,0,1,.12-.55v-.06l-.07-.06c-.06-.06-.12-.12-.12-.18s.06-.24,0-.36.06-.25-.12-.31-.07-.12-.07-.18a2.6,2.6,0,0,1,.06-.3,2.4,2.4,0,0,0,0-1v-.13c0-.18,0-.18.12-.3-.13-.18-.19-.24-.19-.42s0-.19.06-.25.12-.18,0-.37,0-.12,0-.18l.25-.24s-.06.06,0,.06v-.06a1,1,0,0,1,.44-.07l.06.06a.5.5,0,0,1,0,.43c0,.06-.06.06-.12.06s-.06.06,0,.12.13.06.07.18,0,.18,0,.25-.06.18.06.24a.67.67,0,0,1,.14.6c0,.06-.06.13-.06.19s-.06.12-.06.24v.3a.47.47,0,0,0,.07.49.19.19,0,0,1-.06.12.24.24,0,0,1-.19.06.12.12,0,0,0,0,.19c.07.06.07.06.13.06s.13.12.06.12-.06.06-.12.06L7,264.9v.18a.49.49,0,0,0,.26.55h.06c.06.18-.06.36-.18.55s0,.12.06.12.13.05.07.12-.06.06-.06.12-.06.3-.12.43,0,.12.06.12h.13l.06.06v.54c0,.06-.07.06-.07.13s-.12.18,0,.36l.06.06a.17.17,0,0,1,0,.24c-.07.07-.07.12-.13.19v.12c.07.12.13.3.2.42s.06.19-.06.25-.13.12-.06.18a.63.63,0,0,1,.13.55v.12c0,.06.06.12.13.18a.38.38,0,0,1,0,.36.52.52,0,0,0-.06.43v.24a.68.68,0,0,1-.18.55c0,.06-.06.06-.06.12s0,.13.06.13a.86.86,0,0,1,.13.78c-.06.19,0,.31,0,.49s0,.18-.12.18a.56.56,0,0,0-.38.13c-.06.06-.06.06-.12.06s-.12,0-.13-.06a1,1,0,0,0-.06-.42c-.07-.06-.07-.18-.07-.31v-.3a.48.48,0,0,0-.13-.24,1.79,1.79,0,0,0,.24-.73c0-.06.06-.07.06-.13h.06c.07,0,.07,0,0-.06H6.73a.06.06,0,0,0-.06.06v-.12c0-.06,0-.12-.07-.12H6.48c-.06,0-.07-.06-.13-.12v-.18a1.79,1.79,0,0,0,0-.61c-.06-.12,0-.24,0-.3s.06-.36,0-.55.06-.18.12-.3C6.58,269.53,6.51,269.47,6.51,269.34Zm.66,2.37a.06.06,0,0,1-.06.06c.06.06.12,0,.06-.06S7.17,271.77,7.17,271.71Zm-.36,1.34c-.06,0-.06.06,0,.06a.06.06,0,0,1,.06.06s.06-.06,0-.06Zm.13.54c0,.07,0,.07.06.07v-.07C7.06,273.53,7,273.53,6.94,273.59Z" transform="translate(-0.44 -0.02)"/>
                <g class="cls-6">
                    <path d="M2.59,7.43H2.53a.84.84,0,0,0-.38-.06A.13.13,0,0,1,2,7.25c0-.18.05-.36.05-.55s.06-.06.06-.12l.13-.12c-.07-.12-.19-.18-.26-.3V5.67c-.13-.18-.07-.36-.07-.55A.75.75,0,0,1,2,4.76V4.7a1.35,1.35,0,0,1,.19-.43V4.21H2.05c-.06,0-.12,0-.13-.06a.36.36,0,0,0-.06-.24.36.36,0,0,1,.06-.24s.06-.07,0-.07C1.79,3.36,2,3.18,2,3S2,2.81,2,2.69a.32.32,0,0,0-.13-.24.38.38,0,0,1,0-.36c0-.06.06-.06,0-.13a.29.29,0,0,1,0-.42V1.42c-.07-.06-.07-.12-.13-.12a.35.35,0,0,1-.13-.24c0-.19-.13-.31-.06-.49L1.44.51A.45.45,0,0,1,1.31.15L1.37.09c.07.05.13.05.25,0S1.87.08,2,0h.06c.13.06.25.06.38.11a.48.48,0,0,1,.25.12.15.15,0,0,1,.13.12c0,.06.06.12.06.18a.67.67,0,0,0-.12.31c.06.06.06.12.13.18s.06.12.06.24a.27.27,0,0,0,0,.31A1.17,1.17,0,0,1,3,2.07v.55H2.91c.06,0,.06,0,.12-.06l-.18.36c-.06.13,0,.19.12.19a.12.12,0,0,1,.13.12A3.9,3.9,0,0,1,2.92,4c-.06.06,0,.12.07.18s.06.06.12.06a.2.2,0,0,1,.07.18c0,.06-.06.18-.06.24a3.48,3.48,0,0,1-.24.86.06.06,0,0,1-.06.06.76.76,0,0,0-.31.18A.25.25,0,0,0,2.45,6a.13.13,0,0,0,.12.12v.06h0V6.09c0-.06.06-.12.13-.18h.12c.13,0,.25,0,.25.17v.43A.13.13,0,0,1,3,6.63H2.83c-.06-.12-.06-.12-.13-.06a.49.49,0,0,0-.24.25v.06l.06.06c.06,0,.06,0,.13-.06l.18-.19A.43.43,0,0,0,3,7.06a.57.57,0,0,1-.37.37Zm0-5.66h.07V1.65H2.58v.12H2.4v.07a.05.05,0,0,0,.06,0C2.52,2,2.52,1.89,2.58,1.77ZM2.31,5.3h0c.07-.06,0-.06,0-.06Zm.5,0c.07,0,.13-.07.06-.13l-.06-.06c-.06,0-.06.07-.06.12A.06.06,0,0,0,2.81,5.3Z" transform="translate(-0.44 -0.02)"/>
                </g>
                <path d="M6.62,257.79h0c-.44.13-.5-.05-.5-.36a.84.84,0,0,1,.12-.42.64.64,0,0,0-.08-.73A.57.57,0,0,1,6.1,256v-.54a.52.52,0,0,0-.07-.31v-.24c.06-.12.12-.31,0-.42v-.06c.12-.31-.07-.55,0-.85a1.16,1.16,0,0,1,0-.49.28.28,0,0,0-.06-.31l-.07-.06A1.41,1.41,0,0,1,6,252a.36.36,0,0,0,0-.36l-.06-.06c0-.24-.13-.48-.07-.73a2.57,2.57,0,0,1,.05-.73.48.48,0,0,0-.07-.3c-.06-.12-.06-.19,0-.24a.25.25,0,0,0,.06-.19c.06-.06.06-.18.19-.19a.5.5,0,0,1,.25.06c.06,0,.12.06.19.06s-.06.18-.13.25-.06.12-.06.24a.23.23,0,0,0,.07.18c.12.06.13.12.13.18s-.06.31-.19.37-.06.12-.12.18.13.25.19.25a.21.21,0,0,1,.13.3.06.06,0,0,0,.06.06.1.1,0,0,1,0,.18c-.24.18-.18.49-.17.73,0,.06.06.06.12.06h.13c.06,0,.12.12.06.12a.83.83,0,0,1-.18.24c-.13.07-.19.13-.12.31a.06.06,0,0,1-.07.06l-.06.06c0,.07.07.06.07.12s.12.19.06.31,0,.12.07.18.12.12.12.24v.24a.36.36,0,0,1,0,.43,1.21,1.21,0,0,1-.12.43.17.17,0,0,0,0,.24c.12.18.06.3,0,.49a.83.83,0,0,0-.18.24c-.06.06-.06.12.06.12a.34.34,0,0,1,.19.12.79.79,0,0,0,.32.42.13.13,0,0,0-.12.13v.12c.12.12-.06.36.13.48a.12.12,0,0,1,0,.19c-.06.06-.12.06-.25.12S6.62,257.73,6.62,257.79Z" transform="translate(-0.44 -0.02)"/>
                <path d="M6.73,337.8c0-.06.06-.13.06-.25v-.73c0-.06,0-.12.13-.12s.12-.06.18-.12v-.12c-.06-.07-.06-.07,0,.12L7,336.46c-.07-.06-.07-.12-.07-.24S7,336.09,7,336s-.06-.24-.13-.36-.06-.12.12-.25l.07-.06c0-.06-.07-.06-.07-.12s-.06-.12,0-.18.06-.12.06-.19a.18.18,0,0,0,0-.24.48.48,0,0,1-.13-.42v-.36a.85.85,0,0,1,.12-.37,1,1,0,0,1,.19-.31c.06-.06,0-.12-.07-.12s-.12,0-.12-.12v-.18c.07-.06.06-.13.13-.19L7,332.5,7,332.45a.47.47,0,0,1,.06-.31A.22.22,0,0,1,7.1,332c.12-.13.12-.37.18-.49a.8.8,0,0,0,0-.55c-.06-.06,0-.12.13-.12s.31.05.5.05l.06.06s0,.12-.06.13-.19.06-.19.12,0,.18.07.3a.87.87,0,0,1,.07.79.67.67,0,0,0-.06.31.19.19,0,0,1,.07.18c0,.06,0,.12-.06.12a.3.3,0,0,0-.25.13c-.06.05-.06.12,0,.24s.07.12.07.24a.22.22,0,0,1-.06.18c.06.06.12.19.25.24v.31a.65.65,0,0,1,0,.36c-.06.13-.13.25-.19.37s.13.24.13.36a.44.44,0,0,1-.12.37l-.24.25c0,.12.12.12.19.17a.25.25,0,0,1,.06.19.45.45,0,0,1-.06.3c-.12.19-.12.37-.24.55a.78.78,0,0,0-.06.37l.13.12c.12.12.19.24.13.36a.66.66,0,0,0-.06.36c0,.07-.06.07-.13.07s-.06-.06-.12-.06-.13.06-.19-.06l-.06-.06c-.25-.06-.26-.24-.2-.42l.13.12h.06v-.06C6.86,337.79,6.8,337.8,6.73,337.8Zm.6-2.56h0c-.06.06-.06.06,0,.06s.06,0,0-.06Z" transform="translate(-0.44 -0.02)"/>
                <g class="cls-7">
                    <path d="M7.29,276.39a2.86,2.86,0,0,0,.31.06c-.06.18.07.36,0,.54a.19.19,0,0,0,.06.12c.07.19.07.24-.06.37l-.06.06c-.06.06-.06.12,0,.12s.13.24.2.36.06.31-.06.37-.06.12,0,.12a.5.5,0,0,1,.19.36v.49a.63.63,0,0,1-.31.55.38.38,0,0,0-.37,0c-.07.05-.13,0-.19,0a.12.12,0,0,1,0-.19c.06,0,.06,0,.12-.06s.12-.06.06-.18-.06-.18-.13-.24-.13-.3-.19-.42a.47.47,0,0,1,.06-.31c.06-.06.06-.12.12-.19s0-.18-.13-.24H6.87c-.06,0-.12-.06-.13-.11s.06-.25.06-.37a.34.34,0,0,1,.25-.37.06.06,0,0,0,.06-.06v-.06c-.06-.06-.19-.12-.13-.3s.06-.13.06-.19H7.1c.07,0,.06-.06,0-.06H7a.06.06,0,0,0-.06.06v.06c-.06-.06-.13-.18-.19-.23s-.13-.25-.19-.37-.07-.42-.07-.6v-.13a.51.51,0,0,1,0-.42v-.31c0-.12.06-.18.18-.12h.06l.07.06c.06.06.12.06.12-.06H7.2c.06,0,.07.06.07.12s-.07.06-.07.13v.12h.06c.12-.06.12,0,.12.06a1.23,1.23,0,0,0,.07.42v.12a.65.65,0,0,0,0,.49c0,.06,0,.12-.06.12a.18.18,0,0,1-.06.31Zm.41,2.73c0-.06-.07-.12-.07-.06l-.06.06v.12h.07C7.63,279.18,7.63,279.12,7.7,279.12Zm-.55-3.83h.12c.07,0,.07-.06,0-.06a.19.19,0,0,0-.12.06Z" transform="translate(-0.44 -0.02)"/>
                </g>
                <path d="M5.1,215.32c0-.13-.07-.19-.19-.19H4.78a.27.27,0,0,1-.25-.24v-.19a.66.66,0,0,0,0-.48c-.07-.18,0-.36-.07-.49s0-.18.06-.24a.37.37,0,0,0,0-.49c-.06-.06-.06-.12-.06-.24s0-.18-.07-.3-.06-.13,0-.25.06-.12.12-.12l.07-.06c-.07-.12,0-.25-.07-.37a.48.48,0,0,1-.07-.3v-.18c0-.06,0-.12.12-.12a.51.51,0,0,0,.25-.25v-.06a.77.77,0,0,1-.32-.3.28.28,0,0,1,0-.31c0-.05.06-.12.06-.18a.11.11,0,0,0-.07-.18.24.24,0,0,1-.12-.36l.06-.06a.8.8,0,0,0,.5-.07.22.22,0,0,1,.18.06c.13,0,.2.3.13.36s-.12.12-.12.18-.12.19-.06.31H4.78l-.06.06v.06l.06.06c.13,0,.13-.12.19-.18.13.12.07.3.19.42a.18.18,0,0,1,0,.25.41.41,0,0,0-.13.24c0,.06-.06.12-.06.18H4.73l.07.06c.06,0,.12,0,.12-.06h.13c.06,0,.06.06.06.12v.13c-.06.12,0,.18.13.24s.13.12.07.24a.27.27,0,0,0-.06.37v.18a.76.76,0,0,0-.06.36c0,.19,0,.37-.12.49s0,.18,0,.24v.13H4.83l-.06.06h.06a.39.39,0,0,1,.25.06v.18H4.89a.06.06,0,0,0,.07.06H5c.06,0,.06-.06,0-.12h.12c.06,0,.13.06.13.18s0,.3-.12.36l-.06.07c0,.18.13.3.07.48C5.28,215.19,5.22,215.31,5.1,215.32Zm-.26-.43a.06.06,0,0,0,.06.06l.07-.06a.07.07,0,0,0-.07-.06C4.84,214.83,4.84,214.83,4.84,214.89Z" transform="translate(-0.44 -0.02)"/>
                <g class="cls-8">
                    <path d="M1.07,112.5v.18l-.06.06c-.06,0-.12-.06-.12-.12a.79.79,0,0,1-.07-.54c.06-.13.06-.25,0-.31v-.66h0a1.32,1.32,0,0,1-.19-.85v-.55a.36.36,0,0,1,.37-.37h.25v-.06c-.13-.06-.19-.12-.19-.25s.19-.06.18-.18.13-.18.25-.25a.06.06,0,0,1,.06.06,1.41,1.41,0,0,0,.13.43c.07.06,0,.18.07.24s0,.12-.12.18l-.06.06a.78.78,0,0,0,.06.37.32.32,0,0,1,.07.24.25.25,0,0,1-.06.19c-.13.12-.13.12,0,.3l.06.06a.25.25,0,0,1,0,.3,2.35,2.35,0,0,1-.19.25l-.18.18c0,.12.13.12.13.19a.31.31,0,0,1,.19.29v.25c-.06.12-.12.3-.31.25s-.19,0-.25.06Zm.28-2.44v-.12H1.29s-.06.06,0,.06A.06.06,0,0,1,1.35,110.06Z" transform="translate(-0.44 -0.02)"/>
                </g>
                <path d="M2,9.32a1.3,1.3,0,0,0,0-.49,2,2,0,0,1,.11-1c.07,0,.19.06.26.06v.06c0,.06.06.06.12,0s.19-.12.12-.24V7.49a.49.49,0,0,0,.5-.07h.06c.06,0,.07.06,0,.06a1.87,1.87,0,0,0-.3.43c-.07.06,0,.06.06.12s.19.06.19.18-.06.12-.19.12-.12-.05-.18-.05H2.66v.06c.13.12.2.3.44.3.07,0,.07,0,.07.12s-.06.24-.12.3-.06.06-.19.06l-.06,0H2.74c-.07,0-.07.06-.07.12s.07.12.07.18-.19.06-.31.06a.14.14,0,0,0-.13.13,2.64,2.64,0,0,0-.11.73c0,.06.06.06.06.12s.31,0,.31-.06a.81.81,0,0,1,.19-.43V9.8c-.06-.06-.12-.06-.18-.13l-.07-.05a.21.21,0,0,1,.13-.07h.12a.34.34,0,0,1,.19.12.24.24,0,0,1,.19.06c0,.06.06.18.06.24v.12a.28.28,0,0,0,.06.37c.07.06.07.12,0,.24a.59.59,0,0,0-.13.31c0,.18,0,.18-.18.24s-.19.07-.31,0a.37.37,0,0,0-.25.06H2.26c-.18,0-.18,0-.12-.12s0-.12-.07-.18S2,11,2,10.9v-.06L2,10.78a.06.06,0,0,0,.06-.06c0-.06.06-.06.06-.13v-.06A1,1,0,0,1,2,9.81a1.34,1.34,0,0,1,0-.49H2Zm.36-1a.06.06,0,0,0-.06.06V8.4a1,1,0,0,0,.25.24h.07V8.58c-.06-.06-.06-.18-.12-.24S2.41,8.28,2.35,8.28Zm-.11.79h0c.06,0,.06-.06,0,0Z" transform="translate(-0.44 -0.02)"/>
                <path d="M3.21,158.56a.56.56,0,0,1,.32.66v.31a1.27,1.27,0,0,1,.07.48v.55a.13.13,0,0,1-.13.12c-.18,0-.37-.06-.56-.05s-.13-.12-.13-.19v-.54a.22.22,0,0,1,.06-.19c.18-.24,0-.48,0-.72,0-.07-.07-.06-.13-.12a2.07,2.07,0,0,1,.06-.61s0-.07-.07-.06-.06-.06-.06-.12,0-.13.06-.13.19-.12.31,0a.12.12,0,0,0,.19,0c.06-.06.19-.13.18-.25s.07-.06.13,0l.06.06v.06a.78.78,0,0,0-.06.37C3.2,158.25,3.27,158.43,3.21,158.56Z" transform="translate(-0.44 -0.02)"/>
                <path d="M2.69,15.81c.07.07.19.12.26.25s-.19.18-.25.3c-.13-.06-.25-.12-.37,0s-.13,0-.13-.12v-.18h0a.42.42,0,0,1-.38,0L1.76,16v-.12a.57.57,0,0,0,0-.55,1.18,1.18,0,0,1,.12-.49c0-.06.06-.06.12-.06s.07-.06,0-.12-.12-.06-.06-.18S2,14.37,2,14.3a1.08,1.08,0,0,0,.62-.18.27.27,0,0,1,.31,0H3a.28.28,0,0,1,.19.24A.23.23,0,0,1,3,14.6c-.06,0-.06.06-.12.06s.06.12.06.24V15c-.06.07-.12.07-.06.12a.36.36,0,0,1-.06.37.33.33,0,0,0-.12.3ZM2.43,15c0,.06.07.12.13.18s.06.06.06,0l.06-.06c0-.07-.12-.13-.25-.12Zm-.17.79c0-.06-.07-.12-.07-.06l-.06.06c0,.06,0,.12.06.12A.2.2,0,0,0,2.26,15.76Zm.24-.12h0l-.06.06H2.5Z" transform="translate(-0.44 -0.02)"/>
                <path d="M3,163.91v-.18a1.37,1.37,0,0,1-.14-.67.45.45,0,0,0-.06-.3v-.19a.34.34,0,0,0,0-.42V162a.57.57,0,0,0,.06-.31v-.61c-.06-.12.06-.24.25-.24s.31.06.5,0V161c-.06.12-.06.12,0,.19l.13.12a.76.76,0,0,0-.06.36.8.8,0,0,1-.06.37v.06c.07.06.13.12.07.24s0,.18,0,.3.07.31.07.49a.06.06,0,0,1-.06.06c-.25.06-.25.06-.25.31s.07.18.19.24c-.12,0-.18.06-.31-.06s-.13,0-.19.07S3,163.85,3,163.91Zm.28-2.8a.06.06,0,0,0-.06-.06H3.11v.06C3.18,161.17,3.18,161.11,3.24,161.11Zm-.06.67v.06c.07,0,.07,0,0-.06Z" transform="translate(-0.44 -0.02)"/>
                <path d="M6.75,258.34c.06,0,.07.06.13.06s.25.17.19.36-.06.12-.12.18-.06.06,0,.13v.06a.38.38,0,0,1,.07.54A.4.4,0,0,0,7,260v.12c0,.06,0,.18-.12.18a.9.9,0,0,0-.18.25.36.36,0,0,0,.25-.07H7l.06.06v.07a1.17,1.17,0,0,1-.37.24H6.66a.26.26,0,0,1-.13-.06,1.08,1.08,0,0,1,.12-.6v-.13c-.06,0-.19-.06-.19-.12a1.12,1.12,0,0,1-.25-.36.36.36,0,0,1,0-.36.49.49,0,0,0,.06-.31c.12-.06.12-.12.06-.18a.48.48,0,0,1-.13-.24v-.12a.3.3,0,0,0,.06-.37c0-.06,0-.12.06-.12s.18-.25.31-.37c0,.06,0,.12.06.12s.13.12.13.24c0,.37-.06.43-.06.43v.12C6.82,258.4,6.75,258.4,6.75,258.34Z" transform="translate(-0.44 -0.02)"/>
                <path d="M2.91,12.77c.06.06.06.12,0,.12a1.1,1.1,0,0,0-.31.43H2.54c-.13.07-.12.19-.25.25-.19-.12-.25-.24-.19-.36s.06-.12.06-.19,0-.18-.07-.24S2,12.72,2,12.66s-.13-.12-.07-.24A1.35,1.35,0,0,0,2,11.93.22.22,0,0,1,2,11.75c.19,0,.31.06.44,0v-.13l-.06-.06c-.19-.06-.19-.18-.19-.36a.34.34,0,0,0,.19.12c.12,0,.25.06.37.06a.12.12,0,0,1,.13.11c0,.25.07.43-.12.62,0,.06-.06.06-.06.12.19.24.13.42.2.54H2.66v.06l.06.06A.4.4,0,0,0,2.91,12.77Zm-.51-.3h0c-.06.07-.06.13,0,.12A.07.07,0,0,0,2.4,12.47Zm.25-.3H2.59v.06h.06Z" transform="translate(-0.44 -0.02)"/>
                <path d="M1.45,62h.19a1.14,1.14,0,0,1,.44.06c.06.06.12,0,.18-.06h.07l.06,0v.19c0,.06-.06.12-.06.18.07.24-.06.43-.05.67-.19,0-.31.06-.44.06s-.19,0-.25,0-.19-.12-.13-.24a.47.47,0,0,0-.06-.31.32.32,0,0,1-.07-.24c0-.12.06-.18.19-.25C1.39,62.1,1.39,62.1,1.45,62Zm.45.47a.07.07,0,0,1-.07.07c.07,0,.07,0,.07-.07Z" transform="translate(-0.44 -0.02)"/>
                <path d="M7.12,339c.07.06.07.18.13.24a.64.64,0,0,1,0,.67,3.09,3.09,0,0,0-.3.79c0,.06-.06.12-.13.19H6.77c-.12-.12-.25-.24-.19-.43a3.8,3.8,0,0,1,.18-.85.27.27,0,0,0-.07-.3c0-.06,0-.12.06-.13A.37.37,0,0,1,7.12,339Z" transform="translate(-0.44 -0.02)"/>
                <path d="M6.54,342.12c0-.13,0-.19-.07-.25v-.12a.53.53,0,0,0,0-.66V341a.06.06,0,0,0,.06-.06h.07V341a.56.56,0,0,0,.13.43c.06.06.06.24.06.3a1.27,1.27,0,0,0,0,.67v.06s-.06.06-.06,0-.13-.12-.19-.24S6.54,342.18,6.54,342.12Z" transform="translate(-0.44 -0.02)"/>
                <path d="M6.28,346.25a.21.21,0,0,1,.24-.24c.07,0,.13,0,.13.06a.22.22,0,0,1-.12.3.24.24,0,0,1-.19.06C6.34,346.38,6.28,346.38,6.28,346.25Z" transform="translate(-0.44 -0.02)"/>
                <path d="M6.63,344.43h0c-.13-.13-.13-.25-.19-.31s-.07-.18.06-.3.12,0,.12.06a2.28,2.28,0,0,0,.07.3c.06.12,0,.18-.06.25Z" transform="translate(-0.44 -0.02)"/>
                <path d="M6.92,256.76a1.14,1.14,0,0,0-.13-.49.37.37,0,0,1-.07-.24l.07-.06s.06,0,.06.06.06.05,0,.06a.48.48,0,0,0,.07.3c.12.06.06.18,0,.37Z" transform="translate(-0.44 -0.02)"/>
                <path d="M6.45,345.4c.13-.06.13-.12.12-.25s0,0,.07-.12L6.7,345l.06.06a.49.49,0,0,1-.06.31.16.16,0,0,1-.25.06Z" transform="translate(-0.44 -0.02)"/>
                <path d="M2.17,13.87V14a.16.16,0,0,1-.25.06c-.06-.06-.13-.18-.06-.24v-.06h.06C2,13.82,2.05,13.94,2.17,13.87Z" transform="translate(-0.44 -0.02)"/>
                <path d="M5.41,215.13c.06.12.06.24.13.42s0,.06-.07.07H5.41c-.06,0-.06-.07-.12-.07C5.35,215.37,5.47,215.25,5.41,215.13Z" transform="translate(-0.44 -0.02)"/>
                <path d="M1,108.91C1,109,.9,109,.9,109s-.12.07-.18,0a.08.08,0,0,1,0-.12C.84,108.86.9,108.85,1,108.91Z" transform="translate(-0.44 -0.02)"/>
                <path d="M1,108.37c0,.06,0,.18-.12.18H.71v-.12A.48.48,0,0,1,1,108.37Z" transform="translate(-0.44 -0.02)"/>
                <path d="M5.14,213.67l.18-.18h.07v.06c0,.12,0,.18-.13.24H5.14C5.2,213.73,5.2,213.73,5.14,213.67Z" transform="translate(-0.44 -0.02)"/>
                <g class="cls-9">
                    <path d="M6.29,347.65a.13.13,0,0,1,.13-.12h.06v.06a.24.24,0,0,0-.19.06Z" transform="translate(-0.44 -0.02)"/>
                </g>
                <path d="M6.55,343.21a.34.34,0,0,1,.19.12v.06H6.68C6.68,343.33,6.61,343.27,6.55,343.21Z" transform="translate(-0.44 -0.02)"/>
                <path d="M1.31,106.48v-.12l.06-.07c.06,0,.13.07.06.07a.06.06,0,0,1-.06.06c.06,0,0,0-.06.06Z" transform="translate(-0.44 -0.02)"/>
                <path d="M1.45,56.5c0,.06-.07.06-.07.06s-.06,0-.12-.05,0-.13.06-.13Z" transform="translate(-0.44 -0.02)"/>
                <path d="M1.39,87.51a.22.22,0,0,1,.06-.18h.06v0H1.45c0,.12-.06.12-.06.12Z" transform="translate(-0.44 -0.02)"/>
                <path d="M7.37,323.26v.18H7.31l-.07-.06A.13.13,0,0,1,7.37,323.26Z" transform="translate(-0.44 -0.02)"/>
                <path d="M6.17,236.89v-.31c.06,0,.06,0,.06.06S6.11,236.82,6.17,236.89Z" transform="translate(-0.44 -0.02)"/>
                <path d="M2.61,140.45v.06a.06.06,0,0,0-.06.06v-.06A.06.06,0,0,1,2.61,140.45Z" transform="translate(-0.44 -0.02)"/>
                <path d="M2.26,46.89c0-.06,0-.06.07-.12h.06c.06,0,.06,0,0,0S2.26,46.83,2.26,46.89Z" transform="translate(-0.44 -0.02)"/>
                <path d="M2.79,154.91c-.07,0-.07,0-.13-.06s-.06-.06,0-.12.06,0,.12-.06c-.06.12-.06.18,0,.24Z" transform="translate(-0.44 -0.02)"/>
                <path d="M7.21,265.2h0c.07.06,0,.06,0,.06s-.06-.06,0-.06Z" transform="translate(-0.44 -0.02)"/>
                <path d="M2.6,23.66Z" transform="translate(-0.44 -0.02)"/>
                <path d="M2.07,66.89,2,67A.06.06,0,0,1,2,66.89H2C2,66.83,2.07,66.89,2.07,66.89Z" transform="translate(-0.44 -0.02)"/>
                <path d="M1.92,59.05C2,59.05,2,59,2.1,59h.06c0,.06,0,.06-.06.06Z" transform="translate(-0.44 -0.02)"/>
                <path d="M4.49,191.67c.06,0,.06,0,.13-.06H4.55C4.55,191.67,4.55,191.67,4.49,191.67Z" transform="translate(-0.44 -0.02)"/>
                <path d="M8.08,310.42v-.18c.06,0,.06,0,.06.06S8.08,310.36,8.08,310.42Z" transform="translate(-0.44 -0.02)"/>
                <path d="M2.31,50.35c.12.06.12.06.06.18H2.31Z" transform="translate(-0.44 -0.02)"/>
                <path d="M7,276.82H6.92c0-.06,0-.06.06,0Z" transform="translate(-0.44 -0.02)"/>
                <path d="M7.15,340.89Z" transform="translate(-0.44 -0.02)"/>
                <path d="M3.94,172.71l.07-.06C4.07,172.71,4.07,172.71,3.94,172.71Z" transform="translate(-0.44 -0.02)"/>
                <path d="M7,338.59Z" transform="translate(-0.44 -0.02)"/>
                <path d="M.9,113.53v-.06C1,113.47.9,113.47.9,113.53Z" transform="translate(-0.44 -0.02)"/>
                <path d="M7.28,265.75h.06C7.34,265.81,7.34,265.75,7.28,265.75Z" transform="translate(-0.44 -0.02)"/>
                <path d="M7.14,274.38a.06.06,0,0,1,.06-.06c-.06,0-.06,0-.06.06Z" transform="translate(-0.44 -0.02)"/>
                <path d="M7.14,274.32v.12H7a.43.43,0,0,0,.19-.13Z" transform="translate(-0.44 -0.02)"/>
                <path d="M1.67,80v.12c.06-.06.06-.12,0-.12Z" transform="translate(-0.44 -0.02)"/>
                <path d="M7.06,338.59l-.07.05v-.05Z" transform="translate(-0.44 -0.02)"/>
                <path d="M2.17,13.87l.06.07Z" transform="translate(-0.44 -0.02)"/>
            </g>
        </g>
    </g>
</svg>