<svg xmlns="http://www.w3.org/2000/svg"
    xmlns:xlink="http://www.w3.org/1999/xlink" viewBox="0 0 7.92 100">
    <defs>
        <style>.cls-1{fill:none;}.cls-2{clip-path:url(#clip-path);}.cls-3{clip-path:url(#clip-path-2);}.cls-4{clip-path:url(#clip-path-3);}.cls-5{clip-path:url(#clip-path-4);}.cls-6{clip-path:url(#clip-path-5);}.cls-7{clip-path:url(#clip-path-6);}.cls-8{clip-path:url(#clip-path-7);}.cls-9{clip-path:url(#clip-path-8);}</style>
        <clipPath id="clip-path" transform="translate(-0.43 0)">
            <polygon class="cls-1" points="0.42 32.29 2.73 32.28 3.3 45.51 0.99 45.52 0.42 32.29"/>
        </clipPath>
        <clipPath id="clip-path-2" transform="translate(-0.43 0)">
            <polygon class="cls-1" points="0 22.51 2.31 22.5 2.69 31.42 0.38 31.43 0 22.51"/>
        </clipPath>
        <clipPath id="clip-path-3" transform="translate(-0.43 0)">
            <polygon class="cls-1" points="6.02 85.2 8.52 85.19 8.95 95.26 6.45 95.27 6.02 85.2"/>
        </clipPath>
        <clipPath id="clip-path-4" transform="translate(-0.43 0)">
            <polygon class="cls-1" points="6.8 80.31 8.3 80.31 8.52 85.48 7.02 85.49 6.8 80.31"/>
        </clipPath>
        <clipPath id="clip-path-5" transform="translate(-0.43 0)">
            <polygon class="cls-1" points="0.34 0.01 3.34 0 3.44 2.36 0.44 2.38 0.34 0.01"/>
        </clipPath>
        <clipPath id="clip-path-6" transform="translate(-0.43 0)">
            <polygon class="cls-1" points="5.75 78.87 8.25 78.86 8.32 80.59 5.82 80.6 5.75 78.87"/>
        </clipPath>
        <clipPath id="clip-path-7" transform="translate(-0.43 0)">
            <polygon class="cls-1" points="0.37 31.14 2.68 31.13 2.74 32.57 0.43 32.58 0.37 31.14"/>
        </clipPath>
        <clipPath id="clip-path-8" transform="translate(-0.43 0)">
            <polygon class="cls-1" points="5.64 99.87 6.64 99.87 6.65 100 5.65 100 5.64 99.87"/>
        </clipPath>
    </defs>
    <g id="Calque_2" data-name="Calque 2">
        <g id="Calque_1-2" data-name="Calque 1">
            <g id="Calque_2-2" data-name="Calque 2">
                <g id="Calque_1-2-2" data-name="Calque 1-2">
                    <g id="surface1">
                        <path d="M1.45,17.7H1.26s.05-.05.12-.06,0-.08-.08-.1H1.25c-.05,0-.07,0-.06-.05s.12-.11.11-.16.13-.05.13-.09H1.36c-.06,0-.06,0-.06,0A.24.24,0,0,1,1.35,17H1.29c-.06,0-.06-.05,0-.08s.06-.05-.07-.07-.06,0-.06-.06,0,0,.06-.06.07-.07.06-.1,0-.08.05-.12.06,0,0-.07l-.06,0c-.07,0,0-.05.06-.07h.25l.18,0c.06,0,.06,0,.06,0s0,0-.06,0a1.41,1.41,0,0,1-.51-.12c-.06,0-.12,0-.12-.09v-.22a.17.17,0,0,1,0-.23.19.19,0,0,0,0-.18s0-.06.06-.09.06-.07,0-.1,0-.07.06-.09h.06c.12,0,.14-.08.06-.11s-.13-.07-.13-.12v-.14c-.07,0-.05-.1.06-.14s.06,0,.06-.07,0,0-.06-.06v-.07c.06,0,.06-.06,0-.08s-.13-.07-.07-.11,0-.07.06-.1A.18.18,0,0,0,1.35,14s0,0,.06-.05.06,0,0,0H1.35v0c0-.06-.13-.07-.13-.11s0-.08-.07-.12v-.14s-.07,0,0-.05.09-.07,0-.1,0-.07.06-.09.06,0,.06,0,.06-.06,0-.09h0c-.14,0-.22-.11-.2-.18A.22.22,0,0,0,1,12.74s-.06,0,0-.05.07-.1,0-.14v-.18a.26.26,0,0,1,0-.21c0-.05,0-.09-.07-.14s-.07,0,0-.07a.36.36,0,0,0,0-.25s0,0,.12-.06.12,0,.06-.06S1,11.49,1,11.45v-.18A.43.43,0,0,1,1.05,11v-.1c0-.06.08-.11.24-.14s.06,0,0-.05h0c-.06,0-.06,0,0,0s.06-.05,0-.07l-.07,0s0-.08-.07-.11-.06-.06,0-.09,0,0,0-.07l.06,0s.06,0,.12,0l-.12,0c-.07,0-.13,0-.13,0s-.06-.1,0-.14,0,0-.06-.07S.94,9.89,1,9.86s0,0,.05-.08.06-.1,0-.14S.92,9.58.94,9.55s.06-.13,0-.21a.17.17,0,0,1,.12-.05,1.8,1.8,0,0,0,.31-.07s0-.06.06-.09v0A2.26,2.26,0,0,1,1,9.06C.94,9,.91,9,.93,9S1,8.93,1,8.89a.31.31,0,0,1,0-.23s.18-.07.31-.05a.5.5,0,0,0,.18,0l.07,0v-.1H1.43a.52.52,0,0,1-.25,0c-.12,0-.13,0-.13,0S1,8.42,1,8.4V8.34c.06-.05.06-.1.12-.14v0c-.13-.06-.07-.09,0-.14V8c-.06-.07-.06-.07.19-.09h.06v0c-.07,0-.13,0-.13,0s-.12,0-.13-.07,0-.09,0-.12a.18.18,0,0,1,0-.29l.06,0c.19,0,.18,0,.18-.09V7.19c0-.05-.13-.1-.07-.14a.18.18,0,0,0,.08-.15s.06-.05,0-.07-.07-.07-.06-.1.06-.11.37-.14q-.06,0-.06,0l.06,0,.06,0h0v0a1.12,1.12,0,0,1-.32-.09s-.06-.05,0-.07l.18,0s0,0-.06,0-.15-.13-.13-.2,0-.07.06-.08,0-.09.05-.13.07-.12,0-.19.06-.09,0-.14.06,0,.06-.07a.3.3,0,0,0,.1,0c.06,0,.06-.06,0-.08l-.13,0c-.06,0-.06,0-.06,0s.12,0,.18-.09a.16.16,0,0,0,.13,0l.18,0v0H2v0l-.31,0s0-.08.06-.12v0h0v0c-.15,0-.18-.1-.07-.14s.12-.06,0-.09l-.06,0s0,0,.06,0a2.1,2.1,0,0,1,.44,0,1.12,1.12,0,0,0,.37,0h.07l.06,0a.12.12,0,0,1,0,.14S2.56,5,2.5,5s.13,0,.19.06.07.06-.06.07l-.12,0c-.06,0-.06,0-.06.06s.06,0,.13,0h0c.06,0,0,.07-.06.09l-.06,0H2.29c-.06,0-.06,0-.06.06l.07,0c.12,0,.12,0,0,.08s-.06,0-.06.07v.07s0,0,.13,0h.12s-.05.09-.12.13,0,.07.11.08h0l.07,0V6c-.06,0-.06,0-.13,0s-.06,0-.06,0,.06.06,0,.09a.72.72,0,0,1-.25.14c-.06,0,0,0,.07,0h.2l-.19,0a.3.3,0,0,0,.13.11c.06,0,.06.06,0,.08s-.06,0-.06,0,.07.06,0,.08a.18.18,0,0,0-.13.07H2.09l-.31,0h0c-.06,0-.19,0-.19,0v0h.18a.94.94,0,0,1,.38,0,1.33,1.33,0,0,1,.19.05V7s-.06,0-.06,0-.07,0-.13,0S1.9,7,2,7a.57.57,0,0,0,.31.12c.13,0,.13.06,0,.09l-.06,0c-.06,0-.06,0,0,0s0,.06,0,.09.07,0,.07.07a.15.15,0,0,1,0,.16v.14s-.06,0-.12.07-.13.07.06.1.06,0,0,0h0L2.1,8C2,8,2,8,2.1,8s.2.08.2.14v.19s0,0-.06.05,0,.09-.18.12v0s-.12.07-.12.12.07,0,.13.07.06,0,.13,0a.27.27,0,0,1,.12,0v.07c-.06,0,0,.11-.06.16s0,.08-.12.12l-.06,0v0H2v0H2v.07c0,.05,0,.11.13.15s.07.06,0,.08-.07,0-.06,0-.07,0,0,.06h0c.11,0,.14.08.07.12s-.06.09,0,.14.07.05-.18.07-.13,0-.06.05L2,10a.09.09,0,0,1,0,.12v0s.06,0,.06,0,.07.11.07.16,0,.09-.12.12a1.34,1.34,0,0,1-.18.07s0,0,.06,0h0c.06,0,.06,0-.06,0s-.06,0,0,0H2v0s-.06.07,0,.09a.22.22,0,0,1,.07.19c.07.06,0,.07,0,.12s-.06.08,0,.11l.06,0,.07,0v.17a.17.17,0,0,0-.12.09s.07,0,.07.08a.13.13,0,0,1-.06.13c-.07,0-.07.09,0,.14s0,.05,0,.06,0,.06.07.08.06,0-.06.07-.19.05-.12.08a1.8,1.8,0,0,0,.25.18c.07,0,.07.07,0,.09s-.07.06-.06.1,0,0-.06,0-.06,0-.06.06.13.07.07.13-.06,0-.06,0-.07.05,0,.07.13.05.13.09,0,0,.06.05.07,0,.07,0a.54.54,0,0,1-.12.18c-.06,0,0,0,.13.07s.07,0,.06.05a.33.33,0,0,1-.18.12c-.12,0-.06.07,0,.11s0,.06-.06.09v0H2.08v0l.19,0c.06,0,.13.05.13.09s-.06,0-.12.05-.12,0-.12,0,0,0,.06.06a1.25,1.25,0,0,1,.19,0c.06,0-.06.09-.18.12s-.21.09-.12.14.06,0,.12,0a.55.55,0,0,1,.19,0c.07,0,.07,0,.07,0s0,0-.06,0-.07,0,0,0,.14.07.06.11-.06,0-.12.07H2.25c-.07-.06-.07-.06-.19,0H1.93c-.18,0-.25,0-.12.07s.06,0,.07,0h.06l.06,0H2v0s.06,0,.18,0,.07,0,.13.05l.06,0c.07,0,.07,0,0,.05l-.25,0a1.54,1.54,0,0,1-.19,0l.44,0s.06,0,0,0l-.18.06a.24.24,0,0,1,.13.1c.06,0,.06,0,.06.07s-.07.08-.06.12v.14a.21.21,0,0,1,0,.28v.16c0,.05-.09.09-.25.1s-.14,0-.07,0l.19,0c-.06,0-.06,0-.06,0s-.13.09-.06.14.13,0,.19,0-.18.05-.24.09-.06,0,.06.09l.13,0s.06,0,.06.07-.06.05-.18.07H2c-.06,0-.12,0-.12.05s0,0,.08,0H2l.12,0s0,0-.06.06-.06,0-.05.06-.06.08.13.13l.06,0v0c-.06.05-.18.09-.24.14s-.13.05-.19.09h0c.06,0,.06.05-.06.07H1.55c-.06,0-.13.06,0,.09s.13,0,.13,0v0c.06,0,.12,0,.12,0s.12,0,.13,0h0s-.06,0-.06,0,0,0,.06.05l.06,0c.17,0,.27.11.26.17s-.06.11,0,.16-.13.05-.19.07l-.18,0a1,1,0,0,0-.25,0c-.06,0-.19,0-.19.07H1.27s.06-.05.05-.09.13-.07.13-.09H1.7v0l.07,0H1.45ZM2.06,5.75a.08.08,0,0,1-.07,0s0,0,0,0v0S2.06,5.72,2.06,5.75ZM2.2,7.54h0c.06,0,0,0,0,0l.06,0c.06,0,.06,0,0,0v0ZM2.07,17.62c-.07,0-.07,0-.07,0Zm-.19-4.25v0l.06,0h0s.06,0,.06,0v0H1.87a.09.09,0,0,1-.06,0s-.06,0-.06,0v0S1.82,13.37,1.88,13.37Zm-.07,4.07v0h.06c.07,0,.13,0,.13,0s-.07,0-.13,0,0,0-.06,0H1.68C1.62,17.46,1.69,17.46,1.81,17.44Zm-.33-1.75s.07.09.07.13v0s.06,0,.13,0,.19,0,.19,0a.69.69,0,0,0-.26-.14s-.06,0-.13,0c.13,0,.06,0,0-.08s-.12,0-.12,0-.07,0,0,.06S1.42,15.69,1.48,15.69Zm.58-5.62s0,0-.05,0H2a1,1,0,0,0-.31,0c-.06,0,0,0,0,0s.07,0,.13,0Zm-.38-3,.12,0h.07c.12,0,.18,0,.12,0S1.91,7,1.92,7s0,0-.06,0-.13,0-.12,0S1.68,7,1.68,7.05Zm.48,1.12.12-.05v0s-.06,0-.06,0a1.55,1.55,0,0,0-.31.06h0l.06,0S2,8.17,2.16,8.17Zm-.39,8.4H1.71s-.06,0,0,0l.06,0s.07,0,.07,0v0ZM1.9,9.29c.06,0,.1,0,.1,0s-.05,0-.12,0h0l-.06,0h0S1.83,9.29,1.9,9.29ZM2,12.56s0,0-.07,0H1.74s.13,0,.26,0C1.91,12.58,1.91,12.56,2,12.56Zm-.21,3H2c.06,0,.06,0,0,0S1.85,15.55,1.79,15.61Zm.14-1.28-.07,0s.07,0,.07,0l.07,0H2l-.06,0Zm0-.63-.12,0-.07,0s.07,0,.07,0l.19,0ZM2.2,5.37h0c-.06,0,0,0,0,0ZM1.9,16h0ZM1.84,6.51h0l-.06,0h.06ZM2,9.36v0h.06c.06,0,.06,0,.06,0Zm-.22,1.57h0l-.06,0s-.07,0-.07,0S1.65,11,1.78,10.93Zm.3-4.76H2s0,0,.07,0Zm-.31,6-.06,0h.06Q2,12.19,1.77,12.16ZM1.5,15.94H1.43v0h.13Zm.29-3.28ZM1.67,9.9h.07v0H1.67C1.61,9.89,1.67,9.89,1.67,9.9Zm.27-2.6c-.07,0,0,0,0,0s.06,0,0,0S2,7.3,1.94,7.3ZM1.88,6H1.82S1.82,6,1.88,6Zm-.32,5.57h0S1.62,11.57,1.56,11.57Z" transform="translate(-0.43 0)"/>
                        <g class="cls-2">
                            <path d="M1.88,39.49c-.13,0-.19,0-.19-.07s0-.11-.13-.15-.07,0-.07-.08.06-.08,0-.12,0,0,.06,0,.13-.08.12-.12,0,0-.06,0-.12-.11,0-.15h0c.06,0,.12,0,.06-.06s0-.08.05-.12l-.06,0H1.65c-.06,0-.06,0-.13,0s-.12,0-.12,0a.14.14,0,0,1,0-.15.19.19,0,0,1,.12-.11c.05,0,.07,0,.06,0s0,0-.06,0-.14-.08-.07-.12.06,0,.06-.07-.06,0-.13,0a.22.22,0,0,1-.13-.14.22.22,0,0,0-.07-.19c0-.05,0-.1.06-.14v0s0-.06-.07-.09l.18-.06s.07,0,0,0l0,0-.19,0s-.07,0-.06-.06h.06c.06,0,.06-.07-.07-.09s-.06,0,.06-.08.06,0,0,0-.06,0-.06-.07,0,0,.06,0H1.2c.06,0,0-.05.06-.06s0,0-.07,0-.12,0-.12,0-.07-.1.05-.15.13-.1,0-.14-.08-.07-.07-.11v-.17s0-.1-.13-.14a.09.09,0,0,0-.06,0c.06,0,0-.12.05-.17A.12.12,0,0,0,1,35.63s.06-.05.12-.09l-.09,0c-.07,0-.07,0-.07,0v-.09h.2s-.07,0-.07,0-.06,0-.06-.06v-.1s-.12-.07-.12-.1,0,0,.06-.06l.18,0v0l-.06,0H.81s-.07-.07,0-.09.06-.07,0-.11v-.07s0,0,.12-.07H1c-.07-.07.12-.13-.07-.2,0,0-.06,0-.07,0s-.06,0-.06,0,.06-.08,0-.13,0-.09-.06-.13.06,0,.12,0,.06-.05,0-.09v0H.92c.12,0,.18-.06.06-.09s-.12-.07-.13-.11,0-.06.05-.08.08,0,.06,0-.06,0-.12-.06-.07,0,0-.07l.13,0c.06,0,0,0,0,0s0,0-.07,0H.8c-.06,0-.13,0-.13,0a.34.34,0,0,0,.12-.12c.06,0,.13-.06.12-.09S1,33,1,33,1,33,1,33s-.06,0-.06,0-.12,0-.13,0v0s-.06-.08-.13-.11,0,0,.06,0,.19,0,.12-.05l.31-.08c.07,0,.06,0,0,0H.89l-.06,0h.75c.06,0,.06.09,0,.13h0c-.06,0,0,0,.13.07l.07,0v0c0,.07-.06.12-.06.19s-.06,0-.12,0a2.19,2.19,0,0,1-.25,0c-.12,0-.06,0,0,0a2.21,2.21,0,0,1,.25.05s.07,0,.07,0H1.48c-.06,0-.06,0-.06,0a.54.54,0,0,0,.19,0c.08,0,.13,0,.13.07s0,.14.13.19.07,0,.07.07v.08c-.19,0-.25,0-.19.06H1.69c.13,0,.19,0,.2.07v.09c-.06.07,0,.16-.12.23s0,0,.07.05.17.12.07.18-.06,0-.06,0,.06,0,.06,0,.08,0,.07.07-.13.15-.05.22,0,0-.06.07-.13.06-.07.09,0,.1.14.14.06.07,0,.11a.58.58,0,0,1-.25.12c-.06,0-.06,0,.07,0s.06,0,.06,0,.13,0,.07,0-.07,0-.06.07v0c-.07,0,0,.08.07.11s.06,0,.06,0v.07s0,0-.06.06-.07,0,0,0l.06,0c-.06,0,0,0,0,.07s-.06,0,0,.07S2,36,2,36s0,.09.07.13,0,0-.06,0-.06,0,0,0,.06,0,.13,0,0,.06-.06.07l-.19,0c-.06,0,.07.09.13.12a.29.29,0,0,1,.14.26s-.06,0-.13,0H1.88a.15.15,0,0,0-.12,0,.25.25,0,0,1,.13.15S2,37,2,37h.13l.06,0v0a.21.21,0,0,0,0,.19v.08a.18.18,0,0,0,0,.16s.06.07,0,.11v.12c.06,0-.06.07-.06.1a.25.25,0,0,0,.13.11s0,0-.06.07-.12,0-.06.07.05.06.13.09.09.1,0,.15a2.31,2.31,0,0,1-.19.14l.13.06h.13s0,0-.06,0H2.18c-.25,0-.31.06-.18.13s.07,0,.07.07.15.09.13.14-.06,0-.06.07a.36.36,0,0,0,.13.05v0L2.2,39c.07,0,.07,0,.13,0h0c.1.07.1.15,0,.22v0c.13.1.19.07,0,.19s-.06.06-.13.07-.06.06,0,.09.06.1-.06.14,0,0-.06,0,.06,0,.07.07.1.09.06.14,0,.1-.11.14v0q.09,0,0,.09l-.07,0s0,.1-.11.14,0,0,.06,0l.06,0c.07,0,.2,0,.2,0a.12.12,0,0,1-.06.09s0,0,.06,0,.13,0,.07.07-.07,0-.06,0,.11.09.07.14l.13.09v0c-.13,0-.06.09,0,.12s0,.09-.05.13v0s.06,0,.06.07-.06,0,0,.07,0,.06.06.09,0,0-.06,0a.13.13,0,0,1-.12,0,.3.3,0,0,0-.13,0c-.06,0-.13,0-.13,0s-.07,0-.06.06h.19c.07,0,.2.07.26.11s0,0-.06.05H2.36a.58.58,0,0,0-.32,0v0H2v0l.32,0c.11,0,.18,0,.19.07v.42s0,0-.06,0c-.25.11-.19.11-.06.2s.15.17.08.26v0c.06,0,.12,0,.12,0s0,0-.06,0H2.22a.6.6,0,0,0,.25.09c.07,0,.13,0,.07.05s-.06,0,0,0,.06.1.13.14.07.12.07.17,0,0-.06.07l-.18.11v0c-.06,0,0,.08.11.1h.08c.06,0,.06,0,0,0l-.06,0c-.06,0-.06,0-.12,0h0a.45.45,0,0,0,.19,0s.07,0,.06.05S2.69,44,2.7,44s0,.14.07.21,0,.07,0,.1a.14.14,0,0,1-.07,0c.09,0,.09.08,0,.12v0s.06.06.13.08-.07,0-.06,0-.06,0,.06.09l.13,0s.06,0,0,0,0,0,.07.09.07,0,.06.07a.52.52,0,0,0-.24.14c-.12.08-.13.07.19.08l-.19,0-.18,0a2.27,2.27,0,0,1-.25.06H2.23s-.13-.06-.07-.08h0c.18,0,.25-.09.15-.15h0c-.06,0-.08-.08-.07-.12v0c-.13-.09.06-.15,0-.24s.06-.09.13-.12.06,0,0-.06.13-.05.12-.09,0,0-.06-.06a.27.27,0,0,0-.13,0,.41.41,0,0,0-.19.05s0,0-.06.06H1.9c-.06,0-.06,0-.06,0A.24.24,0,0,1,2,44.3a.55.55,0,0,1,.19,0l.06,0s0,0-.06,0H2.06c-.07,0-.12,0-.13,0s-.07-.14.07-.2v0c-.07,0-.19,0-.13-.08v0s.06,0,.18-.07-.06,0-.06,0,0,0-.07,0,.07-.06,0-.09a.29.29,0,0,1-.13-.1s.06,0,.06,0,.06,0,0-.07l-.13,0s-.06,0-.06,0h0a.32.32,0,0,0,.12-.16l.12,0s-.06,0-.06,0-.12-.07-.13-.11,0,0,.06-.05,0,0-.07,0-.14-.07-.06-.11.06-.08,0-.12-.09-.13.06-.18.12-.05.05-.08.07,0,.06,0,.07,0,0,0a1.29,1.29,0,0,0-.19,0c-.07,0-.06,0,0-.05a.27.27,0,0,1,.13,0H1.68c0-.05-.13-.08-.13-.12s-.06-.07-.13-.12-.06-.07,0-.1.12-.08.12-.11.06-.07.06-.1,0-.07-.07-.09l-.06,0v0c.06,0,.06-.09,0-.14a.13.13,0,0,1-.07-.14s0,0,.06-.05a2.19,2.19,0,0,1,.25,0,.67.67,0,0,1,.19,0,.12.12,0,0,0,.1,0,1.3,1.3,0,0,0-.25,0l-.06,0V41h0l-.25,0a.1.1,0,0,1-.12,0s.06,0,.05-.07.06,0,0-.07-.06-.07-.13-.1.06,0,.06-.08-.09-.14,0-.21.06-.06-.06-.1-.07,0,0-.07.06,0,.25,0,.13,0,.12,0,0,0-.06,0l-.19,0c-.06,0-.12,0-.13-.07V40s0,0-.06,0-.13,0-.07-.06h.19l.06,0-.06,0c-.12,0-.19-.07-.2-.12s0-.09.19-.11a.4.4,0,0,0,.24-.07c.06,0,.07,0,0,0H1.38c-.06,0-.13,0-.13,0,.57,0,.57,0,.63,0Zm-.51-4.6s-.07,0-.07,0H1.24v0l.13,0c.06,0,.06,0,0,0l.06,0c.06,0,0,0-.06,0Zm1.46,9.32c-.06,0-.06,0-.12,0h.12v-.06s-.06,0-.06,0H2.7c-.06,0-.06,0,0,0a.2.2,0,0,0,.13.06Zm-.1-1H2.6q-.08,0-.06.06h.07s.06,0,.06,0c.19,0,.12-.07.06-.07ZM1.09,32.83s0,0,.07,0h.12c.06,0,.06,0,.06,0s0,0-.06,0-.06,0-.06,0S1.15,32.81,1.09,32.83Zm.77,6.29-.06,0-.06,0s0,0,.12,0Zm1,5.73-.12,0s.06,0,.12,0,.14,0,.06,0a.21.21,0,0,1-.08,0s0,0,0,0ZM2.47,43.1h0s0,0-.06,0H2.35c-.05,0-.06,0,0,0h0l.06,0A.09.09,0,0,0,2.47,43.1Zm.1-.75s-.07,0-.07,0,0,0,.07,0h.12c.06,0-.06,0-.12,0Zm-.35-.79.06,0s.07,0,.07,0,0,0-.07,0Zm.31-.14-.07,0s.06,0,.13,0l.06,0s-.06,0-.12,0Zm.09,2.17a.17.17,0,0,0-.1,0l0,0v0s.06,0,.12,0,0,0,0,0ZM1.4,34.16l.06,0s.06,0,.06,0H1.4Zm-.29-1s-.07,0,0,0l.06,0h0s.06,0,0,0Zm.2.4s.06,0,.06,0v0l-.06,0ZM2.8,44.79h.06s0,0-.06,0Z" transform="translate(-0.43 0)"/>
                        </g>
                        <path d="M4.46,58.89s-.07,0-.06,0,.06,0,.06-.05.07-.1,0-.14,0,0-.06-.09a.58.58,0,0,1-.19-.07c-.07,0-.07-.05,0-.07l.13,0s-.07-.09-.07-.12v-.11c-.07,0-.07,0-.13-.07s0,0,.06-.05A1.29,1.29,0,0,0,4.45,58c.07,0-.13,0-.2-.08H4.18s-.13,0,0-.07h.06c.13,0,.19,0,.19-.07v0s-.06,0-.06,0-.17-.11-.07-.16.06-.05,0-.07v0s0-.06.08-.08h0s.06,0,0,0h0c-.15,0-.22-.1-.2-.15s0-.06.12-.08.07,0,0-.06-.06-.06-.13-.09a.15.15,0,0,1,0-.16s.06,0,.06,0,.06,0,0-.06H4.21c-.06,0-.06,0,.06,0s.13,0,.06-.06l-.06,0c-.06,0-.13,0-.13,0v-.25c.08,0,.1-.07.06-.1s0-.1-.07-.14v0s.06,0,.06-.06.06-.06,0-.09-.08,0-.07-.08,0-.07-.12-.09,0-.1.06-.14l.25-.09c.06,0,0,0-.07,0H4.13c-.07,0-.07,0-.07,0s.13-.07,0-.12v-.05a.09.09,0,0,0,0-.16S4,55,4,55v-.07s.07,0,.06-.07,0-.06.12-.07l.06,0s-.06,0-.06,0-.17,0-.07-.07.06,0,.06,0v-.09c.07,0,.12,0,.13,0a.42.42,0,0,1-.07-.13s-.07,0-.07-.05S4,54.24,4,54.19V53.9s0,0,.12,0h.07v0c-.06,0-.06,0,0-.07s.06,0,0-.07-.13-.14-.2-.21.06,0,.06-.09.06,0,.06,0,.13,0,.12-.06-.06,0-.12,0-.07,0-.05,0h.05c.06,0,.06,0,.12,0s.06,0,.12,0,.07,0-.06,0h0v.07c-.19,0-.31,0-.31-.11v0S4,53,4,52.91v-.33a.14.14,0,0,1,0-.15v0a.06.06,0,0,1,0-.09s-.07,0-.07-.07,0,0,.06,0h.13c.07,0,.06,0,0,0a1.12,1.12,0,0,1-.24-.1c-.08,0-.06-.05-.06-.07v-.14L4,51.78s0,0-.06-.05a.16.16,0,0,1-.07-.16v0s0-.05.12-.07.06,0,0,0-.23-.11-.2-.18v-.15c-.09-.07-.09-.14,0-.2A1,1,0,0,1,4,50.73c.12,0,.12,0,.06-.08s0,0,.06-.06h0s-.07,0-.13,0H3.92l-.06,0-.13,0c-.07,0,0-.05.06-.07s.06,0,0-.09H3.72V50.3s0-.09.18-.11v0s0,0,.07,0v0l-.06,0h0c-.06,0-.06,0-.12,0S3.71,50,3.71,50v0a.14.14,0,0,0,0-.17c-.07,0-.07-.1,0-.14s.06-.06.06-.09,0-.07.12-.11.06-.05,0-.07H3.83c-.07,0-.07-.09,0-.13s.06,0,0-.07-.06,0-.06-.07S3.71,49,3.64,49s-.07,0,.12-.05.06,0,.06,0-.13,0-.13,0-.06,0-.06-.07.06-.05.18-.05H4c.06,0,.06,0,.06,0H4c-.07,0-.07,0-.13,0s0-.06-.06-.07-.07,0,0,0H4c.06,0,.06,0,.06,0a1.08,1.08,0,0,1-.32-.14v-.09s0,0,.12,0h.07s.12,0,.12,0-.06-.09-.19-.11c.06,0,.12,0,.12,0a1.26,1.26,0,0,0-.25-.07v0h0c.06,0,.06-.08,0-.11s-.06-.05.06-.05l.25,0v0l-.06,0H3.8s-.06-.07-.07-.1,0-.09-.13-.13a.11.11,0,0,1-.06-.12c.06,0,0-.09.12-.12l.12,0c.06,0,.06-.05-.07-.08a1.44,1.44,0,0,1,.57.05h0s-.06,0,0,.06.07.07.19.1v.05c-.06.06,0,.09-.12.14l.2.11c.12,0,.06,0-.06.09H4.43c.07,0,.12,0,.12.07s0,.1-.11.14-.08,0-.06,0v.09s.06,0,.13,0,.12,0,.06,0v.12c-.12.06,0,.09.07.13s.07,0,.07,0,0,.05-.06.05H4.58l-.06,0c0,.05,0,.1.13.14s.07.09.13.12v0a.12.12,0,0,0,0,.14s0,.07-.12.1-.06,0,.06.07l.13,0c.06,0,0,.07-.12.09s-.06,0,0,0h0c.06,0,.08.08.07.12v0c-.06,0-.12,0-.06.05a.09.09,0,0,1,0,.16c-.07,0-.06.05.06.07s.13.05.13.08a.42.42,0,0,1,0,.27v0c-.12.06,0,.12,0,.18a.22.22,0,0,0,.13.22s0,0-.06.07a.09.09,0,0,0,0,.13s.06,0,.06.08,0,.1-.12.13H4.75s.06,0,0,0v0c.06,0,.06.05.13.07s.06,0,0,0-.06.07,0,.11.07.1.2.13v.06l-.19,0H4.83c-.06,0-.06,0-.06.05l.13,0c.19,0,.25.12.13.18s-.06,0-.06.07V52s-.06,0-.12,0a1,1,0,0,0-.19,0c-.06,0-.06,0,0,0s.19,0,.19.07a.15.15,0,0,1,.07.07s.08,0,.07.07-.06.05-.06.08.05,0,.12,0,.07.11.07.16,0,.1-.18.12h0s-.06,0-.06,0-.06,0,0,0,.12.08.12.13.06,0,.07.07,0,0-.06,0H4.88v.09s-.06.06-.06.07.12,0,.25,0c-.06,0-.06.09,0,.14a.09.09,0,0,1,0,.16.53.53,0,0,1-.18.19s0,0-.06,0,.06,0,.06,0,.08.07.2.08.07,0,.06.06v.1l-.49,0a.25.25,0,0,0,.12,0,.57.57,0,0,1,.19,0c.12,0,.19,0,.19.07s0,0-.06.06.06,0,.06,0,.08,0,.07,0l-.13,0-.18,0c-.06,0-.06,0,0,.08H5c.21,0,.3.12.2.19v.07c.07,0,.13,0,.13.06s0,.07.07.1v0a1.66,1.66,0,0,0-.18.19s0,0,.07.06.06.08.13.14c-.08,0-.13.05-.12.08s-.13.06-.06.07l.19.06h.06s.06,0,0,.05h0a.4.4,0,0,1-.25.06c-.13,0-.12,0-.06,0s.07,0,.13,0,.07.08.13.14H5.36s-.06,0-.06.06.06,0,.13.05.06,0,0,0h0v.05c.19,0,.07.14.13.19s-.07.08-.18.11a.22.22,0,0,0-.12.07s0,0,.06.07.13,0,0,.08-.07,0,0,.07.06,0,0,.08,0,0-.06,0,.06,0,.07,0c.18,0,.26.11.19.18s0,.06.07.09,0,.07-.06.1-.06,0-.12,0-.07,0,0,0h0l.06,0c.06,0,.13.05,0,.06s-.09.08,0,.11.12.09.13.14,0,0-.06.07-.13,0-.12.09v.08l.07.08c-.07,0-.07,0-.13,0s0,0,.07.05l.06,0c.06,0,.13,0,.07.07s0,.07-.12.1a.15.15,0,0,0,.12,0h.13c-.06.06-.06.09-.12.14l-.18.11a.86.86,0,0,0,.25.19c.05,0,.06,0,0,0h0c-.13.05-.18.12-.12.18V59a.09.09,0,0,0,0,.16h0l.06,0,.06,0h.06s.07,0,.07.07v.09s0,0-.06,0-.18,0-.18.06-.06,0-.06.07.06,0,.06,0h.13c.18,0,.25,0,.19.07s-.06.06,0,.09.07,0,.06,0-.06.05-.18,0H5.63c-.07,0-.13,0-.07,0a.89.89,0,0,0,.26.16c.13,0,.13,0-.06.07s-.12,0-.12,0-.09.06,0,.08h0c.06,0,.07,0,0,.06s0,0,.07.05,0,0-.06,0a.62.62,0,0,0-.19,0l-.13,0a.82.82,0,0,1-.19-.09H5.2s.06-.07,0-.09-.06-.05,0-.07l.06,0v0c-.13,0-.17-.08-.1-.11h0c.06,0,0,0-.07-.06l-.06,0s.06-.05.06-.08v0c.12,0,.25,0,.31,0s-.07-.1-.07-.16,0,0-.06,0-.19,0-.13-.07V59.2a1.6,1.6,0,0,0,.31,0v0H5.17v0s0,0,.06-.06a1.08,1.08,0,0,0,.19,0s.06,0,0,0h0l-1-.14h.13l.06,0v0h0C4.53,58.87,4.53,58.89,4.46,58.89Zm-.87-7.27H3.9c-.06,0-.06,0,0,0v0a1.57,1.57,0,0,0-.31,0Zm.46,2c-.06,0-.19,0-.19,0s-.07-.05-.07-.09H3.67a.21.21,0,0,0-.12.1s.13.06.25.07A.85.85,0,0,0,4.05,53.58Zm-.14-3.24h0c-.06,0-.06,0,0,.07H4l.06,0C4,50.36,4,50.34,3.91,50.34Zm.78,7.88s0,0-.07,0l-.06,0S4.56,58.24,4.69,58.22ZM3.51,49.76c-.06,0-.06,0-.06,0v0C3.51,49.8,3.57,49.8,3.51,49.76Zm.74,5.49h0c-.07,0-.07,0,0,0v0l.06,0Z" transform="translate(-0.43 0)"/>
                        <path d="M5.3,62.37l.25.05s.06,0,0,0h0c-.07,0-.13,0-.13,0s.09.11,0,.16,0,0,0,.09.13,0,.19,0,.13,0,.07.05a.15.15,0,0,0-.06.14s-.06.09-.06.12-.06,0-.06.08,0,.08.07.12.06,0,.07,0,0,.06,0,.09-.19,0-.19.07-.12,0-.24,0-.06,0-.06,0,0,0,.06,0h.06c.13,0,.19,0,.19.06s.07.06.07.09.06,0,.13,0,.06,0,0,0-.25,0-.19,0,.13,0,.19,0h.06c.06,0,.06.06,0,.08s-.25,0-.31,0-.13,0-.06.07l.12,0a.19.19,0,0,1,.13.06c0,.06.09.12.26.15l.06,0c-.06.05,0,.1-.12.17v0q.11,0,0,.09v0a.13.13,0,0,1,0,.2V65s.08.06.07.09,0,.07-.12.09-.07,0,0,0,0,0-.06,0-.06,0,0,0h.12c.07,0,.07,0,.07,0s0,0-.06,0-.13,0-.13,0a.47.47,0,0,0-.18,0s0,0,.06,0,.06,0,.13,0,.12,0,.06,0-.06,0-.06,0-.06,0,0,0h0a3,3,0,0,1,.32.19q.09,0,0,.09s-.07.06-.06.09v0c.13.07,0,.14.13.21l-.25,0a1.22,1.22,0,0,0-.24.1s0,0,.06.07a.6.6,0,0,0,.19,0l.06,0H6s.07,0,.06.06-.07,0-.06.08,0,0-.06,0H6c-.06,0-.12,0-.06,0l.19.09s.06,0,0,0h0c-.06,0-.06,0,.07.09h0c-.06,0-.06,0-.06.08a.18.18,0,0,1,.07.15s0,.06-.06.07a.5.5,0,0,0-.18.11H6c.12,0,.19,0,.19.06s0,0-.06.07-.06,0,0,0h0c.07,0,0,0,0,.07s-.06.08,0,.12.06,0,.13.07-.06.07-.25.06h-.2a.72.72,0,0,0,.19,0c.06,0,0,0,0,0H5.91c-.06,0-.12.06-.06.06s.26,0,.25.1,0,0-.12,0-.12,0-.12,0,0,0,.06,0,.06,0,.06.07-.12,0-.12,0,0,0,.06,0H6c.06,0,0,0,0-.07l.19,0v0c.08,0,.13.07.13.1v.16s-.06,0-.12,0a.3.3,0,0,0-.13.07.34.34,0,0,0,0,.2H6a.31.31,0,0,1,.13,0s0,.09.13.12a.09.09,0,0,1,.06,0v0a.15.15,0,0,1,0,.18s-.06,0,0,.08v0s-.06.07-.06.1l.07.09s-.13,0-.13,0-.06,0,0,0h0a3,3,0,0,0-.43,0c-.06,0-.06,0-.06,0h0c.19,0,.37,0,.5,0s.16.06.11.09h0s-.07,0-.06,0v0c.22.05.28.15.13.22,0,0-.06.06-.06.07s-.11.07-.12.11l.07.09s0,0,.13.06,0,0-.13.06-.06,0-.06,0h0l.07,0c.19,0,.19.09.06.14s-.06,0,0,.07v.06s0,.1.07.14.06,0,0,.07,0,.1.13.14.06,0,0,0h0c-.07,0-.12.06-.12.09s0,0-.06,0-.06,0-.12.06,0,0,.13.06h.12l.06,0s.07.09.07.13a.38.38,0,0,1-.24.08H6.2a.63.63,0,0,0-.31.06c-.06,0-.12,0-.13,0s-.06-.06,0-.09.06,0,.06-.07v-.15c.06,0-.06-.09,0-.13s-.06-.06,0-.08.07-.09,0-.13-.15-.14-.13-.21,0-.06-.07-.08-.07-.07,0-.12.07,0,.13,0,.06,0,0-.07a.3.3,0,0,0-.18,0H5.46a.15.15,0,0,1,.06-.14c.12,0,.12-.1,0-.14s0,0,.06,0h.07s.06,0,.06,0,0,0-.07,0a1,1,0,0,1-.18,0c-.06,0-.13,0-.13,0V70s0,0,.06-.06.12,0,.12,0,.06,0,0,0h0c-.13,0-.13,0-.13-.09s-.07,0,.12-.07.06,0,0,0l-.07,0s-.07,0-.06,0,.06-.06.06-.08.06,0,0,0-.08-.07-.07-.1-.06-.07-.07-.11v0s-.06-.06,0-.07a1.46,1.46,0,0,1,.31,0h.13v0a1.08,1.08,0,0,0-.19,0c-.07,0-.25,0-.25-.09a.17.17,0,0,0-.07-.08s0,0,.06-.07.13,0,.06-.06-.06,0-.06,0-.06,0,0,0,.06,0-.07-.07-.06,0,0,0h0c.12,0,.12-.09.18-.15H5.25c-.13,0-.19,0-.13-.07s.07,0,.06-.09v0c.06,0,.06,0,0-.07s0,0,0-.06h0c.13,0,.13,0,.06-.09H5.24c-.07,0,0-.06.12-.07h.13s0,0,.06,0v0H5.47a.38.38,0,0,1-.19,0c-.08-.08-.11-.15-.07-.23v-.07s-.07,0-.07-.07v0c.13,0,.06-.09,0-.12s0,0-.07,0a.5.5,0,0,1,.25-.09v0c-.16,0-.26-.07-.26-.12h0c.07,0,.06,0,.06-.07s-.06-.09-.07-.14,0,0,.06,0a.57.57,0,0,0,.31-.12.6.6,0,0,0-.19-.06c-.07,0-.23-.08-.13-.13s.06,0,.06-.06,0,0-.13-.07-.17-.07-.13-.12S4.9,66,5,66s.06-.08,0-.12a.06.06,0,0,1,0-.12c.06,0-.07-.07-.07-.09s0,0,.06-.07,0,0,0,0-.07,0,.06,0,.12,0,.06-.06-.07,0,0,0,.06,0,.06,0,0-.06-.13-.07-.06,0-.13,0-.06,0,0,0h0l.12,0a1.75,1.75,0,0,0,.32,0H5.17a1,1,0,0,1-.25,0c-.06,0-.13,0-.13,0s-.06-.12.06-.17v0c-.07,0,0-.07.05-.1s.07-.06,0-.09,0,0-.06-.05-.08-.06-.07-.09v-.05c-.13,0-.07-.09,0-.12A.48.48,0,0,1,5,64.21c.07,0,0,0-.06,0-.25,0-.19-.11-.2-.16s.07,0,.07,0h.18l.06,0-.06,0H4.87c-.13,0-.19,0-.19,0s0,0-.07-.07-.06,0,.06-.09.06,0,0,0-.07,0-.06-.05a.21.21,0,0,0-.07-.16.11.11,0,0,1,0-.13c.06,0,.06-.07,0-.1l-.06,0c-.09,0-.09-.08,0-.12s.12-.06,0-.09h0c-.07,0-.07-.06.06-.07s.06,0,.12,0,.07,0,.06-.06-.06,0-.06,0-.13,0-.13,0-.06,0-.06,0v0a.15.15,0,0,0,0-.21s-.07-.08-.07-.12v0c.08,0,.1-.07.06-.11s.06-.07,0-.1,0-.05.13-.07L4.9,62a.23.23,0,0,0,.19.06v.19h.08l-.12,0S5.24,62.32,5.3,62.37Zm.13,4.51a.55.55,0,0,1,.19,0h.06v0H5.62c-.06,0-.06,0-.13,0S5.43,66.83,5.43,66.88Zm.66,2.19c-.12,0-.12,0-.06.05s.12,0,.12,0S6.22,69.08,6.09,69.07Zm-1-4.58h0c-.06,0,0,0,0,0S5.15,64.52,5.09,64.49ZM5,64H5c-.06,0,0,0,0,0S5.06,64,5,64Z" transform="translate(-0.43 0)"/>
                        <g class="cls-3">
                            <path d="M1.31,30.61a.22.22,0,0,1,.13.07l-.19,0c-.06,0-.12,0-.06.05s.06.05,0,.07l-.12,0h0l.06,0a1.71,1.71,0,0,0,.25,0,.57.57,0,0,1,.19,0q.09,0,0,.09c-.07,0-.12.08-.12.12s0,.06-.12.07a1.4,1.4,0,0,1-.43,0,1.79,1.79,0,0,1-.26-.1s0,0,.12-.08H.83c.06,0,.06,0,.06,0a.49.49,0,0,0-.32-.1c-.19,0-.13,0-.13-.08a1.13,1.13,0,0,1,.3-.22s.07,0,0,0-.07-.13-.13-.18.06,0,.12,0H1v0l-.31-.11c-.12,0-.07,0-.07,0S.56,30.07.55,30a.26.26,0,0,0,0-.21s0-.06.12-.07h0c.25-.06.25-.07.06-.14l-.07,0c-.07-.05-.12-.09-.13-.14v-.07q-.1-.06,0-.12c.05,0,.07-.07.06-.11S.57,29,.69,29s0-.1.11-.14,0,0-.07-.07-.14-.07-.07-.1.06,0,0-.05,0-.07.18-.09l.07,0-.07,0H.78c-.13,0-.19,0-.13-.07s.06,0,.06-.06.06,0,.06-.05a.18.18,0,0,0-.13-.17v0c0-.05,0-.1.18-.14v0c-.08,0-.12-.06-.13-.09s0-.08-.13-.12v0c.06,0,.06-.06,0-.08s.06-.05.18-.07l.12,0s0,0-.06,0c-.19,0-.19,0-.13-.07l.07,0h0c-.06,0-.06,0-.12,0l-.06,0h0c.07-.06.07-.11,0-.16s.12,0,.06-.09,0,0,.06,0h.1c.07,0,.13,0,.13,0s0,0-.07,0L.65,27c-.06,0-.1,0-.08,0h0c.13-.08.17-.16.11-.24s-.06-.15-.13-.21,0-.07.12-.07l.06,0c-.06,0,0-.06-.06-.09l-.07,0c-.06,0-.12,0-.06-.05s0-.15.11-.23V26c.06,0,.13,0,.13,0l.06,0h0c-.07,0-.07-.07-.13-.09s-.13,0-.07-.07v-.09s0-.06.06-.09.13-.15.05-.23v-.15s.06-.08,0-.11v0c.06-.05,0-.1,0-.15s0,0-.06,0-.08-.07-.07-.1a.38.38,0,0,0,.12-.21s.07-.08,0-.12,0,0,.06,0a2,2,0,0,0,.31-.08s0,0,.06-.05h0a1.38,1.38,0,0,1-.29,0c-.13,0-.19-.05-.19-.09s0,0,.06,0,.18-.07.13-.11S1,24,.93,24v-.12a.13.13,0,0,0-.07-.14c-.06,0-.06-.05,0-.07a.26.26,0,0,0,.06-.2s.06,0,.12-.05.06,0,.06,0,0-.12.12-.17,0,0-.07,0-.06,0-.06-.07C.86,23,.92,23,1,22.87v0c.06,0,.06,0,.06-.07s-.06,0-.06,0,.06-.08.19-.1l.19,0,.37,0c.12,0,.18.05.14.08h0l-.18.09c-.06,0,0,0,.06,0s.15.08.07.12l-.25,0v0a1,1,0,0,0,.25,0v0q.09,0,0,.09a.69.69,0,0,1-.31.1c-.06,0,0,0,0,0a.46.46,0,0,0,.13,0c.07,0,.06,0,0,0l-.06,0c-.13.05-.12.09.07.14s.08.07,0,.1a.13.13,0,0,0,0,.2.15.15,0,0,1,.07.14s0,.05-.06.07-.06,0-.06.06v.08s-.06.05-.18.07-.13,0-.06.06.06,0,0,.05v0s.06,0,.13,0,.15.09.13.14v.07s0,.08-.12.1c.06,0,.13,0,.13.06s-.06.06-.06.1-.06,0-.13,0a1.25,1.25,0,0,0-.19,0c-.05,0-.05.05,0,.06h.18l.06,0h0a2.24,2.24,0,0,0-.31.08v0l.19.05c0,.06.07.1.2.14s.07.06.06.09a.2.2,0,0,1,0,.09v0c.06,0,0,.07-.06.11a.22.22,0,0,0-.12.07c-.07,0,0,.05.13.07h.06c.06,0,.12,0,.06,0s-.1.07-.06.1h0c.07,0,.13,0,.13,0V26c-.06,0-.06.09,0,.12s0,.1-.06.14-.06.06,0,.09,0,.12-.06.18a.85.85,0,0,1-.25,0l-.25,0h0s-.07,0,0,0,.12.06.25.06H1.7s.07,0,0,0-.07,0-.13.06-.06,0,0,0h0c.05,0,.08,0,.07,0s-.07.05-.06.07-.06.06-.12.09v0c.07,0,.2,0,.2,0s.12.05.06.08-.06,0,0,0,0,.07,0,.09,0,.07.11.08h0l.06,0c.05,0,.06,0,0,0h0l-.18,0c-.05,0-.06,0,0,.05h0l.06,0c.07,0,.13.05,0,.07H1.72c-.06,0-.12.06-.05.07v0c.12,0,0,.07-.06.11.13,0,.2.06.14.1h0l-.06,0s.06,0,.06.07a.15.15,0,0,1,0,.16s0,.08.07.12l.06,0s-.06.06-.06.07-.13.11-.06.16v.12l-.19,0c-.07,0-.06,0,0,0a.42.42,0,0,1,.19.07v0a.27.27,0,0,0-.13,0c-.06,0-.13,0-.13,0s.06,0,.13,0,.07,0,.13,0,.19,0,.19.09l-.06,0a1.51,1.51,0,0,1-.31,0H1.49v0h.13c.31,0,.31,0,.13.11a.55.55,0,0,0-.19,0h.07c.05,0,.07,0,.06-.05l.19.09c.06,0,.06,0-.06.05s-.25.09-.38.12-.06.06-.06.09h.06c.06,0,.06,0,.12-.05l.07,0c.06,0,.12,0,.12,0l-.06,0c-.06,0-.06,0-.06.07s0,.06-.06.08,0,0,.07,0a1,1,0,0,0,.25,0c.12,0,.13.06,0,.09l-.06,0-.06,0s-.06.06-.19.06H1.53c-.06,0-.13,0-.13,0s.07,0,.07,0h.12c.07,0,.13,0,.13,0s.07,0,.07,0,0,0-.06,0-.06.09.13.14v0c-.06,0-.19.07-.25.11s-.06.07.13.09c0,0,.06,0,.06,0s.07,0,.07,0l-.18.12s-.07,0-.13,0-.12,0-.1.05l0,0c-.25-.05-.19-.05-.19-.05Zm-.07-7.38-.12,0c-.12,0-.12,0-.06.05h.12c.06,0,0,0,0-.07s0,0,.06,0,.06,0,.13,0H1.3ZM1,30.42a.32.32,0,0,0,.17,0h0l.06,0H1.17a.36.36,0,0,0-.18,0c-.06,0,0,0-.07,0s-.06,0-.06,0h0c.07,0,.14,0,.14,0ZM.84,26.87c.06,0,.12-.05.18-.09H1s0,0,0,0H.83c-.06,0-.06,0-.12.05S.77,26.83.84,26.87Zm.33-2.35.19-.05v0H1v0Zm-.06,2.84h0a.21.21,0,0,0,.11,0h0l-.06,0S1.17,27.36,1.11,27.36ZM1,25.28s.06,0,.06,0,.12,0,.06,0l-.06,0Zm.07,1.18h0c.06,0,.06,0,.06,0s.06,0-.06,0C1.13,26.43,1.13,26.46,1.07,26.46Zm.19,4.59c-.06,0-.06,0-.06,0Zm-.65-5,.07,0s.06,0,.06,0H.61ZM1,27.17H1ZM.86,24.63s-.06,0-.06,0,0,0,.06,0h0s.06,0,.06,0S.93,24.63.86,24.63Z" transform="translate(-0.43 0)"/>
                        </g>
                        <g class="cls-4">
                            <path d="M7.6,88.31s-.06,0-.12-.06-.13,0-.13-.08v-.06c.06,0,.05-.07,0-.08S7.29,88,7.41,88s.12-.06.06-.09-.07-.14-.2-.21-.07-.08-.06-.12,0-.06,0-.09.06,0,.13,0l.06,0s-.07,0-.07-.08-.06,0-.07-.09v-.06c-.06,0-.13-.06-.07-.09V87s0-.06.06-.09.12,0,.12-.09,0,0-.06,0-.07,0-.13,0-.06,0,0,0h0a.25.25,0,0,1,.12,0c.12,0,.13-.08,0-.11h-.1c.07,0,.07,0,.06,0s.07,0,.19,0h.06l-.12,0c-.13,0-.13,0,0-.07s.07,0,0,0-.06,0,0,0h0s.07,0,.06-.07-.13,0-.13-.08S7.29,86,7.47,86c0,0,.06,0,0,0a.66.66,0,0,0-.19-.18s0-.06.06-.08l.06,0c.06,0,.12-.07,0-.1s-.06-.09-.13-.14c.14,0,.23-.09.25-.14h.12c.07,0,.07,0,.07,0s-.07,0-.06,0-.07,0-.05,0l.05,0s0,0,.06,0l.12,0a.44.44,0,0,1,.24,0h0v.21c.06,0,.06.09-.13.11v0l.12,0c.06,0,.07,0,.07,0s0,.06-.06.08S8,86,8,86s-.12,0-.12.07,0,0,.07,0,0,0-.06.06l-.07,0c-.06,0,0,.06,0,.07s.06.06.12.06.13,0,.19.06.07,0,0,0-.13.07,0,.1v.08L8,86.6l-.12,0v.14H8c.06,0,.06,0,.06,0s0,0,0,.06.19,0,.19.09.06.05.07.08,0,.06-.12.07-.13,0-.13.07v0s0,0-.06,0-.06,0,0,.06.19,0,.19.08,0,.07.07.09.06.07,0,.1a.24.24,0,0,0-.06.09s0,0,.07,0,.12.05.06.11-.06,0-.06,0,0,.16-.18.23c0,0,0,0,.07,0h.12s0,0,.07,0,0,.08-.11.09h0s-.07,0-.06.06l.19.13c.06.06.07.06-.06.08s-.13.09,0,.13.06,0,0,0h0c-.06,0-.12,0-.12.08s0,0-.06,0a.69.69,0,0,0-.19.07v0h.19c.13,0,.19,0,.13,0l-.19,0-.18,0q-.2,0,0,.09l.13,0,.19.05a.17.17,0,0,1-.06.15.74.74,0,0,0-.25,0c-.06,0-.12.09.07.12s.18,0,.14.08H8v0c-.12,0-.06.09-.06.14s-.06,0-.12,0-.06,0,0,0h0l.07,0C8,90,8.05,90,8,90s-.06.09-.06.14-.06,0-.06.07-.06,0,0,0h0s.06,0,.06,0,.06,0,0,.07-.06.05-.12.09-.06.07,0,.1c.25,0,.13.12.19.18s0,0-.06,0a.72.72,0,0,0-.19,0s-.07,0-.06,0v0c.14,0,.17.13.07.19s-.07,0-.07,0l-.18.06s.06,0,.13,0,.06,0,.06,0h.06c-.15,0-.15.12,0,.16v0s0,0-.06.05-.19,0-.06.09.06,0,0,.07h0s.07.07,0,.11a.24.24,0,0,1-.06.09l.12,0c.13,0,.2.06.14.1h0a.16.16,0,0,0,0,.22s0,.06-.06.08a.31.31,0,0,0-.12.07l-.18,0a1,1,0,0,0-.31.07q-.09,0,0,.09l.19,0a.63.63,0,0,0,.24-.09h.07v0a.3.3,0,0,1-.19.09c-.09,0-.14.07-.12.11h.07l.19,0c.5.07.5.09.5.12s-.06.07-.25.07h0c-.12,0-.18,0-.12,0a.29.29,0,0,1,.13.15c.12,0,.19,0,.19.08s-.08.09-.24.11-.13,0-.13,0-.06,0-.06,0l.13,0s.07,0,.06.05-.06.06-.12.08,0,0,.19.06.19,0,.13.07,0,0-.06,0-.13.05-.06.09,0,0,.06,0A.14.14,0,0,1,8,94c-.06.06-.12.09-.18.15s0,.06.13.1.06,0,.12,0v0l-.18.06s-.06,0,0,0h0l.13,0s.07,0,.06,0-.06,0,0,.07a.17.17,0,0,1,.06.16s0,.06,0,.09-.13,0,0,.09.07,0,.06,0-.06.07,0,.08-.13.06-.19.08a1.62,1.62,0,0,1-.44,0l-.06,0V95s.06,0,.12,0h.13c.07,0,.12,0,.12,0s-.06,0-.13,0-.05-.05-.13-.07-.12,0-.12,0,.06,0,.06-.08.07-.08.18-.11.06,0,0,0h0c-.08,0-.13-.06-.13-.09a.15.15,0,0,1,0-.16v0a.08.08,0,0,1,0-.15v0l.19,0c.06,0,.06,0,0,0s-.07,0-.07,0v0l.37,0h.13s-.06,0-.13,0a2,2,0,0,0-.43,0l-.07,0a.28.28,0,0,1,.12-.16s.06,0,.06,0,.06,0,.13,0-.13-.05-.13-.1.12-.08.18-.13.06-.07-.13-.08l-.06,0c-.13,0-.13,0-.13-.07s.21-.16.49-.2c0,0-.06,0,0,.08H8s-.07,0-.07-.06A3.4,3.4,0,0,0,7.55,93s0,0-.06-.07-.06-.08,0-.12v-.09l.12,0c.06,0,.13,0,.06,0l-.06,0a.51.51,0,0,1-.14-.26s0-.06.06-.09.1-.07.06-.1,0,0,.06,0l.13,0c0-.07,0-.14,0-.21l-.2-.16c-.06,0-.06-.06.19-.07h.06c.06,0,.1,0,.09,0l0,0-.19,0a.21.21,0,0,0-.07-.19c-.06,0,0-.06.06-.07s.06,0,.06,0-.06,0-.06-.07-.13-.08,0-.12l.13,0s0,0,0-.06h0c-.06,0-.12,0-.13,0s0-.07.06-.1a.22.22,0,0,0,.06-.18s0-.07-.07-.1-.06-.07,0-.11.06,0,0-.05-.06-.06,0-.09.06,0,.06-.07-.11-.09-.07-.14v0c.31,0,.31,0,.06-.11-.08,0-.13,0-.13-.08v-.09a0,0,0,0,1,0-.08l.25-.13c.06,0,.06,0-.07,0s-.12,0-.06-.09v0l-.13,0s-.07,0-.07,0l.13,0c.06,0,.12,0,.12-.06s0-.07-.13-.08-.06,0-.13-.09L7.74,89s.06,0,0,0H7.61c-.06,0-.13,0-.06,0s.07,0,.06-.06a.1.1,0,0,1,0-.17c.06,0,.06,0,.12,0s.13,0,.08-.08h0c-.06,0-.12,0-.12,0s-.08,0-.07-.07-.06-.05-.07-.09.13,0,.19,0S7.73,88.31,7.6,88.31Zm0-1.3h.06v0h0Zm-.07,2.78-.06,0C7.6,89.81,7.6,89.81,7.53,89.79Zm.2-1.66s0,0-.06,0h0v0ZM7.67,88h0c-.07,0-.07,0,0,0S7.6,88,7.67,88Zm-.12-1.15h0s.07,0,0,0,.12,0,0,0Zm0,.7h0s0,0,.08,0Z" transform="translate(-0.43 0)"/>
                        </g>
                        <path d="M2.08,19.33a.15.15,0,0,0,0,.16v.07s0,.06.06.09.07,0,0,0-.06.08,0,.11v.06s-.06,0-.12,0-.13,0-.12,0V20A.24.24,0,0,1,2,20c.06,0,.19.05.13.07L2,20.11c-.06,0-.12.05-.06.09s.06,0,0,0H2c-.05,0-.07.07-.05.1a.12.12,0,0,1,.06.09l.07.09v0s-.06.06,0,.08,0,.06-.06.08-.06,0-.06,0,.13.07.07.15H2c-.06,0-.06,0,0,0l.06,0h.07s0,0-.06,0H1.78l-.13,0v0l.19.05s.06,0,0,.05h0s-.07,0-.06.06v.06l.19.05c.06,0,0,.05-.06.07s-.19,0-.25,0v0s.06,0,.12,0,.13,0,.13,0v.28s-.06,0-.12.06-.12,0-.06.07.06,0,.07.05,0,0-.07,0-.12,0-.12,0,0,0,.06,0h.07c.12,0,.12,0,.13.07s-.06.07-.06.11v0c.06,0,.13,0,.06.06a3.73,3.73,0,0,1-.43.18c-.19.06,0,.05.13.07l.31,0a.61.61,0,0,0-.18.05.53.53,0,0,1-.25,0,3.76,3.76,0,0,1-.51-.05c-.13-.05-.12-.06-.06-.11s-.08,0,0-.05a.39.39,0,0,1,.16,0H1c-.07,0-.13,0-.07-.06s.06,0,.06-.05.06-.07.19-.07.07,0,.06-.05,0-.06-.13-.06a.27.27,0,0,1-.17,0c-.06,0,0,0,.06-.05h.07c.06,0,.12,0,0,0a.54.54,0,0,1-.2-.09s0-.07.06-.11l.25-.1c.06,0,0-.06-.13-.06H1c-.13,0-.13,0-.13-.05s0-.13.18-.17,0,0,0,0H1c-.13,0-.13,0-.13-.05a.11.11,0,0,1,.06-.14.38.38,0,0,1,.18,0c.06,0,.06,0,.06,0v0c.13,0,.13-.06.06-.09A.24.24,0,0,0,1.1,21C1,21,1,20.92,1,20.89v-.12c.06-.06,0-.13.05-.18v-.05a.09.09,0,0,1,0-.16c0-.05,0-.11.12-.16h0s-.07-.06-.06-.09S1,20,1.16,20v-.13s.06,0,.06-.05-.07,0,0-.06a.11.11,0,0,0,0-.19v0c.07,0,.12-.08.12-.13a.25.25,0,0,1,.12-.1c-.06,0-.13-.05-.19-.09s-.07-.05,0-.06h0v0c.14,0,.16-.08.06-.12l-.06,0c-.07,0-.13,0-.07-.09v0a.15.15,0,0,1,0-.21s.07,0,.13,0a.38.38,0,0,0,.18,0s0-.05-.06-.07l-.19,0c-.13,0-.13,0-.06-.05h.06s.06,0,.06-.06.18-.1.5-.05a1.63,1.63,0,0,1,.28.07c.06,0,.13.05.07.07v0c-.13,0-.19.07-.06.1s.06,0,0,0h0q-.09,0,0,.09t.06.09H1.86a.42.42,0,0,1-.25,0,.36.36,0,0,0-.24.09v0s.12,0,.18,0,.07,0,.13,0v0s0,0,.12-.07.12,0,.06-.07a1.08,1.08,0,0,0,.19,0l.13.06a.29.29,0,0,0-.06.21L2,19.18a1,1,0,0,0-.25,0c-.06,0-.12.05-.06.07a.6.6,0,0,0,.25.09C2,19.31,2,19.31,2.08,19.33Zm-.54-1h0s.1.09.25.1h.06v0C1.79,18.41,1.66,18.41,1.54,18.37Zm0,1.85h0l-.12,0v0h.13s.07,0,0,0Zm-.29,2s0,0,.07,0H1.25Zm0-.79c-.06,0-.06,0-.06,0H1.3c.06,0,.06,0,.06,0Zm0,.5c-.06,0-.06,0,0,0S1.32,22,1.25,22Zm.16-.64h0s0,0,.07,0H1.41Z" transform="translate(-0.43 0)"/>
                        <g class="cls-5">
                            <path d="M7.22,82.32v0c-.16-.06-.21-.14-.14-.21s.07-.06,0-.09,0-.08.06-.12.06,0,0,0h0c-.07,0-.07-.05.06-.06s.06,0,.06,0-.09-.11,0-.16.06,0-.07-.07H7.13s-.07,0-.06-.06,0-.06.12-.08.12-.09,0-.14,0,0,.06-.06.07,0,.06,0A1.26,1.26,0,0,0,7.06,81a.33.33,0,0,0,0-.24v-.09s.19-.07.31-.07a.39.39,0,0,1,.19,0c.07,0,.07,0,.07.08a.18.18,0,0,0,.07.23s.06,0,.06,0,.07.11.2.14.13.12,0,.18-.07,0-.07,0,.07,0,.07,0,.07.08-.12.11-.06,0-.12,0v0a1.62,1.62,0,0,1,.31.1c.07,0,0,.05-.06.07l-.06,0-.06,0v-.07l-.07,0-.12,0s0,0,.06,0l.19,0s.06,0,.07,0,.2.1.19.16V82s0,0-.12.07a.46.46,0,0,0-.24.14s0,0,.06,0H8c.06,0,.06,0,.06,0l-.18.11c-.06,0-.06.05,0,.07s.06,0,.06,0,.07,0,.13,0,.07,0,.07.06-.13,0-.25.07,0,0,0,.06H8c.13,0,.19,0,.19.06s0,.06.07.08,0,0,0,.08-.12,0-.18,0L8,83h.12l.13,0c.07,0,.06,0,0,0l-.19,0s0,.05.07.07v0c-.06,0,0,.09,0,.12l.12,0s.08,0,.07.05l-.13,0c-.13,0-.13.1,0,.13l.06,0s.08,0,.07.07-.06.09,0,.12a.1.1,0,0,1,0,.18v.12s-.13.06-.19.09-.08.06-.06.09,0,0-.11,0h0l-.19,0v0h.12a.82.82,0,0,1,.32.09.36.36,0,0,0,.13.09.31.31,0,0,0-.12.19s0,.06-.12.09,0,0,.06.05l.19,0s.07,0,0,0l-.06,0H8.09c-.07,0,0,.07.06.11h0a.16.16,0,0,0,.07.13s0,0-.06,0a2.31,2.31,0,0,1-.43.09H7.54s-.08-.07-.07-.11.06,0,.06,0,.06,0,0,0-.06,0-.06,0a.21.21,0,0,1,0-.19h0c-.06,0-.13,0-.13,0s0-.08.06-.1.06,0,.12-.06-.06-.07-.12-.09-.18-.15-.08-.22a.14.14,0,0,1,.06-.14v-.14c.07,0,.07-.05,0-.07s-.13-.12,0-.18.07-.08.06-.12v-.07s0-.05-.07-.07-.06-.07,0-.1.06,0,.06-.06.06,0,0-.09-.06-.06,0-.08.1-.13,0-.19,0,0,.06-.08.06,0-.06,0-.19,0-.19-.07.09-.12.24-.16H7.6c.07,0,.07,0,.07,0H7.49s.12-.1.12-.15,0-.07-.13-.09-.13,0-.07-.07a.68.68,0,0,0,.19-.11Zm.32.14h0l.06,0H7.54C7.48,82.44,7.54,82.46,7.54,82.46Z" transform="translate(-0.43 0)"/>
                        </g>
                        <path d="M6.51,77.47c.14,0,.19-.07.12-.12s-.11-.09-.07-.14,0,0-.06,0v-.07s.07-.06.06-.09v-.07s0,0-.06-.05-.12-.07-.13-.11-.06-.08,0-.12.1-.09.06-.14,0-.11.12-.16v0H6.48c-.06,0-.12,0-.12,0s.06-.07,0-.11.06-.07-.12-.09-.07,0-.07,0a.24.24,0,0,1,.06-.09.21.21,0,0,0,0-.28v0s0,0,.12-.09c-.13,0-.19-.07-.19-.12s0-.05.06-.07.12,0,0-.11,0,0,0,0l.25-.07s-.06,0,0,0v0l.44,0,.06,0c.07,0,.07.09,0,.12s-.06,0-.12,0-.06,0,0,0,.13,0,.07,0,0,0,0,.07-.06,0,.06.07.19.11.14.17-.06,0-.06.06-.06,0-.06.07v.08c-.07.05,0,.1.07.14S7,76,7,76a.57.57,0,0,1-.19,0c-.05,0-.06,0,0,0h0l.13,0c.06,0,.13,0,.06,0s-.06,0-.12,0l.11,0v0c0,.06.06.13.26.16h.06c.06,0-.06.1-.18.15s0,0,.06,0,.13,0,.07,0-.06,0-.06,0-.06.08-.12.12,0,0,.06,0h.19V77s-.07,0-.07,0-.12,0,0,.1l.06,0c.07,0,.07,0,0,.07l-.13,0v0a2.12,2.12,0,0,1,.2.12c.07,0,.06,0-.06.07s-.13,0-.06,0,.18.1.13.16v0s.06,0,.13,0,.06.08,0,.11-.1.08-.06.12v.07c0,.06,0,.12-.18.16s-.06,0-.06,0,0,0,.06,0,.22.15.13.23,0,.08,0,.14,0,0-.12,0a1.48,1.48,0,0,0-.38,0H6.68a.13.13,0,0,0-.06-.13c-.07,0-.07,0-.07-.08v-.09a.22.22,0,0,0-.13-.07.46.46,0,0,0,.24-.21s.06,0,.06,0h.06c.07,0,.07,0,0,0h0s-.06,0-.06,0v0s0,0-.07,0H6.48a.31.31,0,0,1-.13,0v0a.15.15,0,0,0,0-.18c-.06,0,0-.07,0-.08s.06-.11,0-.16.06,0,.12-.09S6.51,77.51,6.51,77.47Zm.66.69s0,0-.06,0,.12,0,.06,0S7.17,78.17,7.17,78.16Zm-.36.38c-.06,0-.06,0,0,0s.06,0,.06,0,.06,0,0,0Zm.13.16s0,0,.06,0v0C7.06,78.68,7,78.68,6.94,78.7Z" transform="translate(-0.43 0)"/>
                        <g class="cls-6">
                            <path d="M2.59,2.14H2.53a2.36,2.36,0,0,0-.38,0c-.07,0-.14,0-.15,0H2c0-.06,0-.11,0-.16s.06,0,.06,0l.13,0c-.07,0-.19-.05-.26-.09V1.63c-.13,0-.07-.1-.07-.16s0-.07.09-.1v0a.62.62,0,0,1,.19-.12v0H2.05c-.06,0-.12,0-.13,0s0,0-.06-.06,0,0,.06-.07.06,0,0,0S2,.92,2,.86V.77S2,.72,1.87.71,1.81.63,1.87.6s.06,0,0,0-.12-.08,0-.11h0v0c-.07,0-.07,0-.13,0A.19.19,0,0,1,1.61.31c0-.06-.13-.09-.06-.15H1.44C1.35.12,1.3.08,1.31,0h.06a1,1,0,0,0,.25,0C1.74,0,1.87,0,2,0h.06l.38,0,.25,0c.07,0,.12,0,.13,0s.06,0,.06,0-.11.06-.12.09.06,0,.13,0S3,.33,3,.36,2.89.43,3,.45A.14.14,0,0,1,3,.6V.75H3l-.18.1c-.06,0,0,.06.12.06s.12,0,.13,0h0a.52.52,0,0,1-.18.22c-.06,0,0,0,.07.05a.27.27,0,0,0,.12,0c.05,0,.08,0,.07.05s-.06.05-.06.07a.63.63,0,0,1-.24.25s0,0-.06,0a1.34,1.34,0,0,0-.31,0c-.06,0-.08,0-.06.07a.22.22,0,0,0,.12,0v0h0v0A.36.36,0,0,1,2.7,1.7h.12c.13,0,.25,0,.25.05v.12s0,0-.07,0H2.83c-.06,0-.06,0-.13,0A.77.77,0,0,0,2.46,2V2l.06,0,.13,0,.18-.06C2.82,2,2.89,2,3,2a.77.77,0,0,1-.37.11Zm0-1.63h.07v0H2.58v0H2.4v0h.06c.06,0,.06,0,.12,0Zm-.28,1h0c.07,0,0,0,0,0Zm.5,0c.07,0,.13,0,.06,0l-.06,0c-.06,0-.06,0-.06,0s0,0,0,0Z" transform="translate(-0.43 0)"/>
                        </g>
                        <path d="M6.62,74.15h0c-.44,0-.5,0-.5-.1s0-.09.12-.12.1-.15-.08-.21-.06-.06-.06-.08v-.16s0-.06-.07-.09v-.07c.06,0,.12-.09,0-.12H6c.12-.09-.07-.16,0-.25a.12.12,0,0,1,0-.14s0-.07-.06-.09l-.07,0c0-.07,0-.14.1-.2s.06-.08,0-.11H5.94c0-.07-.13-.14-.07-.21a.23.23,0,0,1,0-.21s0-.07-.07-.09-.06-.06,0-.07.07,0,.06-.05.06-.06.19-.06l.25,0,.19,0c.07,0-.06,0-.13.07s-.06,0-.06.07,0,0,.07,0,.13,0,.13,0-.06.09-.19.11-.06,0-.12.05.13.07.19.07.18,0,.15.07l0,0s0,0,.06,0,.07,0,0,0l0,0c-.24.05-.18.14-.17.21H6.7c.06,0,.12,0,.06,0l-.18.07c-.13,0-.19,0-.12.09H6.39l-.06,0s.07,0,.07,0,.12.06.06.09,0,0,.07.06.12,0,.12.06v.07c.1,0,.1.09,0,.13s-.05.08-.12.12-.07,0,0,.07.06.09,0,.14a.75.75,0,0,0-.18.07c-.06,0-.06,0,.06,0l.19,0a.76.76,0,0,0,.32.12c-.07,0-.12,0-.12,0v0c.12,0-.06.1.13.14s.06,0,0,0h0a1.85,1.85,0,0,1-.25,0C6.55,74.15,6.62,74.13,6.62,74.15Z" transform="translate(-0.43 0)"/>
                        <path d="M6.73,97.17s.06,0,.06-.08v-.21s0,0,.13,0a.31.31,0,0,0,.18,0v0c-.06,0-.06,0,0,0l-.1,0c-.07,0-.07,0-.07-.07s.07,0,.07-.06-.06-.07-.13-.11-.06,0,.12-.07h.07s-.07,0-.07,0-.06,0,0,0,.06,0,.06-.06.06,0,0-.06-.16-.08-.13-.13V96S7,96,7,95.91a.57.57,0,0,1,.19-.08c.06,0,0,0-.07,0s-.12,0-.12,0V95.7c.07,0,.06,0,.13,0H7s0-.07.06-.09,0,0,0,0,.12-.11.18-.14a.09.09,0,0,0,0-.16c-.06,0,0,0,.13,0l.5,0,.06,0s0,0-.06,0-.19,0-.19,0,0,0,.07.08.18.16.07.23a.12.12,0,0,0-.06.09s.08,0,.07,0,0,0-.06,0a.85.85,0,0,0-.25,0c-.06,0-.06,0,0,.07s.07,0,.07.07,0,0-.06,0a.77.77,0,0,0,.25.07v.09a.08.08,0,0,1,0,.11l-.19.1c-.06,0,.13.07.13.11s0,.07-.12.1l-.24.07s.12,0,.19.05.07,0,.06.06,0,.06-.06.08-.12.11-.24.16-.07.07-.06.11l.13,0c.12,0,.19.07.13.11s-.07.06-.06.1-.06,0-.13,0-.06,0-.12,0a.41.41,0,0,1-.19,0L7,97.3c-.25,0-.26-.07-.2-.12l.13,0H7v0A.79.79,0,0,0,6.73,97.17Zm.6-.74h0c-.06,0-.06,0,0,0S7.39,96.45,7.33,96.43Z" transform="translate(-0.43 0)"/>
                        <g class="cls-7">
                            <path d="M7.29,79.5l.31,0c-.06,0,.07.1,0,.15a.09.09,0,0,0,.06,0c.07.05.07.07-.06.11H7.54c-.06,0-.06,0,0,0s.13.07.2.1.06.09-.06.11-.06,0,0,0,.18.06.19.11v.14c0,.06-.12.12-.31.15a2.28,2.28,0,0,0-.37,0,.6.6,0,0,1-.19,0s-.06,0,0,0H7l.12,0c.06,0,.12,0,.06,0s-.06,0-.13-.07a.76.76,0,0,1-.19-.12s0-.06.06-.09l.12,0c.06,0,0,0-.13-.07h0a.27.27,0,0,1-.13,0s.06-.08.06-.11.09-.09.25-.11h.06v0c-.06,0-.19,0-.13-.09s.06,0,.06-.05H7.1c.07,0,.06,0,0,0H7s-.06,0-.06,0v0a1.46,1.46,0,0,0-.19-.07.93.93,0,0,1-.19-.11c-.06,0-.07-.12-.07-.17v0q-.09-.06,0-.12V79s.06,0,.18,0h.06l.07,0c.06,0,.12,0,.12,0H7.2c.06,0,.07,0,.07,0s-.07,0-.07,0v0h.06c.12,0,.12,0,.12,0a.15.15,0,0,0,.07.12v0c-.06,0-.06.09,0,.14s0,0-.06,0,.09,0,0,.08H7.29Zm.41.79s-.07,0-.07,0l-.06,0v0h.07s0,0,.06,0Zm-.55-1.1h.12c.07,0,.07,0,0,0Z" transform="translate(-0.43 0)"/>
                        </g>
                        <path d="M5.1,61.94s-.07-.06-.19-.06H4.78c-.13,0-.24,0-.25-.07v-.05c.06,0,.06-.1,0-.14s0-.1-.07-.14,0,0,.06-.07.12-.1,0-.14-.06,0-.06-.07,0-.05-.07-.09-.06,0,0-.07a.18.18,0,0,1,.12,0l.07,0c-.07,0,0-.07-.07-.11s-.08-.05-.07-.08v-.06s0,0,.12,0a.63.63,0,0,0,.25-.07v0a1.12,1.12,0,0,1-.32-.09c-.06,0-.06-.06,0-.08s.06,0,.06-.06,0,0,0,0H4.48c-.12,0-.19-.05-.15-.09h0l.06,0a2.72,2.72,0,0,0,.5,0,.5.5,0,0,1,.18,0c.13,0,.2.08.13.1l-.12,0s-.12.06-.06.09H4.78l-.06,0v0h.06a.33.33,0,0,0,.19,0c.13,0,.07.09.19.12s.07.06,0,.08a.22.22,0,0,0-.13.06s-.06,0-.06.06h.08c.06,0,.06,0,.06,0v0c-.06,0,0,0,.13.07s.13,0,.07.07-.14.07-.06.1v0s-.07.07-.06.11,0,.1-.12.14,0,0,0,.07v0H4.83l.25,0v0H4.89s0,0,.06,0H5c.06,0,.06,0,0,0h.12c.06,0,.13,0,.13.06s0,.08-.12.1l-.06,0s.13.09.07.14C5.28,61.9,5.22,61.93,5.1,61.94Zm-.26-.13.06,0,.07,0s0,0-.07,0-.06,0-.06,0Z" transform="translate(-0.43 0)"/>
                        <g class="cls-8">
                            <path d="M1.07,32.36v0l-.06,0c-.06,0-.12,0-.12,0s-.11-.1-.07-.15.06-.07,0-.09V32h0c-.16-.07-.22-.16-.19-.24v-.16c0-.06.15-.11.35-.11h.27v0c-.13,0-.19,0-.19-.07s.19,0,.18-.05.13,0,.25-.07.06,0,.06,0a.31.31,0,0,0,.13.12c.07,0,0,.05.07.07s0,0-.12.05l-.06,0s0,.07.06.1.08.05.07.07,0,0-.06.06-.13,0,0,.08l.06,0q.11,0,0,.09L1.51,32l-.18.05s.13,0,.13.06.19,0,.19.08v.07a.38.38,0,0,1-.31.07c-.19,0-.19,0-.25,0Zm.28-.7v0H1.29s-.06,0,0,0,.06,0,.06,0Z" transform="translate(-0.43 0)"/>
                        </g>
                        <path d="M2,2.68a.12.12,0,0,0,0-.14c-.05-.1,0-.2.11-.29l.26,0v0h.12c.06,0,.19,0,.12-.07V2.16a1.37,1.37,0,0,0,.5,0h.06c.06,0,.07,0,0,0a1.42,1.42,0,0,0-.3.13c-.07,0,0,0,.06,0s.19,0,.19,0-.06,0-.19,0a1.3,1.3,0,0,1-.18,0H2.66v0a1.28,1.28,0,0,0,.44.09c.07,0,.07,0,.07,0s-.06.07-.12.09H2.74c-.07,0-.07,0-.07,0s.07,0,.07,0a1.07,1.07,0,0,1-.31,0c-.07,0-.12,0-.13,0A.31.31,0,0,0,2.19,3s.06,0,.06,0a.81.81,0,0,0,.31,0,.33.33,0,0,1,.19-.12V2.82l-.18,0H2.5l.13,0h.12a.5.5,0,0,1,.19,0l.19,0s.06.05.06.07v0c-.08,0,0,.08.06.11s.07,0,0,.07-.12,0-.13.09,0,.05-.18.07a1.05,1.05,0,0,1-.31,0,1,1,0,0,0-.25,0H2.26c-.18,0-.18,0-.12,0s0,0-.07-.05-.07,0-.07,0v0l.06,0h0s.06,0,.06,0V3C2,3,2,2.89,2,2.82a.12.12,0,0,1,0-.14Zm.36-.29s-.06,0-.06,0h0l.25.07h.07v0c-.06,0-.06-.05-.12-.07a.39.39,0,0,0-.15,0Zm-.11.23h0C2.31,2.62,2.31,2.6,2.25,2.62Z" transform="translate(-0.43 0)"/>
                        <path d="M3.21,45.61c.26,0,.39.11.32.19v.09A.15.15,0,0,1,3.6,46v.15s-.06,0-.13,0l-.56,0c-.19,0-.13,0-.13-.05V46s0,0,.06-.05,0-.14,0-.21-.07,0-.13,0a.22.22,0,0,1,.06-.18s0,0-.07,0-.06,0-.06,0,0,0,.06,0a1.05,1.05,0,0,1,.31,0,.32.32,0,0,0,.17,0h0c.06,0,.19,0,.18-.07s.07,0,.13,0l.06,0v0s-.07.07-.06.1C3.2,45.52,3.27,45.57,3.21,45.61Z" transform="translate(-0.43 0)"/>
                        <path d="M2.69,4.55A1.25,1.25,0,0,1,3,4.62c.07,0-.19,0-.25.09a.77.77,0,0,0-.37,0c-.12,0-.13,0-.13,0v0h0a1.21,1.21,0,0,1-.38,0l-.06,0v0c.09-.05.09-.11,0-.16s.05-.1.12-.14.06,0,.12,0,.07,0,0,0-.12,0-.06,0S2,4.13,2,4.11a2.44,2.44,0,0,0,.62-.05.81.81,0,0,1,.31,0H3c.11,0,.18,0,.19.07s-.07.06-.19.07l-.12,0c-.06,0,.06,0,.06.07v0c-.06,0-.12,0-.06,0s0,.08-.06.11-.13,0-.12.08Zm-.26-.23.13,0h.06l.06,0S2.56,4.31,2.43,4.32Zm-.17.22s-.07,0-.07,0H2.13s0,0,.06,0,.07,0,.07,0Zm.24,0h0l-.06,0H2.5Z" transform="translate(-0.43 0)"/>
                        <path d="M3,47.15v0c-.1-.06-.15-.13-.14-.2s0-.06-.06-.08v-.06c.1,0,.1-.08,0-.12v0q.08,0,.06-.09v-.18c-.06,0,.06-.07.25-.07a4.17,4.17,0,0,0,.5,0v.05c-.06,0-.06,0,0,.06l.13,0c-.05,0-.07.07-.06.1a.1.1,0,0,1-.06.11v0c.07,0,.13,0,.07.07s0,0,0,.08.07.09.07.14l-.06,0c-.25,0-.25,0-.25.09s.07,0,.19.07a.83.83,0,0,1-.31,0,.21.21,0,0,0-.19,0C3.08,47.12,3,47.13,3,47.15Zm.28-.81s0,0-.06,0H3.11c.07,0,.07,0,.13,0Zm-.06.2h0C3.29,46.55,3.29,46.55,3.22,46.54Z" transform="translate(-0.43 0)"/>
                        <path d="M6.75,74.31l.13,0c.06,0,.25,0,.19.1s-.06,0-.12,0-.06,0,0,0v0c.17,0,.2.1.08.15H7s-.06.07,0,.1v0s0,.05-.12.05A.75.75,0,0,0,6.7,75l.25,0h.11v0a1.87,1.87,0,0,1-.37.07h0l-.13,0c0-.06,0-.12.12-.17v0c-.06,0-.19,0-.19,0a.86.86,0,0,1-.25-.1c-.06,0-.06-.08,0-.11s.08-.06.06-.09.12,0,.06,0a.22.22,0,0,1-.13-.07v0c.1,0,.13-.07.06-.11s0,0,.06,0a2.44,2.44,0,0,0,.31-.11s0,0,.06,0,.13,0,.13.06-.06.13-.06.13v0C6.82,74.33,6.75,74.33,6.75,74.31Z" transform="translate(-0.43 0)"/>
                        <path d="M2.91,3.67c.06,0,.06,0,0,0a.83.83,0,0,0-.31.12H2.54c-.13,0-.12.06-.25.07S2,3.83,2.1,3.8s.06,0,.06,0,0-.06-.07-.07-.09,0-.09,0-.13,0-.07-.07A.15.15,0,0,0,2,3.43s0,0,0-.05a3.2,3.2,0,0,0,.44,0v0H2.38c-.19,0-.19-.06-.19-.11l.19,0h.37c.07,0,.12,0,.13,0h0c0,.07.07.12-.12.17,0,0-.06,0-.06,0,.19.07.13.12.2.15H2.66v0l.06,0ZM2.4,3.59h0q-.09,0,0,0s0,0,0,0Zm.25-.09H2.59v0h.06Z" transform="translate(-0.43 0)"/>
                        <path d="M1.45,17.83h.19l.44,0a.28.28,0,0,0,.18,0h.13v.06s-.06,0-.06.05-.06.12-.05.19l-.44,0H1.59c-.06,0-.19,0-.13-.07s0-.06-.06-.09-.08,0-.07-.07.06-.05.19-.07C1.39,17.86,1.39,17.86,1.45,17.83ZM1.9,18s0,0-.07,0S1.9,18,1.9,18Z" transform="translate(-0.43 0)"/>
                        <path d="M7.12,97.51c.07,0,.07,0,.13.07s.13.13,0,.19A.84.84,0,0,0,7,98s-.06,0-.13,0H6.77c-.12,0-.25-.06-.19-.12a.63.63,0,0,1,.18-.24s0-.07-.07-.09,0,0,.06,0A1.18,1.18,0,0,1,7.12,97.51Z" transform="translate(-0.43 0)"/>
                        <path d="M6.54,98.41s0-.06-.07-.07v0c.15,0,.15-.13,0-.19v0s.06,0,.06,0H6.6v0s0,.09.13.12a.08.08,0,0,1,.06.09.12.12,0,0,0,0,.19v0H6.73s-.13,0-.19-.07S6.54,98.43,6.54,98.41Z" transform="translate(-0.43 0)"/>
                        <path d="M6.28,99.6s.06-.07.18-.07h.06c.07,0,.13,0,.13,0s0,.07-.1.09h0l-.19,0S6.28,99.63,6.28,99.6Z" transform="translate(-0.43 0)"/>
                        <path d="M6.63,99.07h0C6.5,99,6.5,99,6.44,99s-.07,0,.06-.08.12,0,.12,0l.07.09C6.75,99,6.69,99.05,6.63,99.07Z" transform="translate(-0.43 0)"/>
                        <path d="M6.92,73.86a.25.25,0,0,0-.13-.15s-.07,0-.07-.06l.07,0s.06,0,.06,0,.06,0,0,0,0,.06.07.09S7,73.8,6.92,73.86Z" transform="translate(-0.43 0)"/>
                        <path d="M6.45,99.35c.13,0,.13,0,.12-.07s0,0,.07,0h.12s0,.07-.06.09a.32.32,0,0,1-.21,0h0Z" transform="translate(-0.43 0)"/>
                        <path d="M2.17,4V4a.42.42,0,0,1-.21,0h0C1.86,4,1.79,4,1.86,4V4h.06A.48.48,0,0,0,2.17,4Z" transform="translate(-0.43 0)"/>
                        <path d="M5.41,61.88c.06,0,.06.07.13.12s0,0-.07,0H5.41c-.06,0-.06,0-.12,0S5.47,61.92,5.41,61.88Z" transform="translate(-0.43 0)"/>
                        <path d="M1,31.33s-.1,0-.1,0a.51.51,0,0,1-.18,0s0,0,0,0h0A.86.86,0,0,1,1,31.33Z" transform="translate(-0.43 0)"/>
                        <path d="M1,31.17s0,0-.12,0H.71v0Z" transform="translate(-0.43 0)"/>
                        <path d="M5.14,61.46l.18-.05h.07v0s0,0-.13.07H5.14C5.2,61.48,5.2,61.48,5.14,61.46Z" transform="translate(-0.43 0)"/>
                        <g class="cls-9">
                            <path d="M6.29,100s.06,0,.13,0h.06v0Z" transform="translate(-0.43 0)"/>
                        </g>
                        <path d="M6.55,98.72l.19,0H6.68Z" transform="translate(-0.43 0)"/>
                        <path d="M1.31,30.63v0l.06,0c.06,0,.13,0,.06,0s0,0-.06,0S1.37,30.61,1.31,30.63Z" transform="translate(-0.43 0)"/>
                        <path d="M1.45,16.25s-.07,0-.07,0H1.26c-.06,0,0,0,.06,0Z" transform="translate(-0.43 0)"/>
                        <path d="M1.39,25.17s0,0,.06-.05h0s-.06,0-.06,0Z" transform="translate(-0.43 0)"/>
                        <path d="M7.37,93V93H7.31l-.07,0S7.3,93,7.37,93Z" transform="translate(-0.43 0)"/>
                        <path d="M6.17,68.14v-.09c.06,0,.06,0,.06,0S6.11,68.12,6.17,68.14Z" transform="translate(-0.43 0)"/>
                        <path d="M2.61,40.4v0H2.55S2.58,40.4,2.61,40.4Z" transform="translate(-0.43 0)"/>
                        <path d="M2.26,13.49s0,0,.07,0h.06C2.33,13.45,2.26,13.47,2.26,13.49Z" transform="translate(-0.43 0)"/>
                        <path d="M2.79,44.56a.27.27,0,0,1-.13,0c-.06,0-.06,0,0,0l.12,0c-.06,0-.06,0,0,.07Z" transform="translate(-0.43 0)"/>
                        <path d="M7.21,76.28h0c.07,0,0,0,0,0S7.15,76.28,7.21,76.28Z" transform="translate(-0.43 0)"/>
                        <path d="M2.07,19.24l-.07,0s0,0,0,0H2S2.07,19.24,2.07,19.24Z" transform="translate(-0.43 0)"/>
                        <path d="M1.92,17C2,17,2,17,2.1,17h.06s0,0-.06,0Z" transform="translate(-0.43 0)"/>
                        <path d="M4.49,55.13h.06S4.55,55.13,4.49,55.13Z" transform="translate(-0.43 0)"/>
                        <path d="M8.08,89.29v-.05c.06,0,.06,0,.06,0S8.08,89.27,8.08,89.29Z" transform="translate(-0.43 0)"/>
                        <path d="M2.31,14.48c.12,0,.12,0,.06.06H2.31Z" transform="translate(-0.43 0)"/>
                        <path d="M7,79.63H6.92s0,0,.06,0Z" transform="translate(-0.43 0)"/>
                        <path d="M3.94,49.68l.07,0C4.07,49.68,4.07,49.68,3.94,49.68Z" transform="translate(-0.43 0)"/>
                        <path d="M.9,32.66v0C1,32.64.9,32.64.9,32.66Z" transform="translate(-0.43 0)"/>
                        <path d="M7.28,76.44h.06S7.34,76.44,7.28,76.44Z" transform="translate(-0.43 0)"/>
                        <path d="M7.14,78.92s0,0,.06,0S7.14,78.91,7.14,78.92Z" transform="translate(-0.43 0)"/>
                        <path d="M7.14,78.91v0H7l.19,0Z" transform="translate(-0.43 0)"/>
                        <path d="M1.67,23v0C1.73,23,1.73,23,1.67,23Z" transform="translate(-0.43 0)"/>
                        <path d="M7.06,97.39l-.07,0v0Z" transform="translate(-0.43 0)"/>
                        <path d="M2.17,4l.06,0Z" transform="translate(-0.43 0)"/>
                    </g>
                </g>
            </g>
        </g>
    </g>
</svg>