<?xml version="1.0" encoding="UTF-8"?><svg xmlns="http://www.w3.org/2000/svg" xmlns:xlink="http://www.w3.org/1999/xlink" width="375pt" zoomAndPan="magnify" viewBox="0 0 375 374.999991" height="374.999991pt" preserveAspectRatio="xMidYMid meet" version="1.2"><defs><clipPath xml:id="clip1" id="clip1"><path d="M 200 97.5 L 300 97.5 L 300 277 L 200 277 Z M 200 97.5 "/></clipPath><clipPath xml:id="clip2" id="clip2"><path d="M 78 185 L 79 185 L 79 187.25 L 78 187.25 Z M 78 185 "/></clipPath><clipPath xml:id="clip3" id="clip3"><path d="M 75.761719 97.5 L 177 97.5 L 177 277.5 L 75.761719 277.5 Z M 75.761719 97.5 "/></clipPath><clipPath xml:id="clip4" id="clip4"><path d="M 134 277 L 139.882812 277 L 139.882812 277.5 L 134 277.5 Z M 134 277 "/></clipPath></defs><g xml:id="surface1" id="surface1"><path style=" stroke:none;fill-rule:nonzero;fill:rgb(0%,0%,0%);fill-opacity:1;" d="M 264.28125 174.238281 C 264.28125 174.238281 264.300781 174.238281 264.300781 174.238281 C 264.320312 174.316406 264.339844 174.414062 264.359375 174.472656 L 264.28125 174.238281 "/><path style=" stroke:none;fill-rule:nonzero;fill:rgb(0%,0%,0%);fill-opacity:1;" d="M 255.945312 237.367188 C 255.945312 237.367188 255.90625 237.347656 255.886719 237.367188 C 255.847656 237.191406 255.886719 237.25 255.945312 237.367188 "/><path style=" stroke:none;fill-rule:nonzero;fill:rgb(0%,0%,0%);fill-opacity:1;" d="M 81.410156 205.480469 C 81.238281 205.1875 81.023438 204.9375 80.847656 204.664062 C 81.082031 204.878906 81.316406 205.089844 81.546875 205.304688 L 81.410156 205.480469 "/><path style=" stroke:none;fill-rule:nonzero;fill:rgb(0%,0%,0%);fill-opacity:1;" d="M 207.820312 156.476562 C 207.722656 155.816406 207.683594 155.152344 207.644531 154.507812 C 207.722656 154.703125 207.78125 154.957031 207.839844 155.289062 L 207.820312 156.476562 "/><path style=" stroke:none;fill-rule:nonzero;fill:rgb(0%,0%,0%);fill-opacity:1;" d="M 296.363281 185.886719 C 296.402344 185.75 296.460938 185.632812 296.554688 185.613281 C 296.554688 185.632812 296.574219 185.671875 296.574219 185.710938 L 296.402344 186.355469 L 296.363281 185.886719 "/><path style=" stroke:none;fill-rule:nonzero;fill:rgb(0%,0%,0%);fill-opacity:1;" d="M 210.527344 221.882812 C 210.757812 222.972656 211.1875 223.535156 211.578125 224.53125 C 211.636719 227.003906 210.15625 219.816406 210.585938 223.304688 C 210.292969 222.289062 210.136719 221.453125 210 220.691406 L 211.011719 221.957031 C 211.382812 224.042969 210.429688 220.691406 210.527344 221.882812 "/><path style=" stroke:none;fill-rule:nonzero;fill:rgb(0%,0%,0%);fill-opacity:1;" d="M 285.804688 192.082031 L 286.273438 192.042969 C 285.941406 192.316406 286.234375 192.414062 284.402344 192.488281 C 282.863281 192.023438 285.316406 191.457031 282.589844 190.894531 C 283.117188 190.953125 283.914062 190.972656 284.65625 190.933594 C 283.527344 191.28125 284.617188 191.710938 285.804688 192.082031 "/><path style=" stroke:none;fill-rule:nonzero;fill:rgb(0%,0%,0%);fill-opacity:1;" d="M 284.65625 190.933594 L 284.734375 190.914062 C 284.851562 190.855469 284.988281 190.816406 285.144531 190.777344 C 285.53125 190.777344 285.921875 190.777344 286.234375 190.738281 C 285.921875 190.835938 285.316406 190.914062 284.65625 190.933594 "/><path style=" stroke:none;fill-rule:nonzero;fill:rgb(0%,0%,0%);fill-opacity:1;" d="M 220.808594 257.078125 C 220.925781 257.523438 221.003906 257.933594 221.082031 258.304688 C 220.867188 257.71875 220.808594 257.367188 220.808594 257.078125 "/><path style=" stroke:none;fill-rule:nonzero;fill:rgb(0%,0%,0%);fill-opacity:1;" d="M 200.242188 107.785156 C 200.242188 106.34375 200.320312 105.640625 200.398438 105.214844 C 200.339844 106.128906 200.28125 107.023438 200.242188 107.785156 "/><path style=" stroke:none;fill-rule:nonzero;fill:rgb(0%,0%,0%);fill-opacity:1;" d="M 296.652344 173.109375 C 296.613281 172.683594 296.554688 172.253906 296.515625 171.804688 C 296.515625 171.511719 296.515625 171.28125 296.535156 170.949219 L 296.652344 173.109375 "/><path style=" stroke:none;fill-rule:nonzero;fill:rgb(0%,0%,0%);fill-opacity:1;" d="M 209.921875 220.59375 C 209.921875 220.59375 209.960938 220.574219 209.980469 220.554688 C 209.980469 220.613281 210 220.632812 210 220.691406 L 209.921875 220.59375 "/><path style=" stroke:none;fill-rule:nonzero;fill:rgb(0%,0%,0%);fill-opacity:1;" d="M 296.421875 188.769531 C 296.460938 189.375 296.496094 189.957031 296.535156 190.484375 C 296.554688 191.011719 296.59375 191.457031 296.050781 191.164062 C 296.515625 191.339844 296.382812 190.855469 296.382812 190.542969 L 296.34375 189.53125 L 296.265625 187.523438 L 296.109375 183.726562 L 296.363281 185.886719 C 296.207031 186.433594 296.324219 187.5625 296.421875 188.769531 "/><g clip-rule="nonzero" clip-path="url(#clip1)"><path style=" stroke:none;fill-rule:nonzero;fill:rgb(0%,0%,0%);fill-opacity:1;" d="M 201.546875 154.878906 C 201.566406 155.328125 201.585938 155.660156 201.605469 156.046875 C 201.625 155.621094 201.625 155.171875 201.625 154.742188 C 201.605469 154.78125 201.566406 154.839844 201.546875 154.878906 Z M 269.464844 184.933594 C 264.847656 180.960938 260.914062 176.109375 256.433594 172.292969 C 256.277344 172.507812 256.726562 173.617188 255.789062 173.148438 C 252.90625 168.53125 248.292969 168.882812 248.371094 164.890625 C 248.097656 164.832031 247.511719 165.222656 247.746094 165.765625 C 239.898438 157.644531 231.445312 149.835938 222.835938 142.335938 C 228.71875 148.839844 234.5625 155.367188 240.191406 161.8125 L 240.539062 161.40625 C 247.511719 169.859375 255.246094 177.296875 262.898438 184.835938 C 263.074219 184.816406 263.230469 184.816406 263.386719 184.816406 C 265.53125 184.738281 267.554688 184.796875 269.464844 184.933594 Z M 290.578125 171.492188 C 283.449219 164.792969 276.59375 157.800781 270.125 149.738281 C 269.96875 149.953125 269.738281 149.933594 270.105469 150.417969 C 265.394531 145.335938 260.113281 141.753906 255.695312 136.921875 L 255.539062 137.117188 C 246.65625 126.324219 234.734375 117.445312 225.269531 107.414062 C 221.003906 107.414062 216.738281 107.414062 212.453125 107.414062 C 212.785156 107.84375 213.15625 108.25 213.449219 108.699219 C 215.335938 110.589844 217.246094 112.554688 219.152344 114.5625 C 219.191406 114.621094 219.25 114.660156 219.289062 114.71875 L 219.621094 114.289062 C 230.296875 125.429688 243.34375 133.144531 254.039062 144.207031 C 266.464844 154.042969 275.929688 168.359375 288.511719 178.195312 C 289.351562 178.660156 290.128906 179.285156 290.90625 179.867188 C 290.792969 177.0625 290.675781 174.277344 290.578125 171.492188 Z M 261.03125 133.261719 L 261.359375 134.214844 L 259.394531 131.566406 C 259.003906 131.175781 258.613281 130.785156 258.246094 130.398438 C 258.226562 130.535156 258.265625 130.6875 258.324219 130.84375 C 253.023438 127.144531 249.1875 121.496094 244.472656 117.386719 C 244.320312 117.601562 244.648438 118.632812 243.8125 118.242188 C 241.4375 114.015625 237.09375 114.5625 237.460938 110.785156 C 237.210938 110.726562 236.644531 111.132812 236.820312 111.640625 C 235.496094 110.199219 234.09375 108.816406 232.710938 107.414062 C 231.660156 107.414062 230.605469 107.414062 229.554688 107.414062 C 230.585938 108.5625 231.601562 109.730469 232.496094 110.996094 L 232.828125 110.570312 C 241.203125 120.832031 252.8125 128.761719 262.53125 138.285156 C 266.835938 141.945312 269.191406 145.023438 273.339844 148.898438 L 273.90625 148.492188 C 276.183594 152.132812 279.59375 154.878906 283.117188 157.527344 C 275.8125 149.464844 268.546875 141.265625 261.03125 133.261719 Z M 263.660156 116.042969 L 263.875 116.976562 L 261.457031 113.375 C 261.285156 113.589844 261.320312 113.820312 261.398438 114.035156 C 258.75 112.246094 256.628906 109.808594 254.523438 107.414062 C 254.464844 107.414062 254.40625 107.414062 254.367188 107.414062 C 249.695312 107.414062 245 107.414062 240.324219 107.414062 C 250.316406 117.835938 261.59375 126.578125 271.410156 137.214844 C 276.515625 141.539062 281.519531 145.980469 286.234375 150.867188 C 287.539062 151.9375 288.785156 153.066406 290.050781 154.21875 C 289.992188 150.535156 289.972656 146.894531 289.992188 143.289062 C 281.460938 134.039062 272.949219 124.613281 263.660156 116.042969 Z M 290.109375 134.546875 L 289.195312 133.242188 C 289.039062 133.453125 289.097656 133.707031 289.175781 133.960938 C 284.167969 130.320312 280.703125 124.808594 276.28125 120.792969 C 276.261719 120.8125 276.261719 120.890625 276.242188 120.96875 C 276.515625 121.203125 276.789062 121.4375 277.058594 121.671875 C 278.035156 123.113281 279.125 124.457031 280.253906 125.800781 C 281.929688 127.398438 283.585938 129.054688 285.164062 130.785156 C 286.875 132.226562 288.492188 133.765625 290.089844 135.363281 C 290.089844 135.089844 290.089844 134.816406 290.109375 134.546875 Z M 269.152344 114.894531 C 269.347656 115.070312 269.542969 115.242188 269.757812 115.417969 C 269.699219 115.105469 269.679688 114.757812 269.738281 114.328125 C 269.542969 114.289062 269.25 114.5625 269.152344 114.894531 Z M 261.730469 107.433594 C 261.476562 107.433594 261.226562 107.433594 260.972656 107.433594 C 263.074219 109.363281 265.121094 111.328125 267.261719 113.21875 C 265.492188 111.25 263.601562 109.363281 261.730469 107.433594 Z M 284.324219 112.265625 L 284.578125 113.199219 L 282.027344 109.554688 C 281.851562 109.769531 281.910156 110.003906 281.988281 110.238281 C 280.800781 109.441406 279.726562 108.484375 278.675781 107.492188 L 277.566406 107.492188 C 281.792969 111.09375 286.039062 114.660156 290.148438 118.4375 C 290.148438 118.261719 290.148438 118.066406 290.148438 117.875 C 288.21875 116.003906 286.3125 114.074219 284.324219 112.265625 Z M 287.96875 107.492188 L 284.402344 107.492188 C 286.351562 109.167969 288.296875 110.859375 290.285156 112.515625 C 290.304688 111.640625 290.34375 110.765625 290.363281 109.886719 C 289.5625 109.089844 288.765625 108.289062 287.96875 107.492188 Z M 290.34375 127.242188 L 290.050781 127.28125 C 290.050781 126.558594 290.050781 125.859375 290.070312 125.136719 C 284.8125 119.703125 279.515625 114.308594 273.945312 109.207031 L 274.214844 110.160156 L 272.328125 107.472656 C 270.554688 107.453125 268.761719 107.453125 266.988281 107.453125 C 270.90625 111.386719 274.839844 115.339844 278.636719 119.238281 L 278.96875 118.828125 C 282.511719 122.820312 286.351562 126.441406 290.246094 130.007812 C 290.285156 129.09375 290.304688 128.136719 290.34375 127.242188 Z M 207.253906 173.421875 C 207.332031 173.597656 207.332031 173.773438 207.351562 173.949219 C 207.410156 174.007812 207.46875 174.066406 207.527344 174.105469 L 207.605469 171.046875 L 207.214844 170.539062 C 207.175781 171.785156 207.15625 172.796875 207.15625 173.753906 C 207.175781 173.773438 207.195312 173.792969 207.214844 173.8125 C 207.214844 173.65625 207.234375 173.519531 207.253906 173.421875 Z M 207.703125 181.503906 C 207.742188 180.609375 207.878906 179.984375 208.148438 179.808594 C 207.933594 179.636719 207.761719 179.460938 207.546875 179.265625 C 207.585938 180.042969 207.644531 180.785156 207.703125 181.503906 Z M 211.480469 201.273438 C 211.5 201.625 211.578125 201.878906 211.636719 202.171875 C 215.746094 205.832031 219.816406 209.570312 223.632812 213.660156 C 237.5 225.464844 248.351562 241.84375 262.511719 253.570312 C 263.074219 253.921875 263.621094 254.367188 264.164062 254.777344 C 263.855469 253.375 263.484375 251.875 262.957031 250.179688 L 262.78125 250.492188 C 262.761719 250.238281 262.707031 249.949219 262.6875 249.675781 C 258.828125 245.117188 254.972656 240.539062 250.863281 236.15625 C 248.664062 229.886719 241.359375 226.710938 237.09375 220.808594 C 236.996094 220.828125 236.9375 220.90625 236.917969 221.003906 C 236.546875 220.304688 236.058594 219.542969 235.535156 218.785156 C 229.222656 212.316406 222.992188 205.675781 216.757812 198.957031 C 215.0625 197.222656 213.371094 195.46875 211.675781 193.699219 C 210.816406 192.898438 209.941406 192.121094 209.066406 191.320312 C 209.085938 191.359375 209.085938 191.378906 209.085938 191.417969 C 209.394531 192.605469 209.765625 193.871094 209.863281 194.808594 C 209.980469 194.046875 210.914062 197.339844 211.441406 198.605469 Z M 216.875 217.636719 C 217.148438 218.882812 217.421875 219.953125 217.695312 221.101562 C 219.855469 223.109375 221.84375 225.25 223.417969 227.78125 L 223.515625 226.59375 C 223.75 228.796875 228.640625 230.78125 226.457031 232.105469 L 228.367188 232.886719 C 231.484375 240.34375 239.195312 241.066406 244.203125 248.953125 L 244.183594 248.117188 C 245.605469 250.121094 247.355469 252.34375 249.011719 253.199219 C 248.875 252.945312 249.089844 252.90625 248.777344 252.402344 C 255.5 255.867188 259.6875 263.035156 265.082031 268.449219 C 265.375 268.449219 265.644531 268.449219 265.878906 268.429688 L 265.9375 267.808594 C 266.035156 268.023438 266.25 268.238281 266.367188 268.449219 C 266.386719 268.449219 266.425781 268.449219 266.445312 268.449219 L 266.988281 268.507812 C 267.203125 268.507812 267.417969 268.507812 267.59375 268.46875 C 267.652344 268.277344 267.378906 267.925781 267.222656 267.710938 C 267.378906 267.828125 267.613281 267.847656 267.75 267.59375 C 267.808594 267.4375 267.886719 267.417969 267.828125 267.027344 C 267.75 266.445312 267.613281 265.839844 267.457031 265.316406 C 267.027344 264.144531 266.835938 263.855469 266.816406 264.691406 L 266.425781 261.867188 C 266.09375 261.226562 265.839844 260.5625 265.585938 259.902344 C 263.875 258.652344 261.847656 257.777344 260.464844 256.101562 C 260.289062 256.316406 260.289062 256.316406 260.445312 256.824219 C 259.003906 254.386719 255.5 253.785156 254.078125 250.609375 L 253.648438 250.785156 L 252.597656 248.914062 C 252.246094 249.34375 251.738281 249.96875 252.65625 250.609375 C 239.429688 238.242188 227.082031 224.316406 214.128906 210.933594 C 215.003906 213.46875 216.15625 216.3125 216.875 217.636719 Z M 258.421875 268.898438 C 258.515625 268.839844 258.554688 268.78125 258.5 268.703125 C 259.21875 268.644531 259.804688 268.625 260.445312 268.605469 C 257.289062 265.566406 254.136719 262.53125 250.863281 259.609375 C 246.910156 255.925781 243.035156 252.402344 239.175781 248.914062 C 245.546875 255.597656 251.71875 262.628906 258.421875 268.898438 Z M 244.4375 270.105469 C 245.136719 270.300781 245.894531 270.398438 246.65625 270.457031 C 246.65625 270.398438 246.636719 270.359375 246.636719 270.320312 C 246.578125 270.28125 246.519531 270.222656 246.460938 270.183594 C 245.078125 270.125 243.714844 270.085938 242.234375 270.027344 C 242.273438 270.066406 242.332031 270.105469 242.390625 270.144531 Z M 241.554688 269.523438 L 243.207031 269.679688 L 242.585938 269.367188 C 244.804688 269.210938 244.804688 269.582031 245.953125 269.71875 C 245.820312 269.308594 245.683594 268.917969 245.566406 268.46875 C 243.8125 266.894531 242.019531 265.316406 240.230469 263.796875 C 235.808594 259.863281 231.503906 256.160156 227.257812 252.480469 C 227.683594 254.328125 228.09375 256.199219 228.503906 258.089844 C 232.691406 262.140625 236.996094 266.035156 241.554688 269.523438 Z M 230.722656 270.046875 C 230.742188 270.046875 230.761719 270.046875 230.800781 270.046875 C 230.625 269.871094 230.46875 269.71875 230.296875 269.5625 C 230.390625 269.773438 230.527344 269.929688 230.722656 270.046875 Z M 235.984375 270.125 L 235.867188 269.929688 C 235.789062 269.929688 235.710938 269.949219 235.652344 269.949219 C 235.730469 270.066406 235.828125 270.203125 235.90625 270.300781 C 236.175781 270.339844 236.46875 270.339844 236.742188 270.359375 C 236.625 270.203125 236.507812 270.085938 236.390625 269.910156 Z M 235.613281 269.890625 C 235.671875 269.890625 235.75 269.890625 235.828125 269.890625 L 234.773438 268.351562 C 234.734375 268.410156 234.695312 268.488281 234.636719 268.566406 C 234.949219 269.015625 235.28125 269.464844 235.613281 269.890625 Z M 257.855469 238.710938 C 258.828125 239.800781 259.609375 241.28125 260.386719 242.351562 C 260.289062 241.84375 260.191406 241.359375 260.09375 240.871094 C 259.335938 240.171875 258.59375 239.429688 257.855469 238.710938 Z M 257.503906 238.359375 C 256.746094 237.636719 255.964844 236.898438 255.207031 236.136719 C 255.34375 236.761719 255.34375 237.597656 255.808594 238.007812 C 256.082031 237.988281 256.003906 237.578125 255.945312 237.367188 C 256.53125 237.519531 257.039062 237.910156 257.503906 238.359375 Z M 253.003906 234.074219 C 253.726562 234.96875 254.40625 235.867188 255.148438 236.742188 C 255.089844 236.566406 255.226562 236.332031 255.207031 236.136719 C 254.933594 235.867188 254.640625 235.613281 254.367188 235.320312 C 253.863281 234.96875 253.414062 234.523438 253.003906 234.074219 Z M 209.046875 172.875 L 209.125 173.089844 L 209.066406 173.011719 C 209.164062 173.890625 209.242188 174.824219 209.335938 175.816406 C 209.453125 175.914062 209.570312 176.011719 209.667969 176.128906 C 214.34375 180.160156 216.972656 183.472656 221.472656 187.71875 L 222.054688 187.328125 C 227.9375 196.328125 239.605469 200.75 245.546875 210.3125 L 245.625 209.472656 C 233.644531 196.96875 221.726562 184.152344 208.988281 172.253906 C 209.007812 172.449219 209.027344 172.683594 209.046875 172.875 Z M 208.949219 172.605469 C 208.949219 172.46875 208.96875 172.371094 208.96875 172.234375 C 208.890625 172.15625 208.8125 172.097656 208.734375 172.019531 Z M 208.382812 174.746094 C 208.070312 172.292969 207.953125 173.363281 207.800781 174.355469 C 208.128906 174.6875 208.480469 175 208.8125 175.3125 C 208.871094 174.53125 208.929688 173.714844 208.929688 172.835938 L 208.539062 172.292969 C 208.519531 172.992188 208.480469 173.792969 208.382812 174.746094 Z M 207.605469 171.066406 C 207.820312 174.648438 207.800781 173.109375 207.894531 171.453125 Z M 260.328125 233.332031 L 260.113281 231.035156 C 259.996094 230.605469 259.902344 230.335938 259.824219 230.121094 C 259.707031 230.003906 259.570312 229.90625 259.453125 229.789062 C 259.277344 230.003906 259.179688 230.839844 259.140625 231.40625 C 259.140625 230.722656 259.042969 230.003906 258.925781 229.320312 C 258.554688 228.972656 258.167969 228.640625 257.796875 228.289062 L 257.621094 229.28125 C 257.5625 228.914062 257.425781 228.171875 257.230469 227.898438 C 257.230469 227.859375 257.25 227.839844 257.25 227.800781 C 243.402344 215.335938 230.277344 203.417969 218.140625 188.4375 C 217.984375 188.652344 217.730469 188.613281 218.160156 189.160156 C 215.335938 186.140625 212.394531 183.570312 209.492188 181.019531 C 209.472656 181.25 209.492188 181.503906 209.472656 181.738281 L 208.578125 181.914062 C 208.578125 182.519531 208.558594 182.984375 208.5 183.394531 C 211.265625 185.984375 213.972656 188.613281 216.5625 191.417969 C 223.515625 197.4375 229.691406 204.605469 235.90625 211.773438 C 238.730469 214.460938 241.027344 217.011719 244.320312 220.070312 L 244.902344 219.660156 C 248.3125 224.800781 253.667969 228.289062 258.75 232.164062 C 258.632812 231.191406 258.554688 230.238281 258.226562 228.699219 C 258.632812 229.691406 258.789062 231.074219 259.0625 232.398438 C 259.589844 232.808594 260.09375 233.179688 260.601562 233.585938 C 260.484375 233.214844 260.445312 233.507812 260.328125 233.332031 Z M 248.605469 214.636719 L 250.511719 215.414062 C 251.796875 218.511719 253.902344 220.441406 256.257812 222.210938 C 256.003906 221.296875 255.808594 220.441406 255.636719 219.601562 C 252.363281 216.328125 249.070312 213.078125 245.839844 209.707031 C 246.714844 211.675781 250.570312 213.410156 248.605469 214.636719 Z M 256.335938 220.925781 C 256.335938 220.730469 256.296875 220.480469 256.257812 220.246094 C 256.179688 220.167969 256.101562 220.089844 256.023438 220.011719 C 256.121094 220.304688 256.199219 220.613281 256.335938 220.925781 L 256.375 222.308594 C 256.53125 222.40625 256.648438 222.523438 256.804688 222.621094 Z M 252.167969 206.339844 C 248.738281 202.8125 245.351562 199.230469 242 195.429688 C 241.863281 195.644531 241.59375 195.585938 242.117188 196.210938 C 235.808594 189.820312 229.125 185.070312 223.226562 179.011719 L 223.070312 179.226562 C 218.53125 174.160156 213.488281 169.390625 208.324219 164.695312 C 208.480469 165.746094 208.636719 166.722656 208.890625 166.351562 C 208.851562 166.664062 208.832031 166.878906 208.792969 167.167969 C 217.867188 175.214844 227.179688 182.90625 235.613281 191.847656 C 242.019531 197.339844 247.902344 203.652344 253.726562 210.117188 C 253.296875 208.558594 252.8125 207.839844 252.207031 206.609375 C 252.207031 206.511719 252.167969 206.417969 252.167969 206.339844 Z M 207.46875 144.402344 C 207.46875 144.285156 207.46875 144.148438 207.46875 144.011719 C 207.234375 143.796875 207 143.5625 206.765625 143.347656 C 206.746094 143.464844 206.726562 143.601562 206.707031 143.738281 C 206.960938 143.953125 207.214844 144.167969 207.46875 144.402344 Z M 207.488281 144.03125 C 207.488281 144.167969 207.488281 144.285156 207.488281 144.421875 C 210.019531 146.601562 212.511719 148.839844 214.851562 151.277344 C 215.882812 152.074219 216.835938 152.953125 217.828125 153.808594 C 214.441406 150.476562 210.972656 147.246094 207.488281 144.03125 Z M 230.976562 167.34375 C 230.703125 166.839844 230.546875 166.253906 230.585938 165.496094 C 230.355469 165.457031 229.886719 165.746094 229.925781 166.195312 C 230.277344 166.585938 230.625 166.957031 230.976562 167.34375 Z M 206.960938 155.464844 C 207.117188 157.722656 207.625 157.898438 207.722656 160.46875 L 207.992188 157.9375 C 208.265625 159.046875 208.148438 160.0625 208.011719 161.09375 C 215.765625 167.832031 223.886719 174.394531 231.386719 181.445312 C 236.957031 186.179688 240.171875 189.957031 245.605469 194.886719 L 246.1875 194.515625 C 247.414062 196.191406 248.816406 197.730469 250.296875 199.191406 C 250.21875 198.957031 250.140625 198.703125 250.066406 198.46875 C 249.832031 197.730469 249.675781 197.359375 249.382812 196.367188 C 249.050781 195.0625 248.71875 193.816406 248.390625 192.585938 C 247.902344 190.71875 247.589844 188.945312 247.355469 187.308594 C 246.597656 186.898438 245.875 186.453125 245.3125 185.789062 C 245.15625 185.984375 245.15625 185.984375 245.273438 186.433594 C 244.105469 184.386719 240.988281 184.25 239.878906 181.523438 L 239.488281 181.738281 L 238.652344 180.160156 C 238.320312 180.570312 237.832031 181.210938 238.59375 181.699219 C 227.859375 172.273438 217.945312 161.464844 207.625 151.042969 C 207.605469 152.191406 207.566406 153.359375 207.644531 154.507812 C 207.371094 153.808594 207.039062 154.003906 206.960938 155.464844 Z M 289.953125 185.925781 L 291.0625 185.925781 C 291.433594 186.003906 291.101562 185.398438 291.160156 185.207031 L 291.140625 184.972656 L 291.101562 184.289062 L 291.082031 183.863281 C 289.523438 182.828125 287.695312 182.1875 286.488281 180.746094 C 286.3125 180.960938 286.3125 180.960938 286.449219 181.425781 C 285.203125 179.265625 281.96875 178.992188 280.800781 176.148438 L 280.390625 176.34375 L 279.496094 174.6875 C 279.164062 175.097656 278.65625 175.738281 279.476562 176.265625 C 271.429688 168.902344 263.5625 161.113281 255.789062 153.085938 C 250.570312 147.710938 245.234375 142.433594 239.761719 137.273438 C 243.34375 141.324219 246.832031 145.375 250.277344 149.445312 C 256.472656 154.996094 262.648438 160.605469 268.316406 166.878906 C 268.722656 167.246094 269.113281 167.65625 269.523438 168.046875 C 274.976562 172.933594 280.371094 177.921875 285.414062 183.375 C 286.3125 184.171875 287.167969 185.050781 288.0625 185.867188 Z M 275.230469 185.011719 C 275.910156 184.953125 276.457031 184.933594 276.941406 184.953125 C 276.769531 184.738281 276.59375 184.503906 276.417969 184.289062 C 272.464844 180.6875 268.351562 177.296875 264.300781 174.238281 C 263.796875 172.683594 263.5625 170.617188 263.230469 168.746094 C 262.976562 168.476562 262.726562 168.203125 262.472656 167.910156 C 262.472656 168.027344 262.492188 168.144531 262.511719 168.261719 C 261.226562 167.207031 260.113281 165.980469 259.042969 164.695312 C 258.089844 164.09375 257.171875 163.449219 256.492188 162.554688 C 256.316406 162.75 256.316406 162.75 256.433594 163.253906 C 255.148438 160.898438 251.796875 160.292969 250.570312 157.238281 L 250.140625 157.410156 L 249.226562 155.601562 C 248.875 155.988281 248.371094 156.613281 249.207031 157.238281 C 240.851562 148.839844 232.710938 140 224.648438 130.921875 C 223.886719 130.066406 223.089844 129.207031 222.308594 128.351562 C 221.335938 127.691406 220.554688 127.046875 220.246094 126.054688 C 220.109375 125.917969 219.972656 125.78125 219.855469 125.644531 C 219.699219 125.488281 219.5625 125.351562 219.425781 125.195312 C 219.40625 125.273438 219.386719 125.351562 219.425781 125.429688 C 218.6875 124.59375 217.90625 123.773438 217.167969 122.957031 C 214.285156 120.132812 211.324219 117.40625 208.34375 114.660156 C 208.324219 115.03125 208.324219 115.4375 208.304688 115.769531 L 208.070312 114.386719 C 207.953125 114.289062 207.839844 114.171875 207.703125 114.054688 C 207.683594 115.320312 207.78125 116.722656 207.800781 117.660156 C 208.050781 117.113281 208.578125 118.984375 208.675781 117.875 C 208.167969 121.574219 208.285156 123.09375 208.5 124.417969 C 224.898438 138.929688 242.449219 155.113281 258.808594 170.734375 L 259.121094 170.304688 C 264.261719 175.542969 269.71875 180.335938 275.230469 185.011719 Z M 230.742188 155.582031 C 230.46875 155.503906 229.867188 155.855469 230.042969 156.378906 C 223.304688 147.964844 215.902344 139.882812 208.304688 132.050781 C 207.933594 133.628906 207.605469 136.007812 207.3125 138.578125 C 207.351562 138.617188 207.390625 138.65625 207.449219 138.714844 L 207.664062 138.421875 C 207.820312 138.578125 207.992188 138.695312 208.128906 138.851562 C 208.1875 138.089844 208.34375 137.234375 208.5 137.679688 C 208.421875 138.148438 208.402344 138.675781 208.363281 139.082031 C 216.972656 147.828125 227.023438 154.46875 236.117188 162.535156 C 233.722656 159.339844 230.277344 158.988281 230.742188 155.582031 Z M 241.632812 167.617188 C 240.382812 166.078125 239.097656 164.558594 237.734375 163.195312 C 237.636719 163.292969 237.675781 163.664062 237.597656 163.898438 C 238.652344 164.871094 239.722656 165.84375 240.734375 166.878906 C 241.046875 167.109375 241.339844 167.382812 241.632812 167.617188 Z M 238.085938 172.796875 C 237.929688 173.011719 238.300781 174.085938 237.421875 173.65625 C 235.964844 171.105469 233.9375 170.070312 232.457031 168.980469 C 237.113281 174.125 241.863281 179.167969 247.335938 183.21875 C 247.902344 183.511719 248.429688 183.921875 248.992188 184.289062 C 245.175781 180.570312 241.882812 176.246094 238.085938 172.796875 Z M 204.46875 99.175781 C 210.019531 99.117188 210.273438 99.15625 213.292969 99.546875 C 211.871094 99.332031 210.664062 99.660156 211.988281 99.933594 C 214.324219 99.71875 220.265625 99.953125 219.933594 99.214844 C 233.46875 99.214844 248.605469 99.214844 263.09375 99.234375 C 265.53125 99.605469 261.226562 99.371094 262.570312 99.640625 C 266.132812 100.148438 265.375 99.390625 268.21875 99.796875 L 267.046875 99.390625 C 271.273438 99.3125 275.773438 100.070312 279.863281 100.460938 C 279.183594 99.992188 283.234375 100.070312 279.824219 99.796875 C 281.832031 99.875 284.265625 97.792969 285.824219 98.21875 L 283.566406 100.148438 C 283.664062 100.34375 286.488281 100.226562 286.195312 100.363281 C 287.089844 100.167969 288.082031 99.972656 288.960938 99.796875 C 289.445312 99.71875 289.777344 99.640625 290.324219 99.605469 C 290.964844 99.546875 291.589844 99.527344 292.097656 99.527344 C 292.660156 99.273438 291.609375 99.175781 290.089844 99.15625 C 289.195312 99.15625 288.027344 99.15625 287.1875 99.15625 C 287.070312 98.746094 288.472656 98.609375 289.601562 98.492188 C 289.972656 98.414062 291.199219 98.355469 291.550781 98.277344 C 291.960938 98.183594 291.84375 98.066406 290.65625 97.871094 C 297.667969 98.007812 289.621094 98.296875 293.617188 98.589844 C 295.699219 98.394531 297.238281 98.980469 298.269531 99.835938 C 297.394531 99.195312 296.363281 98.785156 294.882812 98.707031 C 298.210938 99.621094 298.582031 100.832031 298.835938 104.277344 C 298.816406 105.097656 298.816406 105.953125 298.835938 107.003906 L 298.5625 108.464844 L 298.328125 109.34375 L 297.863281 111.113281 C 298.484375 111.503906 297.863281 113.722656 297.957031 115.574219 L 298.40625 114.445312 C 298.308594 116.878906 298.386719 117.835938 298.582031 119.371094 C 299.1875 118.007812 298.523438 117.152344 299.070312 116.566406 L 299.1875 119.257812 C 298.816406 119.238281 298.503906 120.949219 298.328125 119.023438 C 297.570312 121.496094 296.964844 122.859375 296.945312 129.132812 C 297.53125 131.953125 297.53125 126.09375 298.132812 127.261719 C 298.308594 133.785156 296.421875 135.207031 296.476562 139.023438 C 296.75 143.875 296.167969 143.601562 296.148438 148.53125 C 296.554688 146.972656 296.632812 151.976562 297.042969 152.875 L 297.472656 150.945312 C 297.355469 152.425781 297.53125 153.867188 297.84375 153.417969 C 297.257812 153.144531 297.394531 159.828125 297.179688 163.214844 L 296.671875 162.632812 C 296.554688 165.300781 296.324219 168.980469 296.515625 171.804688 C 296.476562 175.992188 296.011719 175.039062 295.5625 178.292969 C 296.070312 180.0625 296.574219 179.847656 297.101562 179.246094 C 296.808594 178.136719 296.90625 176.226562 296.710938 174.375 C 296.984375 169.078125 297.9375 164.949219 297.628906 159.671875 C 298.777344 157.351562 297.53125 163.234375 298.015625 165.785156 C 298.074219 165.707031 298.09375 165.535156 298.113281 165.320312 C 298.113281 165.554688 298.113281 165.765625 298.152344 165.960938 C 298.269531 164.074219 298.386719 160.996094 298.992188 160.46875 C 298.914062 163.625 297.84375 162.789062 298.425781 166.703125 C 298.152344 169.625 299.148438 171.980469 299.285156 173.734375 C 298.894531 175.679688 297.9375 175.796875 298.269531 180.570312 L 298.875 178.464844 C 298.953125 181.171875 298.738281 181.796875 298.503906 182.402344 C 298.40625 182.691406 298.289062 182.984375 298.210938 183.492188 C 298.171875 183.765625 298.152344 184.074219 298.132812 184.503906 C 298.152344 185.128906 298.171875 185.90625 298.191406 186.859375 C 298.015625 184.191406 297.609375 189.121094 297.433594 184.40625 C 297.296875 185.398438 297.257812 187.386719 297.277344 189.335938 L 297.316406 190.875 L 297.335938 191.652344 C 297.335938 191.925781 297.453125 192.277344 297.082031 192.140625 C 296.070312 192.121094 295.058594 192.101562 294.121094 192.082031 C 293.070312 191.925781 293.789062 191.828125 293.5 191.59375 C 295.191406 191.300781 297.550781 192.335938 296.90625 190.230469 C 296.945312 188.847656 296.964844 187.367188 296.574219 185.710938 C 296.789062 184.757812 297.003906 184.074219 297.21875 183.375 C 296.867188 180.589844 296.285156 180.316406 296.050781 182.050781 C 296.050781 181.25 296.128906 180.550781 295.992188 179.984375 C 294.882812 179.539062 296.476562 183.335938 295.601562 184.347656 L 295.601562 182.363281 C 295.328125 182.050781 295.191406 182.652344 295.152344 183.648438 C 295.171875 183.667969 295.191406 183.6875 295.210938 183.707031 L 295.210938 187.992188 C 295.230469 188.535156 295.25 189.0625 295.269531 189.492188 L 295.347656 190.074219 C 295.289062 190.171875 295.058594 190.132812 294.921875 190.152344 C 294.589844 190.171875 294.277344 190.191406 293.964844 190.191406 C 293.324219 190.230469 292.738281 190.269531 292.214844 190.289062 C 291.140625 190.367188 290.34375 190.503906 290.207031 190.738281 L 294.960938 191.203125 C 293.886719 191.359375 292.234375 191.203125 290.675781 191.011719 C 289.136719 190.835938 288.042969 190.640625 286.855469 190.601562 C 286.699219 190.660156 286.488281 190.699219 286.234375 190.738281 C 286.351562 190.699219 286.410156 190.640625 286.410156 190.601562 C 285.941406 190.601562 285.511719 190.660156 285.144531 190.777344 C 283.15625 190.71875 280.273438 190.347656 278.421875 190.464844 L 278.65625 190.015625 L 278.910156 190.269531 C 280.644531 190.289062 282.921875 190.09375 281.929688 189.761719 L 278.09375 189.761719 C 277 189.957031 276.476562 190.347656 275.910156 190.542969 C 276.84375 191.261719 279.902344 190.601562 281.96875 190.894531 C 280.703125 191.554688 277.820312 190.855469 273.59375 191.28125 C 275.269531 192.042969 278.480469 191.339844 279.398438 192.0625 C 276.007812 192.121094 275.132812 191.574219 271.566406 191.75 C 272.015625 192.101562 275.480469 192.160156 275.25 192.605469 L 272.96875 192.800781 C 278.578125 192.898438 271.976562 193.738281 276.339844 193.949219 C 274.292969 194.242188 273.476562 193.308594 270.535156 193.777344 C 271.351562 193.445312 273.710938 192.859375 270.90625 192.566406 L 267.710938 192.78125 C 266.40625 193.152344 271.023438 193.582031 268.957031 193.890625 L 265.644531 193.660156 C 265.761719 193.425781 267.339844 193.308594 266.347656 193.015625 C 264.4375 193.269531 263.191406 192.160156 260.914062 191.886719 C 260.074219 191.90625 259.042969 191.945312 258.691406 192.003906 C 258.363281 192.0625 258.128906 192.140625 258.03125 192.277344 C 257.445312 192.121094 256.746094 192.023438 255.964844 191.964844 C 255.382812 191.789062 255.597656 192.21875 255.597656 192.507812 L 255.710938 193.523438 C 255.847656 194.359375 255.847656 194.691406 256.0625 196.054688 C 256.160156 196.5625 256.179688 197.007812 256.257812 197.476562 C 256.355469 197.769531 256.433594 198.058594 256.53125 198.371094 C 256.707031 197.75 257.445312 199.734375 258.03125 200.980469 C 257.328125 197.75 258.03125 197.574219 258.515625 197.691406 C 258.90625 199.65625 258.515625 201.117188 258.050781 200.183594 C 259.121094 203.378906 258.109375 202.539062 259.277344 205.304688 C 259.957031 207.117188 259.726562 204.214844 260.132812 204.800781 C 261.011719 208.324219 259.53125 205.949219 260.621094 209.746094 C 260.660156 209.511719 260.601562 209.164062 260.796875 209.433594 C 261.457031 211.480469 261.671875 213.777344 261.4375 214.304688 C 262.859375 216.292969 262.820312 220.539062 263.601562 219.894531 C 264.574219 224.957031 262.9375 219.269531 262.878906 220.324219 C 262.976562 222.464844 264.222656 226.183594 264.632812 227.335938 C 264.359375 226.089844 264.320312 224.898438 263.914062 223.75 L 264.769531 224.667969 C 266.699219 230.78125 264.339844 228.933594 266.328125 234.832031 C 265.898438 231.660156 266.542969 233.683594 266.601562 232.046875 C 266.660156 233.023438 267.964844 237.695312 266.816406 234.949219 C 267.417969 237.210938 267.90625 238.75 268.390625 240.265625 C 268.644531 242.332031 268.996094 244.550781 268.878906 245.820312 C 269.71875 248.972656 270.710938 251.214844 271.332031 252.65625 C 271.917969 256.042969 272.773438 259.21875 273.632812 262.453125 C 274.136719 264.476562 274.664062 266.523438 275.191406 268.625 C 275.578125 270.027344 275.8125 271.488281 275.539062 272.503906 C 275.367188 273.046875 275.382812 273.417969 274.996094 273.925781 C 274.546875 274.273438 274.195312 274.429688 273.652344 274.664062 C 273.867188 274.566406 274.019531 274.449219 274.15625 274.351562 C 267.496094 276.4375 275.714844 273.535156 270.710938 274.507812 C 270.300781 274.527344 269.773438 274.566406 269.113281 274.605469 C 269.890625 274.917969 268.507812 275.152344 266.796875 275.402344 C 265.566406 275.578125 263.992188 275.734375 263.035156 275.96875 C 259.0625 276.378906 255.695312 276.242188 252.363281 276.085938 C 252.402344 276.105469 252.441406 276.105469 252.480469 276.125 C 250.902344 276.125 249.148438 276.066406 247.589844 275.96875 C 246.382812 275.949219 245.175781 275.949219 243.871094 276.007812 C 243.929688 276.164062 244.359375 276.378906 245.644531 276.417969 C 240.578125 276.535156 236.507812 276.242188 231.949219 276.066406 L 232.144531 276.164062 C 231.464844 276.164062 230.78125 276.164062 230.121094 276.164062 C 229.320312 276.144531 228.464844 276.203125 227.722656 276.027344 C 226.964844 275.851562 226.398438 275.636719 225.816406 275.210938 C 225.289062 274.761719 225.113281 273.964844 224.746094 273.359375 C 224.433594 272.695312 224.0625 272.09375 223.808594 271.351562 L 223.265625 269.328125 C 223.03125 268.429688 222.875 267.554688 222.679688 266.660156 C 221.996094 263.074219 221.628906 259.453125 221.082031 255.789062 C 221.082031 256.394531 220.828125 256.589844 220.808594 257.078125 C 220.050781 253.355469 218.765625 247.785156 218.667969 245.195312 C 216.699219 241.339844 218.003906 242.566406 215.453125 237.171875 C 215.21875 236.898438 215.511719 237.773438 215.609375 238.144531 C 214.460938 235.476562 213.933594 233.527344 212.980469 230.78125 C 212.121094 227.023438 211.96875 224.878906 211.460938 222.25 C 211.402344 222.269531 211.382812 222.269531 211.441406 222.230469 C 210.914062 220.945312 210.644531 219.464844 210.390625 217.925781 C 210.195312 217.265625 209.960938 216.523438 209.6875 215.726562 C 208.597656 215.667969 210.71875 220.167969 209.980469 220.554688 C 209.746094 219.097656 209.570312 217.808594 208.773438 215.921875 C 208.734375 217.207031 208.597656 216.253906 208.480469 217.148438 C 208.128906 216.445312 207.953125 214.871094 207.859375 213.46875 C 207.761719 212.066406 207.742188 210.855469 207.683594 210.875 C 207.859375 210.738281 208.109375 211.226562 208.480469 212.648438 C 208.617188 210.796875 206.53125 205.636719 205.832031 202.113281 C 205.96875 202.578125 206.242188 203.417969 206.53125 204.15625 C 206.105469 202.675781 205.636719 201.175781 205.226562 199.714844 C 205.054688 199.054688 204.878906 198.390625 204.703125 197.730469 C 204.214844 197.105469 203.667969 196.5625 203.84375 197.964844 C 202.636719 194.164062 202.5 191.242188 201.742188 187.777344 L 201.566406 187.914062 L 201.253906 186.609375 L 201.253906 185.285156 L 201.292969 183.394531 C 201.332031 182.128906 201.390625 180.863281 201.429688 179.636719 C 201.546875 177.160156 201.585938 174.804688 201.332031 172.722656 L 201.625 174.921875 C 201.644531 174.6875 201.664062 174.296875 201.664062 173.851562 C 201.605469 172.273438 201.546875 170.675781 201.527344 169.175781 C 201.332031 168.457031 201.15625 167.734375 201.019531 168.496094 C 201.253906 167.96875 201.410156 167.035156 201.507812 165.921875 C 201.507812 164.074219 201.527344 162.183594 201.546875 160.351562 C 201.527344 160.46875 201.507812 160.585938 201.488281 160.703125 C 201.46875 158.113281 201.175781 156.203125 200.921875 156.613281 C 201.234375 155.328125 201.46875 153.203125 201.683594 151.21875 C 201.703125 150.398438 201.722656 149.660156 201.722656 148.824219 C 201.742188 145.550781 201.117188 146.855469 200.863281 145.335938 C 200.671875 138.167969 201.585938 136.394531 201.683594 129.558594 C 201.449219 130.515625 200.75 132.109375 200.671875 129.167969 C 200.902344 128.625 201.273438 128.253906 201.097656 126.402344 L 200.863281 127.359375 C 200.457031 125.664062 200.789062 124.027344 200.59375 120.503906 C 200.554688 117.40625 200.671875 114.367188 200.882812 111.464844 L 201.3125 106.886719 C 201.410156 104.765625 201.664062 102.953125 202.519531 101.882812 C 207.839844 99.835938 202.8125 100.695312 202.171875 100.734375 C 201.175781 101.726562 201.292969 102.523438 201.058594 103.128906 C 200.941406 103.714844 200.882812 104.023438 200.828125 104.335938 C 200.710938 104.765625 200.535156 104.550781 200.398438 105.214844 C 200.398438 103.382812 200.847656 101.921875 201.644531 100.871094 C 202.695312 99.835938 203.707031 99.660156 204.46875 99.175781 "/></g><path style=" stroke:none;fill-rule:nonzero;fill:rgb(0%,0%,0%);fill-opacity:1;" d="M 263.835938 222.152344 L 263.679688 222.757812 L 262.898438 220.519531 C 263.132812 220.828125 263.660156 221.628906 263.835938 222.152344 "/><path style=" stroke:none;fill-rule:nonzero;fill:rgb(0%,0%,0%);fill-opacity:1;" d="M 274.390625 262.199219 L 273.457031 258.828125 C 273.476562 257.679688 274.722656 261.574219 274.390625 262.199219 "/><path style=" stroke:none;fill-rule:nonzero;fill:rgb(0%,0%,0%);fill-opacity:1;" d="M 276.378906 275.171875 C 274.195312 274.820312 270.828125 275.792969 269.523438 275.308594 C 270.925781 275.421875 275.597656 274.722656 276.378906 275.171875 "/><path style=" stroke:none;fill-rule:nonzero;fill:rgb(0%,0%,0%);fill-opacity:1;" d="M 208.910156 156.964844 C 209.007812 158.328125 208.871094 161.015625 208.578125 161.480469 C 208.695312 159.339844 208.753906 157.449219 209.046875 154.957031 C 209.027344 155.890625 209.261719 157.042969 208.910156 156.964844 "/><path style=" stroke:none;fill-rule:nonzero;fill:rgb(0%,0%,0%);fill-opacity:1;" d="M 299.300781 109.109375 C 299.207031 109.535156 299.070312 109.671875 298.875 109.421875 C 298.914062 108.503906 299.011719 107.980469 299.109375 107.6875 C 299.207031 107.394531 299.300781 107.238281 299.4375 105.894531 C 299.417969 106.730469 299.398438 107.453125 299.378906 108.074219 C 299.339844 108.757812 299.339844 108.816406 299.300781 109.109375 "/><path style=" stroke:none;fill-rule:nonzero;fill:rgb(0%,0%,0%);fill-opacity:1;" d="M 298.679688 111.777344 L 298.894531 112.03125 L 299.167969 113.238281 Z M 298.679688 111.777344 "/><path style=" stroke:none;fill-rule:nonzero;fill:rgb(0%,0%,0%);fill-opacity:1;" d="M 298.953125 124.476562 C 299.011719 124.378906 299.089844 124.066406 299.148438 123.714844 C 299.070312 124.4375 299.011719 125.039062 298.953125 124.476562 "/><path style=" stroke:none;fill-rule:nonzero;fill:rgb(0%,0%,0%);fill-opacity:1;" d="M 299.167969 123.347656 C 299.207031 123.015625 299.167969 122.644531 299.050781 122.507812 L 299.285156 122.371094 C 299.265625 122.605469 299.226562 122.976562 299.167969 123.347656 "/><path style=" stroke:none;fill-rule:nonzero;fill:rgb(0%,0%,0%);fill-opacity:1;" d="M 299.359375 126.269531 L 298.953125 128.292969 L 298.347656 125.859375 C 298.71875 123.347656 298.640625 128.742188 299.359375 126.269531 "/><path style=" stroke:none;fill-rule:nonzero;fill:rgb(0%,0%,0%);fill-opacity:1;" d="M 298.71875 136.746094 C 298.894531 139.0625 297.898438 142.414062 298.660156 143.71875 C 298.289062 150.28125 297.375 142.199219 297.140625 149.71875 C 296.691406 142.609375 298.582031 146.09375 298.132812 139.804688 C 298.621094 142.84375 298.523438 137.757812 298.71875 136.746094 "/><path style=" stroke:none;fill-rule:nonzero;fill:rgb(0%,0%,0%);fill-opacity:1;" d="M 297.433594 135.617188 C 297.824219 135.246094 297.84375 138.1875 297.589844 139.101562 C 297.550781 138.246094 297.023438 136.765625 297.433594 135.617188 "/><path style=" stroke:none;fill-rule:nonzero;fill:rgb(0%,0%,0%);fill-opacity:1;" d="M 298.40625 149.582031 L 298.699219 151.589844 L 298.464844 152.113281 Z M 298.40625 149.582031 "/><path style=" stroke:none;fill-rule:nonzero;fill:rgb(0%,0%,0%);fill-opacity:1;" d="M 298.640625 157.199219 L 299.050781 155.230469 C 298.875 155.871094 298.953125 158.8125 298.640625 157.199219 "/><path style=" stroke:none;fill-rule:nonzero;fill:rgb(0%,0%,0%);fill-opacity:1;" d="M 298.71875 167.421875 L 298.777344 168.320312 C 298.933594 168.085938 299.320312 170.167969 299.359375 167.792969 C 299.554688 169.625 298.582031 171.320312 298.71875 167.421875 "/><path style=" stroke:none;fill-rule:nonzero;fill:rgb(0%,0%,0%);fill-opacity:1;" d="M 294.6875 193.132812 C 296.324219 193.191406 298.445312 193.484375 298.835938 193.503906 C 298.875 193.757812 298.503906 193.601562 298.308594 193.640625 L 297.570312 193.5625 L 296.070312 193.425781 L 293.148438 193.171875 L 294.6875 193.132812 "/><path style=" stroke:none;fill-rule:nonzero;fill:rgb(0%,0%,0%);fill-opacity:1;" d="M 298.835938 193.503906 C 298.816406 193.484375 298.855469 193.503906 298.855469 193.464844 C 298.933594 193.503906 298.914062 193.503906 298.835938 193.503906 "/><path style=" stroke:none;fill-rule:nonzero;fill:rgb(0%,0%,0%);fill-opacity:1;" d="M 295.914062 189.433594 C 295.933594 189.800781 295.953125 190.191406 295.972656 190.738281 C 295.484375 190.738281 294.804688 190.679688 293.886719 190.621094 C 294.101562 190.484375 294.414062 190.425781 294.824219 190.425781 C 295.191406 190.386719 295.894531 190.660156 295.699219 189.957031 C 295.738281 189.003906 295.816406 187.835938 295.660156 186.550781 C 295.796875 188.03125 295.855469 188.691406 295.914062 189.433594 "/><path style=" stroke:none;fill-rule:nonzero;fill:rgb(0%,0%,0%);fill-opacity:1;" d="M 291.003906 194.085938 C 289.410156 194.007812 289.195312 193.890625 288.84375 193.71875 C 289.273438 193.988281 292.523438 193.988281 293.925781 194.027344 C 293.617188 194.183594 292.328125 194.183594 291.003906 194.085938 "/><path style=" stroke:none;fill-rule:nonzero;fill:rgb(0%,0%,0%);fill-opacity:1;" d="M 276.941406 192.296875 C 280.820312 192.566406 282.746094 193.777344 284.65625 192.957031 L 287.851562 194.164062 C 284.753906 194.203125 285.511719 193.328125 283.351562 193.308594 C 282.222656 193.523438 283.605469 193.660156 282.746094 193.816406 C 280.3125 194.007812 277.78125 193.929688 276.417969 193.582031 C 277.058594 193.328125 277.9375 192.625 276.941406 192.296875 "/><path style=" stroke:none;fill-rule:nonzero;fill:rgb(0%,0%,0%);fill-opacity:1;" d="M 286.933594 191.203125 C 287.617188 190.445312 289.777344 191.457031 291.707031 191.59375 C 290.832031 191.671875 289.757812 191.75 289.175781 191.828125 C 289.601562 191.496094 288.027344 191.378906 286.933594 191.203125 "/><path style=" stroke:none;fill-rule:nonzero;fill:rgb(0%,0%,0%);fill-opacity:1;" d="M 261.90625 192.722656 C 260.601562 192.683594 258.515625 192.664062 258.363281 192.625 L 258.945312 192.566406 L 261.90625 192.722656 "/><path style=" stroke:none;fill-rule:nonzero;fill:rgb(0%,0%,0%);fill-opacity:1;" d="M 258.984375 193.269531 C 258.554688 193.132812 258.304688 192.996094 257.796875 192.878906 L 259.101562 193.035156 L 258.984375 193.269531 "/><path style=" stroke:none;fill-rule:nonzero;fill:rgb(0%,0%,0%);fill-opacity:1;" d="M 258.632812 193.484375 L 257.835938 193.328125 L 257.933594 193.308594 Z M 258.632812 193.484375 "/><path style=" stroke:none;fill-rule:nonzero;fill:rgb(0%,0%,0%);fill-opacity:1;" d="M 257.464844 194.457031 C 257.386719 194.261719 257.367188 194.105469 257.621094 194.203125 C 257.5625 194.300781 257.601562 194.515625 257.679688 194.730469 C 257.757812 194.945312 258.109375 196.054688 258.285156 196.210938 L 257.757812 195.507812 C 257.621094 194.710938 257.542969 194.671875 257.464844 194.457031 "/><path style=" stroke:none;fill-rule:nonzero;fill:rgb(0%,0%,0%);fill-opacity:1;" d="M 132.382812 196.8125 C 132.421875 196.695312 132.460938 196.5625 132.539062 196.503906 C 132.539062 196.503906 132.558594 196.5625 132.578125 196.601562 L 132.519531 197.203125 L 132.382812 196.8125 "/><path style=" stroke:none;fill-rule:nonzero;fill:rgb(0%,0%,0%);fill-opacity:1;" d="M 137 211.597656 L 136.84375 211.089844 C 137.195312 211.382812 137.195312 211.03125 137.796875 212.980469 C 137.757812 214.773438 136.53125 212.277344 136.746094 215.355469 C 136.648438 214.773438 136.453125 213.914062 136.21875 213.136719 C 136.863281 214.265625 136.960938 212.960938 137 211.597656 "/><path style=" stroke:none;fill-rule:nonzero;fill:rgb(0%,0%,0%);fill-opacity:1;" d="M 136.21875 213.136719 L 136.164062 213.058594 C 136.066406 212.941406 135.988281 212.804688 135.910156 212.648438 C 135.8125 212.238281 135.695312 211.8125 135.578125 211.5 C 135.753906 211.792969 135.988281 212.414062 136.21875 213.136719 "/><g clip-rule="nonzero" clip-path="url(#clip2)"><path style=" stroke:none;fill-rule:nonzero;fill:rgb(0%,0%,0%);fill-opacity:1;" d="M 78.644531 185.710938 C 78.761719 186.238281 78.859375 186.726562 78.9375 187.152344 C 78.703125 186.472656 78.644531 186.0625 78.644531 185.710938 "/></g><path style=" stroke:none;fill-rule:nonzero;fill:rgb(0%,0%,0%);fill-opacity:1;" d="M 136.84375 191.964844 C 137.3125 191.945312 137.796875 191.90625 138.304688 191.867188 C 138.597656 191.867188 138.851562 191.886719 139.21875 191.886719 L 136.84375 191.964844 "/><path style=" stroke:none;fill-rule:nonzero;fill:rgb(0%,0%,0%);fill-opacity:1;" d="M 131.820312 195.003906 L 132.382812 196.8125 C 132.285156 197.90625 133.589844 200.863281 133.414062 201.976562 L 131.820312 195.003906 "/><g clip-rule="nonzero" clip-path="url(#clip3)"><path style=" stroke:none;fill-rule:nonzero;fill:rgb(0%,0%,0%);fill-opacity:1;" d="M 131.488281 275.773438 C 131.46875 275.773438 131.46875 275.773438 131.46875 275.773438 L 131.527344 275.792969 C 131.527344 275.792969 131.546875 275.792969 131.546875 275.792969 Z M 151.179688 272.503906 C 151.21875 272.328125 151.21875 272.09375 151.238281 271.976562 C 151.003906 271.042969 150.808594 270.125 150.535156 269.191406 C 150.613281 269.832031 150.808594 270.808594 151.179688 272.503906 Z M 136.726562 218.472656 C 136.824219 218.804688 136.921875 219.191406 137.039062 219.621094 L 137.117188 219.503906 C 136.941406 218.707031 136.6875 217.847656 136.453125 217.148438 C 136.257812 216.972656 136.027344 216.777344 136.125 217.730469 L 135.8125 216.234375 C 135.8125 216.3125 135.792969 216.367188 135.792969 216.503906 C 135.96875 217.675781 136.179688 218.570312 136.375 219.289062 C 136.628906 219.601562 136.746094 219.230469 136.726562 218.472656 Z M 132.910156 186.042969 C 132.832031 185.75 132.714844 185.515625 132.714844 185.148438 C 132.636719 185.050781 132.539062 184.933594 132.460938 184.835938 C 132.207031 184.953125 131.9375 185.1875 132.050781 185.535156 C 124.105469 176.441406 115.164062 167.851562 106.109375 159.75 C 105.953125 159.515625 105.757812 159.28125 105.601562 159.027344 C 104.394531 157.957031 103.1875 156.867188 102 155.796875 C 97.617188 152.445312 93.175781 149.113281 89.046875 145.511719 C 86.808594 143.796875 85.074219 142.21875 83.339844 140.601562 C 83.339844 140.855469 83.339844 141.148438 83.339844 141.34375 C 83.339844 141.382812 83.339844 141.421875 83.320312 141.441406 C 85.929688 144.5 88.5 147.59375 91.015625 150.886719 C 91.152344 150.671875 91.421875 150.730469 90.996094 150.128906 C 96.332031 156.417969 102.234375 161.132812 107.238281 167.074219 L 107.394531 166.878906 C 112.632812 173.714844 118.710938 180.160156 124.828125 186.53125 L 129.441406 186.21875 C 130.496094 186.140625 131.722656 186.082031 132.910156 186.042969 Z M 110.121094 98.296875 C 111.582031 98.453125 113.199219 98.550781 114.484375 98.453125 C 114.289062 98.316406 114.015625 98.183594 113.839844 98.085938 C 112.167969 98.164062 111.054688 98.257812 110.121094 98.296875 Z M 113.996094 99.039062 C 114.132812 99.019531 114.132812 99 114.210938 98.980469 C 113.839844 98.863281 113.648438 98.785156 113.917969 98.746094 C 113.53125 98.765625 113.21875 98.785156 112.90625 98.804688 C 113.316406 98.863281 113.722656 98.941406 113.996094 99.039062 Z M 126.871094 195.800781 C 119.371094 189.355469 111.503906 183.121094 104.238281 176.402344 C 98.785156 171.863281 95.628906 168.203125 90.3125 163.449219 L 89.730469 163.839844 C 87.957031 161.445312 85.773438 159.378906 83.457031 157.410156 L 82.949219 157.527344 C 82.988281 158.269531 82.96875 158.851562 82.910156 159.339844 C 82.890625 160.390625 82.871094 161.445312 82.832031 162.476562 C 83.046875 162.59375 83.300781 163.839844 83.378906 165.339844 C 83.417969 165.378906 83.457031 165.398438 83.496094 165.457031 C 83.632812 165.242188 83.90625 165.28125 83.4375 164.695312 C 89.183594 170.734375 95.414062 175.175781 100.792969 180.882812 L 100.949219 180.6875 C 109.691406 190.699219 120.269531 199.773438 129.988281 209.105469 C 128.9375 204.703125 127.902344 200.261719 126.871094 195.800781 Z M 83.203125 146.914062 C 83.320312 148.453125 83.554688 150.300781 83.710938 152.25 C 87.117188 155.660156 90.507812 159.125 93.839844 162.828125 C 93.976562 162.613281 94.265625 162.671875 93.742188 162.066406 C 99.914062 168.242188 106.480469 172.777344 112.261719 178.640625 L 112.398438 178.425781 C 116.585938 182.984375 121.183594 187.328125 125.878906 191.59375 C 125.839844 191.4375 125.800781 191.28125 125.761719 191.125 C 117.582031 182.011719 108.113281 173.636719 99.699219 164.539062 C 94.871094 159.886719 92.183594 156.183594 87.527344 151.316406 L 86.925781 151.683594 C 85.851562 149.953125 84.566406 148.394531 83.203125 146.894531 C 83.203125 146.894531 83.203125 146.914062 83.203125 146.914062 Z M 162.4375 185.808594 C 156.28125 176.949219 146.210938 170.734375 139.648438 161.851562 L 139.316406 162.28125 C 129.949219 151.042969 117.171875 142.179688 106.304688 131.78125 C 101.53125 127.730469 98.84375 124.417969 94.226562 120.171875 L 93.644531 120.5625 C 91.1875 116.917969 87.761719 114.074219 84.15625 111.347656 C 84.136719 111.328125 84.136719 111.367188 84.121094 111.347656 C 84.121094 111.347656 84.121094 111.328125 84.121094 111.308594 C 83.828125 111.09375 83.554688 110.878906 83.261719 110.6875 C 83.242188 110.746094 83.242188 110.804688 83.222656 110.859375 C 83.164062 111.152344 83.105469 111.445312 83.046875 111.738281 C 83.046875 112.378906 83.066406 113.003906 83.066406 113.570312 C 94.578125 124.730469 105.835938 136.453125 118.007812 147.109375 L 117.71875 146.152344 L 120.484375 149.894531 C 120.640625 149.679688 120.5625 149.425781 120.484375 149.191406 C 125.390625 152.40625 128.839844 157.566406 133.183594 161.171875 C 133.339844 160.957031 133.046875 160.003906 133.824219 160.3125 C 135.949219 164.210938 140.078125 163.410156 139.589844 167.074219 C 139.824219 167.109375 140.386719 166.683594 140.234375 166.214844 C 146.601562 173.109375 153.59375 179.617188 160.761719 185.808594 C 161.308594 185.808594 161.871094 185.808594 162.4375 185.808594 Z M 144.265625 145.179688 C 145.707031 146.523438 147.148438 147.867188 148.589844 149.210938 C 148.648438 149.269531 148.726562 149.328125 148.785156 149.386719 C 147.324219 147.964844 145.824219 146.5625 144.265625 145.179688 Z M 143.621094 137.835938 C 139.101562 133.941406 136.570312 130.726562 132.207031 126.636719 L 131.625 127.046875 C 126.171875 118.574219 115.203125 114.71875 109.1875 106.1875 C 108.933594 106.1875 108.699219 106.1875 108.445312 106.207031 L 108.425781 106.480469 C 108.425781 106.382812 108.347656 106.304688 108.328125 106.207031 C 108.113281 106.207031 107.902344 106.207031 107.667969 106.226562 C 111.796875 110.277344 115.828125 114.503906 119.683594 119.199219 C 119.820312 119.003906 120.054688 119.003906 119.703125 118.535156 C 124.144531 123.289062 129.148438 126.539062 133.300781 131.039062 L 133.472656 130.84375 C 143.230469 142.570312 156.90625 151.878906 166 163.507812 C 166.292969 163.78125 166.605469 164.074219 166.917969 164.34375 C 166.878906 162.457031 166.839844 160.585938 166.820312 158.695312 C 159.417969 151.550781 151.0625 145.0625 143.621094 137.835938 Z M 161.132812 144.089844 L 160.800781 144.539062 C 152.640625 134.136719 141.1875 126.054688 131.625 116.453125 C 127.652344 112.945312 125.332031 110.003906 121.691406 106.402344 C 121.457031 106.402344 121.242188 106.382812 121.027344 106.382812 C 117.269531 106.089844 119.546875 105.445312 116.316406 105.117188 C 116.121094 105.117188 115.90625 105.117188 115.652344 105.117188 C 122.527344 111.503906 129.148438 118.242188 135.480469 125.859375 C 135.636719 125.644531 135.871094 125.683594 135.460938 125.15625 C 140.484375 130.515625 146.035156 134.351562 150.710938 139.433594 L 150.886719 139.21875 C 155.660156 144.886719 161.191406 150.148438 166.761719 155.328125 C 166.722656 153.769531 166.703125 152.210938 166.664062 150.652344 C 164.65625 148.609375 162.75 146.464844 161.132812 144.089844 Z M 145.355469 123.734375 C 141.265625 120.191406 139.0625 117.210938 135.109375 113.472656 L 134.546875 113.859375 C 133.609375 112.300781 132.421875 110.9375 131.117188 109.652344 C 130.785156 109.382812 130.4375 109.109375 130.105469 108.816406 C 129.054688 108 128.136719 107.238281 127.261719 106.480469 C 126.988281 106.480469 126.714844 106.460938 126.441406 106.460938 C 130.496094 110.472656 134.777344 113.761719 138.441406 117.890625 L 138.597656 117.699219 C 146.796875 127.921875 157.625 136.550781 166.585938 146.015625 C 166.566406 145.003906 166.546875 143.992188 166.527344 143 C 159.789062 136.394531 152.113281 130.457031 145.355469 123.734375 Z M 157.839844 121.300781 L 157.507812 121.730469 C 153.085938 116.082031 147.457031 111.367188 141.753906 106.671875 C 138.96875 106.617188 136.164062 106.597656 133.355469 106.558594 C 134.527344 107.53125 135.714844 108.542969 136.824219 109.632812 L 136.960938 109.421875 C 145.804688 119.003906 157.179688 126.871094 166.449219 135.871094 C 166.429688 134.078125 166.410156 132.265625 166.390625 130.457031 C 163.292969 127.632812 160.195312 124.769531 157.839844 121.300781 Z M 160.996094 114.796875 C 158.425781 112.691406 157.21875 110.6875 154.800781 108.386719 L 154.277344 108.835938 C 153.984375 108.113281 153.574219 107.511719 153.125 106.945312 L 146.972656 106.730469 C 146.601562 106.730469 146.230469 106.730469 145.84375 106.710938 C 152.777344 113.316406 160.332031 119.429688 166.351562 126.363281 C 166.332031 124.085938 166.292969 121.808594 166.273438 119.546875 C 164.441406 118.027344 162.652344 116.472656 160.996094 114.796875 Z M 164.734375 107.433594 L 159.886719 107.179688 L 158.542969 107.121094 C 161.132812 109.382812 163.722656 111.464844 166.214844 113.609375 C 166.214844 111.933594 166.195312 110.257812 166.175781 108.582031 C 165.691406 108.210938 165.222656 107.804688 164.734375 107.433594 Z M 83.105469 165.007812 C 83.183594 165.085938 83.242188 165.183594 83.320312 165.261719 C 83.242188 164.753906 83.203125 164.289062 83.085938 164.480469 C 83.085938 164.675781 83.085938 164.832031 83.105469 165.007812 Z M 82.773438 172.566406 C 82.71875 172.253906 82.679688 171.960938 82.621094 171.6875 C 82.621094 171.921875 82.621094 172.175781 82.601562 172.410156 C 82.660156 172.46875 82.71875 172.507812 82.773438 172.566406 Z M 91.871094 106.1875 C 92.261719 106.652344 92.648438 107.101562 93.019531 107.570312 C 93.15625 107.375 93.332031 107.355469 93.039062 106.925781 C 92.804688 106.671875 92.554688 106.421875 92.300781 106.167969 C 92.125 106.167969 92.007812 106.1875 91.871094 106.1875 Z M 111.25 118.4375 C 111.40625 118.222656 111.40625 118.222656 111.191406 117.699219 C 112.886719 120.054688 116.453125 120.40625 118.183594 123.484375 L 118.59375 123.269531 L 119.820312 125.078125 C 120.113281 124.632812 120.582031 123.949219 119.605469 123.386719 C 120.035156 123.714844 120.445312 124.085938 120.851562 124.417969 C 119.546875 123.074219 118.222656 121.691406 116.566406 120.171875 L 116.023438 120.601562 C 112.789062 115.339844 107.023438 112.300781 102.019531 108.445312 C 102.660156 110.277344 103.1875 112.398438 103.867188 114.074219 C 104.121094 114.113281 104.277344 113.878906 103.925781 113.609375 C 106.011719 115.730469 109.167969 116.296875 111.25 118.4375 Z M 113.609375 133.511719 L 113.78125 133.320312 C 125.46875 146.835938 141.207031 158.054688 152.308594 171.320312 C 146.582031 163.683594 138.070312 157.800781 132.558594 149.738281 L 132.207031 150.1875 C 123.519531 138.984375 111.347656 130.144531 101.082031 119.820312 C 96.566406 115.789062 94.070312 112.496094 89.710938 108.269531 L 89.125 108.660156 C 88.714844 108 88.210938 107.375 87.722656 106.75 C 87.605469 106.769531 87.527344 106.789062 87.410156 106.808594 C 87 106.847656 86.515625 106.886719 85.988281 106.925781 C 89.921875 110.898438 93.800781 114.992188 97.558594 119.410156 C 97.695312 119.199219 97.96875 119.238281 97.539062 118.691406 C 102.835938 124.261719 108.640625 128.253906 113.609375 133.511719 Z M 129.441406 216.117188 C 124.613281 208.109375 115.535156 203.320312 110.082031 195.507812 L 109.75 195.957031 C 102.292969 186.746094 91.773438 179.886719 82.910156 171.609375 C 82.910156 171.941406 82.929688 172.3125 82.929688 172.703125 C 88.191406 177.492188 93.332031 182.304688 97.441406 187.621094 C 108.601562 197.652344 120.734375 209.125 132.226562 220.402344 C 132.246094 219.796875 132.246094 219.152344 132.167969 218.414062 C 131.273438 217.636719 130.359375 216.855469 129.441406 216.117188 Z M 89.804688 204.78125 C 90.15625 206.28125 90.390625 207.097656 90.625 207.992188 L 91.015625 207.410156 C 91.171875 208.1875 91.285156 208.792969 91.382812 209.316406 C 96.796875 214.304688 102.371094 219.171875 108.054688 223.828125 C 114.191406 232.964844 124.632812 239.195312 131.390625 248.234375 L 131.722656 247.785156 C 134.15625 250.628906 136.824219 253.316406 139.589844 255.925781 C 139.121094 254.367188 138.734375 252.851562 138.5 251.332031 C 138.148438 250.785156 137.972656 250.121094 138.03125 249.246094 C 137.777344 249.1875 137.195312 249.578125 137.390625 250.101562 C 127.960938 239.722656 117.523438 229.867188 107.003906 220.5 C 102.582031 213.777344 96.136719 208.304688 90.117188 202.460938 C 90.292969 203.125 90.449219 203.765625 90.625 204.46875 C 90.800781 206.164062 89.863281 203.378906 89.804688 204.78125 Z M 89.105469 202.988281 L 89.554688 204.566406 C 89.359375 203.554688 89.164062 202.402344 88.832031 201.195312 C 88.8125 201.175781 88.8125 201.175781 88.792969 201.15625 C 88.890625 201.878906 88.929688 202.460938 88.929688 203.007812 C 89.027344 203.164062 89.085938 203.164062 89.105469 202.988281 Z M 90.390625 207.546875 L 89.902344 205.207031 C 89.824219 205.089844 89.824219 205.246094 89.730469 205.1875 Z M 93.3125 217.089844 C 93.351562 217.128906 93.390625 217.167969 93.449219 217.226562 C 93.292969 216.738281 93.15625 216.234375 93 215.726562 C 92.921875 215.648438 92.824219 215.570312 92.726562 215.472656 Z M 93.976562 216.660156 C 94.246094 217.324219 94.402344 217.789062 94.5 218.160156 C 97.988281 221.257812 101.492188 224.355469 104.6875 227.722656 C 108.039062 230.722656 109.75 233.292969 112.925781 236.488281 L 113.492188 236.078125 C 117.074219 243.226562 126.402344 245.703125 129.96875 253.316406 L 130.242188 252.285156 C 130.085938 254.15625 133.980469 255.304688 131.898438 256.707031 L 133.414062 257.171875 C 133.492188 257.503906 133.628906 257.738281 133.746094 258.03125 C 135.617188 260.09375 137.566406 262.0625 139.53125 263.992188 C 140.484375 264.632812 141.382812 265.433594 142.257812 266.328125 C 142.023438 264.339844 141.558594 262.433594 140.992188 260.542969 C 133.085938 253.335938 124.960938 246.34375 118.496094 238.59375 C 110.570312 231.5625 102.117188 223.984375 93.625 216.292969 L 93.898438 217.421875 Z M 131.605469 237.054688 C 125.097656 231.347656 118.28125 225.289062 111.40625 219.132812 C 119.9375 227.277344 128.566406 235.730469 137.058594 244.183594 C 136.941406 243.617188 136.84375 243.070312 136.726562 242.527344 C 134.953125 240.734375 133.242188 238.902344 131.605469 237.054688 Z M 128.097656 268.859375 C 129.09375 268.996094 130.125 269.152344 131.742188 269.230469 C 130.785156 269.328125 129.578125 269.210938 128.351562 269.113281 C 128.449219 269.210938 128.546875 269.308594 128.664062 269.425781 C 131.46875 270.046875 134.546875 269.738281 137.757812 269.851562 L 136.453125 269.523438 L 139.277344 269.640625 C 125.957031 257.738281 111.621094 244.4375 98.007812 231.386719 L 98.105469 232.28125 C 98.277344 230.644531 98.746094 234.5625 99.234375 234.054688 C 100.148438 237.773438 100.578125 240.34375 100.96875 242.683594 C 109.90625 251.058594 119.082031 259.917969 128.097656 268.859375 Z M 128.683594 269.445312 C 129.015625 269.773438 129.34375 270.085938 129.65625 270.417969 C 131.078125 270.28125 129.65625 269.757812 128.683594 269.445312 Z M 103.714844 257.328125 C 104.179688 258.613281 104.394531 258.925781 104.394531 258.03125 L 104.824219 260.757812 C 105.640625 261.613281 106.519531 262.414062 107.296875 263.308594 C 108.019531 264.011719 108.757812 264.710938 109.476562 265.433594 L 109.59375 265.257812 C 110.550781 266.386719 111.5625 267.457031 112.574219 268.546875 C 112.710938 268.683594 112.847656 268.839844 112.984375 268.996094 C 113.511719 268.996094 113.996094 268.996094 114.5625 268.957031 L 113.976562 268.46875 C 117.875 268.0625 116.976562 269.464844 121.320312 269.113281 C 121.300781 269.660156 118.554688 269.949219 118.144531 270.496094 C 119.160156 269.910156 123.832031 269.792969 122.742188 270.203125 C 123.289062 270.222656 123.753906 270.242188 124.144531 270.261719 C 117.230469 263.074219 109.90625 256.160156 102.445312 249.578125 C 102.699219 250.453125 102.992188 251.410156 103.363281 252.480469 C 102.796875 251.332031 103.03125 255.070312 103.714844 257.328125 Z M 84.042969 182.652344 C 84.003906 182.59375 83.945312 182.480469 83.847656 182.1875 C 83.964844 182.128906 84.101562 182.652344 84.042969 182.652344 C 84.46875 182.613281 84.898438 182.558594 85.503906 182.5 L 85.503906 182.539062 L 85.523438 182.59375 L 85.597656 183.042969 L 85.773438 183.941406 C 85.949219 185.148438 86.242188 186.375 86.496094 187.640625 C 86.828125 189.121094 87.175781 190.640625 87.566406 192.199219 C 97.402344 201.957031 108 211.304688 118.691406 220.207031 C 123.25 226.457031 129.460938 231.71875 135.480469 237.152344 C 134.644531 233.605469 133.902344 230.21875 133.882812 227.316406 C 133.863281 227.277344 133.863281 227.257812 133.84375 227.21875 C 131.972656 224.121094 128.429688 224.78125 129.074219 221.433594 C 128.839844 221.414062 128.292969 221.824219 128.410156 222.269531 C 121.398438 214.441406 113.492188 207.175781 105.40625 200.398438 C 100.832031 192.414062 91.929688 187.601562 86.730469 179.808594 L 86.378906 180.238281 C 85.503906 179.109375 84.46875 178.078125 83.496094 177.003906 C 83.828125 178.894531 83.457031 180.003906 83.90625 181.777344 C 83.828125 181.621094 83.75 181.484375 83.691406 181.367188 C 83.769531 181.894531 83.808594 182.109375 83.847656 182.1875 L 83.808594 182.1875 C 83.847656 182.34375 83.886719 182.519531 83.925781 182.671875 C 83.945312 182.671875 84.003906 182.671875 84.042969 182.652344 Z M 167.382812 174.277344 L 167.09375 174.335938 C 167.074219 173.519531 167.074219 172.722656 167.054688 171.902344 C 161.792969 167.714844 156.554688 163.46875 151.570312 158.792969 C 136.785156 147.75 124.808594 131.742188 109.421875 121.125 C 107.84375 120.328125 106.34375 119.292969 104.863281 118.164062 C 106.011719 119.257812 107.140625 120.386719 108.210938 121.59375 L 108.367188 121.398438 C 119.410156 134.914062 134.546875 146.25 144.867188 159.59375 C 152.132812 166.46875 159.710938 173.949219 167.324219 181.621094 C 167.34375 179.148438 167.363281 176.695312 167.382812 174.277344 Z M 147.886719 185.847656 C 150.359375 185.828125 152.757812 185.828125 155.191406 185.828125 C 147.011719 178.253906 138.792969 170.480469 130.921875 162.828125 L 130.589844 163.253906 C 119.390625 151.644531 106.03125 143.25 94.636719 131.917969 C 90.605469 128.78125 86.867188 125.175781 83.222656 121.4375 L 83.105469 121.945312 C 88.152344 126.308594 93.097656 130.628906 97.753906 135.089844 C 106.050781 142.980469 114.132812 151.003906 121.320312 160.761719 C 121.476562 160.546875 121.710938 160.585938 121.359375 160.078125 C 125.839844 165.339844 130.960938 169.117188 135.167969 174.125 L 135.34375 173.929688 C 138.539062 178.058594 142.160156 181.972656 145.863281 185.847656 C 146.542969 185.847656 147.207031 185.847656 147.886719 185.847656 Z M 139.863281 185.886719 C 140.660156 185.886719 141.441406 185.886719 142.21875 185.886719 C 137.566406 181.464844 132.792969 177.121094 128.410156 172.488281 C 124.28125 168.667969 122.0625 165.535156 118.085938 161.5 L 117.523438 161.890625 C 112.632812 153.28125 101.53125 149.679688 96.410156 140.71875 L 96.273438 141.867188 C 96.15625 139.765625 91.597656 138.070312 93.722656 136.707031 L 91.949219 136.027344 C 90.273438 131.585938 86.789062 129.773438 83.28125 127.261719 C 83.359375 128 83.398438 128.820312 83.339844 129.871094 L 83.144531 128.996094 C 83.105469 129.421875 83.105469 129.988281 83.125 130.609375 C 83.203125 130.6875 83.300781 130.765625 83.378906 130.863281 C 83.476562 129.949219 83.574219 129.054688 83.730469 128.019531 C 83.671875 129.035156 83.847656 130.300781 83.496094 130.203125 C 83.496094 130.417969 83.496094 130.6875 83.476562 130.960938 C 88.074219 135.558594 92.902344 139.355469 97.109375 144.03125 L 97.285156 143.816406 C 107.609375 156.300781 121.183594 167.09375 131.78125 179.03125 C 134.429688 181.230469 137.15625 183.550781 139.863281 185.886719 Z M 76.835938 157.273438 L 76.152344 154.257812 C 75.257812 141.925781 75.957031 132.441406 76.855469 120.773438 C 77.125 117.132812 76.386719 118.554688 76.269531 116.800781 C 76.308594 116.355469 76.347656 115.945312 76.386719 115.515625 C 76.328125 113.859375 76.347656 112.320312 76.425781 110.878906 L 76.601562 108.230469 L 76.640625 107.53125 L 76.660156 106.382812 C 76.660156 105.621094 76.679688 104.84375 76.679688 104.0625 L 76.835938 103.558594 L 76.582031 103.617188 L 77.03125 102.195312 L 77.242188 101.472656 L 77.300781 101.296875 L 77.300781 101.238281 L 77.320312 101.238281 C 76.972656 100.96875 77.769531 101.609375 77.691406 101.53125 L 77.710938 101.53125 L 77.710938 101.492188 L 77.769531 101.414062 L 78.003906 101.121094 C 78.492188 100.324219 79.40625 99.777344 80.59375 99.605469 C 80.789062 99.566406 81.003906 99.566406 81.179688 99.527344 C 81.121094 99.46875 81.101562 99.351562 81.390625 99.175781 C 81.800781 99.058594 82.601562 98.863281 83.984375 98.746094 C 84.683594 98.84375 85.152344 98.980469 85.773438 99.058594 L 86.242188 99.039062 C 86.632812 99.019531 86.980469 99 87.371094 98.980469 L 86.554688 98.824219 C 88.460938 98.355469 90.3125 98.648438 94.226562 98.414062 C 95.511719 98.394531 96.761719 98.414062 98.027344 98.453125 C 98.804688 98.238281 99.507812 98.027344 98.6875 97.929688 C 100.519531 98.589844 106.34375 98.335938 110.433594 98.550781 C 110.355469 98.472656 110.257812 98.394531 110.042969 98.316406 C 109.070312 98.355469 108.289062 98.335938 107.355469 98.144531 C 110.238281 98.046875 112.359375 97.734375 111.914062 97.480469 C 113.160156 97.734375 115.125 97.929688 117.09375 98.105469 C 119.644531 98.144531 121.144531 98.164062 123.929688 98.550781 C 122.898438 98.394531 122.003906 98.511719 121.945312 98.667969 C 122.332031 98.746094 122.664062 98.824219 122.917969 98.902344 C 123.210938 98.902344 123.519531 98.882812 123.871094 98.882812 C 125.683594 98.589844 127.183594 98.414062 126.539062 97.910156 C 130.378906 98.105469 130.066406 98.433594 129.265625 98.785156 C 130.570312 98.707031 131.449219 98.570312 131.3125 98.296875 C 132.285156 98.316406 133.300781 98.335938 134.292969 98.355469 C 134.933594 98.257812 135.382812 98.296875 135.773438 98.394531 C 141.011719 98.511719 146.386719 98.648438 151.878906 98.765625 C 155.40625 98.902344 158.988281 99.019531 162.554688 99.15625 L 169.097656 99.507812 L 170.226562 99.585938 L 171.125 99.894531 L 172.894531 100.558594 C 173.890625 101.179688 174.199219 102.390625 174.316406 103.90625 C 174.355469 106.480469 174.375 109.03125 174.414062 111.542969 C 174.046875 114.25 174.238281 109.496094 173.988281 110.976562 C 173.519531 114.914062 174.277344 114.09375 173.910156 117.230469 L 174.316406 115.945312 C 174.414062 120.621094 173.734375 125.605469 173.402344 130.144531 C 173.871094 129.382812 173.832031 133.863281 174.066406 130.085938 C 174.007812 132.304688 176.128906 134.972656 175.71875 136.6875 L 173.753906 134.214844 C 173.558594 134.351562 173.714844 137.449219 173.597656 137.15625 C 173.988281 139.082031 174.472656 141.441406 174.492188 142.785156 C 174.980469 143.425781 174.84375 140.058594 174.804688 138.226562 C 175.621094 137.933594 175.390625 144.421875 176.128906 141.734375 C 176.03125 145.707031 175.679688 141.1875 175.429688 143.5625 L 175.621094 146.992188 L 175.332031 144.34375 C 175.117188 147.226562 174.511719 148.21875 175 152.054688 L 174.257812 156.066406 C 174.902344 156.457031 174.414062 158.96875 174.589844 161.015625 L 174.980469 159.730469 C 174.980469 162.457031 175.117188 163.507812 175.371094 165.203125 C 175.914062 163.664062 175.214844 162.75 175.738281 162.066406 L 175.953125 165.066406 C 175.601562 165.046875 175.332031 166.976562 175.078125 164.832031 C 174.433594 167.617188 173.890625 169.15625 174.027344 176.128906 C 174.6875 179.246094 174.53125 172.722656 175.175781 174.007812 C 175.351562 177.628906 174.960938 179.847656 174.550781 181.699219 C 174.140625 183.648438 173.714844 184.601562 173.792969 187.953125 C 173.8125 188.925781 173.832031 189.761719 173.871094 190.503906 C 173.871094 190.875 173.871094 191.222656 173.871094 191.554688 C 173.910156 191.886719 173.929688 192.21875 173.5 192.121094 C 172.332031 192.160156 171.394531 192.160156 170.460938 192.140625 C 168.882812 192.101562 167.324219 192.082031 164.113281 192.003906 C 165.863281 192.414062 160.273438 192.488281 159.261719 192.878906 L 161.425781 193.328125 C 159.75 193.191406 158.152344 193.347656 158.640625 193.660156 C 158.949219 193.09375 151.53125 193.074219 147.769531 192.761719 L 148.433594 192.277344 C 145.492188 192.082031 141.402344 191.730469 138.304688 191.867188 C 137.175781 191.828125 136.296875 191.789062 135.773438 191.710938 C 135.363281 191.652344 135.050781 191.574219 134.722656 191.476562 C 134.078125 191.300781 133.511719 191.066406 131.683594 190.875 C 131.039062 191.144531 130.960938 191.339844 131.429688 191.769531 C 131.839844 192.140625 131.898438 192.042969 132.519531 192.375 C 132.96875 192.082031 134.390625 192.179688 135.597656 192.003906 C 141.109375 192.375 145.902344 193.484375 151.683594 193.308594 C 154.238281 194.515625 147.730469 193.113281 144.886719 193.523438 C 144.984375 193.582031 145.179688 193.621094 145.394531 193.621094 C 145.140625 193.640625 144.945312 193.640625 144.691406 193.660156 C 146.777344 193.816406 150.207031 194.046875 150.769531 194.652344 C 147.246094 194.496094 148.21875 193.445312 143.855469 193.910156 C 140.640625 193.5625 138.03125 194.496094 136.105469 194.59375 C 135.65625 194.378906 135.714844 194.027344 135.246094 193.757812 C 135.050781 193.640625 134.777344 193.523438 134.449219 193.464844 C 134.15625 193.445312 133.492188 193.25 133.863281 193.890625 C 133.960938 193.851562 134.078125 193.816406 134.195312 193.816406 C 134.351562 193.851562 134.644531 193.988281 134.816406 194.066406 C 134.605469 194.046875 134.546875 194.105469 134.585938 194.242188 C 134.585938 194.320312 134.546875 194.378906 134.527344 194.4375 C 134.449219 194.535156 134.332031 194.59375 134.214844 194.652344 C 134.117188 194.691406 134 194.769531 133.960938 194.964844 C 133.921875 195.179688 133.882812 195.253906 134.234375 196.851562 C 133.765625 195.0625 133.980469 198.664062 133.242188 195.449219 C 133.203125 196.890625 134.078125 201.15625 134.914062 203.980469 C 134.972656 204.78125 134.722656 204.195312 134.527344 204.390625 C 133.355469 201.234375 133.824219 199.132812 132.578125 196.601562 C 132.597656 195.664062 132.773438 195.253906 132.910156 194.828125 C 132.265625 193.113281 131.449219 192.121094 131.488281 193.542969 C 131.351562 192.839844 131.332031 192.355469 131.078125 191.75 C 130.378906 191.046875 130.667969 191.964844 131.019531 192.996094 C 131.371094 194.046875 131.742188 195.042969 131.390625 195.566406 L 131.039062 193.640625 C 130.183594 192.605469 131.15625 197.066406 131.859375 200.027344 C 131.761719 199.40625 131.703125 198.839844 131.742188 198.371094 C 132.011719 199.132812 132.265625 199.96875 132.519531 200.828125 C 132.363281 199.871094 132.207031 198.839844 131.878906 197.769531 C 132.617188 200.574219 132.636719 200.222656 133.375 203.765625 C 133.222656 203.574219 133.144531 203.300781 133.046875 203.046875 C 133.183594 203.765625 133.320312 204.449219 133.394531 205.054688 C 133.824219 206.300781 134.175781 207.195312 134.46875 207.253906 L 133.746094 202.988281 C 134.625 205.074219 134.722656 208.402344 135.285156 210.855469 C 135.382812 210.992188 135.480469 211.207031 135.578125 211.5 C 135.519531 211.382812 135.441406 211.324219 135.402344 211.324219 C 135.539062 211.851562 135.714844 212.296875 135.910156 212.648438 C 136.414062 214.792969 136.824219 218.003906 137.429688 219.972656 L 137.117188 219.875 C 137.3125 220.574219 137.507812 221.316406 137.679688 221.996094 C 137.855469 222.25 138.011719 222.445312 138.148438 222.660156 C 138.597656 221.472656 137.175781 218.335938 136.902344 216.039062 C 137.875 217.226562 137.972656 220.519531 139.453125 224.996094 C 139.765625 222.992188 138.246094 219.699219 138.714844 218.53125 C 139.648438 222.171875 139.355469 223.265625 140.386719 227.101562 C 140.621094 226.515625 139.804688 222.738281 140.3125 222.875 L 141.070312 225.328125 C 139.746094 219.191406 142.238281 226.167969 141.34375 221.375 C 142.140625 223.554688 141.441406 224.648438 142.628906 227.742188 C 142.101562 226.925781 140.953125 224.511719 141.34375 227.625 L 142.335938 231.035156 C 143.019531 232.398438 142.316406 227.257812 143.117188 229.4375 L 143.679688 233.121094 C 143.425781 233.042969 142.941406 231.347656 142.882812 232.496094 C 143.582031 234.542969 142.804688 236.117188 143.019531 238.671875 C 143.484375 240.636719 143.875 242.175781 144.285156 242.820312 C 144.730469 247.921875 146.152344 254.175781 146.5625 258.867188 C 146.308594 255.675781 147.34375 258.828125 148.101562 260.621094 C 147.382812 257.019531 148.0625 256.84375 148.570312 256.980469 C 148.976562 259.179688 148.589844 260.757812 148.101562 259.707031 C 149.191406 263.289062 148.179688 262.335938 149.367188 265.433594 C 150.070312 267.457031 149.816406 264.242188 150.242188 264.90625 C 150.457031 265.898438 150.535156 266.40625 150.554688 266.855469 C 150.613281 267.476562 150.574219 267.730469 150.535156 268.003906 C 150.476562 268.238281 150.457031 268.527344 150.515625 269.054688 C 150.457031 267.515625 152.503906 274.585938 152.035156 275.191406 C 151.878906 274.429688 151.644531 273.652344 151.472656 272.890625 C 151.589844 274.429688 151.238281 275.441406 150.671875 276.164062 C 149.5625 276.59375 148.414062 276.4375 148.023438 276.378906 C 147.613281 276.613281 147.089844 276.84375 146.484375 277.019531 C 145.511719 277 144.441406 276.921875 143.40625 276.84375 C 142.53125 276.769531 141.695312 276.691406 140.972656 276.632812 C 139.960938 276.535156 139.316406 276.535156 139.472656 276.921875 C 133.882812 276.339844 140.351562 276.457031 139.277344 276.085938 C 138.773438 275.96875 138.128906 275.890625 137.488281 275.832031 C 136.066406 275.753906 134.796875 275.734375 133.492188 275.753906 C 133.804688 275.871094 134.253906 275.96875 134.914062 276.046875 C 135.070312 276.046875 135.207031 276.066406 135.363281 276.066406 L 134.136719 276.632812 C 130.550781 276.75 129.480469 276.320312 128.390625 275.949219 C 127.863281 275.871094 127.4375 275.773438 127.359375 275.675781 C 126.734375 275.65625 126.132812 275.617188 125.566406 275.539062 C 125.605469 275.519531 125.664062 275.5 125.703125 275.480469 C 125.058594 275.460938 124.261719 275.460938 123.230469 275.519531 C 123.988281 275.617188 124.671875 275.675781 125.917969 275.832031 C 125.625 275.851562 125.3125 275.871094 124.980469 275.890625 C 125.15625 276.046875 124.847656 276.203125 125.839844 276.457031 C 124.828125 276.28125 119.996094 276.457031 122.390625 276.046875 C 121.046875 276.144531 120.015625 276.28125 120.210938 276.574219 C 119.761719 276.457031 119.277344 276.300781 118.847656 276.164062 C 118.046875 276.222656 117.308594 276.28125 116.585938 276.339844 C 114.289062 276.144531 111.757812 275.988281 110.394531 275.578125 C 109.867188 275.578125 109.402344 275.578125 108.894531 275.578125 C 111.640625 276.046875 115.070312 276.066406 116.566406 276.75 C 114.855469 276.632812 112.964844 276.476562 111.289062 276.28125 C 110.453125 276.164062 109.691406 276.066406 108.992188 275.988281 C 108.210938 275.851562 107.550781 275.753906 107.023438 275.675781 L 107.980469 275.597656 L 108.269531 275.558594 C 108.074219 275.558594 107.84375 275.558594 107.648438 275.558594 C 106.421875 275.558594 105.328125 275.367188 104.257812 275.25 C 103.886719 275.191406 103.519531 275.132812 103.148438 275.054688 L 103.265625 275.347656 C 103.441406 275.8125 104.042969 275.558594 104.394531 275.714844 C 103.636719 275.929688 103.246094 275.539062 102.953125 275.035156 C 102.875 275.015625 102.796875 275.015625 102.71875 274.996094 C 102.503906 274.585938 102.273438 274.214844 102.058594 273.847656 C 101.609375 273.105469 101.199219 272.425781 100.890625 271.800781 C 100.714844 271.175781 100.539062 270.613281 100.382812 270.027344 C 99.855469 268.878906 99.371094 267.75 98.960938 266.640625 C 96.117188 256.160156 92.707031 243.617188 91.65625 234.5625 C 91.324219 232.90625 91.054688 231.308594 90.78125 229.730469 C 90.78125 229.671875 90.761719 229.613281 90.761719 229.554688 C 90.117188 227.664062 89.4375 225.347656 88.675781 223.285156 C 89.457031 225.191406 89.457031 225.191406 89.882812 225.308594 C 89.882812 225.289062 89.882812 225.289062 89.882812 225.269531 C 89.882812 225.230469 89.882812 225.191406 89.863281 225.152344 C 89.359375 223.535156 88.792969 221.882812 88.132812 220.167969 C 87.996094 220.265625 87.957031 220.769531 88.363281 222.132812 C 86.476562 216.875 85.347656 212.492188 83.945312 207.625 L 83.925781 207.859375 C 81.199219 200.164062 79.96875 192.878906 78.9375 184.210938 C 78.9375 184.933594 78.683594 185.148438 78.644531 185.710938 C 78.160156 183.042969 78.003906 179.597656 78.0625 176.578125 C 77.4375 171.28125 76.816406 166.039062 76.132812 160.371094 L 76.835938 157.273438 "/></g><g clip-rule="nonzero" clip-path="url(#clip4)"><path style=" stroke:none;fill-rule:nonzero;fill:rgb(0%,0%,0%);fill-opacity:1;" d="M 139.023438 277.507812 C 137.816406 276.921875 135.148438 277.703125 134.371094 277.117188 C 135.363281 277.3125 138.832031 276.921875 139.023438 277.507812 "/></g><path style=" stroke:none;fill-rule:nonzero;fill:rgb(0%,0%,0%);fill-opacity:1;" d="M 175.527344 151.394531 C 175.699219 153.4375 175.601562 154.644531 175.175781 154.101562 C 175.15625 151.800781 175.429688 153.046875 175.527344 151.394531 "/><path style=" stroke:none;fill-rule:nonzero;fill:rgb(0%,0%,0%);fill-opacity:1;" d="M 175.117188 156.75 L 175.332031 157.023438 L 175.660156 158.367188 Z M 175.117188 156.75 "/><path style=" stroke:none;fill-rule:nonzero;fill:rgb(0%,0%,0%);fill-opacity:1;" d="M 175.894531 170.871094 C 175.972656 170.773438 176.03125 170.402344 176.070312 170.011719 C 176.03125 170.8125 175.972656 171.511719 175.894531 170.871094 "/><path style=" stroke:none;fill-rule:nonzero;fill:rgb(0%,0%,0%);fill-opacity:1;" d="M 176.109375 169.625 C 176.109375 169.234375 176.070312 168.824219 175.953125 168.6875 L 176.1875 168.511719 C 176.167969 168.765625 176.128906 169.195312 176.109375 169.625 "/><path style=" stroke:none;fill-rule:nonzero;fill:rgb(0%,0%,0%);fill-opacity:1;" d="M 176.382812 172.835938 L 176.03125 175.117188 L 175.351562 172.429688 C 175.640625 169.625 175.71875 175.621094 176.382812 172.835938 "/><path style=" stroke:none;fill-rule:nonzero;fill:rgb(0%,0%,0%);fill-opacity:1;" d="M 162.789062 192.996094 C 164.773438 192.898438 166.019531 192.917969 166.898438 193.015625 C 168.203125 193.09375 169.019531 193.230469 169.820312 193.386719 C 170.617188 193.523438 171.414062 193.679688 172.777344 193.71875 C 173.460938 193.738281 174.296875 193.738281 175.3125 193.699219 C 175.738281 193.074219 175.429688 191.535156 175.46875 190.074219 C 175.699219 193.171875 175.796875 192.316406 175.855469 190.269531 C 175.855469 189.21875 175.875 187.933594 175.894531 186.765625 C 175.894531 186.160156 175.894531 185.613281 175.914062 185.128906 C 175.933594 184.894531 175.953125 184.679688 175.953125 184.523438 C 176.011719 184.875 176.011719 186.648438 175.972656 187.914062 C 175.914062 189.21875 175.855469 190.582031 175.796875 191.867188 C 175.757812 192.488281 175.738281 193.09375 175.699219 193.660156 C 175.488281 194.046875 174.628906 193.816406 174.179688 193.910156 C 173.128906 193.988281 172.292969 194.105469 171.726562 194.320312 C 168.398438 194.359375 166.605469 194.28125 166.566406 194.144531 C 166.234375 193.988281 166.410156 193.851562 166.566406 193.679688 C 166.859375 193.367188 166.996094 193.113281 162.789062 192.996094 "/><path style=" stroke:none;fill-rule:nonzero;fill:rgb(0%,0%,0%);fill-opacity:1;" d="M 174.667969 183.316406 C 174.863281 183.101562 174.960938 183.804688 175 184.699219 C 175 185.34375 175 186.0625 175 186.707031 C 174.980469 187.445312 174.960938 188.109375 174.902344 188.496094 C 174.863281 187.699219 174.707031 186.589844 174.609375 185.496094 C 174.511719 184.582031 174.472656 184.015625 174.667969 183.316406 "/><path style=" stroke:none;fill-rule:nonzero;fill:rgb(0%,0%,0%);fill-opacity:1;" d="M 160.683594 194.554688 L 160.097656 194.300781 L 162.941406 194.242188 Z M 160.683594 194.554688 "/><path style=" stroke:none;fill-rule:nonzero;fill:rgb(0%,0%,0%);fill-opacity:1;" d="M 154.414062 194.378906 L 156.59375 194.828125 C 155.890625 194.652344 152.601562 194.652344 154.414062 194.378906 "/><path style=" stroke:none;fill-rule:nonzero;fill:rgb(0%,0%,0%);fill-opacity:1;" d="M 143.058594 194.183594 L 142.082031 194.203125 C 142.335938 194.359375 140.019531 194.710938 142.628906 194.828125 C 140.601562 194.964844 138.773438 193.929688 143.058594 194.183594 "/><path style=" stroke:none;fill-rule:nonzero;fill:rgb(0%,0%,0%);fill-opacity:1;" d="M 136.257812 204.761719 L 135.910156 203.726562 C 135.578125 202.363281 135.34375 200.710938 135.617188 200.941406 L 136.257812 204.761719 "/><path style=" stroke:none;fill-rule:nonzero;fill:rgb(0%,0%,0%);fill-opacity:1;" d="M 137.71875 207.839844 C 137.738281 206.765625 137.234375 205.226562 136.980469 204.292969 C 137.429688 204.664062 137.914062 207.292969 137.71875 207.839844 "/><path style=" stroke:none;fill-rule:nonzero;fill:rgb(0%,0%,0%);fill-opacity:1;" d="M 139.492188 214.441406 C 140.371094 217.011719 140.953125 219.796875 140.953125 221.375 C 140.542969 220.75 139.628906 219.953125 139.570312 221.121094 C 138.851562 216.855469 139.472656 214.441406 138.167969 212.589844 L 138.421875 208.8125 C 139.355469 212.140625 138.265625 211.578125 138.851562 213.894531 C 139.375 215.0625 139.121094 213.542969 139.492188 214.441406 "/><path style=" stroke:none;fill-rule:nonzero;fill:rgb(0%,0%,0%);fill-opacity:1;" d="M 134.953125 205.851562 L 135.8125 208.011719 C 135.363281 207.664062 135.695312 209.375 135.851562 210.605469 C 134.953125 210.195312 135.1875 207.136719 134.953125 205.851562 "/><path style=" stroke:none;fill-rule:nonzero;fill:rgb(0%,0%,0%);fill-opacity:1;" d="M 143.621094 237.40625 L 144.5 242.234375 L 144.109375 240.695312 Z M 143.621094 237.40625 "/><path style=" stroke:none;fill-rule:nonzero;fill:rgb(0%,0%,0%);fill-opacity:1;" d="M 145.21875 244.261719 L 144.539062 240.421875 L 144.789062 240.480469 Z M 145.21875 244.261719 "/><path style=" stroke:none;fill-rule:nonzero;fill:rgb(0%,0%,0%);fill-opacity:1;" d="M 145.941406 245.371094 L 145.765625 244.824219 L 145.335938 241.960938 Z M 145.941406 245.371094 "/><path style=" stroke:none;fill-rule:nonzero;fill:rgb(0%,0%,0%);fill-opacity:1;" d="M 147.1875 251.078125 C 147.285156 252.167969 147.886719 254.679688 148.316406 255.34375 L 147.789062 254.542969 C 147.613281 253.296875 146.699219 250.960938 147.1875 251.078125 "/><path style=" stroke:none;fill-rule:nonzero;fill:rgb(0%,0%,0%);fill-opacity:1;" d="M 132.929688 268.488281 C 133.824219 268.742188 133.261719 268.9375 132.714844 269.113281 L 131.3125 268.488281 C 131.722656 268.527344 132.578125 268.625 132.929688 268.488281 "/></g></svg>