<svg xmlns="http://www.w3.org/2000/svg"
    xmlns:xlink="http://www.w3.org/1999/xlink" viewBox="0 0 139.7 206.49">
    <defs>
        <style>.cls-1{fill:none;}.cls-2{clip-path:url(#clip-path);}.cls-3{clip-path:url(#clip-path-2);}.cls-4{fill:#dd182f;}.cls-5{clip-path:url(#clip-path-4);}.cls-6{clip-path:url(#clip-path-7);}.cls-7{clip-path:url(#clip-path-10);}.cls-8{clip-path:url(#clip-path-13);}.cls-9{clip-path:url(#clip-path-16);}.cls-10{clip-path:url(#clip-path-19);}.cls-11{clip-path:url(#clip-path-22);}.cls-12{clip-path:url(#clip-path-25);}.cls-13{clip-path:url(#clip-path-28);}.cls-14{clip-path:url(#clip-path-31);}.cls-15{clip-path:url(#clip-path-34);}.cls-16{clip-path:url(#clip-path-37);}.cls-17{clip-path:url(#clip-path-40);}.cls-18{clip-path:url(#clip-path-43);}.cls-19{clip-path:url(#clip-path-46);}.cls-20{clip-path:url(#clip-path-49);}.cls-21{clip-path:url(#clip-path-52);}.cls-22{clip-path:url(#clip-path-55);}.cls-23{clip-path:url(#clip-path-58);}.cls-24{clip-path:url(#clip-path-61);}.cls-25{clip-path:url(#clip-path-64);}.cls-26{clip-path:url(#clip-path-67);}.cls-27{clip-path:url(#clip-path-70);}.cls-28{clip-path:url(#clip-path-73);}.cls-29{clip-path:url(#clip-path-76);}.cls-30{clip-path:url(#clip-path-79);}.cls-31{clip-path:url(#clip-path-82);}.cls-32{clip-path:url(#clip-path-85);}.cls-33{clip-path:url(#clip-path-88);}.cls-34{clip-path:url(#clip-path-91);}.cls-35{clip-path:url(#clip-path-94);}.cls-36{clip-path:url(#clip-path-97);}.cls-37{clip-path:url(#clip-path-100);}.cls-38{clip-path:url(#clip-path-103);}.cls-39{clip-path:url(#clip-path-106);}.cls-40{clip-path:url(#clip-path-109);}.cls-41{clip-path:url(#clip-path-112);}.cls-42{clip-path:url(#clip-path-115);}.cls-43{clip-path:url(#clip-path-118);}.cls-44{clip-path:url(#clip-path-121);}.cls-45{clip-path:url(#clip-path-124);}.cls-46{clip-path:url(#clip-path-127);}.cls-47{clip-path:url(#clip-path-130);}.cls-48{clip-path:url(#clip-path-133);}.cls-49{clip-path:url(#clip-path-136);}.cls-50{clip-path:url(#clip-path-139);}.cls-51{clip-path:url(#clip-path-142);}.cls-52{clip-path:url(#clip-path-145);}.cls-53{clip-path:url(#clip-path-148);}.cls-54{clip-path:url(#clip-path-151);}.cls-55{clip-path:url(#clip-path-154);}.cls-56{clip-path:url(#clip-path-157);}.cls-57{clip-path:url(#clip-path-160);}.cls-58{clip-path:url(#clip-path-163);}.cls-59{clip-path:url(#clip-path-166);}.cls-60{clip-path:url(#clip-path-169);}.cls-61{clip-path:url(#clip-path-172);}.cls-62{clip-path:url(#clip-path-175);}.cls-63{clip-path:url(#clip-path-178);}.cls-64{clip-path:url(#clip-path-181);}.cls-65{clip-path:url(#clip-path-184);}.cls-66{clip-path:url(#clip-path-187);}.cls-67{clip-path:url(#clip-path-190);}.cls-68{clip-path:url(#clip-path-193);}.cls-69{clip-path:url(#clip-path-196);}.cls-70{clip-path:url(#clip-path-199);}.cls-71{clip-path:url(#clip-path-200);}.cls-72{clip-path:url(#clip-path-201);}.cls-73{clip-path:url(#clip-path-204);}.cls-74{fill:#fff;}.cls-75{clip-path:url(#clip-path-207);}.cls-76{clip-path:url(#clip-path-208);}</style>
        <clipPath id="clip-path" transform="translate(-0.3 -0.36)">
            <rect class="cls-1" x="27" y="32" width="93" height="60"/>
        </clipPath>
        <clipPath id="clip-path-2" transform="translate(-0.3 -0.36)">
            <rect class="cls-1" x="-36.66" y="39.39" width="200.25" height="134.25" transform="translate(-50.3 155.83) rotate(-82.65)"/>
        </clipPath>
        <clipPath id="clip-path-4" transform="translate(-0.3 -0.36)">
            <rect class="cls-1" x="51" y="16" width="1" height="2"/>
        </clipPath>
        <clipPath id="clip-path-7" transform="translate(-0.3 -0.36)">
            <rect class="cls-1" x="9" width="107" height="73"/>
        </clipPath>
        <clipPath id="clip-path-10" transform="translate(-0.3 -0.36)">
            <rect class="cls-1" x="28" y="42" width="12" height="8"/>
        </clipPath>
        <clipPath id="clip-path-13" transform="translate(-0.3 -0.36)">
            <rect class="cls-1" x="10" y="17" width="8" height="8"/>
        </clipPath>
        <clipPath id="clip-path-16" transform="translate(-0.3 -0.36)">
            <rect class="cls-1" x="26" y="15" width="25" height="3"/>
        </clipPath>
        <clipPath id="clip-path-19" transform="translate(-0.3 -0.36)">
            <rect class="cls-1" x="13" y="29" width="2" height="2"/>
        </clipPath>
        <clipPath id="clip-path-22" transform="translate(-0.3 -0.36)">
            <rect class="cls-1" x="15" y="31" width="68" height="65"/>
        </clipPath>
        <clipPath id="clip-path-25" transform="translate(-0.3 -0.36)">
            <rect class="cls-1" x="59" y="95" width="3" height="6"/>
        </clipPath>
        <clipPath id="clip-path-28" transform="translate(-0.3 -0.36)">
            <rect class="cls-1" x="47" y="179" width="11" height="4"/>
        </clipPath>
        <clipPath id="clip-path-31" transform="translate(-0.3 -0.36)">
            <rect class="cls-1" x="35" y="184" width="28" height="9"/>
        </clipPath>
        <clipPath id="clip-path-34" transform="translate(-0.3 -0.36)">
            <rect class="cls-1" x="6" y="182" width="94" height="23"/>
        </clipPath>
        <clipPath id="clip-path-37" transform="translate(-0.3 -0.36)">
            <rect class="cls-1" x="39" y="179" width="8" height="4"/>
        </clipPath>
        <clipPath id="clip-path-40" transform="translate(-0.3 -0.36)">
            <rect class="cls-1" x="49" y="102" width="13" height="76"/>
        </clipPath>
        <clipPath id="clip-path-43" transform="translate(-0.3 -0.36)">
            <rect class="cls-1" x="100" y="198" width="2" height="2"/>
        </clipPath>
        <clipPath id="clip-path-46" transform="translate(-0.3 -0.36)">
            <rect class="cls-1" x="17" y="30" width="13" height="5"/>
        </clipPath>
        <clipPath id="clip-path-49" transform="translate(-0.3 -0.36)">
            <rect class="cls-1" x="66" y="56" width="2" height="3"/>
        </clipPath>
        <clipPath id="clip-path-52" transform="translate(-0.3 -0.36)">
            <rect class="cls-1" x="67" y="86" width="2" height="2"/>
        </clipPath>
        <clipPath id="clip-path-55" transform="translate(-0.3 -0.36)">
            <rect class="cls-1" x="57" y="56" width="3" height="3"/>
        </clipPath>
        <clipPath id="clip-path-58" transform="translate(-0.3 -0.36)">
            <rect class="cls-1" x="68" y="48" width="2" height="3"/>
        </clipPath>
        <clipPath id="clip-path-61" transform="translate(-0.3 -0.36)">
            <rect class="cls-1" x="84" y="49" width="2" height="2"/>
        </clipPath>
        <clipPath id="clip-path-64" transform="translate(-0.3 -0.36)">
            <rect class="cls-1" x="57" y="43" width="2" height="2"/>
        </clipPath>
        <clipPath id="clip-path-67" transform="translate(-0.3 -0.36)">
            <rect class="cls-1" x="65" y="45" width="2" height="2"/>
        </clipPath>
        <clipPath id="clip-path-70" transform="translate(-0.3 -0.36)">
            <rect class="cls-1" x="70" y="35" width="2" height="3"/>
        </clipPath>
        <clipPath id="clip-path-73" transform="translate(-0.3 -0.36)">
            <rect class="cls-1" x="75" y="43" width="2" height="3"/>
        </clipPath>
        <clipPath id="clip-path-76" transform="translate(-0.3 -0.36)">
            <rect class="cls-1" x="72" y="38" width="2" height="2"/>
        </clipPath>
        <clipPath id="clip-path-79" transform="translate(-0.3 -0.36)">
            <rect class="cls-1" x="84" y="37" width="2" height="2"/>
        </clipPath>
        <clipPath id="clip-path-82" transform="translate(-0.3 -0.36)">
            <rect class="cls-1" x="94" y="46" width="2" height="2"/>
        </clipPath>
        <clipPath id="clip-path-85" transform="translate(-0.3 -0.36)">
            <rect class="cls-1" x="110" y="47" width="2" height="2"/>
        </clipPath>
        <clipPath id="clip-path-88" transform="translate(-0.3 -0.36)">
            <rect class="cls-1" x="98" y="39" width="2" height="3"/>
        </clipPath>
        <clipPath id="clip-path-91" transform="translate(-0.3 -0.36)">
            <rect class="cls-1" x="59" y="33" width="2" height="2"/>
        </clipPath>
        <clipPath id="clip-path-94" transform="translate(-0.3 -0.36)">
            <rect class="cls-1" x="49" y="39" width="2" height="3"/>
        </clipPath>
        <clipPath id="clip-path-97" transform="translate(-0.3 -0.36)">
            <rect class="cls-1" x="30" y="39" width="2" height="2"/>
        </clipPath>
        <clipPath id="clip-path-100" transform="translate(-0.3 -0.36)">
            <rect class="cls-1" x="34" y="43" width="2" height="2"/>
        </clipPath>
        <clipPath id="clip-path-103" transform="translate(-0.3 -0.36)">
            <rect class="cls-1" x="46" y="38" width="2" height="2"/>
        </clipPath>
        <clipPath id="clip-path-106" transform="translate(-0.3 -0.36)">
            <rect class="cls-1" x="53" y="32" width="2" height="3"/>
        </clipPath>
        <clipPath id="clip-path-109" transform="translate(-0.3 -0.36)">
            <rect class="cls-1" x="61" y="49" width="2" height="2"/>
        </clipPath>
        <clipPath id="clip-path-112" transform="translate(-0.3 -0.36)">
            <rect class="cls-1" x="101" y="49" width="2" height="3"/>
        </clipPath>
        <clipPath id="clip-path-115" transform="translate(-0.3 -0.36)">
            <rect class="cls-1" x="101" y="60" width="2" height="2"/>
        </clipPath>
        <clipPath id="clip-path-118" transform="translate(-0.3 -0.36)">
            <rect class="cls-1" x="109" y="54" width="2" height="2"/>
        </clipPath>
        <clipPath id="clip-path-121" transform="translate(-0.3 -0.36)">
            <rect class="cls-1" x="80" y="64" width="1" height="3"/>
        </clipPath>
        <clipPath id="clip-path-124" transform="translate(-0.3 -0.36)">
            <rect class="cls-1" x="91" y="58" width="2" height="3"/>
        </clipPath>
        <clipPath id="clip-path-127" transform="translate(-0.3 -0.36)">
            <rect class="cls-1" x="81" y="75" width="2" height="2"/>
        </clipPath>
        <clipPath id="clip-path-130" transform="translate(-0.3 -0.36)">
            <rect class="cls-1" x="45" y="63" width="2" height="3"/>
        </clipPath>
        <clipPath id="clip-path-133" transform="translate(-0.3 -0.36)">
            <rect class="cls-1" x="38" y="51" width="2" height="2"/>
        </clipPath>
        <clipPath id="clip-path-136" transform="translate(-0.3 -0.36)">
            <rect class="cls-1" x="38" y="56" width="2" height="2"/>
        </clipPath>
        <clipPath id="clip-path-139" transform="translate(-0.3 -0.36)">
            <rect class="cls-1" x="52" y="67" width="2" height="3"/>
        </clipPath>
        <clipPath id="clip-path-142" transform="translate(-0.3 -0.36)">
            <rect class="cls-1" x="58" y="81" width="2" height="3"/>
        </clipPath>
        <clipPath id="clip-path-145" transform="translate(-0.3 -0.36)">
            <rect class="cls-1" x="62" y="63" width="2" height="2"/>
        </clipPath>
        <clipPath id="clip-path-148" transform="translate(-0.3 -0.36)">
            <rect class="cls-1" x="72" y="57" width="2" height="2"/>
        </clipPath>
        <clipPath id="clip-path-151" transform="translate(-0.3 -0.36)">
            <rect class="cls-1" x="76" y="61" width="1" height="2"/>
        </clipPath>
        <clipPath id="clip-path-154" transform="translate(-0.3 -0.36)">
            <rect class="cls-1" x="86" y="57" width="2" height="2"/>
        </clipPath>
        <clipPath id="clip-path-157" transform="translate(-0.3 -0.36)">
            <rect class="cls-1" x="86" y="66" width="2" height="3"/>
        </clipPath>
        <clipPath id="clip-path-160" transform="translate(-0.3 -0.36)">
            <rect class="cls-1" x="98" y="56" width="2" height="2"/>
        </clipPath>
        <clipPath id="clip-path-163" transform="translate(-0.3 -0.36)">
            <rect class="cls-1" x="106" y="56" width="2" height="2"/>
        </clipPath>
        <clipPath id="clip-path-166" transform="translate(-0.3 -0.36)">
            <rect class="cls-1" x="116" y="49" width="2" height="3"/>
        </clipPath>
        <clipPath id="clip-path-169" transform="translate(-0.3 -0.36)">
            <rect class="cls-1" x="113" y="48" width="2" height="2"/>
        </clipPath>
        <clipPath id="clip-path-172" transform="translate(-0.3 -0.36)">
            <rect class="cls-1" x="114" y="45" width="2" height="3"/>
        </clipPath>
        <clipPath id="clip-path-175" transform="translate(-0.3 -0.36)">
            <rect class="cls-1" x="106" y="41" width="2" height="2"/>
        </clipPath>
        <clipPath id="clip-path-178" transform="translate(-0.3 -0.36)">
            <rect class="cls-1" x="41" y="45" width="14" height="16"/>
        </clipPath>
        <clipPath id="clip-path-181" transform="translate(-0.3 -0.36)">
            <rect class="cls-1" x="13" y="3" width="10" height="10"/>
        </clipPath>
        <clipPath id="clip-path-184" transform="translate(-0.3 -0.36)">
            <rect class="cls-1" x="18" y="2" width="1" height="2"/>
        </clipPath>
        <clipPath id="clip-path-187" transform="translate(-0.3 -0.36)">
            <rect class="cls-1" x="20" y="12" width="15" height="20"/>
        </clipPath>
        <clipPath id="clip-path-190" transform="translate(-0.3 -0.36)">
            <rect class="cls-1" x="36" y="35" width="10" height="13"/>
        </clipPath>
        <clipPath id="clip-path-193" transform="translate(-0.3 -0.36)">
            <rect class="cls-1" x="53" y="59" width="10" height="12"/>
        </clipPath>
        <clipPath id="clip-path-196" transform="translate(-0.3 -0.36)">
            <rect class="cls-1" y="13" width="141" height="194"/>
        </clipPath>
        <clipPath id="clip-path-199" transform="translate(-0.3 -0.36)">
            <rect class="cls-1" x="-32.62" y="43.84" width="191.15" height="134.39" transform="translate(-55.22 159.27) rotate(-82.65)"/>
        </clipPath>
        <clipPath id="clip-path-200" transform="translate(-0.3 -0.36)">
            <rect class="cls-1" x="-32.7" y="43.92" width="191.15" height="134.23" transform="translate(-55.29 159.18) rotate(-82.65)"/>
        </clipPath>
        <clipPath id="clip-path-201" transform="translate(-0.3 -0.36)">
            <rect class="cls-1" x="37" y="182" width="33" height="9"/>
        </clipPath>
        <clipPath id="clip-path-204" transform="translate(-0.3 -0.36)">
            <rect class="cls-1" x="48" y="178" width="11" height="3"/>
        </clipPath>
        <clipPath id="clip-path-207" transform="translate(-0.3 -0.36)">
            <rect class="cls-1" x="93" y="68.24" width="9" height="12.76"/>
        </clipPath>
        <clipPath id="clip-path-208" transform="translate(-0.3 -0.36)">
            <rect class="cls-1" x="93" y="68.24" width="9" height="13.76"/>
        </clipPath>
    </defs>
    <g id="Calque_2" data-name="Calque 2">
        <g id="Calque_1-2" data-name="Calque 1">
            <g class="cls-2">
                <g class="cls-3">
                    <g class="cls-3">
                        <path class="cls-4" d="M111.66,42.27c-15.34-7-34.25-9.88-51-10.13-8.36-.13-17.24-.09-25.4,2.18-2.62.61-10.63,5-7.56,8.75,2.33,4.16,6.81,10.61,9.45,14.53,1.11,1.55,2.14,3.17,3.14,4.81,2,3.18,20.11,28.68,25.38,29.43S80.8,83.6,84.23,81c3.19-2,19.22-15.62,27.41-22.88,1.8-1.59,5.76-4.92,6.3-5.56,3.37-4-1.51-8.2-6.28-10.25" transform="translate(-0.3 -0.36)"/>
                    </g>
                </g>
            </g>
            <g class="cls-5">
                <g class="cls-3">
                    <g class="cls-3">
                        <path d="M51.39,17.71s.91-.81.12-.91c-.4-.05-.51.86-.12.91" transform="translate(-0.3 -0.36)"/>
                    </g>
                </g>
            </g>
            <g class="cls-6">
                <g class="cls-3">
                    <g class="cls-3">
                        <path d="M16.8,14.79c.53.85,8.69,12,8.69,12s15.64,20.5,16.8,22.09c2.72,3.71,4.37,5.88,6.77,8.84a5.41,5.41,0,0,1-3.39-2.27.6.6,0,0,0-.85-.16.61.61,0,0,0-.15.86A6.77,6.77,0,0,0,49.55,59h0a.63.63,0,0,0,.48-.15l2.37,2.87a90.08,90.08,0,0,0,8,8.6c.73.68,2.08,1.81,2.08,1.81.51.36.7.27.82.15a.92.92,0,0,0,.26-.53,1,1,0,0,0-.17-.66c-.25-.43-.56-.92-.9-1.46C59.75,65.38,54.64,58,50.27,51.84c4.37.77,8.9,1.49,13.54,2.09,16.53,2.13,34.42,2.66,51.39-2.22a.61.61,0,0,0,.42-.75.6.6,0,0,0-.76-.42C93,56.81,69.6,54,49.56,50.47a.76.76,0,0,0-.26,0C48.11,48.79,47,47.21,46,45.86c-4.83-6.75-13-17-15-20.06-3.57-5.44-8.68-13.62-8.68-13.62s1-2,1.11-2.22a5.8,5.8,0,0,0,.5-3.1,9,9,0,0,0-1.32-3.62C20.59.05,16-.48,13,1.59A7.3,7.3,0,0,0,11.32,3.1,7,7,0,0,0,9.77,9.19a7.94,7.94,0,0,0,4.9,5.23,13.21,13.21,0,0,0,2.13.37" transform="translate(-0.3 -0.36)"/>
                    </g>
                </g>
            </g>
            <g class="cls-7">
                <g class="cls-3">
                    <g class="cls-3">
                        <path d="M28.83,43.1a.81.81,0,0,0,0,1c2.21,2.18,7.06,3.48,10.07,5.08h0c.32,0,.65-.45.71-.77s-.12-.93-.45-1c-3-.58-7.5-2.47-9.48-4.42a.64.64,0,0,0-.88.08" transform="translate(-0.3 -0.36)"/>
                    </g>
                </g>
            </g>
            <g class="cls-8">
                <g class="cls-3">
                    <g class="cls-3">
                        <path d="M12.58,23.59A1.6,1.6,0,0,1,11.49,23c-.13-.21.08-.6.63-1.14A14.47,14.47,0,0,1,17.52,19a.61.61,0,1,0-.37-1.17A15.48,15.48,0,0,0,11.26,21c-.38.37-1.53,1.5-.81,2.67a2.73,2.73,0,0,0,1.9,1.14l.16,0a.62.62,0,0,0,.65-.58.61.61,0,0,0-.58-.64" transform="translate(-0.3 -0.36)"/>
                    </g>
                </g>
            </g>
            <g class="cls-9">
                <g class="cls-3">
                    <g class="cls-3">
                        <path d="M27.17,17.27a.38.38,0,0,0,.15,0C30,17,36.16,17,39.39,17.1h3a65.71,65.71,0,0,1,7.16.21.6.6,0,0,0,.67-.54.65.65,0,0,0-.55-.68,68.25,68.25,0,0,0-7.28-.22c-1,0-2,0-3,0s-8.88-.18-12.23.18a.62.62,0,0,0-.54.68.61.61,0,0,0,.53.54" transform="translate(-0.3 -0.36)"/>
                    </g>
                </g>
            </g>
            <g class="cls-10">
                <g class="cls-3">
                    <g class="cls-3">
                        <path d="M14.11,29.33c-.4,0-.52.87-.12.92,0,0,.91-.82.12-.92" transform="translate(-0.3 -0.36)"/>
                    </g>
                </g>
            </g>
            <g class="cls-11">
                <g class="cls-3">
                    <g class="cls-3">
                        <path d="M40.88,68.82l.68,1A188.35,188.35,0,0,0,54.85,87.48c.41.47.81.94,1.2,1.42.67.8,1.36,1.63,2.11,2.39a12.93,12.93,0,0,0,7,3.88,7.83,7.83,0,0,0,3.88-.46,33.08,33.08,0,0,0,9.37-5.82c1-.8,1.91-1.66,2.82-2.48l.63-.58A.63.63,0,0,0,82,85a.62.62,0,0,0-.87,0l-.64.58c-.9.82-1.83,1.66-2.77,2.44a32.19,32.19,0,0,1-9,5.63c-4.31,1.62-8.17-1.66-9.63-3.14-.71-.73-1.39-1.54-2-2.32-.4-.49-.8-1-1.22-1.44a186.79,186.79,0,0,1-13.2-17.56l-.69-1c-4.59-6.63-8.59-12.82-12.23-18.91-2.22-3.72-7.32-10-11-14.64l-2.38-2.95a.6.6,0,0,0-.85-.1.62.62,0,0,0-.11.86l2.39,3c3.69,4.58,8.76,10.86,10.93,14.5,3.66,6.11,7.68,12.33,12.29,19" transform="translate(-0.3 -0.36)"/>
                    </g>
                </g>
            </g>
            <g class="cls-12">
                <g class="cls-3">
                    <g class="cls-3">
                        <path d="M61.54,99.05a5.85,5.85,0,0,0-1-3.4.62.62,0,0,0-.86-.11.61.61,0,0,0-.11.86,4.74,4.74,0,0,1,.79,2.74l0,.43a.61.61,0,0,0,.53.56H61a.62.62,0,0,0,.56-.67l0-.41" transform="translate(-0.3 -0.36)"/>
                    </g>
                </g>
            </g>
            <g class="cls-13">
                <g class="cls-3">
                    <g class="cls-3">
                        <path d="M47.37,180.05a.62.62,0,0,0,.13.86,10.22,10.22,0,0,0,4.81,2,16.3,16.3,0,0,0,4.85-.24.6.6,0,0,0,.5-.7.61.61,0,0,0-.7-.51c-2.87.47-5.69.71-8.74-1.5a.61.61,0,0,0-.85.14" transform="translate(-0.3 -0.36)"/>
                    </g>
                </g>
            </g>
            <g class="cls-14">
                <g class="cls-3">
                    <g class="cls-3">
                        <path d="M36.39,184.51a.61.61,0,0,0-1,.63c1.36,2.3,4.23,3.78,6.54,5l.55.28a21.79,21.79,0,0,0,7.48,2.33,34.56,34.56,0,0,0,11.84-.82.6.6,0,0,0,.46-.73.61.61,0,0,0-.73-.47c-5.2,1.13-12,2-18.48-1.4l-.55-.28c-2.17-1.13-4.87-2.52-6.06-4.52" transform="translate(-0.3 -0.36)"/>
                    </g>
                </g>
            </g>
            <g class="cls-15">
                <g class="cls-3">
                    <g class="cls-3">
                        <path d="M99.09,200.2c-11.85,3.35-28.5,4.31-43.44,2.49-22-2.68-43-10-45.87-11.86l-.32-.23c-.78-.58-2-1.44-1.85-2.32.28-2.16,6.75-2.58,9.51-2.76.68,0,1.24-.08,1.61-.12,4.08-.45,16.3-1.6,16.42-1.61a.61.61,0,1,0-.11-1.22c-.13,0-12.35,1.16-16.44,1.61-.37,0-.91.08-1.56.12-3.83.25-10.24.66-10.65,3.82-.2,1.59,1.33,2.72,2.34,3.47l.34.24c3,2,23.1,9.08,45.21,11.93l1.22.15c15.09,1.84,31.92.86,43.92-2.53a.6.6,0,0,0,.42-.76.61.61,0,0,0-.75-.42" transform="translate(-0.3 -0.36)"/>
                    </g>
                </g>
            </g>
            <g class="cls-16">
                <g class="cls-3">
                    <g class="cls-3">
                        <path d="M39.9,182.62H40c2-.16,5.7-1.92,5.86-2a.61.61,0,1,0-.53-1.1s-3.68,1.73-5.43,1.87a.62.62,0,0,0,0,1.23" transform="translate(-0.3 -0.36)"/>
                    </g>
                </g>
            </g>
            <g class="cls-17">
                <g class="cls-3">
                    <g class="cls-3">
                        <path d="M51.93,173.91c-.27,2.11-1.42,2.48-2,2.66a.61.61,0,0,0,.11,1.19.57.57,0,0,0,.26,0c.61-.19,2.45-.77,2.82-3.66l.74-5.33c2.65-19.11,8.18-58.88,7.64-65.62a.62.62,0,1,0-1.23.09c.54,6.61-5,46.29-7.62,65.36l-.75,5.34" transform="translate(-0.3 -0.36)"/>
                    </g>
                </g>
            </g>
            <g class="cls-18">
                <g class="cls-3">
                    <g class="cls-3">
                        <path d="M101.2,198.87c-.79-.1-.91.81-.11.92,0,0,.51-.87.11-.92" transform="translate(-0.3 -0.36)"/>
                    </g>
                </g>
            </g>
            <g class="cls-19">
                <g class="cls-3">
                    <g class="cls-3">
                        <path d="M18,30.61a.61.61,0,0,0-.45,1.14A87.16,87.16,0,0,0,28.66,34.9h.06a.61.61,0,0,0,.68-.47.62.62,0,0,0-.47-.74A87.26,87.26,0,0,1,18,30.61" transform="translate(-0.3 -0.36)"/>
                    </g>
                </g>
            </g>
            <g class="cls-20">
                <g class="cls-3">
                    <g class="cls-3">
                        <path d="M67.09,58.09s1-1.11.16-1.21a.61.61,0,0,0-.16,1.21" transform="translate(-0.3 -0.36)"/>
                    </g>
                </g>
            </g>
            <g class="cls-21">
                <g class="cls-3">
                    <g class="cls-3">
                        <path d="M67.15,86.63a.6.6,0,1,0,1.19.16s-1.09-1-1.19-.16" transform="translate(-0.3 -0.36)"/>
                    </g>
                </g>
            </g>
            <g class="cls-22">
                <g class="cls-3">
                    <g class="cls-3">
                        <path d="M57.73,57.19a1,1,0,0,0,.2.67c.43.66,1.39-.08,1-.73-.2-.58-1.18-.65-1.18.06" transform="translate(-0.3 -0.36)"/>
                    </g>
                </g>
            </g>
            <g class="cls-23">
                <g class="cls-3">
                    <g class="cls-3">
                        <path d="M68.91,50.19s1-1.12.16-1.22a.62.62,0,0,0-.16,1.22" transform="translate(-0.3 -0.36)"/>
                    </g>
                </g>
            </g>
            <g class="cls-24">
                <g class="cls-3">
                    <g class="cls-3">
                        <path d="M84.56,50.45s1-1.11.16-1.22a.62.62,0,0,0-.16,1.22" transform="translate(-0.3 -0.36)"/>
                    </g>
                </g>
            </g>
            <g class="cls-25">
                <g class="cls-3">
                    <g class="cls-3">
                        <path d="M58.39,44.5s1-1.11.16-1.22a.62.62,0,0,0-.16,1.22" transform="translate(-0.3 -0.36)"/>
                    </g>
                </g>
            </g>
            <g class="cls-26">
                <g class="cls-3">
                    <g class="cls-3">
                        <path d="M66.18,46.43s.95-1.11.16-1.22a.62.62,0,0,0-.16,1.22" transform="translate(-0.3 -0.36)"/>
                    </g>
                </g>
            </g>
            <g class="cls-27">
                <g class="cls-3">
                    <g class="cls-3">
                        <path d="M71.41,37.11s1-1.12.15-1.22a.61.61,0,0,0-.15,1.22" transform="translate(-0.3 -0.36)"/>
                    </g>
                </g>
            </g>
            <g class="cls-28">
                <g class="cls-3">
                    <g class="cls-3">
                        <path d="M76,45s.94-1.11.15-1.22A.61.61,0,0,0,76,45" transform="translate(-0.3 -0.36)"/>
                    </g>
                </g>
            </g>
            <g class="cls-29">
                <g class="cls-3">
                    <g class="cls-3">
                        <path d="M73.12,39.39s.95-1.11.16-1.21a.61.61,0,0,0-.16,1.21" transform="translate(-0.3 -0.36)"/>
                    </g>
                </g>
            </g>
            <g class="cls-30">
                <g class="cls-3">
                    <g class="cls-3">
                        <path d="M84.91,38.44s1-1.12.15-1.22a.61.61,0,0,0-.15,1.22" transform="translate(-0.3 -0.36)"/>
                    </g>
                </g>
            </g>
            <g class="cls-31">
                <g class="cls-3">
                    <g class="cls-3">
                        <path d="M95.36,47.79s.94-1.08.16-1.18a.6.6,0,1,0-.16,1.18" transform="translate(-0.3 -0.36)"/>
                    </g>
                </g>
            </g>
            <g class="cls-32">
                <g class="cls-3">
                    <g class="cls-3">
                        <path d="M111.41,48.48l.11-.09a.61.61,0,0,0-.75-1l-.11.09a.61.61,0,0,0,.75,1" transform="translate(-0.3 -0.36)"/>
                    </g>
                </g>
            </g>
            <g class="cls-33">
                <g class="cls-3">
                    <g class="cls-3">
                        <path d="M99,41.09s.95-1.12.16-1.22A.62.62,0,0,0,99,41.09" transform="translate(-0.3 -0.36)"/>
                    </g>
                </g>
            </g>
            <g class="cls-34">
                <g class="cls-3">
                    <g class="cls-3">
                        <path d="M60.52,34.26s.94-1.12.15-1.22a.61.61,0,0,0-.15,1.22" transform="translate(-0.3 -0.36)"/>
                    </g>
                </g>
            </g>
            <g class="cls-35">
                <g class="cls-3">
                    <g class="cls-3">
                        <path d="M50.37,41.2s1-1.12.16-1.22a.62.62,0,0,0-.16,1.22" transform="translate(-0.3 -0.36)"/>
                    </g>
                </g>
            </g>
            <g class="cls-36">
                <g class="cls-3">
                    <g class="cls-3">
                        <path d="M30.88,39.61a.61.61,0,0,0-.16,1.21s.94-1.11.16-1.21" transform="translate(-0.3 -0.36)"/>
                    </g>
                </g>
            </g>
            <g class="cls-37">
                <g class="cls-3">
                    <g class="cls-3">
                        <path d="M35.2,44.42l.11-.09a.61.61,0,0,0-.74-1l-.12.09a.61.61,0,0,0,.75,1" transform="translate(-0.3 -0.36)"/>
                    </g>
                </g>
            </g>
            <g class="cls-38">
                <g class="cls-3">
                    <g class="cls-3">
                        <path d="M46.57,39.47s1-1.11.16-1.22a.62.62,0,0,0-.16,1.22" transform="translate(-0.3 -0.36)"/>
                    </g>
                </g>
            </g>
            <g class="cls-39">
                <g class="cls-3">
                    <g class="cls-3">
                        <path d="M53.69,34.2s1-1.11.15-1.21a.61.61,0,0,0-.15,1.21" transform="translate(-0.3 -0.36)"/>
                    </g>
                </g>
            </g>
            <g class="cls-40">
                <g class="cls-3">
                    <g class="cls-3">
                        <path d="M61.59,50.89s.95-1.12.16-1.22a.62.62,0,0,0-.16,1.22" transform="translate(-0.3 -0.36)"/>
                    </g>
                </g>
            </g>
            <g class="cls-41">
                <g class="cls-3">
                    <g class="cls-3">
                        <path d="M101.77,51.12s.94-1.11.16-1.21a.61.61,0,0,0-.16,1.21" transform="translate(-0.3 -0.36)"/>
                    </g>
                </g>
            </g>
            <g class="cls-42">
                <g class="cls-3">
                    <g class="cls-3">
                        <path d="M101.61,61.72s.94-1.11.15-1.22a.61.61,0,0,0-.15,1.22" transform="translate(-0.3 -0.36)"/>
                    </g>
                </g>
            </g>
            <g class="cls-43">
                <g class="cls-3">
                    <g class="cls-3">
                        <path d="M110.46,55.44s1-1.11.16-1.21a.61.61,0,0,0-.16,1.21" transform="translate(-0.3 -0.36)"/>
                    </g>
                </g>
            </g>
            <g class="cls-44">
                <g class="cls-3">
                    <g class="cls-3">
                        <path d="M80.52,66.21s1-1.11.16-1.21a.61.61,0,0,0-.16,1.21" transform="translate(-0.3 -0.36)"/>
                    </g>
                </g>
            </g>
            <g class="cls-45">
                <g class="cls-3">
                    <g class="cls-3">
                        <path d="M91.77,60s1-1.11.16-1.22A.62.62,0,0,0,91.77,60" transform="translate(-0.3 -0.36)"/>
                    </g>
                </g>
            </g>
            <g class="cls-46">
                <g class="cls-3">
                    <g class="cls-3">
                        <path d="M82.36,76.86s1-1.11.16-1.22a.62.62,0,0,0-.16,1.22" transform="translate(-0.3 -0.36)"/>
                    </g>
                </g>
            </g>
            <g class="cls-47">
                <g class="cls-3">
                    <g class="cls-3">
                        <path d="M46.48,65.12s1-1.12.16-1.22a.62.62,0,0,0-.16,1.22" transform="translate(-0.3 -0.36)"/>
                    </g>
                </g>
            </g>
            <g class="cls-48">
                <g class="cls-3">
                    <g class="cls-3">
                        <path d="M38.85,52.59s.95-1.11.16-1.21a.61.61,0,0,0-.16,1.21" transform="translate(-0.3 -0.36)"/>
                    </g>
                </g>
            </g>
            <g class="cls-49">
                <g class="cls-3">
                    <g class="cls-3">
                        <path d="M39,57.46s.55-1.17.15-1.22A.61.61,0,0,0,39,57.46" transform="translate(-0.3 -0.36)"/>
                    </g>
                </g>
            </g>
            <g class="cls-50">
                <g class="cls-3">
                    <g class="cls-3">
                        <path d="M53.21,69.08s.95-1.12.16-1.22a.62.62,0,0,0-.16,1.22" transform="translate(-0.3 -0.36)"/>
                    </g>
                </g>
            </g>
            <g class="cls-51">
                <g class="cls-3">
                    <g class="cls-3">
                        <path d="M58.42,82l-.12.09a.61.61,0,0,0,.75,1l.12-.09a.61.61,0,0,0-.75-1" transform="translate(-0.3 -0.36)"/>
                    </g>
                </g>
            </g>
            <g class="cls-52">
                <g class="cls-3">
                    <g class="cls-3">
                        <path d="M63.43,64.63s.95-1.11.16-1.22a.62.62,0,0,0-.16,1.22" transform="translate(-0.3 -0.36)"/>
                    </g>
                </g>
            </g>
            <g class="cls-53">
                <g class="cls-3">
                    <g class="cls-3">
                        <path d="M73.1,58.25s1-1.12.16-1.22a.62.62,0,0,0-.16,1.22" transform="translate(-0.3 -0.36)"/>
                    </g>
                </g>
            </g>
            <g class="cls-54">
                <g class="cls-3">
                    <g class="cls-3">
                        <path d="M76.52,62.92s1-1.12.16-1.22a.62.62,0,0,0-.16,1.22" transform="translate(-0.3 -0.36)"/>
                    </g>
                </g>
            </g>
            <g class="cls-55">
                <g class="cls-3">
                    <g class="cls-3">
                        <path d="M86.73,58.56s1-1.11.16-1.21a.61.61,0,0,0-.16,1.21" transform="translate(-0.3 -0.36)"/>
                    </g>
                </g>
            </g>
            <g class="cls-56">
                <g class="cls-3">
                    <g class="cls-3">
                        <path d="M86.4,67.39l-.05.4a.6.6,0,0,0,1.19.15l0-.4a.6.6,0,0,0-1.19-.15" transform="translate(-0.3 -0.36)"/>
                    </g>
                </g>
            </g>
            <g class="cls-57">
                <g class="cls-3">
                    <g class="cls-3">
                        <path d="M98.91,57.66s1-1.11.16-1.21a.61.61,0,0,0-.16,1.21" transform="translate(-0.3 -0.36)"/>
                    </g>
                </g>
            </g>
            <g class="cls-58">
                <g class="cls-3">
                    <g class="cls-3">
                        <path d="M106.91,58s1-1.11.16-1.21a.61.61,0,0,0-.16,1.21" transform="translate(-0.3 -0.36)"/>
                    </g>
                </g>
            </g>
            <g class="cls-59">
                <g class="cls-3">
                    <g class="cls-3">
                        <path d="M116.64,51.19s1-1.12.15-1.22a.61.61,0,0,0-.15,1.22" transform="translate(-0.3 -0.36)"/>
                    </g>
                </g>
            </g>
            <g class="cls-60">
                <g class="cls-3">
                    <g class="cls-3">
                        <path d="M114.64,48.9s-1.09-.94-1.19-.15a.6.6,0,1,0,1.19.15" transform="translate(-0.3 -0.36)"/>
                    </g>
                </g>
            </g>
            <g class="cls-61">
                <g class="cls-3">
                    <g class="cls-3">
                        <path d="M114.75,47.07a.6.6,0,1,0,.16-1.18s-1,1.08-.16,1.18" transform="translate(-0.3 -0.36)"/>
                    </g>
                </g>
            </g>
            <g class="cls-62">
                <g class="cls-3">
                    <g class="cls-3">
                        <path d="M107.32,42.36s1-1.11.16-1.22a.62.62,0,0,0-.16,1.22" transform="translate(-0.3 -0.36)"/>
                    </g>
                </g>
            </g>
            <g class="cls-63">
                <g class="cls-3">
                    <g class="cls-3">
                        <path d="M49.56,59h0a6.81,6.81,0,0,1-4.89-2.91.62.62,0,0,1,.16-.86.61.61,0,0,1,.85.15,5.53,5.53,0,0,0,4,2.4A.62.62,0,0,1,49.56,59Zm4.7-6.5c-1.66-.27-3.3-.56-4.91-.84a.62.62,0,0,1-.5-.71.61.61,0,0,1,.71-.5l4.22.73a9.24,9.24,0,0,0-3.87-4.7,6.68,6.68,0,0,0-3.9-.64c.62,1.52-1.33,3.51-3,3.16a1.94,1.94,0,0,1-.66-.28c-2.63,5,3,12.4,8,11.93,4.34-.46,5-4.46,3.93-8.15" transform="translate(-0.3 -0.36)"/>
                    </g>
                </g>
            </g>
            <g class="cls-64">
                <g class="cls-3">
                    <g class="cls-3">
                        <path d="M20.87,3.22a.61.61,0,1,0-.86.87c1.76,1.74,1.83,3.45.22,5.7-1,1.53-3.65,2.51-5.45,1.47a.62.62,0,0,0-.84.23.6.6,0,0,0,.22.83,4.5,4.5,0,0,0,1.7.57,5.93,5.93,0,0,0,5.38-2.4c1.94-2.73,1.82-5.11-.37-7.27" transform="translate(-0.3 -0.36)"/>
                    </g>
                </g>
            </g>
            <g class="cls-65">
                <g class="cls-3">
                    <g class="cls-3">
                        <path d="M18.3,3.07s.91-.81.12-.91c-.4-.05-.52.86-.12.91" transform="translate(-0.3 -0.36)"/>
                    </g>
                </g>
            </g>
            <g class="cls-66">
                <g class="cls-3">
                    <g class="cls-3">
                        <path d="M21.93,13a.61.61,0,1,0-1,.68c.08.12,8.14,12.26,12,17.85a.64.64,0,0,0,.86.15.63.63,0,0,0,.15-.86C30.06,25.22,22,13.09,21.93,13" transform="translate(-0.3 -0.36)"/>
                    </g>
                </g>
            </g>
            <g class="cls-67">
                <g class="cls-3">
                    <g class="cls-3">
                        <path d="M37.75,35.71a.61.61,0,0,0-.86-.12.62.62,0,0,0-.12.86l7.94,10.47a.61.61,0,0,0,.41.24.62.62,0,0,0,.57-1L37.75,35.71" transform="translate(-0.3 -0.36)"/>
                    </g>
                </g>
            </g>
            <g class="cls-68">
                <g class="cls-3">
                    <g class="cls-3">
                        <path d="M62.32,69.87c-2.59-3.94-4.8-7-7.36-10.32a.6.6,0,0,0-.85-.11.61.61,0,0,0-.11.86c2.54,3.27,4.72,6.33,7.3,10.25a.67.67,0,0,0,.43.27.69.69,0,0,0,.42-.1.61.61,0,0,0,.17-.85" transform="translate(-0.3 -0.36)"/>
                    </g>
                </g>
            </g>
            <g class="cls-69">
                <g class="cls-3">
                    <g class="cls-3">
                        <g class="cls-70">
                            <g class="cls-71">
                                <path d="M69.43,185a190.28,190.28,0,0,0,20.26,7.38l1.11.36c5.91,1.93,12.17,5.18,12.14,7.39,0,1-1.4,1.93-3.94,2.69-8.84,2.82-19.59,2.78-27.45,2.75-3.23.07-6.43.06-9.51,0a129.07,129.07,0,0,1-31.51-5.25c-7.6-2-18-4.66-25.85-9.63-2.25-1.38-3.36-2.66-3.12-3.6.54-2.15,7.41-3.7,13.61-4.07l1.17-.06a191.16,191.16,0,0,0,21.47-2c7.85-1.26,12.6-3.6,13.65-11.81,1-10.05,2.41-21.54,3.8-32.66,1-7.7,1.88-15,2.64-21.78.11-1.13.26-2.33.42-3.58.81-6.52,1.82-14.64-2.48-19.85C50.12,84.64,42.53,73.08,35.2,61.89c-5.68-8.65-11-16.82-15.27-22.31-1.12-1.46-2.38-3-3.6-4.42a76.14,76.14,0,0,1-6.39-8.39A26,26,0,0,0,15.2,29c2.25.72,8.46,2.48,9.73,2.84C31.62,33.7,38.59,35,45.34,36.33c3.06.59,6.12,1.12,9.14,1.75C61.16,39.49,70,41.13,79,42.29l3.69.49c1.88.24,3.72.45,5.52.6,7.7.6,16.8,1.34,25.94,1.32h2c5.88,0,12.45,0,18.16-2.17C118.73,57.28,90.39,81.78,74.52,93.6c-5.5,3.91-6.63,12-7.54,18.52-.18,1.24-.34,2.44-.53,3.57-1,6.82-2.06,14.15-3.13,21.92-1.53,11.07-3.11,22.51-4.78,32.44C57.51,178,61.94,181.7,69.43,185Zm-1.77-69.12c.19-1.13.36-2.35.53-3.6.92-6.61,2-14.09,7-17.7,17-12.68,48.34-39.89,63-54.12,1.38-1.08,1.94-2.27,1.66-3.58-1-4.4-8.52-7.11-12.59-8.57l-.91-.32a137.47,137.47,0,0,0-13.89-4l-3.11-.78c-9.06-2.32-18.88-4.29-30-6-2.65-.41-5.46-.81-9.12-1.28l-5-.64-5-.64c-.3,0-21.09-2-36.64-.48l.72,1.14c14-1.27,32.41.13,35.76.56l5,.64,5,.63c3.65.47,6.46.87,9.09,1.28,11.12,1.73,20.91,3.7,29.92,6l3.13.79A138.64,138.64,0,0,1,126,29.15l.92.33c3.85,1.37,11,3.93,11.8,7.66a1.87,1.87,0,0,1-.43,1.59l-.78.77a10.35,10.35,0,0,1-1.29.82c-6,3.18-13.12,3.14-20,3.12l-2,0c-9.1,0-18.17-.64-25.85-1.24-2.94-.23-6-.66-9.14-1.06-4.49-.58-8.92-1.29-13.08-2s-8-1.5-11.35-2.2c-3-.64-6.1-1.12-9.17-1.72-6.72-1.3-13.67-2.64-20.31-4.49-1.26-.35-7.44-2.12-9.68-2.84-4.1-1.31-6.48-2.72-7.26-4.28-.07-.17-.14-.34-.2-.51l-.06-.24a3.17,3.17,0,0,1,.82-3c1.54-1.7,4.77-2.86,8.9-3.63-.32-.46-.59-.82-.76-1.08-4.14.83-7.41,2.07-9,3.88a4.36,4.36,0,0,0-1.11,4.07,1.66,1.66,0,0,0,.06.21.4.4,0,0,0,0,.15l0,.08a4.28,4.28,0,0,0,.17.46c1.55,4,5,8,8.25,12,1.21,1.45,2.46,2.94,3.57,4.38,4.2,5.45,9.55,13.6,15.21,22.24,7.36,11.22,15,22.82,20.72,29.47,4,4.8,3,12.3,2.21,18.91-.16,1.26-.31,2.47-.42,3.6-.76,6.79-1.67,14.07-2.64,21.76-1.39,11.12-2.83,22.62-3.79,32.68-1,7.46-5.18,9.53-12.64,10.73a188.46,188.46,0,0,1-21.33,2l-1.18.06c-1.4.09-13.71.94-14.73,5C0,188.33,1.18,190,4,191.7c8,5.07,18.52,7.79,26.18,9.77A140.61,140.61,0,0,0,51,205.87c3.7.48,7.35.77,11,.89,3.11.11,6.33.12,9.56.05,7.93,0,18.79.07,27.81-2.81,3.21-1,4.78-2.23,4.8-3.84,0-4.19-11.65-8.14-13-8.58l-1.12-.36a187.81,187.81,0,0,1-20.14-7.33c-7.16-3.17-11.11-6.42-10.18-13.65,1.68-9.93,3.26-21.38,4.79-32.45,1.07-7.77,2.08-15.11,3.12-21.9" transform="translate(-0.3 -0.36)"/>
                            </g>
                        </g>
                    </g>
                </g>
            </g>
            <g class="cls-72">
                <g class="cls-3">
                    <g class="cls-3">
                        <path d="M38.24,182.76a.6.6,0,0,0-.86,0,.62.62,0,0,0,0,.87,23.12,23.12,0,0,0,13.39,6.2c7.88,1,15.44-1.3,18.42-2.39a.62.62,0,0,0,.37-.79.61.61,0,0,0-.79-.36c-4.57,1.66-20.26,6.34-30.54-3.54" transform="translate(-0.3 -0.36)"/>
                    </g>
                </g>
            </g>
            <g class="cls-73">
                <g class="cls-3">
                    <g class="cls-3">
                        <path d="M49.59,178.21a.62.62,0,1,0-.77,1,8,8,0,0,0,4,1.62,9.52,9.52,0,0,0,5-.7.61.61,0,1,0-.49-1.12,7.82,7.82,0,0,1-7.69-.76" transform="translate(-0.3 -0.36)"/>
                    </g>
                </g>
            </g>
            <path class="cls-74" d="M86.67,59.59c-1.35,3.23-2.51,6.32-5.39,8.3a12,12,0,0,1,6.08,7.82,11.56,11.56,0,0,1,4.69-8.14C88.62,65.82,87,61.35,86.67,59.59Z" transform="translate(-0.3 -0.36)"/>
            <path class="cls-74" d="M86.28,59.7c-1.21,2.91-2.39,6-5,7.92-.14.09-.56.5-.27.65A12,12,0,0,1,87,76c.1.43.8-.26.83-.47a11.51,11.51,0,0,1,4.33-7.66c.14-.11.57-.51.28-.66a11.29,11.29,0,0,1-5.3-7.87c0-.36-.89.21-.83.55a12.5,12.5,0,0,0,1.54,4.06,9.94,9.94,0,0,0,3.93,4c.1-.22.19-.44.28-.66a12.62,12.62,0,0,0-3.34,3.6,14.44,14.44,0,0,0-1.71,5l.83-.47a12.2,12.2,0,0,0-6.16-7.92l-.27.66c3-2.1,4.36-5.4,5.72-8.68.1-.2,0-.31-.24-.27A.76.76,0,0,0,86.28,59.7Z" transform="translate(-0.3 -0.36)"/>
            <g class="cls-75">
                <path class="cls-74" d="M97.44,68.72c-1,2.43-1.91,4.76-4.1,6.25A9,9,0,0,1,98,80.86a8.67,8.67,0,0,1,3.57-6.13C98.93,73.41,97.66,70,97.44,68.72Z" transform="translate(-0.3 -0.36)"/>
            </g>
            <g class="cls-76">
                <path class="cls-74" d="M97.14,68.8c-.92,2.19-1.81,4.54-3.84,6-.1.07-.42.38-.2.49a9.05,9.05,0,0,1,4.55,5.81c.08.32.6-.2.63-.35a8.72,8.72,0,0,1,3.29-5.78c.11-.07.44-.38.21-.49a8.48,8.48,0,0,1-4-5.93c0-.27-.68.16-.64.42a9.53,9.53,0,0,0,1.18,3,7.46,7.46,0,0,0,3,3l.21-.49A9.25,9.25,0,0,0,99,77.23,10.82,10.82,0,0,0,97.66,81l.63-.35a9.21,9.21,0,0,0-4.68-6l-.21.49c2.28-1.58,3.32-4.06,4.35-6.53.07-.16,0-.23-.18-.21A.6.6,0,0,0,97.14,68.8Z" transform="translate(-0.3 -0.36)"/>
            </g>
        </g>
    </g>
</svg>