<?xml version="1.0" encoding="utf-8"?>
<!-- Generator: Adobe Illustrator 25.4.1, SVG Export Plug-In . SVG Version: 6.00 Build 0)  -->
<svg version="1.1" id="Calque_1" xmlns="http://www.w3.org/2000/svg" xmlns:xlink="http://www.w3.org/1999/xlink" x="0px" y="0px"
	 viewBox="0 0 150 150" style="enable-background:new 0 0 150 150;" xml:space="preserve">
<style type="text/css">
	.st0{clip-path:url(#SVGID_00000160900923105855530350000018002200448089329848_);}
	.st1{fill:#FFFFFF;}
</style>
<g id="surface1">
	<g>
		<defs>
			<rect id="SVGID_1_" width="150" height="150"/>
		</defs>
		<clipPath id="SVGID_00000137842400121437497260000009947086286412265142_">
			<use xlink:href="#SVGID_1_"  style="overflow:visible;"/>
		</clipPath>
		<g style="clip-path:url(#SVGID_00000137842400121437497260000009947086286412265142_);">
			<path d="M150,75c0,1.2,0,2.5-0.1,3.7c-0.1,1.2-0.2,2.4-0.3,3.7c-0.1,1.2-0.3,2.4-0.5,3.7s-0.4,2.4-0.6,3.6s-0.5,2.4-0.8,3.6
				c-0.3,1.2-0.6,2.4-1,3.5c-0.4,1.2-0.7,2.3-1.2,3.5c-0.4,1.2-0.9,2.3-1.3,3.4c-0.5,1.1-1,2.3-1.5,3.4c-0.5,1.1-1.1,2.2-1.7,3.3
				s-1.2,2.1-1.8,3.2c-0.6,1.1-1.3,2.1-2,3.1c-0.7,1-1.4,2-2.1,3c-0.7,1-1.5,2-2.3,2.9c-0.8,0.9-1.6,1.9-2.4,2.8s-1.7,1.8-2.5,2.7
				c-0.9,0.9-1.8,1.7-2.7,2.5s-1.8,1.6-2.8,2.4c-0.9,0.8-1.9,1.5-2.9,2.3c-1,0.7-2,1.4-3,2.1c-1,0.7-2.1,1.3-3.1,2
				c-1.1,0.6-2.1,1.2-3.2,1.8s-2.2,1.1-3.3,1.7c-1.1,0.5-2.2,1-3.4,1.5c-1.1,0.5-2.3,0.9-3.4,1.3c-1.2,0.4-2.3,0.8-3.5,1.2
				c-1.2,0.4-2.4,0.7-3.5,1c-1.2,0.3-2.4,0.6-3.6,0.8s-2.4,0.4-3.6,0.6s-2.4,0.3-3.7,0.5c-1.2,0.1-2.4,0.2-3.7,0.3
				c-1.2,0.1-2.5,0.1-3.7,0.1s-2.5,0-3.7-0.1c-1.2-0.1-2.4-0.2-3.7-0.3c-1.2-0.1-2.4-0.3-3.7-0.5s-2.4-0.4-3.6-0.6s-2.4-0.5-3.6-0.8
				c-1.2-0.3-2.4-0.6-3.5-1c-1.2-0.4-2.3-0.7-3.5-1.2c-1.2-0.4-2.3-0.9-3.4-1.3c-1.1-0.5-2.3-1-3.4-1.5c-1.1-0.5-2.2-1.1-3.3-1.7
				s-2.1-1.2-3.2-1.8c-1.1-0.6-2.1-1.3-3.1-2c-1-0.7-2-1.4-3-2.1c-1-0.7-2-1.5-2.9-2.3c-0.9-0.8-1.9-1.6-2.8-2.4s-1.8-1.7-2.7-2.5
				c-0.9-0.9-1.7-1.8-2.5-2.7s-1.6-1.8-2.4-2.8c-0.8-0.9-1.5-1.9-2.3-2.9c-0.7-1-1.4-2-2.1-3c-0.7-1-1.3-2.1-2-3.1
				c-0.6-1.1-1.2-2.1-1.8-3.2s-1.1-2.2-1.7-3.3c-0.5-1.1-1-2.2-1.5-3.4c-0.5-1.1-0.9-2.3-1.3-3.4s-0.8-2.3-1.2-3.5
				c-0.4-1.2-0.7-2.4-1-3.5c-0.3-1.2-0.6-2.4-0.8-3.6S1,87.2,0.8,86s-0.3-2.4-0.5-3.7c-0.1-1.2-0.2-2.4-0.3-3.7C0,77.5,0,76.2,0,75
				s0-2.5,0.1-3.7c0.1-1.2,0.2-2.4,0.3-3.7c0.1-1.2,0.3-2.4,0.5-3.7s0.4-2.4,0.6-3.6s0.5-2.4,0.8-3.6c0.3-1.2,0.6-2.4,1-3.5
				c0.4-1.2,0.7-2.3,1.2-3.5s0.9-2.3,1.3-3.4c0.5-1.1,1-2.3,1.5-3.4c0.5-1.1,1.1-2.2,1.7-3.3s1.2-2.1,1.8-3.2c0.6-1.1,1.3-2.1,2-3.1
				c0.7-1,1.4-2,2.1-3c0.7-1,1.5-2,2.3-2.9c0.8-0.9,1.6-1.9,2.4-2.8s1.7-1.8,2.5-2.7c0.9-0.9,1.8-1.7,2.7-2.5s1.8-1.6,2.8-2.4
				c0.9-0.8,1.9-1.5,2.9-2.3c1-0.7,2-1.4,3-2.1c1-0.7,2.1-1.3,3.1-2c1.1-0.6,2.1-1.2,3.2-1.8s2.2-1.1,3.3-1.7c1.1-0.5,2.2-1,3.4-1.5
				c1.1-0.5,2.3-0.9,3.4-1.3s2.3-0.8,3.5-1.2c1.2-0.4,2.4-0.7,3.5-1c1.2-0.3,2.4-0.6,3.6-0.8S62.8,1,64,0.8s2.4-0.3,3.7-0.5
				c1.2-0.1,2.4-0.2,3.7-0.3C72.5,0,73.8,0,75,0s2.5,0,3.7,0.1c1.2,0.1,2.4,0.2,3.7,0.3c1.2,0.1,2.4,0.3,3.7,0.5s2.4,0.4,3.6,0.6
				s2.4,0.5,3.6,0.8c1.2,0.3,2.4,0.6,3.5,1c1.2,0.4,2.3,0.7,3.5,1.2s2.3,0.9,3.4,1.3c1.1,0.5,2.3,1,3.4,1.5c1.1,0.5,2.2,1.1,3.3,1.7
				s2.1,1.2,3.2,1.8c1.1,0.6,2.1,1.3,3.1,2c1,0.7,2,1.4,3,2.1c1,0.7,2,1.5,2.9,2.3c0.9,0.8,1.9,1.6,2.8,2.4s1.8,1.7,2.7,2.5
				c0.9,0.9,1.7,1.8,2.5,2.7s1.6,1.8,2.4,2.8c0.8,0.9,1.5,1.9,2.3,2.9c0.7,1,1.4,2,2.1,3c0.7,1,1.3,2.1,2,3.1
				c0.6,1.1,1.2,2.1,1.8,3.2s1.1,2.2,1.7,3.3c0.5,1.1,1,2.2,1.5,3.4c0.5,1.1,0.9,2.3,1.3,3.4c0.4,1.2,0.8,2.3,1.2,3.5
				c0.4,1.2,0.7,2.4,1,3.5c0.3,1.2,0.6,2.4,0.8,3.6s0.4,2.4,0.6,3.6s0.3,2.4,0.5,3.7c0.1,1.2,0.2,2.4,0.3,3.7
				C150,72.5,150,73.8,150,75z"/>
		</g>
	</g>
	<path class="st1" d="M61.3,114.6c33.3,0,51.5-27.6,51.5-51.4c0-0.8,0-1.6,0-2.3c3.5-2.6,6.6-5.7,9-9.4c-3.2,1.4-6.7,2.4-10.4,2.8
		c3.8-2.2,6.6-5.8,8-10c-3.5,2.1-7.4,3.6-11.5,4.4c-3.3-3.5-8-5.7-13.2-5.7c-10,0-18.1,8.1-18.1,18.1c0,1.4,0.1,2.8,0.5,4.1
		c-15-0.8-28.3-7.9-37.3-18.9c-1.5,2.7-2.4,5.8-2.4,9.1c0,6.3,3.2,11.8,8.1,15c-3-0.1-5.7-0.9-8.2-2.2c0,0.1,0,0.1,0,0.2
		c0,8.8,6.2,16.1,14.5,17.7c-1.5,0.4-3.1,0.6-4.8,0.6c-1.2,0-2.3-0.1-3.4-0.3c2.3,7.2,9,12.4,16.9,12.6c-6.2,4.8-14,7.7-22.5,7.7
		c-1.5,0-2.9-0.1-4.3-0.3C41.6,111.6,51.1,114.6,61.3,114.6"/>
</g>
</svg>
