<?xml version="1.0" encoding="UTF-8"?><svg xmlns="http://www.w3.org/2000/svg" xmlns:xlink="http://www.w3.org/1999/xlink" width="375pt" zoomAndPan="magnify" viewBox="0 0 375 374.999991" height="374.999991pt" preserveAspectRatio="xMidYMid meet" version="1.2"><defs><clipPath xml:id="clip1" id="clip1"><path d="M 112.5 112.5 L 262.5 112.5 L 262.5 262.5 L 112.5 262.5 Z M 112.5 112.5 "/></clipPath></defs><g xml:id="surface1" id="surface1"><g clip-rule="nonzero" clip-path="url(#clip1)"><path style=" stroke:none;fill-rule:nonzero;fill:rgb(0%,0%,0%);fill-opacity:1;" d="M 156.039062 112.5 C 132.0625 112.5 112.5 132.0625 112.5 156.039062 L 112.5 219.003906 C 112.5 242.9375 132.0625 262.5 156.039062 262.5 L 219.003906 262.5 C 242.9375 262.5 262.5 242.9375 262.5 218.960938 L 262.5 156.039062 C 262.5 132.0625 242.9375 112.5 218.960938 112.5 Z M 156.039062 124.039062 L 218.960938 124.039062 C 236.71875 124.039062 250.960938 138.28125 250.960938 156.039062 L 250.960938 218.960938 C 250.960938 236.71875 236.71875 250.960938 219.003906 250.960938 L 156.039062 250.960938 C 138.28125 250.960938 124.039062 236.71875 124.039062 219.003906 L 124.039062 156.039062 C 124.039062 138.28125 138.28125 124.039062 156.039062 124.039062 Z M 233.652344 135.578125 C 230.453125 135.578125 227.882812 138.144531 227.882812 141.347656 C 227.882812 144.546875 230.453125 147.117188 233.652344 147.117188 C 236.855469 147.117188 239.421875 144.546875 239.421875 141.347656 C 239.421875 138.144531 236.855469 135.578125 233.652344 135.578125 Z M 187.5 147.117188 C 165.28125 147.117188 147.117188 165.28125 147.117188 187.5 C 147.117188 209.71875 165.28125 227.882812 187.5 227.882812 C 209.71875 227.882812 227.882812 209.71875 227.882812 187.5 C 227.882812 165.28125 209.71875 147.117188 187.5 147.117188 Z M 187.5 158.652344 C 203.5 158.652344 216.347656 171.5 216.347656 187.5 C 216.347656 203.5 203.5 216.347656 187.5 216.347656 C 171.5 216.347656 158.652344 203.5 158.652344 187.5 C 158.652344 171.5 171.5 158.652344 187.5 158.652344 Z M 187.5 158.652344 "/></g></g></svg>