<?xml version="1.0" encoding="utf-8"?>
<!-- Generator: Adobe Illustrator 25.4.1, SVG Export Plug-In . SVG Version: 6.00 Build 0)  -->
<svg version="1.1" id="Calque_1" xmlns="http://www.w3.org/2000/svg" xmlns:xlink="http://www.w3.org/1999/xlink" x="0px" y="0px"
	 viewBox="0 0 150 150" style="enable-background:new 0 0 150 150;" xml:space="preserve">
<style type="text/css">
	.st0{clip-path:url(#SVGID_00000039831834477835121730000016098441097666184617_);}
	.st1{fill:#FFFFFF;}
</style>
<g id="surface1">
	<g>
		<defs>
			<rect id="SVGID_1_" width="150" height="150"/>
		</defs>
		<clipPath id="SVGID_00000077311227303459377490000017699719771148159637_">
			<use xlink:href="#SVGID_1_"  style="overflow:visible;"/>
		</clipPath>
		<g style="clip-path:url(#SVGID_00000077311227303459377490000017699719771148159637_);">
			<path d="M150,127.2c0,12.6-10.2,22.8-22.8,22.8H22.8C10.2,150,0,139.8,0,127.2V22.8C0,10.2,10.2,0,22.8,0h104.4
				C139.8,0,150,10.2,150,22.8V127.2z"/>
		</g>
	</g>
	<path class="st1" d="M99.4,86.6l2.4-18.8H83.2v-12c0-5.4,1.5-9.2,9.3-9.2l10,0V29.8c-1.7-0.2-7.6-0.7-14.5-0.7
		c-14.4,0-24.2,8.8-24.2,24.9v13.9H47.5v18.8h16.2v48.3h19.4V86.6H99.4z"/>
</g>
</svg>
