<?xml version="1.0" encoding="utf-8"?>
<!-- Generator: Adobe Illustrator 25.4.1, SVG Export Plug-In . SVG Version: 6.00 Build 0)  -->
<svg version="1.1" id="Calque_1" xmlns="http://www.w3.org/2000/svg" xmlns:xlink="http://www.w3.org/1999/xlink" x="0px" y="0px"
	 viewBox="0 0 150 150" style="enable-background:new 0 0 150 150;" xml:space="preserve">
<style type="text/css">
	.st0{clip-path:url(#SVGID_00000124138185656711006670000009484931935392661403_);}
</style>
<g id="surface1">
	<g>
		<defs>
			<rect id="SVGID_1_" width="150" height="150"/>
		</defs>
		<clipPath id="SVGID_00000077320231648035800440000012664789494510426756_">
			<use xlink:href="#SVGID_1_"  style="overflow:visible;"/>
		</clipPath>
		<g style="clip-path:url(#SVGID_00000077320231648035800440000012664789494510426756_);">
			<path d="M43.5,0C19.6,0,0,19.6,0,43.5v63C0,130.4,19.6,150,43.5,150h63c23.9,0,43.5-19.6,43.5-43.5V43.5
				c0-24-19.6-43.5-43.5-43.5H43.5z M43.5,11.5h62.9c17.8,0,32,14.2,32,32v62.9c0,17.8-14.2,32-32,32h-63c-17.8,0-32-14.2-32-32v-63
				C11.5,25.8,25.8,11.5,43.5,11.5z M121.2,23.1c-3.2,0-5.8,2.6-5.8,5.8c0,3.2,2.6,5.8,5.8,5.8c3.2,0,5.8-2.6,5.8-5.8
				C126.9,25.6,124.4,23.1,121.2,23.1z M75,34.6c-22.2,0-40.4,18.2-40.4,40.4s18.2,40.4,40.4,40.4s40.4-18.2,40.4-40.4
				S97.2,34.6,75,34.6z M75,46.2c16,0,28.8,12.8,28.8,28.8S91,103.8,75,103.8S46.2,91,46.2,75S59,46.2,75,46.2z"/>
		</g>
	</g>
</g>
</svg>
