<?xml version="1.0" encoding="UTF-8"?><svg xmlns="http://www.w3.org/2000/svg" xmlns:xlink="http://www.w3.org/1999/xlink" width="375pt" zoomAndPan="magnify" viewBox="0 0 375 374.999991" height="374.999991pt" preserveAspectRatio="xMidYMid meet" version="1.2"><defs><clipPath xml:id="clip1" id="clip1"><path d="M 112.5 112.5 L 262.5 112.5 L 262.5 262.5 L 112.5 262.5 Z M 112.5 112.5 "/></clipPath></defs><g xml:id="surface1" id="surface1"><g clip-rule="nonzero" clip-path="url(#clip1)"><path style=" stroke:none;fill-rule:nonzero;fill:rgb(0%,0%,0%);fill-opacity:1;" d="M 262.5 239.691406 C 262.5 252.277344 252.296875 262.480469 239.707031 262.480469 L 135.296875 262.480469 C 122.710938 262.480469 112.503906 252.277344 112.503906 239.691406 L 112.503906 135.28125 C 112.503906 122.691406 122.710938 112.488281 135.296875 112.488281 L 239.707031 112.488281 C 252.296875 112.488281 262.5 122.691406 262.5 135.28125 Z M 262.5 239.691406 "/></g><path style=" stroke:none;fill-rule:nonzero;fill:rgb(100%,100%,100%);fill-opacity:1;" d="M 211.890625 199.140625 L 214.316406 180.332031 L 195.695312 180.332031 L 195.695312 168.324219 C 195.695312 162.878906 197.214844 159.167969 205.019531 159.167969 L 214.972656 159.164062 L 214.972656 142.34375 C 213.253906 142.113281 207.347656 141.601562 200.460938 141.601562 C 186.101562 141.601562 176.277344 150.367188 176.277344 166.464844 L 176.277344 180.332031 L 160.035156 180.332031 L 160.035156 199.140625 L 176.277344 199.140625 L 176.277344 247.394531 L 195.695312 247.394531 L 195.695312 199.140625 Z M 211.890625 199.140625 "/></g></svg>