<?xml version="1.0" encoding="utf-8"?>
<!-- Generator: Adobe Illustrator 25.4.1, SVG Export Plug-In . SVG Version: 6.00 Build 0)  -->
<svg version="1.1" id="Calque_1" xmlns="http://www.w3.org/2000/svg" xmlns:xlink="http://www.w3.org/1999/xlink" x="0px" y="0px"
	 viewBox="0 0 375 375" style="enable-background:new 0 0 375 375;" xml:space="preserve">
<g id="basShaker">
	<path d="M184.9,194.5c-8.2-1.4-17.9-1-26.9,0.5c-0.1-2.2-0.2-4.4-0.4-6.6c8.5,0.1,17.4-1.1,25.5-1.8c0.9-0.1,0.9-1.4,0-1.5
		c-8.3-0.6-17.1,0.1-25.7,0.9c-0.2-1.9-0.3-3.8-0.6-5.7c8.3,0.3,17.1-0.2,24.6-1.6c0.2,0,0.3-0.4,0-0.4c-7.7-1.2-16.7-1.6-25-0.7
		c-0.2-1.3-0.3-2.7-0.5-4c0-0.3-0.5-0.3-0.5,0c-0.1,1.4-0.1,2.8-0.1,4.2c-2.3,0.3-4.6,0.7-6.8,1.2c-0.4,0.1-0.3,0.7,0.1,0.8
		c2.1,0.2,4.4,0.4,6.6,0.5c0,2,0,4,0,6c-2.4,0.2-4.8,0.5-7.2,0.7c-0.4,0-0.5,0.7,0,0.8c2.4,0.4,4.8,0.6,7.2,0.7
		c0,2.4,0.1,4.7,0.2,7.1c-2.4,0.4-4.8,0.9-7,1.5c-0.4,0.1-0.2,0.7,0.1,0.7c2.3,0.2,4.6,0.1,6.9,0c0.1,2,0.2,4,0.3,6
		c-2.2,0.2-4.5,0.6-6.6,1.2c-0.4,0.1-0.3,0.7,0.1,0.8c2.2,0.4,4.4,0.4,6.7,0.3c0.1,2.2,0.3,4.4,0.4,6.6c-2.1,0.3-4.2,0.6-6.3,1.1
		c-0.8,0.2-0.6,1.3,0.2,1.3c2.1-0.1,4.1-0.3,6.2-0.5c0.1,2.2,0.3,4.4,0.5,6.5c-2.5,0.3-5.1,0.8-7.5,1.6c-0.4,0.2-0.3,0.9,0.2,0.9
		c2.5,0.2,5,0.1,7.5-0.2c0.2,2.6,0.4,5.3,0.6,7.9c-2.5,0.2-5,0.5-7.4,1c-0.5,0.1-0.5,0.9,0,0.9c2.4,0.1,4.9,0.2,7.5,0.2
		c0.1,2.1,0.3,4.1,0.4,6.2c-1.8,0.4-3.6,0.8-5.2,1.5c-0.4,0.2-0.3,0.7,0.1,0.8c1.7,0.3,3.5,0.3,5.2,0.2c0.1,2.3,0.2,4.6,0.4,6.9
		c-1.3,0.2-2.6,0.5-3.9,0.8c-0.6,0.1-0.4,1,0.1,1c1.3,0,2.6,0,3.9,0c0.1,2.2,0.2,4.3,0.3,6.5c-1.6,0.3-3.3,0.6-4.8,1
		c-0.4,0.1-0.3,0.7,0.1,0.7c1.5,0.1,3.1,0.2,4.8,0.3c0.1,2,0.2,4,0.2,6c-1.9,0.2-3.7,0.5-5.5,1c-0.4,0.1-0.3,0.6,0.1,0.6
		c1.8,0.3,3.7,0.3,5.5,0.3c0.1,2.5,0.2,4.9,0.3,7.4c-1.5,0.3-3,0.6-4.4,0.9c-0.4,0.1-0.3,0.7,0,0.7c1.4,0.2,2.9,0.3,4.5,0.3
		c0.1,1.8,0.2,3.6,0.3,5.5c-1.8,0.3-3.6,0.6-5.4,1c-0.4,0.1-0.5,0.8,0,0.9c1.8,0.1,3.6,0.1,5.5,0.1c0.2,3.6,0.5,7.1,0.8,10.6
		c-2,0.3-4,0.6-5.9,0.9c-0.6,0.1-0.7,1.1,0,1.2c2,0.2,4.1,0.3,6.2,0.4c0.2,2.1,0.4,4.2,0.7,6.3c-1.8,0.4-3.6,0.7-5.4,1.2
		c-0.6,0.1-0.5,1,0.1,1c3.7-0.1,7.4-0.3,11-0.7c0.2,1.8,0.4,3.6,0.6,5.3c-3.6,0.6-7.1,1.4-10.4,2.4c-0.3,0.1-0.3,0.6,0,0.6
		c3.5-0.1,7-0.3,10.6-0.5c0.2,1.9,0.3,3.8,0.4,5.8c-3.6,0.4-7.2,1-10.6,1.8c-0.4,0.1-0.3,0.7,0.1,0.7c3.4,0.3,7.1,0.3,10.8,0.2
		c0.2,1.9,0.6,3.7,1.1,5.4c-3,0.4-6.1,0.8-8.8,2.1c-0.3,0.1-0.2,0.6,0.1,0.7c3.2,0.8,6.5,0.3,9.7-0.3c0.2,0.4,0.7,0.2,0.9-0.2
		c0.9-0.2,1.8-0.3,2.7-0.5c0.8-0.1,1.6-0.3,2.4-0.4c0.2,0.6,0.3,1.1,0.5,1.7c0.2,0.4,0.8,0.3,0.8-0.1c0.1-0.6,0.1-1.2,0.1-1.8
		c1.3-0.2,2.5-0.4,3.8-0.7c0.2,0.8,0.5,1.6,0.8,2.3c0.2,0.4,0.9,0.3,1-0.1c0.1-0.8,0.2-1.7,0.1-2.5c1.1-0.3,2.2-0.6,3.3-1
		c0.1,1.5,0.2,3,0.8,4.4c0.2,0.5,0.8,0.3,1-0.2c0.5-1.6,0.3-3.3,0.2-5c0,0,0,0,0.1,0c0.4-0.1,0.3-0.6-0.1-0.7c0,0,0,0-0.1,0
		c0-0.3-0.1-0.5-0.1-0.8c-0.1-1.7-0.3-3.4-0.5-5.1c0.2-0.1,0.5-0.1,0.7-0.2c0.5-0.1,0.2-0.8-0.2-0.8c-0.2,0-0.4,0-0.6,0
		c-0.1-0.6-0.1-1.3-0.2-1.9c-0.1-1-1.6-0.9-1.5,0.2c0,0.6,0.1,1.2,0.1,1.8c-1.3,0-2.5-0.1-3.8-0.1c-0.2-2.3-0.4-4.5-0.5-6.8
		c1.6-0.3,3.2-0.7,4.8-1.1c0.5-0.1,0.2-0.8-0.2-0.8c-3.3-0.2-6.8-0.1-10.3,0.2c-0.2-1.8-0.4-3.6-0.6-5.4c3.4-0.5,6.7-1,10-1.6
		c0.1,0,0.1-0.2,0-0.3c-5.6-0.4-11.3-0.3-17,0.3c-0.1-1.8-0.2-3.5-0.4-5.3c5.8-0.3,11.7-1.1,16.9-2.3c0.3-0.1,0.3-0.5,0-0.6
		c-5.4-0.9-11.4-0.9-17.3-0.4c-0.3-1.9-0.6-3.8-1.2-5.7c-0.1-0.3-0.7-0.3-0.7,0c-0.2,1.9-0.2,3.8-0.2,5.8c-1.3,0.1-2.7,0.3-4,0.4
		c-0.3-3.5-0.6-6.9-1-10.4c7.2-0.4,14.6-1.7,21.4-3c0.4-0.1,0.3-0.7-0.1-0.7c-7,0-14.4,0.5-21.5,1.5c-0.2-1.7-0.3-3.4-0.4-5.1
		c8.5,0.2,17.9-0.9,25.6-3.1c0.5-0.1,0.5-1-0.1-1c-8-0.1-17.3,0.3-25.7,1.8c-0.2-2.4-0.4-4.8-0.6-7.1c2.5-0.1,4.9-0.3,7.4-0.5
		c5.5-0.4,11-0.5,16.4-1.7c0.4-0.1,0.3-0.7-0.1-0.8c-4.8-0.4-9.5,0.1-14.2,0.4c-3.2,0.2-6.4,0.3-9.6,0.6c-0.1-2-0.3-3.9-0.4-5.9
		c9.4,0.2,19.9-0.7,28.2-3.7c0.2-0.1,0.2-0.4,0-0.4c-8.8-0.5-19.1,0.4-28.3,2c-0.1-2.1-0.3-4.2-0.4-6.3c8.8-0.1,18.2-0.5,26.6-2.5
		c0.6-0.1,0.7-1.2,0-1.3c-8.6-0.4-18,0.3-26.7,1.8c-0.1-2.3-0.2-4.5-0.3-6.8c2.3-0.1,4.6-0.4,6.8-0.5c5.9-0.3,11.8-0.4,17.6-1.4
		c0.3-0.1,0.3-0.6,0-0.7c-7.2-1.1-16.6-1.6-24.6-0.1c0-0.7-0.1-1.4-0.1-2.1c0-1.3-0.1-2.6-0.1-3.9c8.3,0,17.2-0.6,24.6-2.6
		c0.4-0.1,0.3-0.6-0.1-0.6c-5.9-0.8-12,0.1-17.9,0.6c-2.2,0.2-4.4,0.3-6.7,0.5c-0.1-2.6-0.1-5.3-0.1-8c2-0.2,4.1-0.5,6.1-0.7
		c5.8-0.6,12-0.3,17.6-2c0.3-0.1,0.3-0.6,0-0.6c-5.8-1-12.1,0.1-17.9,0.6c-1.9,0.1-3.8,0.3-5.7,0.4c0-2.2-0.1-4.4-0.1-6.5
		c8.3-0.8,16.6-1.8,25.1-1.7c1,0,1.2-1.6,0.2-1.7c-8.4-0.3-16.9,0.1-25.3,1.3c0-2.1-0.1-4.3-0.1-6.4c2.2-0.2,4.5-0.4,6.7-0.6
		c6.1-0.6,12.4-0.7,18.5-1.7c0.5-0.1,0.8-1,0.1-1.1c-6.1-0.6-12.4,0.2-18.6,0.6c-2.2,0.2-4.5,0.3-6.8,0.5c-0.1-1.9-0.1-3.9-0.2-5.8
		c2.4-0.2,4.8-0.4,7.2-0.6c6.5-0.5,13.1-0.5,19.5-1.8C185.3,195.1,185.2,194.5,184.9,194.5z M187.6,318.8c0.1,1.6,0.1,3.3,0.2,4.9
		c0,0.2,0,0.3,0,0.5c-1.1,0-2.3,0-3.4,0.1c-0.1-1.2-0.3-2.3-0.4-3.5c0-0.4-0.1-0.9-0.1-1.3C185.1,319.3,186.4,319,187.6,318.8z
		 M178.9,325.1c-0.1-1.6-0.2-3.2-0.3-4.8c1.1-0.1,2.1-0.3,3.2-0.5c0,1.6,0.2,3.2,0.4,4.7C181,324.7,180,324.9,178.9,325.1z
		 M181.9,310.8c-0.1,2.1-0.2,4.3-0.2,6.6c-1.2,0-2.3,0-3.5,0.1c-0.1-0.7-0.1-1.3-0.2-2c-0.1-1.4-0.2-2.7-0.3-4.1
		C179.1,311.3,180.5,311,181.9,310.8z M170.8,312.3c1.6-0.1,3.3-0.3,4.9-0.5c0,1.9,0,3.9,0.1,5.9c-1.4,0.1-2.8,0.2-4.2,0.4
		C171.3,316.1,171,314.2,170.8,312.3z M174.5,325.9c-0.7,0.1-1.4,0.2-2.1,0.3c0-1.7-0.2-3.5-0.4-5.3c1.3-0.1,2.7-0.2,4-0.3
		c0.2,1.7,0.4,3.3,0.8,4.9C176,325.6,175.3,325.7,174.5,325.9z M176,303.7c-0.1,1.7-0.2,3.5-0.3,5.4c-1.7,0.2-3.5,0.4-5.2,0.7
		c0-0.1,0-0.2,0-0.3c-0.1-1.6-0.2-3.3-0.4-4.9C172,304.2,174,303.9,176,303.7z M167.1,296.8c0.1,1.8,0.3,3.7,0.4,5.5
		c-1.2,0.2-2.5,0.3-3.7,0.5c-0.2-2-0.4-3.9-0.6-5.9C164.6,296.9,165.9,296.8,167.1,296.8z"/>
	<path d="M194.9,325c-0.3-1.5-0.4-3-0.4-4.6c0-1-1.4-0.9-1.5,0.1c-0.1,2.5-0.1,6.4,1.7,8.3c0.2,0.3,0.7,0.2,0.7-0.2
		C195.6,327.3,195.2,326.2,194.9,325z"/>
	<path d="M143.3,252.9c-2.7-32.9-4.9-66.2-6.9-99.3c-1.2-21.1-3.9-21-2.7-0.2c-4.1,58,8.4,136.8,14.4,180.6c0.8,5.8,1.6,5.4,1.2-3.5
		C147.8,303.8,145.5,279.3,143.3,252.9z"/>
	<path d="M246.7,329.3c-0.5,8.9,0.4,9.3,1.2,3.5c6-43.8,18.5-122.7,14.4-180.6c1.2-20.8-1.5-21-2.7,0.2c-1.9,33.1-4.2,66.4-6.9,99.3
		C250.5,278.1,248.2,302.6,246.7,329.3z"/>
	<path d="M200.9,326.2c-0.4-0.8-0.6-1.6-0.5-2.6c0.1-1.1-1.4-1.2-1.6-0.2c-0.3,1.7,0.1,5.1,2.2,5.2c0.2,0,0.5-0.2,0.5-0.4
		C201.7,327.4,201.3,326.9,200.9,326.2z"/>
	<path d="M205.9,325.5c-0.1-1.1-1.8-1.2-1.7-0.1c0.1,1,0.1,2.1,1.2,2.5c0.3,0.1,0.6-0.2,0.6-0.4
		C206.2,326.8,205.9,326.2,205.9,325.5z"/>
	<path d="M153.2,333.9c-4.4,0.3-7,3.6-4.2,4c21.7,3.4,65.3-0.3,91.3-1.7c10.2-0.5,10.1-4-0.3-3.5c-16.2,0.8-32.6,1.2-48.7,1.1
		C178.4,333.7,166.3,333.1,153.2,333.9z"/>
</g>
<g id="hautShaker">
	<path d="M199.2,93.7c-5.7-0.7-11.4-0.5-17.1-0.2c-5.5,0.3-11.8,0.2-16.7,2.8c-0.2,0.1-0.1,0.3,0.1,0.3c3.1,0.5,6.3,0.3,9.5,0
		c-1.8,1.4-3.5,2.9-5,4.7c-3.2,0.2-6.3,0.5-9.3,0.8c-0.7,0.1-0.7,1.2,0,1.3c2.4,0.3,4.9,0.5,7.4,0.6c-1.2,1.9-2.3,3.8-3.1,5.9
		c-3,0.3-5.9,0.6-8.7,1.1c-0.4,0.1-0.6,0.7-0.1,0.8c2.6,0.3,5.2,0.5,7.9,0.7c-0.5,1.6-0.8,3.2-1,4.8c-2.9,0.2-5.7,0.5-8.4,0.9
		c-0.4,0.1-0.6,0.7-0.1,0.8c2.7,0.4,5.6,0.6,8.4,0.8c0,2,0.2,4,0.7,5.9c-3.2,0.1-6.3,0.4-9.3,0.8c-0.5,0.1-0.5,0.8,0,0.9
		c13.1,2.1,28.4,2,41.5-0.1c0.4-0.1,0.3-0.7-0.1-0.7c-10-0.4-20.8-1.4-31.2-1c0.3-1.9,0.5-3.8,0.7-5.7c2.2,0.1,4.4,0.1,6.6,0.1
		c0,0.8,0.1,1.7,0.2,2.5c0.1,0.4,0.6,0.3,0.7,0c0.3-0.8,0.5-1.7,0.7-2.5c8.2-0.1,16.4-0.7,24.3-0.8c0.7,0,0.8-1.2,0-1.2
		c-5-0.4-10.1-0.7-15.4-0.9c0.5-1.5,0.9-3,1.2-4.5c1.3-0.1,2.6-0.1,3.9-0.2c0,0.7,0,1.4,0.1,2.1c0.1,0.5,0.9,0.5,1.1,0.1
		c0.4-0.7,0.6-1.5,0.8-2.3c3.1-0.2,6.2-0.4,9.1-0.7c0.5-0.1,0.5-0.8,0-0.9c-2.7-0.4-5.6-0.7-8.6-0.9c0.4-1.7,0.9-3.3,1.6-4.9
		c0.3-0.7-0.8-1.3-1.2-0.6c-0.9,1.5-1.9,3.5-2.6,5.4c-1.2-0.1-2.4-0.2-3.6-0.2c0.1-0.3,0.1-0.6,0.2-0.9c0.5-1.7,1.1-3.3,1.8-4.9
		c3.9-0.2,7.8-0.4,11.6-0.4c0.6,0,0.5-0.9,0-0.9c-3.4-0.6-7-0.9-10.5-1.1c0.4-0.8,0.7-1.6,1.1-2.4c0.1-0.3-0.3-0.6-0.5-0.3
		c-0.6,0.8-1.2,1.7-1.8,2.6c-2.1-0.1-4.1-0.1-6.2-0.1c0.7-1.2,1.5-2.3,2.3-3.4c0.3-0.5-0.3-1-0.7-0.6c-1.1,1.2-2.2,2.5-3.2,3.9
		c-2.1,0-4.2,0.1-6.3,0.2c1.6-1.8,3.3-3.4,5.2-4.9c1.7-0.2,3.4-0.4,5-0.5c5.6-0.3,11.3-0.3,16.8-1.3
		C199.6,94.5,199.7,93.8,199.2,93.7z M172,116.9c-2.2,0-4.3,0.1-6.4,0.2c0.2-1.5,0.4-3,0.8-4.5c2.1,0.1,4.3,0.1,6.5,0.2
		C172.4,114.1,172.1,115.5,172,116.9z M181.5,117c-2.4-0.1-4.9-0.1-7.3-0.2c0.3-1.4,0.5-2.7,0.9-4.1c2.2,0,4.4,0,6.6-0.1
		C181.4,114.1,181.3,115.6,181.5,117z M184.8,103.7c-0.9,1.8-1.8,3.7-2.4,5.6c-2.1-0.1-4.2-0.1-6.4,0c0.6-1.8,1.4-3.6,2.3-5.3
		C180.5,103.9,182.6,103.8,184.8,103.7z M176.5,104c-1,1.7-1.9,3.5-2.6,5.3c-2.3,0.1-4.5,0.2-6.8,0.3c0.7-2.1,1.7-3.9,2.8-5.6
		C172.2,104.1,174.3,104,176.5,104z"/>
	<path d="M242.8,100.2c-0.8-2.6-11.1-15.2-16.1-14.3c0.1-0.9-3.9,1-4,2c16.7-2.2,29.5,50.3,38.3,51.7c0.2,0.3,3.4,0.1,3.4-0.3
		C262.7,139.1,247.7,108.1,242.8,100.2z"/>
	<path d="M131.6,140.1c0.1,0.4,4.7,0.1,4.9-0.1c8.8-1.4,20.2-53.5,36.8-51.3c-0.1-0.9-4.1-2.9-4-2c-5-0.9-15.3,11.7-16.1,14.3
		C148.4,108.9,132.3,140.1,131.6,140.1z"/>
	<path d="M224.8,68.7c-0.9-6.9-1.4-13.9-1.5-20.8c-0.1-4.4-3-4.2-2.9,0.1c0.1,11.2-0.8,30,3.2,39c0.5,1.2,3.2-0.2,3.2-2
		C226.7,79.3,225.6,74.2,224.8,68.7z"/>
	<path d="M175.9,43.4c-2.1,0.2-3.4,3.5-2,3.9c10.5,3.7,31.5,0.5,44.1-0.5c4.9-0.4,4.8-3.9-0.2-3.5c-7.8,0.6-15.7,0.8-23.5,0.5
		C188,43.5,182.2,42.8,175.9,43.4z"/>
	<path d="M169.6,85.9c0,1.9,2.7,3.2,3.2,2c3.9-9,3-27.8,3.2-39c0.1-4.4-2.9-4.6-2.9-0.1c-0.1,7-0.6,14-1.5,20.8
		C170.7,75.2,169.6,80.3,169.6,85.9z"/>
	<path d="M261.7,135.6c-42.4,0.6-84.5-1.3-127.1,1.5c-2.2,0.1-2.3,2.9-0.1,3c42.6,2.7,85.7,0.4,128.3-0.4
		C263.5,139.7,262.4,135.6,261.7,135.6z"/>
</g>
</svg>
