<svg xmlns="http://www.w3.org/2000/svg" viewBox="0 0 309.6 170.32"><g id="Calque_2" data-name="Calque 2"><g id="Calque_1-2" data-name="Calque 1"><g id="surface1"><path d="M44.81,13a.79.79,0,0,0-.18.6c.24.24.24-.36.3-.48S44.93,12.85,44.81,13ZM43.49,62.65c0-.06,0-.12.06-.12a.71.71,0,0,0,.36-.3,4.77,4.77,0,0,1,.84-1.08c1.62-2,3-3.72,4.44-5.7.36-.6.6-1,.9-1.5a3.7,3.7,0,0,0,.66-1.38c.18-.42.18-.48,0-.42a15.3,15.3,0,0,0-1.2,2A86.79,86.79,0,0,1,43.43,62,101.75,101.75,0,0,1,29.15,76c-4.08,3.12-5.64,4.2-9.72,5.64a12.77,12.77,0,0,0-2,.66,6,6,0,0,1-2.7.12c-.06-.06-.12-.06-.3,0a6.16,6.16,0,0,1-2.1,0,12.06,12.06,0,0,1-2.94-1,12.7,12.7,0,0,1-2.1-1.38,6.05,6.05,0,0,1-1-.9,2.74,2.74,0,0,1-.72-1.08A9.36,9.36,0,0,1,4,75.07.21.21,0,0,0,4,75c-.12,0-.18-.48-.24-.48a12.15,12.15,0,0,1-.54-2,34.23,34.23,0,0,1-.78-4.44,48.32,48.32,0,0,1,1.44-17,.62.62,0,0,1,.06-.24c.12-.12.06-.54.18-.72s.06-.48.18-.6.06-.36.18-.66c.18-.84.78-2.28.84-3.06-.12-.36.42-.78.36-1.14,0-.18,0-.06.12-.18s.06-.18.06-.24c.6-1.74,1.32-3.6,2-5.34a3.29,3.29,0,0,0,.3-1c0-.3.12-.12.18-.42a.46.46,0,0,1,.12-.3c1-1.8,1.74-3.78,2.64-5.46.6-1,1.2-2.28,1.62-3,.18-.36.78-1,.78-1.32a.06.06,0,0,1,.06-.06c.06,0,.12-.12.18-.24a4.21,4.21,0,0,1,.6-1c.36-.6.18-.6.54-1.2,1.32-2,2.52-3.9,4.14-6.06,4.86-6.42,12.12-13,19.68-15.9,1.8-.72,4.5-1.38,6.36-.48a4.12,4.12,0,0,1,1.2,2.1,2.51,2.51,0,0,1,.18,1.08,2.08,2.08,0,0,0,.06.78c.12.06.06.24,0,.24s-.24.18-.12.24c.24.48-.12,1.8-.12,2.64-.36,2.52-.18,2.28-1,3.66-.3.3-.18.48-.3.78s.3.66.48.9,1.26-.12,1.8-.18a5,5,0,0,0,.72-.66c.6-.54.6-.6.72-1a40.79,40.79,0,0,0,.24-7.62c-.66-3.6-3.3-5.16-6.9-5.4-.3-.06-3.24.24-3.48.12a.66.66,0,0,0-.48,0c-.6.12-.42-.18-1.38.3A41.68,41.68,0,0,0,25.13,7.69,68.2,68.2,0,0,0,11.93,24,71.88,71.88,0,0,0,5.69,36.49c-.42.9-.72,2-1.08,2.94-.12.42.3,0,.24.3a14.81,14.81,0,0,0-.6,1.74c-.3.54-.24.84-.42,1.08a.21.21,0,0,0-.06.12c-.12.78-.54,1.62-.72,2.34-.18.48-.18.84-.42,1.44s-.42,1.26-.48,1.74c0,.18-.12.24-.12.06s0-.12,0-.18.06-.36,0-.36a.74.74,0,0,0-.12.18c-.12.84-.24.9-.3,1.44-.12.36-.12.54-.24.9-.12.06-.12.84-.24,1A2.35,2.35,0,0,0,1,52a1.31,1.31,0,0,0-.12.78c.06.3.06.48,0,.42s-.06,0-.06.3-.06.6-.06.84C0,57.49-.07,62.77.05,65.89c.3,3.66.48,3.18,1.14,6,.18.66.66,2,.72,2.46a16.35,16.35,0,0,0,3.24,5.88c.36.42,1.8,1.62,2.22,2a24.14,24.14,0,0,0,3.54,2.34,16.42,16.42,0,0,0,7.26.18,16.3,16.3,0,0,0,4.26-1.2,29.15,29.15,0,0,0,3.72-2,12.85,12.85,0,0,0,1.14-.78c.06-.06.18-.18.18-.24,0-.36.48-.48.78-.72a1,1,0,0,1,.6-.42,18.24,18.24,0,0,0,1.5-1.08c.24-.24.42-.24.48-.42s.06-.06.18-.06.42-.24.54-.3c.54-.36,2.58-2.28,2.82-2.34s.06-.6-.18-.18-.36.18-.78.66c-.3.3-.9.6-.72.3.24-.12.24-.18.6-.48a125,125,0,0,0,14-14.64c.06-.18.18-.12.24-.3s.6-.9.72-1.14A4.77,4.77,0,0,0,49,58.27c.12-.18.24-1,.42-1.14.12-.6,1.14-1.74,1.26-2.4,0-.42-.66.66-.66.72a73.8,73.8,0,0,1-5.52,7.38c-.48.66-3.72,4-3.78,4.26s.18.12.42-.18c.12-.12.78-.9,1.44-1.62,1.68-1.86,2.4-2.7,3.84-4.44.66-1,1.2-1.56,2-2.52.3-.36.18,0-.18.6a81.78,81.78,0,0,1-6.54,7.92,39.65,39.65,0,0,1-4.26,4.2,51,51,0,0,1-5.76,5,31.57,31.57,0,0,1-5.1,3.6c-.12,0-.06-.12.06-.18a1.26,1.26,0,0,0,.42-.3,17.11,17.11,0,0,0,1.56-1,8.5,8.5,0,0,0,1.32-1.08c.36-.24.9-.66,1.32-1s1.5-1.2,1.5-1.26,0-.06.06-.06c.42-.24,1.08-1,1.2-1s.48-.3,1.62-1.44a23.74,23.74,0,0,0,2.7-2.88,15.21,15.21,0,0,0-2.22,1.86c-.6.48-.84,1-1.2,1.26-.18.06-.06.36-.36.3s-.24-.3,1.2-1.62A46.68,46.68,0,0,0,40,66.85a5.41,5.41,0,0,0,1.14-1.2c.24-.18.12-.3.24-.48s.06.06.18.06a3.81,3.81,0,0,0,.6-.72c0-.12.06-.18.12-.18s.12-.06.12-.12,0-.12.06-.06,0-.3.12-.24,1.14-.84.6-.54q-.45.18,0-.36A.71.71,0,0,0,43.49,62.65ZM29.09,7.75c.12,0,.06.12,0,.12S29,7.81,29.09,7.75Zm-1.2.9c.48-.18.54-.42.9-.54a4,4,0,0,1-.9.78C27.17,9.49,27.17,9,27.89,8.65Zm-.78.78c.12-.12-.06-.24.18-.24C27.77,9.13,26.75,9.79,27.11,9.43Zm-.48,0c.24,0-.06.24-.06.12A.21.21,0,0,1,26.63,9.43Zm-1.5,1.32c.42-.3,1.08-1.14,1-.6S25.37,11,25,11.29a.55.55,0,0,1-.3.18c0-.06-.06-.06-.12-.06C24.35,11.41,24.77,11.05,25.13,10.75Zm-.72.9c.12-.18.36-.12.12.06S24.35,11.83,24.41,11.65Zm-4.68,5.1a.09.09,0,1,1,0-.18C19.79,16.57,19.79,16.75,19.73,16.75Zm4.08-4.44a2.35,2.35,0,0,1,.3-.24C24.23,12.25,23.33,12.85,23.81,12.31Zm-.72.72c.24-.24.42-.42.48-.42C23.63,12.79,22.07,14.11,23.09,13Zm-.48.48c.12,0,0,.18-.06.18S22.49,13.51,22.61,13.51Zm-.66.72c.18,0,0-.42.12-.3s.06.12.18.06.18-.06,0,.12C21.89,14.59,21.77,14.41,22,14.23Zm-.18.3c.06.06-.3.42-.3.24S21.65,14.53,21.77,14.53Zm-.48.48c.06,0,0-.12.12-.12s-.54.6-.48.6-.12.12-.18.06S21.17,15,21.29,15Zm-1.56.78c.06-.06.06.12,0,.06S19.61,15.85,19.73,15.79ZM19.61,17c.18-.18.12,0,0,.12S19.49,17.11,19.61,17Zm-.48.12c.06,0,.06.06,0,.12S19.07,17.05,19.13,17.11Zm-.12.54c.06-.06.18-.12.18,0S19,17.77,19,17.65ZM15.17,23c-.18.06.06-.3.06-.12S15.23,22.93,15.17,23Zm3.42-4.74c.06-.18.24-.36.24-.24S18.47,18.61,18.59,18.25Zm-.3-.72c.06,0,0,.18-.06.18S18.23,17.53,18.29,17.53Zm-.12,1.14c0-.06,0-.06.06-.06s0-.36.24-.06C18.53,18.67,18.11,19,18.17,18.67Zm-.12.3c.06-.06.06.12,0,.12S17.93,19,18.05,19Zm-.36.42c.12-.06.06.24,0,.18S17.63,19.45,17.69,19.39Zm-.12-.78c.18-.06-.06.18-.06.06S17.51,18.61,17.57,18.61Zm-.3.36c.18-.06-.06.18-.06.06A.06.06,0,0,1,17.27,19Zm-1,.36c.12-.06.06.12,0,.18S16.19,19.39,16.25,19.33ZM16,20.71c.18-.42.18-.06-.06.3S15.89,20.71,16,20.71Zm-.24-.78c.18,0,0,.24-.06.12A.21.21,0,0,1,15.77,19.93Zm0,2.22c.18-.18-.06-.42.18-.48s.06-.18.24-.18,0-.54.18-.36,0-.36.24-.36.36-.48.42-.3a13,13,0,0,1-.9,1.32c0,.12-.06.12-.12.12s-.06,0-.06.06C16.07,22.27,15.41,22.75,15.77,22.15Zm-.24.06c.06,0,.06.3,0,.3S15.41,22.21,15.53,22.21Zm-.06-1.86c.06,0,0,.24-.06.24S15.35,20.35,15.47,20.35Zm-.36-.6c.12-.12.24-.24.24-.12S14.87,20.05,15.11,19.75Zm.24,1c0,.12-.24.24-.24.36s0,.12-.06.12C14.81,21.13,15.35,20.59,15.35,20.71Zm-.78,3.48c-.06.12-.18.18-.12,0S14.75,24,14.57,24.19Zm-.12-1.14c.18-.18.12.06,0,.12C14.21,23.41,14.33,23.17,14.45,23.05ZM.53,67.93a1.49,1.49,0,0,1-.06-.54C.53,67.45.71,68.11.53,67.93ZM2.21,56.29c-.06-.06-.06-.12,0-.24C2.33,55.75,2.33,56.71,2.21,56.29Zm1.14-7.5a.13.13,0,0,1,.12-.12C3.65,48.61,3.41,49,3.35,48.79Zm.42.6a7.46,7.46,0,0,1-.24,1c0-.18.06-.66.06-.84S3.77,49.15,3.77,49.39Zm.72-2.52c-.12.6-.3.3-.3.66-.18,2-.48,0-.9,1.2,0,.24-.12.24-.12.42s0,.12-.06.12a7.38,7.38,0,0,1,.66-2.34c.24-.42.18.78.42.18.06-.24-.24-.36-.12-.6s.06-.18.06-.06-.06.24.12.36S4.61,46.27,4.49,46.87Zm-.84-1.38c.12,0,.12.48,0,.3S3.59,45.49,3.65,45.49Zm.78.3c.12.06,0,.3-.12.36s-.12-.42-.06-.42.06-.36.18-.36.12.24,0,.3S4.37,45.73,4.43,45.79Zm-.06.72c-.06.12-.12.18-.12,0S4.37,46.39,4.37,46.51Zm.18-2.28c-.06-.12.24-.3.12-.18S4.55,44.47,4.55,44.23Zm.12,2.1c-.12.36-.06-.12,0-.18S4.79,46.21,4.67,46.33Zm.18-1.74c-.12,0-.24.24-.24.12s.12-.12.12-.3S5.21,44.41,4.85,44.59Zm.06-1c0-.12,0-1.14.18-.72.18.18-.12.24,0,.42S5,43.87,4.91,43.63Zm.24.66c-.12,0-.12-.36,0-.3A.17.17,0,0,1,5.15,44.29Zm.42-1.14A.3.3,0,0,1,5.63,43C5.87,42.67,5.63,43.33,5.57,43.15Zm.24-2c-.12.12-.18.48-.3.6s0,.3-.12.3-.06.12-.06.24-.18.24-.24.36a19.59,19.59,0,0,1,1-2.82c.06-.24.12-.42.18-.42a.21.21,0,0,0,.06-.12.86.86,0,0,1,.36-.6c.18,0,.24.12.06.12-.36.12-.36.6-.54,1s.06.3.12.6-.06.18-.18.06C5.93,40.09,6.05,41,5.81,41.11Zm.84-2.82c.12-.42.12.06.06.18S6.47,38.65,6.65,38.29Zm-.6,4.08s-.24-.24-.12-.24S6.11,42.31,6.05,42.37Zm.06-.78c-.06.06,0,.36-.12.42s-.12-.18-.06-.24.12-.72.24-.78S6.41,41.05,6.11,41.59Zm.3-.78c-.06.36-.18-.3,0-.18Zm0-1c.12,0,.06.12,0,.12S6.35,39.79,6.41,39.79Zm.12.78c0,.06-.06.06-.06,0C6.35,40.33,6.59,40.39,6.53,40.57Zm.72-1.74c-.18.24-.18.66-.42,1-.36.72-.3.6-.3.06-.06-.78.24-.18.18-.36S7.49,37.69,7.25,38.83Zm-.36-.42c0-.12.12-.18.18-.06S6.83,38.71,6.89,38.41Zm.36-.54q-.18.09,0-.18C7.31,37.51,7.31,37.87,7.25,37.87Zm.06-.3c-.12,0-.12-.24,0-.24S7.43,37.57,7.31,37.57Zm-.06-.48c0,.12-.3.66-.3.78a.22.22,0,0,1-.06.18c-.3.18.36-1.26.36-1.38.24-.48.9-2,1.2-2.7a4.87,4.87,0,0,1,.3-.6c.12,0,.12.12.06.18a.36.36,0,0,0-.06.48c.12.12-.3-.12-.24.06s-.06.12-.12.18-.06.3-.18.36-.06.12-.06.24a4.62,4.62,0,0,1-.36.9c0,.06-.3.54-.24.66S7.19,37,7.25,37.09Zm.84-1.56a.3.3,0,0,1,.06.18c-.06.12-.18.3-.18-.06S8,35.41,8.09,35.53Zm0,.9c-.18.42-.18.66-.3.78s.24-.78.18-1,0-.12.06-.12.3-.54.24-.66.24-.24.24-.42.12-.18.18-.06S8.57,35.53,8.09,36.43Zm1.62-3.84c-.06,0-.12.06-.12.18,0,.66-.12.54-.3,1a.46.46,0,0,1-.12.3c-.12.12-.24.72-.48.78-.06,0,0-.24.12-.36s.12-.06,0-.06c-.3.06-.12-.36.06-.24s.3-.3.3-.66.12-.18.12-.42,0-.12.12-.12.12-.06.12-.18.06-.3,0-.54,0-.12.06-.12.12.18.18.3S9.77,32.59,9.71,32.59Zm-.84.6c-.06-.18.36-.9.42-.9C9.35,32.47,8.81,33.25,8.87,33.19Zm.42-1c0-.06.18-.36.24-.36S9.35,32.29,9.29,32.17Zm.84-1.56c.06.12-.66,1.32-.6,1.08C9.65,31.27,10.07,30.49,10.13,30.61Zm.06-1.74c0,.12-.12.48-.12.24S10.37,28.63,10.19,28.87ZM9.83,32c-.06,0-.06-.12,0-.12S10,32,9.83,32Zm.54-.54c-.12-.18-.24.12-.3.24-.06-.42.06-.24.18-.42S10.61,31.63,10.37,31.45Zm-.06-1.26a.09.09,0,0,1,.18,0A.09.09,0,0,1,10.31,30.19Zm.24.6c-.12,0-.06.12-.18.12s.24-.6.36-.48S10.67,30.85,10.55,30.79Zm.12-1.2c-.24.18.24-.48.18-.3S10.85,29.53,10.67,29.59Zm.18.78a.21.21,0,0,1-.06-.12C10.79,30.07,11,30.37,10.85,30.37Zm.06-1.2c-.12,0,.06-.36.06-.12C11,29.11,11,29.17,10.91,29.17Zm.3-.66c.3-.42.72-1.5.9-1.38-.12.3-.6,1-.72,1.26s-.12.12-.18.3C11,29.05,11,28.69,11.21,28.51Zm.12,1.08c-.18,0-.06.18-.12.36s-.12.24-.12-.12c0-.18.06-.3.12-.3a.21.21,0,0,0,.06-.12l.06-.06C11.45,29.35,11.45,29.59,11.33,29.59Zm2.82-4.92a.09.09,0,1,1,0-.18A.09.09,0,0,1,14.15,24.67Zm0-1.08c0-.12.06-.12.06-.12S14,23.77,14.15,23.59Zm-.06.12s-.18.36-.18.24S14,23.71,14.09,23.71Zm-.48.66c.12-.24.12.18,0,.18S13.55,24.49,13.61,24.37Zm.06.66a.31.31,0,0,0,.24-.12c0-.12.18-.18.18-.06a11.37,11.37,0,0,1-1.32,2c-.24.54-.9,1.56-1,1.86-.06,0-.06.12-.06.18s-.24.48-.3.36.06-.18-.06-.24.06-.42.18-.42.3-.3.24-.42.06-.12.12-.18.06-.12.06-.18c.06-.24.24-.18.36-.54s.18-.24.3-.36a.45.45,0,0,1,.12-.24c.18-.24.36-.72.6-.9a.51.51,0,0,0,.12-.42C13.49,25,13.55,25,13.67,25Zm-1.14.06c-.12.18-.24.18-.24.06S12.77,24.91,12.53,25.09Zm.3.78c.06,0-.3.6-.36.54A1.22,1.22,0,0,1,12.83,25.87Zm.54-1c.18-.12-.18.54-.3.54S13.25,25,13.37,24.91ZM13,24C13,24,13,24,13,23.89s.18-.36.24-.3-.36.72-.36.54A.21.21,0,0,1,13,24ZM9,30.07a8.56,8.56,0,0,1,.54-1.2c.9-1.68,2.28-4.08,3.3-5.58a5.18,5.18,0,0,1-1,1.92c-.42.42-.48.9-.84,1.38a16.6,16.6,0,0,0-.9,1.44A14.62,14.62,0,0,1,9,30.07Zm.18.54c.3-.24-.12.72-.18.66S9.11,30.67,9.17,30.61Zm-2.7,4.86c.6-1.44.3-.78,1.44-3.3a9.33,9.33,0,0,1,1-1.92c.18-.18,0,.24-.06.24-.78,1.62-1.2,2.7-1.8,4.2-.12.3-.24.24-.24.42S6.05,36.37,6.47,35.47ZM2.15,49.57A95.47,95.47,0,0,1,8.51,31.93c.24-.42.24,0-.06.6a9.65,9.65,0,0,0-1,2.22,2.94,2.94,0,0,0-.42,1.14c0,.06,0,.18-.06.18a15.72,15.72,0,0,0-1.26,2.82c0,.3-.12.18-.12.42,0,.06,0,.12.06.06s0,.24-.18.42-.12.3-.3.6a7,7,0,0,0-.3.66c-.06.12-.12.24-.06.3s-.18.12-.18.18-.48,1.26-.24,1.14a1.77,1.77,0,0,0,.3-.78c-.06.06.3-1,.24-.54s-.12.24-.12.66c-.06.66-.48,1.26-.54,1.8-.06.36-.18.3-.18.54s-.18.18-.24.06-.18.24-.06.18.12.18,0,.18-.3.36-.42,1c-.06.36-.3,1,.06.48,0-.12.06-.24.12-.18,0,.48-.66,2-.78,2.64-.12-.54.48-1.74.48-2.16-.06-.06-.18.06-.36.72-.42,1.14-.66,2.88-1,3.9-.12.12-.12.84-.24.9s-.06.18,0,.36,0,.24-.06.24-.18.84-.24.9c-.18-.18.12-1.08.24-1.56C1.79,51.19,2,50.29,2.15,49.57Zm.42-.36a1.41,1.41,0,0,1,.12-.48v.18C2.75,49,2.57,49.39,2.57,49.21ZM2,51.37c0-.18.12-.36.12-.06S2,51.67,2,51.37Zm0,.36c0,.06-.12.66-.12.18C1.85,51.79,2,51.55,2,51.73Zm-1,.42c.12-.12.12-1,.24-1a.62.62,0,0,0,.06-.24c-.06-.24.12-.24.12-.48s0-.18,0-.18.06-.12.06-.18c.06-.3.18-.3.18-.72s.12-.3.18-.6A.36.36,0,0,1,2,48.49c.18.24-.18.78-.18,1.2s-.12.3-.18.66a.36.36,0,0,1-.06.24c-.12.3-.18,1-.3,1.44C1.07,52.69.89,52.81,1.07,52.15Zm.18,1.74c0,.18-.06.54-.06.78a2.84,2.84,0,0,1,.06-1ZM1,55c0-.42.12,0,.06.12S1,55.15,1,55Zm.42,13.68c-.06.06-.06-.06-.06-.12C1.31,68.17,1.49,68.65,1.43,68.71Zm.3-7.86c-.06.12-.06-.3,0-.18Zm.3-5.7c.18-.06.06-.3.06-.48-.3.54-.12,1.14-.36,1.86-.18.54,0,1.14-.18,1.68a1.43,1.43,0,0,0-.12.54c-.12.78,0,.84.24-.48,0-.24.3-.54.24-.24s-.06,1.26-.3,1.32-.12.54-.18.66-.06.3-.06.42c0-.12.06-.36.18-.36s.12.24.06.3-.06,1.86-.18.72c-.06-.9-.18.36-.06.66s-.12.6-.06.78c.18-.06.06,1.74.18,1.86s.06-.12.06-.24c.18-1.08.12,1.56,0,1.74a11.22,11.22,0,0,0-.18,2c-.06.12-.06.06-.12-.3A50.13,50.13,0,0,1,2.57,51.07c.18-.36.24-1.44.6-1.5.12,0,.12,0,.06.12s0,.6-.24.3a4.71,4.71,0,0,0,.12.84c.06.06.06.12-.06.3a5.67,5.67,0,0,0-.54,2.4c-.06.84-.18.78-.18,1.32.06.24-.06.84-.18.84s-.06-.42-.12-.42S2,55.21,2,55.15Zm.06,1.74c.12-.06.06.12,0,.06S2,57,2.09,56.89Zm.06,15v.18l-.06-.18C2,71.59,2.21,71.65,2.15,71.89Zm29,5.34c.06-.06.06-.06.06,0S31,77.29,31.19,77.23Zm-.42.36c.06-.12.24-.18.12,0S30.65,77.77,30.77,77.59Zm3.3-4.38c-.06.6-4.86,4.38-2.22,1.74C31.91,75.07,34.55,72,34.07,73.21Zm8.7-9.54c-.12.12-.18.12-.06,0S43,63.61,42.77,63.67Zm-3.72,5.1c-1.08,1.2.48-.18.6-.48C39.65,68.17,39.53,68.23,39.05,68.77ZM3.89,44.05c.3,0,.3-.72.48-.9-.06-.3-.18.3-.24.3s-.06.06-.06.18a.62.62,0,0,1-.06.24C4,43.81,3.83,44.05,3.89,44.05Zm-.12,3.42c-.12.12-.42.6-.12.66s.12-.24.18-.3.24-.3.12-.42S3.83,47.35,3.77,47.47Z"/><path d="M63.53,44.23c.3-.3-.3-.18-.78-.24-2.4-.24-5.64,1.32-7.74,2.76a18.78,18.78,0,0,1,.66-2.88c.06-.6.78-2.34.42-2.58a1.3,1.3,0,0,0-1.44-.6c-.6-.06-.66,0-.9.12-.54.42-.54,1.5-1,2-.12.3-1,2-1.08,2.28-.36,1-1.38,2.64-1.38,4,0,.66,0,.72.36.6,1.44-.54.12,1.74-.48,2.76A21.89,21.89,0,0,0,47,61.21a3.11,3.11,0,0,0,.18,1.56c.12.24.36.24.54.48a1.12,1.12,0,0,1,.24.18c.24,0,.66.48.9.36a.73.73,0,0,1,.3.06c.06.18.6-.06.54-.3s.48-1.38.48-1.38c1.32-3.24,2.52-7,3.54-10.38.66-1.74,3.18-3.72,4.86-5a15.56,15.56,0,0,1,3.12-1.56,9.32,9.32,0,0,0,1.92-.72C63.53,44.47,63.35,44.29,63.53,44.23ZM48.11,57.61c-.06.12-.06-.12,0-.12Zm.12-.3c0,.06-.06-.18,0-.12S48.29,57.25,48.23,57.31Zm.36-1c-.06.06-.3.78-.3.66S48.65,55.93,48.59,56.35Zm.06,1.2c0,.12-.06-.12,0-.06S48.71,57.55,48.65,57.55Zm.6-1.5c-.06.12-.06-.12,0-.06Zm3.36-8.22c.12-.18-.24,1.32-.24.84C52.37,48.61,52.49,47.83,52.61,47.83ZM52,52c.12-.18.24-.54.36-.42s-.54,1-.54.78A.52.52,0,0,1,52,52Zm-1.74,1.8v.12C50.21,54,50.21,53.71,50.27,53.77Zm2.34-.12c-.54,1.74-1.32,4-1.8,5.28-.06.12-.18.48-.3.84a9.07,9.07,0,0,1-.72,1.68c-.18.24-.24.24-.18.06a19.11,19.11,0,0,1,1-4A12.34,12.34,0,0,1,52.13,54c0,.78.36-.36.12-.18s-.06-.06.18-.48S52.79,52.93,52.61,53.65ZM55,48.55c-.3.24-1,1.38-1.32,1.2C53.69,49.45,57.17,46.51,55,48.55Z"/><path d="M65.57,55.09s0-.06.12-.12.12-.12,0-.18-.3.54-.18.54S65.69,55.15,65.57,55.09Zm24.9-4.62-2.58,2.58c-.06.06-.06.24-.3.36s-.54,1-.84.9c0-.18-1.38,1.2-1.32,1.2s-.3.48-.48.48-.18.06-.18.12-.42.48-.42.54a.21.21,0,0,1-.12.06c-.06-.06-.42.48-.54.42s-.06.18-.18.18c-.42.12-.9.54-.12-.24,1.08-1,1.5-1.44,1.5-1.56s.06-.3.42-.66.6-.72.42-.72c-.18.18-.66.72-1,1a30.94,30.94,0,0,1-9.3,6.36c-2.28.9-5.28,1.74-7.62.6-1-.36-.9-1.68-1-2.52-.06-2,.72-3.78,1.32-5.7.36.12,1.26.54,1.74.72,2.7.48,5.76-1.74,7.26-4s4.32-7.14,2.52-9.42A4.94,4.94,0,0,0,76.61,40c-.54.12-1.5.24-2.1.42s-.78.24-1.86,1.32a25,25,0,0,0-3.9,5,31.57,31.57,0,0,0-3.48,7.5c-.9,2.76-1,5.46.6,7.68.66,1.56,3,2.34,4.56,2.7a23,23,0,0,0,4.5-.54,33.19,33.19,0,0,0,5.22-2.4,20.11,20.11,0,0,0,3.42-2.52,5.23,5.23,0,0,1,1-.84,22.7,22.7,0,0,0,2.88-3.06C90.47,52,91.91,49.75,90.47,50.47Zm-22.14.42c-.06,0-.12.12-.12.3-.06.42-.42.48-.48,1s-.06.36-.24.24-.18-.3-.06-.3c.12-.36,1-2.1,1.14-2.52s.24-.18.42-.54a3.23,3.23,0,0,1,.54-1c.12-.06.3-.54.3-.18A11,11,0,0,1,69,49.57c0,.12-.6,1.08-.6,1.26A.06.06,0,0,1,68.33,50.89Zm10-5.82c-.18.06.06-.18.06-.06S78.41,45.07,78.35,45.07Zm.42-1.44c.06.06.06.12,0,.12C78.71,43.93,78.71,43.57,78.77,43.63Zm-.6.6A14.26,14.26,0,0,0,78.53,42a3.3,3.3,0,0,1-.18,2C78.23,44.41,78.05,44.59,78.17,44.23Zm-.12,1.5s-.06.18-.12.42c-.24.48-.42.72-.36.36S78,45.67,78.05,45.73Zm-3-2.58c.42-.3,2.4-2.16,2.76-1.5,1,1.38-1.8,6.18-2.7,7.44a8.77,8.77,0,0,1-5,4c-.72.12-2,.24-1.56-.6C70.25,49.33,72.17,45.37,75.05,43.15Zm-3.78.78c.06-.06.06-.12.12-.12S71.27,44.23,71.27,43.93Zm-4.92,8.52c.06.06.06.06.06,0s.24-1.14.6-1.14c.06.06.06.06.06-.12s-.06-.18,0-.12.06,0,.06-.12a3.08,3.08,0,0,1,.3-.72c.12-.12,0-.42.18-.48s0,.36,0,.42c.12-.12.42-.42.24-.42s.12-.36.12-.54.18-.3.24-.48.06-.12.06.06.06.24.12,0,.18-.12.24-.24-.18-.06-.24,0v-.12c.06-.24.18-.18.24-.42s.06-.24.12-.24.42-.66.48-.66a.21.21,0,0,0,.06-.12c-.06-.3.54.06.3-.24s.06-.48,0-.18c-.06.06-.06.06.06,0s-.18-.36.12-.54.54-.9.84-1.08c.06,0,.12,0,.06-.06s.36-.66.54-.6.54-.48.54-.3-.3.18-.3.36-.12.06-.12.18-.24.3-.24.42a.26.26,0,0,1-.18.06c-.12,0-.18.06-.12.18A15.18,15.18,0,0,1,70,46.51c-.06.3-.24,0-.18.24s-.42.78-.54.66-.24.12-.06.12.12.12-.06.3c-.3.72-.78,1.38-1.2,2.28-.12.18-1.08,2.52-1.14,2s-.12.36-.24.48C66.35,53.05,66.17,52.51,66.35,52.45Zm.36.3c.06.06-.3.72-.24.36C66.47,53.05,66.71,52.69,66.71,52.75Zm-1.62,3.72v-.18C65.15,56.47,65,57,65.09,56.47Zm0,2.34A4.6,4.6,0,0,1,65,57.25c.12-.36.06.48.24-.6,0-.42,0-.54-.06-.54-.3.18.54-2.82,1.08-3.3.06,0,0,.54-.06.66s-.3-.12-.24.18-.12.06-.06.36c0,.06,0,.12-.06.12s-.12.06-.06.18.36-.24.36-.42l.12-.12c.12-.12.12,0-.12.6a30.18,30.18,0,0,0-1,3.9c-.06-.18-.06.18,0,.18S65.21,59.17,65.09,58.81Zm.6,1c-.06-.18-.06-.66,0-.66S65.81,60.07,65.69,59.83Zm.78-4.44c-.06,0-.12.06-.12.24s-.12.3-.06.54.06.6-.12.3c0-.18.06.42,0,.3s-.06.66-.18.54-.12.12,0,.24,0,.12-.06.24-.12.3-.18.66c0,.6-.12.72-.12.18a12.65,12.65,0,0,1,1-4.62c.36-.66.18-1.14.6-1.44.06,0,.12.12.12.18.06.3-.3.12-.24.3a12.16,12.16,0,0,1-.48,1.86C66.53,55.15,66.65,55.45,66.47,55.39Zm19.32.72-.24.24c-.06,0,0-.12.12-.24C86,55.87,86,55.87,85.79,56.11Zm.6-.54-.06.06C86.09,55.63,86.45,55.45,86.39,55.57Zm.36-.36c-.3.3-.36.24-.06,0S87.11,54.91,86.75,55.21ZM69.89,46.27c.12,0,.3-.3.24-.36S69.77,46.33,69.89,46.27ZM71,44.71c0-.06.06-.18.12-.18s.06-.18,0-.18S70.85,45,71,44.71Zm9.36-12.42c-.3-.24-1-.78-1.38-.3a3.64,3.64,0,0,0-1,1c-.78.48-1.8,1.2-2.58,1.8a3.35,3.35,0,0,0-1.26,2c.06.3.42.12.54.24s.12-.06.18.06.18-.06.24,0c.72-.36,1.26-1,2.1-1.38.48-.36,1.2-.78,1.68-1.08S81.53,33.19,80.39,32.29Z"/><path d="M101.21,47.77c-.18.18-.66.54-.72.72s-.18.18-.06.18a5.21,5.21,0,0,0,1-1C101.39,47.59,101.33,47.59,101.21,47.77Zm-5,7.38c-.06.18-.36.42-.42.6C96.05,55.75,96.65,54.61,96.23,55.15Zm6.42-9.06a2.35,2.35,0,0,0-.48.6c.06.06.48-.48.6-.36S102.71,46.09,102.65,46.09Zm-12.24,4c.18-.24.78-1.2.66-1.2s-.48.6-.48.72-.42.66-.42.78S90.35,50.29,90.41,50.05Zm-1.56,3.24c0-.12.24-.36.18-.54s-.06-.06-.24.3c-.24.54-.42,1-.36,1S88.85,53.41,88.85,53.29Zm29.94,1.62c.36-.54-.3.06-.3.18S118.67,55.09,118.79,54.91Zm-30.48-.3c0-.12.24-.36.12-.42s-.24.54-.3.54a18,18,0,0,0-.84,2.94c.06.18.06.18.06,0s.12-.24.12-.42C87.65,56.53,88.07,55.33,88.31,54.61Zm13.44-7.44c-.36.18.06.42.06.18C101.75,47.29,102.05,46.93,101.75,47.17Zm14.88,11.94a3,3,0,0,0-.54.72c0,.12.54-.48.6-.66S116.69,59.05,116.63,59.11Zm5.4-8.34c-.48.42-1.26,1.62-1.74,2.1-.12.24-1.56,1.8-1,1.5A17.26,17.26,0,0,0,121.19,52C121.37,51.79,122.21,50.89,122,50.77ZM119.93,54c-1,1.26-1.26,1.5-1.62,1.92s-.42.48-.42.6-.3,0-.12.12-.78,1.14-1,1.14-.3.06-.24.18-.3.54-.36.42a.11.11,0,0,0-.18,0c-.06.12-.18.18-.3.3-1.08.78.6-.84.6-.9.84-1.2.6-1-.84.3a15.31,15.31,0,0,1-2.28,1.74,6,6,0,0,1-2.82,1.2c-1.86.48-2.28-1.86-2.46-3.12a26.94,26.94,0,0,1,.84-8c.24-1.5,1-4.56.72-5.76-.06-.3-.12-1.2-.48-1.32-.36-.3-.36-1-.9-1.14a3.64,3.64,0,0,1-.78-.42,2.52,2.52,0,0,0-2.22.72c-1,.84-.6.36-1.44-.18a6.51,6.51,0,0,0-4.38-.66c-.36.12-1,.24-1.38.36-.12,0-.48.18-.6.18s-.06.06-.06.12a.26.26,0,0,1-.18.06c-.78.24-.84.18-1.86,1.26a22,22,0,0,0-4,5.52c.18,0,.06.3-.24,1-.54,1-.78,1.26-.9,1-.06-.06-.06-.06-.06,0s-.66,1.2-.78,1.44c.12.06.18-.06.24-.18.48-.9.72-.9.18.18a20.85,20.85,0,0,0-1.62,4c-.3,1.14-1.08,2.58-.18,3.54a3,3,0,0,0,1.68,1.62c2.22.18,4.62-2.46,5.46-4.26.12-.3,1-1.32,0-.42-1.32,1.26,1.26-1.92,1.32-2.16.06.06.36-.42.36-.48s0-.12.06-.24.06-.06.06.06.24-.12.18-.18.18-.36.24-.3a4.87,4.87,0,0,0,.54-.6c.18-.3,1.44-1.5,1.32-1.8-.12-.12-.06-.18.12-.18s.24-.12.42-.36c.78-.9.3-.54.48-1.14.54-1.2-1.86,1.86-2.1,2.22-.78,1-2.94,3.72-3.36,4.14-.42.24.06-.36.36-.72a5.61,5.61,0,0,1,1.08-1.44c.36-.42.18-.3.54-.72s.12-.54.54-1.08c2.28-2.82,3.66-4.56,5.76-6.84.06.06,0,.48.06.6s.06.12,0,.3-.18.3,0,.24.12.12.06.18,0,.12.06.12.12.18.24.24c.24.3-.06,1.2.54,1.62.18.18.36.42.42.48.12.36,1.5.6,1.68-.06a6.31,6.31,0,0,0-.3-2.94c-.18-.78-.18-.78.12-1.14s.72-1.26,1.14-1.44c.3,2.22-.54,5-.9,7.56-.06.24,0,.84.12.18.18-.9.24-1.08.3-1.44a7.83,7.83,0,0,1,.18-.78c.06-.12.06-.06.06.42-.06,1.26-.54,3.42-.66,4.92a14.87,14.87,0,0,0,.36,4.5c0,1.2.66,1.62,1.26,2.4a5.75,5.75,0,0,0,2.22,1.92c.36.18.78-.06,1.32,0A4.33,4.33,0,0,0,114.71,61c.42-.3.42-.3.36-.42s.6-.78.78-1.14c1-1.2,2.28-2.4,3.06-3.36a12.67,12.67,0,0,0,1.26-1.86C120.35,53.89,120.53,53.17,119.93,54Zm-24,.66c.18-.24.18,0,.06.06S95.87,54.73,95.93,54.67Zm-3.42-6.24c.06-.06.06.12,0,.12S92.39,48.49,92.51,48.43Zm-.42.9c.12-.12.24-.66.36-.54s-.18.3-.24.6S91.85,49.75,92.09,49.33Zm.12.48c.06.06-.12.06-.12,0S92.27,49.75,92.21,49.81Zm-2.52,2.76c.06-.06.12-.12.12-.18s.18-.42.48-1.08c.3-.48.36-.6.42-.48s.12,0,.18-.12.3-.24.3-.06.18.18.12,0,0-.12.06-.12-.06-.3-.18-.42.72.24.6-.06c-.06-.06-.06-.12,0-.12.42.06-.24.72-.24.9s-.3.24-.42.12-.36,0-.36.18,0,.12-.06.06-.12.18-.24.12.06.36-.12.36-.06.42-.18.24-.24.6-.24.66-.12-.06-.12.12S89.51,52.75,89.69,52.57Zm1.68-1.26c-.18.42-.3.3-.36-.12,0-.12,0-.12.12,0s.24-.24.3-.12S91.43,51.19,91.37,51.31Zm-1,1.38c-.18,0,0-.12.06-.12a.58.58,0,0,0,.42-.54c0-.12.12-.3.18-.24s-.12.6-.18.6-.06.06-.06.12a2.13,2.13,0,0,1-.24.54c-.18.3-.24.06-.12-.24C90.47,52.75,90.41,52.69,90.35,52.69Zm.18-.42c0-.24.06,0,0,.06Zm-1,.6c.12.06,0,.54-.12.36S89.51,52.87,89.57,52.87ZM89,54.07c.06-.12.3-.78.3-.48s-.18.36-.24.66S88.85,54.37,89,54.07Zm-.48,4.32c-.18.42-.12,1.08-.42.3-.12-.3.12,0,.12-.18s0-.12-.06-.12-.06-.18.06-.18.12-.24,0-.24c-.3-.12.06-.42.06-.78.06-.78.48-.06.72-1.08.06-.24.12-.42.18-.42s-.12-.36.06-.3a.06.06,0,0,0,.06-.06c0-.12.24-.48.18-.54s.24-.66.3-.9a.86.86,0,0,0,.12-.18c.06,0,.06-.06.06-.12s.18-.12.12-.36.06-.18.06-.06a.21.21,0,0,0,.06.12c.18.12-.36,1.08-.48,1.38C89.39,55.81,88.91,57.25,88.55,58.39Zm13.38-13.2c-2.7,3.06-5.4,6.72-8,9.72-1.2,1.5-2.94,3.42-4,3.9A8.51,8.51,0,0,1,90.71,56a29.67,29.67,0,0,1,7.44-11.4,10.91,10.91,0,0,1,1.38-.9,3.88,3.88,0,0,0,1-.54c.42-.36,1.56-.84,1.74-.12a2,2,0,0,1,.3.72C102.77,44.35,102.83,44.23,101.93,45.19Zm2.82-2A.27.27,0,0,1,105,43C105.11,43,104.69,43.45,104.75,43.21Zm.24.6c-.12.06-.06-.06,0-.06S105.05,43.81,105,43.81Zm1.68-1.26c-.06,0-.06,0-.06-.06C106.73,42.25,106.85,42.49,106.67,42.55Zm.3,16.14a4.76,4.76,0,0,1-.42-1.5c0-.18,0-.12.18.42s.06.6.3,1S107.15,59,107,58.69Zm.18-9.06c-.06.24-.24,1.56-.48,3.12-.12.72-.12,3-.18,4-.42-1.68.24-6.18.72-8C107.33,48.67,107.27,49,107.15,49.63Zm6.42,10.8c-.06,0-.06-.06,0-.06S113.63,60.49,113.57,60.43Zm.78-.42c-1.68.9.36-.54.54-.54S114.71,59.83,114.35,60Zm4.14-3.12c-.06.18-1.14,1-.9,1.2a2.07,2.07,0,0,0,.48-.54c-.12-.06.6-.6.6-.78S118.55,56.77,118.49,56.89Z"/><path d="M121.49,53.65c-.12-.36-.12.24,0,.42h0c-.12-.06-.12.18-.24.24s0,.48.12.54.06-.3.12-.36a.88.88,0,0,0,.06-.66C121.55,53.77,121.49,53.71,121.49,53.65Zm15,1.44c-.06.24.18-.06.18-.18S136.55,55,136.49,55.09Zm-.36.72c.06-.12.36-.42.24-.54s-.18.36-.36.42S136,56.11,136.13,55.81ZM120,54.31c-.12.06,0,.6.06.12C120.11,54.31,120.05,54.31,120,54.31Zm15.06,2.94a.51.51,0,0,1-.18.3c0,.12.12.06.18-.06s.24-.3.3-.42S135.11,57.13,135.05,57.25Zm-14-5.76c.18-.3,0-.42-.06,0v.24Zm14.88,4.56c-.12,0-.24.24-.24.36S136.13,55.93,135.89,56.05ZM121,49.87a35.91,35.91,0,0,0-.9,4.26c0,.06.06.06.06-.12.3-1,.48-2.28.84-3.6C121,50.17,121,49.81,121,49.87Zm.72-.78c.18-.84.24-1,.18-1v.06c-.06.24-.12.12-.18.42s-.12.24-.12.48,0,.18-.06.24C121.37,49.69,121.37,50.41,121.67,49.09Zm1-3.6c.12-.24.12-.42.24-.72C123,44.05,122.27,45.91,122.63,45.49Zm-.48,1.68c.06-.18.3-.66.18-.78S122,47.65,122.15,47.17Zm20-17.22c.18.06.18.06.18-.06.24-.18-2.94-.06-2.88-.06S142.19,29.89,142.19,30Zm-8.34-.42c-.42,0-.48.18,0,.12S134.27,29.41,133.85,29.53Zm8.4-.3a1.23,1.23,0,0,0-.66,0Zm-7.68.24h0Zm6.18-.24a13.43,13.43,0,0,0-1.56,0Zm-5,.54c-.12,0-.54.06-.12.06C135.83,29.83,135.89,29.83,135.77,29.77Zm-2.7-.24c-.9.06-.84.36,0,.18C133.55,29.65,133.55,29.53,133.07,29.53Zm-8.64,1.68a3.44,3.44,0,0,0-1.26.3l1-.12C124.91,31.27,125,31.15,124.43,31.21Zm24.36.54c-.06-.12-.12-.12-.06.12a.85.85,0,0,1-.06.54,2,2,0,0,0-.72-1.68c-.3-.24-.36-.24-.18-.06s.12.18-.06.12a10.67,10.67,0,0,0-4.92-.84c2,.18,4.08.3,5.22,1.26a1.26,1.26,0,0,1-.72-.18,3.7,3.7,0,0,0-1.44-.48c-1-.24-3.78-.54-4.38-.24a7.76,7.76,0,0,0,1.44.06,3.75,3.75,0,0,1,1.2.06,3,3,0,0,0,1.14.18c.36-.06,1.92.24,1.8.48a36,36,0,0,0-10.5-.24c-.24,0-.36,0-.36-.06s2.34-.3,3.06-.42,1.56.18,2.22-.12c-.84-.36-3.72,0-4.14-.06-2.34.06-4.86.48-7.14.6,0-.12.06-.12.06-.24.54-.06,1.2,0,1.08-.24a4,4,0,0,0-1,.12c.06-.18.18-.36.18-.42,2.1-.18,2.4-.54.06-.18.54-1.38.72-1.44,1.32-2.76.24-.54,1-2.28,1.14-2.58.06,0,.6-1.38.72-1.44s.12-.36.18-.36.06-.18.18-.42a5.28,5.28,0,0,0,.3-.9c0-.24.48-1.08.42-1.26,0-.48-.18-.42-.48-.6a1.43,1.43,0,0,0-1.08-.3c-.18.06-.42-.06-.6.18-.06.06-.12.12-.18.12-.42.3-.54.78-.78,1.38-.06.06-2.28,4.56-1.44,3.48.12-.18.18-.12.12.06-.48.84-.54,1.5-.9,2-.24.12-.12.18-.36.54s-.12.42-.36.72-.48,1.32-.72,1.44a9,9,0,0,0-.48,1c-4.38.54-8.16,1.32-12.66,1.62-1.14.06-2.7.12-3.12-.18a2,2,0,0,1-.36-.18c-.18-.06-.3,0-.42-.24s-.3-.18-.48.06-.3,1-.36,1.56c.84,2,4.68.9,6.54.78,3.24-.42,6.66-1,10.08-1.5a126.55,126.55,0,0,0-5.58,16.68c-.12,1,.6-1.32.54-1.38.48-1.56.9-3.06,1.44-4.68.3-.78.42-.66.18,0-.06.18-.3.84-.18.84s.48-1.74.66-2.16c.06-.06,0-.3.12-.36s.12-.36.3-.84.3-1,.6-1.14c.12,0,.18-.06.06-.12s.12-.42.06-.48.06-.12.06-.18.06-.12.18-.3.18-.6.42-.9c.06-.12.06-.18.12-.12a8.84,8.84,0,0,1-.48,1.68c0,.18-.18.24-.18.42s0,.18-.06.18a1.41,1.41,0,0,0-.12.48,98,98,0,0,0-4.68,18c-.18.3-.6,5.82-.18,6.42.06.12.12.72.18.9-1.14-2.64-.84-6.12-.36-9.24a2.13,2.13,0,0,0,0-.9c-.06.36-.12.66-.18,1.14-.42,2.76-.78,6.72.36,9.24A10.36,10.36,0,0,0,121.19,67a2.33,2.33,0,0,0,1.08,1.32c.36.18,1.2.9,1.56.84s.42.12.78.18a4.66,4.66,0,0,0,2.94-.6,14.36,14.36,0,0,0,1.56-1.26c.72-.54.6-.24,1.38-1,2.7-2.88,4.38-6,6.48-9.18a6.9,6.9,0,0,0,.72-1.5c-.12-.12.66-1.2.54-1.2a20.14,20.14,0,0,0-1.38,2.34,18.31,18.31,0,0,1-1.32,1.92c-.36.48-.9,1.38-1.26,1.74-.06.06-.18,0-.18.06s-.3.36-.3.42a1,1,0,0,1-.18.24,27.6,27.6,0,0,1-1.86,2.7c-.24.3-.78.78-.72.6a.22.22,0,0,0,.06-.18c-.06-.12.12.06.12-.06a45.22,45.22,0,0,1,3.06-4.5c1.2-1.8,2.28-3.6,3.42-5.34a39.62,39.62,0,0,0,2.7-4.68,28.52,28.52,0,0,0,1.68-3.3,5.31,5.31,0,0,0-.72,1.32c-1.32,2.46-2.52,4.38-4,6.6-.48,1-1.26,2-1.8,2.94-.24.3-.84,1.26-1.14,1.74s-.78,1.26-1.2,1.74c-.06,0-.18.42-.36.48a6.07,6.07,0,0,0-.9,1.2c-.18.24-.24.24-.18-.06s.48-.9.9-1.44c.6-.78,1.32-1.86,1.8-2.64.12-.3.18-.24.24-.42s.06-.18-.06-.06-.12.24-.18.24a.86.86,0,0,1-.12.18,4.48,4.48,0,0,0-.42.72c-.12.06-.18.36-.36.48s-.12.24-.24.3.48-.78.54-.9c.36-.6,1.08-1.68,1.26-2.1a14.78,14.78,0,0,0,1-1.62,10.91,10.91,0,0,0,.9-1.38c.06,0,.06,0,.06-.06s.36-.48.36-.3c-.06.48,1-1.56,1.08-1.62.6-1.2,1.44-2.28,2-3.36.18-.24-.06-.54-.18-.24s-.18.3-.48.84a18.51,18.51,0,0,0-1,1.74,5,5,0,0,1-.66.9c-.12.12-.06.3-.18.36l-.12.24c-.06.24-.24.24-.06-.12.18-.72-.48.3-.54.48-1.62,2.52-3.24,5.28-5,7.8-.06.12-1.14,1.56-1.14,1.68a2,2,0,0,1-.48.72c-.48.66-.72.54-1.26,1.32-.3.36-1.86,1.8-2.28,2.22a.77.77,0,0,1-.42.3.06.06,0,0,0-.06.06,5.36,5.36,0,0,1-2,.84c-.54.06-1.2.24-1.62-.18a6.61,6.61,0,0,1-1.26-3.12c-.42-1.5-.12-6.78.84-9.66.06-.48.18-.84.24-1.32a15.87,15.87,0,0,1,.84-4A31.84,31.84,0,0,1,125,45c.24-.9.54-2,.84-2.82,1.44-3.72,2.34-6.66,4-10.56a14.14,14.14,0,0,0,1.74-.18c.36-.06.42-.06.48-.18s.3-.06.12-.06,0,.24.18.12.24.06.54-.06c3.6-.3,8.4-.72,11.94-.3,1.26.18,2.88.12,3.54,1.2.12.12-.48,1.2-.54,1.44.18.3.36-.66.54-.42s.12-.24.24-.3.06-.3.18-.3S148.85,31.69,148.79,31.75Zm-17.7-6.3c.12-.06.06.06,0,.12S131,25.45,131.09,25.45Zm-.12.48c.06,0-.06.12-.06.12S130.85,25.87,131,25.93Zm-.54-1.86c0-.12.12-.18.06,0S130.37,24.25,130.43,24.07Zm0,3.06c.12,0,.06.12,0,.12S130.37,27.19,130.43,27.13Zm2.7,32.94c.36-.48,0,.3-.12.3S133,60.31,133.13,60.07Zm-.3.54c.06-.18.18-.12.06-.06s-.18.3-.24.24A.45.45,0,0,1,132.83,60.61Zm-2.52,3.72c.06-.48,1-1.38,1-1.56s.36-.48.42-.42-.18.18-.12.24a3.77,3.77,0,0,1-.72,1.08C130.85,63.79,130.25,64.57,130.31,64.33Zm-7-33.3c.12,0,.06.12-.06.12S123.23,31,123.35,31Zm-.9.18s.06-.06.06,0S122.39,31.27,122.45,31.21Zm-.24,0a.08.08,0,0,1,.12,0C122.39,31.21,122.21,31.27,122.21,31.21Zm-3.48.9c-.48,0,0-.06.12,0Zm.36.18H119C119,32.23,119.39,32.29,119.09,32.29Zm.54-.12c-.06.06-.12,0-.06,0S119.69,32.17,119.63,32.17Zm.24,0c-.12,0,0-.06.06,0Zm1.08.54c0,.06-.12.06-.36.06-1.2,0,.84-.36,1-.24C121.61,32.59,121,32.71,121,32.71Zm.6,0c-.06,0-.06,0,0-.06S121.61,32.77,121.55,32.71Zm.54-.06c-.24-.06,0-.12.06-.06S122.15,32.65,122.09,32.65Zm.78-.18c-.06,0-.12,0-.06-.06S123.05,32.47,122.87,32.47Zm.06-.36c-.06-.06-.36.12-.24-.06S123.29,32.05,122.93,32.11Zm.36-.12c.06,0,0,.12.18.06S123.23,32.29,123.29,32Zm.3.36c-.18.12-.06-.3,0-.12Zm1.56-.6c0,.06-.78.12-.6,0s.18.06.24,0S125.33,31.63,125.15,31.75Zm.3-.12c-.18,0-.06-.06.06,0Zm.72-.3c-1.14.18-1.14.18-2,.36a3.92,3.92,0,0,1-.66.12c0,.06-.06.06-.18.06a6.25,6.25,0,0,1-.66.06,1.54,1.54,0,0,0-1,.12.27.27,0,0,1-.3,0,.36.36,0,0,0-.24.06,1.47,1.47,0,0,1-.9.06c-.12-.06-.12-.06-.06-.06.54-.36,1.74-.18,1.62-.6.36-.06,2-.3,2.58-.48,1.08-.24,1.92-.42,3.12-.66-.12.3-.24.6-.3.78C126.89,31.21,126.53,31.27,126.17,31.33Zm.9,4.86c-.06.12-.06.12-.06.06C127,36,127.25,36,127.07,36.19Zm-.9.72c.06,0,0-.42.12-.36C126.47,37.15,126,37.15,126.17,36.91Zm-.12-1.56c.06,0,.06,0,.06.06S125.93,35.47,126.05,35.35Zm0,2c.12-.06.06.12,0,.12S126,37.33,126.05,37.33Zm-.36-.6c-.18-.24-.3.3-.36.42-.3.36.36-1.56.48-1v-.12c.06-.3.18-.36.18-.18s-.12.24-.12.54S125.75,36.85,125.69,36.73Zm-.18,2.1c.18-.36.18-.78.3-1,.06,0,.06-.06.06-.12.06-.24.24-.12.3-.3s.12-.06.12,0a.45.45,0,0,1-.18.18c-.24.18.18.48-.12.42s-.06.36-.24.42-.06.36-.18.48S125.39,39.07,125.51,38.83Zm-.06.3c.24-.06-.18.36,0,.36l.06.06c0,.12-.06.06-.18,0A.37.37,0,0,1,125.45,39.13Zm-.24.72c.18,0-.06.24-.06.06Zm-2,5.94c.06-.24.24-.78.3-1s.3-1,.42-1.2c.06,0,.06.24,0,.3s-.12.54-.18.48c-.06.12,0,.66-.18.78s-.06.6-.12.48-.12,0-.06.12-.06.3-.12.42C123.23,46.09,123.11,45.91,123.23,45.79Zm.54-.18a3,3,0,0,1,.24-.78C124.31,44.47,123.71,46.21,123.77,45.61Zm.36-1.86c-.06,0-.06,0-.06-.06C124.07,43.39,124.19,43.69,124.13,43.75Zm-.78,3.54c-.06-.18.06-.66.18-.66S123.41,47.17,123.35,47.29Zm-.18.9c-.12.12-.06.36-.18.36s-.12,0-.06-.12.06-.3.18-.36a.21.21,0,0,0,.06-.12C123.23,47.71,123.23,48.07,123.17,48.19Zm-.24-1.5c.3-1.14.3-.12.12.12-.06,0-.06.12,0,.18s-.06.66-.06.24S122.81,47.11,122.93,46.69Zm0,.84s.12.12,0,.12S122.87,47.59,122.93,47.53ZM120.71,63c-.06.12-.06-.18,0-.12Zm-.12-.84c-.06-.18-.06-.24.06-.12S120.71,62.41,120.59,62.11Zm.06-.3c-.06.06,0-.54-.06-.54s-.06-.06,0-.18c.18-.3.12,0,.12.3S120.71,61.81,120.65,61.81Zm.06-1.2c0,.18-.06.18-.06.06s-.18-.42,0-.54C120.83,60.19,120.71,60.37,120.71,60.61Zm.12-.9c-.06,0-.12-.18-.06-.18S120.83,59.71,120.83,59.71Zm0-1.14a.21.21,0,0,1,.06-.12C121.13,58.45,120.83,58.81,120.83,58.57Zm.12-.78c0-.06.12-.12.12,0S121,57.91,121,57.79Zm0,7.26c-.06-.36.18,0,.12.06S121,65.17,121,65.05Zm.18.54c-.24-.48-.06-.48.06-.12S121.25,66,121.13,65.59Zm.18-9.36s-.12-.12-.06-.12S121.37,56.23,121.31,56.23Zm.12,10v.18l-.06-.18C121.31,66,121.49,66,121.43,66.25Zm.36-12.42c0,.42-.12.42-.18.72,0,.12-.12.48-.18.48a.06.06,0,0,1-.06-.06c0-.06-.06-.12-.12,0s-.12,0-.12.06v.06c.12,0,.06.42-.06.54s-.06.66-.12.72a.22.22,0,0,0-.06.18,6.77,6.77,0,0,0-.12.84c0,.66-.24.42-.12,1,.06.06-.06.6-.06.6s-.06,1.44-.12,1.5a19.38,19.38,0,0,0,0,2.64c.06.06.06,1,.12,1.32.12.12.18.9,0,.3-.84-3.24.06-8.22.84-11.94.54.36-.3,0,.12.66C121.73,53.65,121.79,53.17,121.79,53.83Zm0-.9c-.06-.18.18-.42.18-.54s.06-.06.06,0S121.91,53.35,121.79,52.93Zm.3,1.44c-.3,1.2,0-.06.06-.54C122.27,53.11,122.33,53.53,122.09,54.37Zm.24-2.94a1.57,1.57,0,0,1-.18.48,1.21,1.21,0,0,1,.18-.66Zm.06,1.38c-.12.06-.06-.24,0-.06C122.45,52.75,122.45,52.81,122.39,52.81Zm.12-.66c-.06.12-.06-.12-.06-.06A.06.06,0,0,1,122.51,52.15Zm-.06-1.62c0-.06,0-.06.06-.06S122.45,50.77,122.45,50.53Zm.18-.24c-.12.18-.06-.18,0-.18S122.63,50.23,122.63,50.29Zm.12.9a.31.31,0,0,1-.12.24C122.51,51.55,122.81,50.77,122.75,51.19Zm-.18-2c0,.12-.06.18-.12.18s-.06,0-.06.06a.06.06,0,0,1-.06.06c-.06,0-.06.24,0,.24s.06-.18.18-.18.12-.06.18-.12c.18-.24,0,.54-.06.66,0-.06-.06-.54-.12-.36s-.06.18-.12.18,0,.24-.18.24-.12.54,0,.48.06.24-.06.3,0,.18-.12.18-.06-.18,0-.18.06-.06.12-.06,0-.06-.12-.06-.12.24,0,.42-.12.18-.12.42-.18.36-.18.6a.31.31,0,0,1-.12.24c-.06.06-.06.18,0,.18s.12.06,0,.12c-.54.24,1.14-5.16,1.26-5.64a2.88,2.88,0,0,0,0,.72c.06.06.06.12-.06.18-.18.24.12.3,0,.36s-.12.12-.12.18-.12,0-.18.18S122.81,48.73,122.57,49.15Zm.18-.12a.46.46,0,0,1,.12-.3c.06-.06.06-.06.06.18S122.75,49.33,122.75,49Zm.48.54c-.06.06-.36,1.56-.42,1.2a14.73,14.73,0,0,1,.48-1.74C123.41,48.37,123.41,49.09,123.23,49.57Zm.6-2.22c-.06.06-.36,1.44-.36,1.08,0-.66.36-1.08.42-1.56,0-.12,0-.12.06-.06A4.89,4.89,0,0,1,123.83,47.35Zm.36-1.32c-.24.6-.06-.12,0-.24S124.25,45.85,124.19,46Zm-.06-2.58c-.3.06.06-.54.12-.9s.18-.72.24-.18c0,.36-.12.12-.18.3a.45.45,0,0,1-.06.3C124.19,43,124.25,43.45,124.13,43.45Zm.24.24a5.19,5.19,0,0,1,.42-1c.06-.06.06-.06,0,.18a6.24,6.24,0,0,1-.48,1.2C124.25,44.05,124.25,44.05,124.37,43.69Zm.3.84c-.18.48-.3,1-.36,1h0C124.37,44.89,125.39,42.13,124.67,44.53Zm.3-1.08c-.06,0,0-.12,0-.12S125,43.39,125,43.45Zm.18-.42c-.18.48,0-.42.06-.3A.8.8,0,0,1,125.15,43Zm.18-.78c0-.18.12-.18.18-.42s.06-.18.06-.12S125.33,42.37,125.33,42.25Zm.48-1.26c-.06.12-.06-.12,0-.06Zm-.36-.06c-.06.24-.12.3-.3.84s-.3.6-.24.36a6.56,6.56,0,0,1,.3-1c.24-.36.24-.54,0-.42s-.18-.36-.24,0c0,.18-.18.3-.18.48a.46.46,0,0,1-.12.3c-.06.18.06.48-.18.54-.06,0-.06-.18,0-.18s.06,0,.06-.06,0-.3.12-.48.48-1.56.42-1c0,.18,0,.18.18.24s.18,0,.18-.12,0-.12.06-.12a5.66,5.66,0,0,0,.18-.54c.12-.24.12-.36.18-.48s0-.18.06-.24.12-.3.24-.66c.24-.6.54-1.5.78-2,.24-.06-.66,2-.66,2.16s-.18.42-.18.54-.12.06-.12.18A13.35,13.35,0,0,1,125.45,40.93Zm.48-.3c-.06-.06.24-.72.24-.48C126.17,40.15,125.93,40.81,125.93,40.63Zm.42-1.14c-.06.12-.06.36-.12.42s0-.48.06-.54S126.41,39.37,126.35,39.49Zm.84-2.22c-.12.24-.42,1.32-.54,1.2C126.77,38.17,127.67,35.83,127.19,37.27Zm.24-.72c0,.3-.12-.06,0-.12S127.49,36.49,127.43,36.55Zm.36-1.08c-.18.24,0-.18.06-.24S127.85,35.41,127.79,35.47Zm.24-.66c-.06.24-.06-.12,0-.18S128.09,34.75,128,34.81Zm1.44-3.42c-.06,0-.06,0-.06-.06S129.47,31.27,129.47,31.39Zm.54-.12a.06.06,0,0,1,.06-.06C130.13,31.21,130.07,31.21,130,31.27Zm1,.06c-.06,0-.06-.12,0-.12S131,31.27,131,31.33Zm.6-.18c-.18.06-.24-.06-.12-.06S131.63,31.09,131.57,31.15Zm2.16-.12c-.12,0-.06-.12,0-.06S133.79,31,133.73,31Zm1.08-.12c-.24,0,0-.06.06-.06S134.87,30.91,134.81,30.91Zm1.2-.06c-.12,0-.12-.12,0-.12S136.07,30.85,136,30.85Z"/><path d="M138.05,55.09s0-.06.12-.12.12-.12,0-.18-.3.54-.18.54S138.17,55.15,138.05,55.09ZM163,50.47l-2.58,2.58c-.06.06-.06.24-.3.36s-.54,1-.84.9c0-.18-1.38,1.2-1.32,1.2s-.3.48-.48.48-.18.06-.18.12-.42.48-.42.54a.21.21,0,0,1-.12.06c-.06-.06-.42.48-.54.42s-.06.18-.18.18c-.42.12-.9.54-.12-.24,1.08-1,1.5-1.44,1.5-1.56s.06-.3.42-.66.6-.72.42-.72c-.18.18-.66.72-1,1a30.94,30.94,0,0,1-9.3,6.36c-2.28.9-5.28,1.74-7.62.6-1-.36-.9-1.68-1-2.52-.06-2,.72-3.78,1.32-5.7.36.12,1.26.54,1.74.72,2.7.48,5.76-1.74,7.26-4s4.32-7.14,2.52-9.42a4.94,4.94,0,0,0-3.06-1.2c-.54.12-1.5.24-2.1.42s-.78.24-1.86,1.32a25,25,0,0,0-3.9,5,31.57,31.57,0,0,0-3.48,7.5c-.9,2.76-1,5.46.6,7.68.66,1.56,3,2.34,4.56,2.7a23,23,0,0,0,4.5-.54,33.19,33.19,0,0,0,5.22-2.4,20.11,20.11,0,0,0,3.42-2.52,5.23,5.23,0,0,1,1-.84,22.7,22.7,0,0,0,2.88-3.06C163,52,164.39,49.75,163,50.47Zm-22.14.42c-.06,0-.12.12-.12.3-.06.42-.42.48-.48,1s-.06.36-.24.24-.18-.3-.06-.3c.12-.36,1-2.1,1.14-2.52s.24-.18.42-.54a3.23,3.23,0,0,1,.54-1c.12-.06.3-.54.3-.18a11,11,0,0,1-.84,1.68c0,.12-.6,1.08-.6,1.26A.06.06,0,0,1,140.81,50.89Zm10-5.82c-.18.06.06-.18.06-.06S150.89,45.07,150.83,45.07Zm.42-1.44c.06.06.06.12,0,.12C151.19,43.93,151.19,43.57,151.25,43.63Zm-.6.6A14.26,14.26,0,0,0,151,42a3.3,3.3,0,0,1-.18,2C150.71,44.41,150.53,44.59,150.65,44.23Zm-.12,1.5s-.06.18-.12.42c-.24.48-.42.72-.36.36S150.47,45.67,150.53,45.73Zm-3-2.58c.42-.3,2.4-2.16,2.76-1.5,1,1.38-1.8,6.18-2.7,7.44a8.77,8.77,0,0,1-5,4c-.72.12-2,.24-1.56-.6C142.73,49.33,144.65,45.37,147.53,43.15Zm-3.78.78c.06-.06.06-.12.12-.12S143.75,44.23,143.75,43.93Zm-4.92,8.52c.06.06.06.06.06,0s.24-1.14.6-1.14c.06.06.06.06.06-.12s-.06-.18,0-.12.06,0,.06-.12a3.08,3.08,0,0,1,.3-.72c.12-.12,0-.42.18-.48s0,.36,0,.42c.12-.12.42-.42.24-.42s.12-.36.12-.54.18-.3.24-.48.06-.12.06.06.06.24.12,0,.18-.12.24-.24-.18-.06-.24,0v-.12c.06-.24.18-.18.24-.42s.06-.24.12-.24.42-.66.48-.66a.21.21,0,0,0,.06-.12c-.06-.3.54.06.3-.24s.06-.48,0-.18c-.06.06-.06.06.06,0s-.18-.36.12-.54.54-.9.84-1.08c.06,0,.12,0,.06-.06s.36-.66.54-.6.54-.48.54-.3-.3.18-.3.36-.12.06-.12.18-.24.3-.24.42a.26.26,0,0,1-.18.06c-.12,0-.18.06-.12.18a15.18,15.18,0,0,1-.78,1.32c-.06.3-.24,0-.18.24s-.42.78-.54.66-.24.12-.06.12.12.12-.06.3c-.3.72-.78,1.38-1.2,2.28-.12.18-1.08,2.52-1.14,2s-.12.36-.24.48C138.83,53.05,138.65,52.51,138.83,52.45Zm.36.3c.06.06-.3.72-.24.36C139,53.05,139.19,52.69,139.19,52.75Zm-1.62,3.72v-.18C137.63,56.47,137.51,57,137.57,56.47Zm0,2.34a4.6,4.6,0,0,1-.06-1.56c.12-.36.06.48.24-.6,0-.42,0-.54-.06-.54-.3.18.54-2.82,1.08-3.3.06,0,0,.54-.06.66s-.3-.12-.24.18-.12.06-.06.36c0,.06,0,.12-.06.12s-.12.06-.06.18.36-.24.36-.42l.12-.12c.12-.12.12,0-.12.6a30.18,30.18,0,0,0-1,3.9c-.06-.18-.06.18,0,.18S137.69,59.17,137.57,58.81Zm.6,1c-.06-.18-.06-.66,0-.66S138.29,60.07,138.17,59.83Zm.78-4.44c-.06,0-.12.06-.12.24s-.12.3-.06.54.06.6-.12.3c0-.18.06.42,0,.3s-.06.66-.18.54-.12.12,0,.24,0,.12-.06.24-.12.3-.18.66c0,.6-.12.72-.12.18a12.65,12.65,0,0,1,1-4.62c.36-.66.18-1.14.6-1.44.06,0,.12.12.12.18.06.3-.3.12-.24.3a12.16,12.16,0,0,1-.48,1.86C139,55.15,139.13,55.45,139,55.39Zm19.32.72-.24.24c-.06,0,0-.12.12-.24C158.45,55.87,158.51,55.87,158.27,56.11Zm.6-.54-.06.06C158.57,55.63,158.93,55.45,158.87,55.57Zm.36-.36c-.3.3-.36.24-.06,0S159.59,54.91,159.23,55.21Zm-16.86-8.94c.12,0,.3-.3.24-.36S142.25,46.33,142.37,46.27Zm1.14-1.56c0-.06.06-.18.12-.18s.06-.18,0-.18S143.33,45,143.51,44.71Z"/><path d="M188.93,50.29c0-.12,1.56-2.16,1.26-2a5.18,5.18,0,0,0-.6,1,7.62,7.62,0,0,0-.9,1.26C188.63,50.65,188.75,50.53,188.93,50.29Zm2.82-3.54c-.24.12-.78,2-1,2.16s-.12.18-.24.36a46.37,46.37,0,0,1-7,8.1c-.12.12-.18,0,0-.12.36-.42.9-1,.18-.6-.12.06-.06,0,.24-.3s2.76-3.12,3.3-3.78.48-.3.72-.78.12-.54,0-.36c-1.56,1.68-4.26,4.74-5.94,6.18-1.2,1-3.12,2.34-4.8,1.92-.72-.18-.36-5.52.3-8,.3-1.44.84-3.9.6-4.92-.06-.9-.36-.42-.78-.72-.06-.18-.24,0-.3-.12s-1.08.24-1.14.66a4.25,4.25,0,0,1-.54,1.44,1.77,1.77,0,0,1-.18.36c0,.06-.3.48-.3.54s-.36.42-.36.54c.36,0,.6-.9,1-1.32.12-.06.12,0,0,.66-.18,1.44-1.08,2.22-2,3.66-1.74,2.46-5.76,7.5-4.92,6,.42-.78.18-.9,1.08-1.92.3-.42.9-1.14,1.2-1.56.54-.72,1.08-1.8,1.68-2.52.42-.66,1.62-2.16,2-2.76-.06-.3-1.56,2-1.68,2.16-.78,1-2.22,2.82-3,3.9-1.56,1.86-3.42,4.5-5.64,5.52-.72.24.54-4.14.54-4.32.72-2.7,1.56-5,2.28-7.44a22,22,0,0,1,1-2.76c.24-.66,1.56-3.18.36-3.36-.18-.06-.24-.24-.48-.18h-.24c0-.12-.66-.06-.84,0s-.12.12-.18.24a.42.42,0,0,1-.12.24c-.12,0-.42.54-.42.72a4.54,4.54,0,0,1-.66,1.32c-1.32,1.44-2.46,4.08-4,6.24-.36.54-.42.84-.18.78.06-.06.12,0,.06,0,0,.18-.36.66.12.42.3-.12.84.42,1.14.06,0,0,.78-1.2.54-.48a44.57,44.57,0,0,0-1.38,5.4c-.12.72-.18,3,.36,3.3a.76.76,0,0,1,.24.42,3.59,3.59,0,0,0,1.56,1.44,5.81,5.81,0,0,0,1.38-.06c1.26-.3,3.9-3.06,4.5-4,1.86-2.16,3.36-4.92,5.1-7.08-.3,1.92-.66,4.56,0,6.42a2.37,2.37,0,0,0,.66,1.08,2.4,2.4,0,0,0,.6.72c.6,1.38,3.42,1.56,5,.66A19.35,19.35,0,0,0,187,55.39a20.32,20.32,0,0,0,3.18-4.92c.18-.36.78-1.44,1-1.8s.6-.78.54-1S192.05,46.69,191.75,46.75Zm-29.22,9.84c-.06.06-.06,0-.06-.06S162.65,56.53,162.53,56.59Z"/><path d="M202.13,44.23c.3-.3-.3-.18-.78-.24-2.4-.24-5.64,1.32-7.74,2.76a18.78,18.78,0,0,1,.66-2.88c.06-.6.78-2.34.42-2.58a1.3,1.3,0,0,0-1.44-.6c-.6-.06-.66,0-.9.12-.54.42-.54,1.5-1,2-.12.3-1,2-1.08,2.28-.36,1-1.38,2.64-1.38,4,0,.66,0,.72.36.6,1.44-.54.12,1.74-.48,2.76a21.89,21.89,0,0,0-3.24,8.7,3.11,3.11,0,0,0,.18,1.56c.12.24.36.24.54.48a1.12,1.12,0,0,1,.24.18c.24,0,.66.48.9.36a.73.73,0,0,1,.3.06c.06.18.6-.06.54-.3s.48-1.38.48-1.38c1.32-3.24,2.52-7,3.54-10.38.66-1.74,3.18-3.72,4.86-5a15.56,15.56,0,0,1,3.12-1.56,9.32,9.32,0,0,0,1.92-.72C202.13,44.47,202,44.29,202.13,44.23ZM186.71,57.61c-.06.12-.06-.12,0-.12Zm.12-.3c0,.06-.06-.18,0-.12S186.89,57.25,186.83,57.31Zm.36-1c-.06.06-.3.78-.3.66S187.25,55.93,187.19,56.35Zm.06,1.2c0,.12-.06-.12,0-.06S187.31,57.55,187.25,57.55Zm.6-1.5c-.06.12-.06-.12,0-.06Zm3.36-8.22c.12-.18-.24,1.32-.24.84C191,48.61,191.09,47.83,191.21,47.83Zm-.6,4.14c.12-.18.24-.54.36-.42s-.54,1-.54.78A.52.52,0,0,1,190.61,52Zm-1.74,1.8v.12C188.81,54,188.81,53.71,188.87,53.77Zm2.34-.12c-.54,1.74-1.32,4-1.8,5.28-.06.12-.18.48-.3.84a9.07,9.07,0,0,1-.72,1.68c-.18.24-.24.24-.18.06a19.11,19.11,0,0,1,1-4,12.34,12.34,0,0,1,1.5-3.54c0,.78.36-.36.12-.18s-.06-.06.18-.48S191.39,52.93,191.21,53.65Zm2.34-5.1c-.3.24-1,1.38-1.32,1.2C192.29,49.45,195.77,46.51,193.55,48.55Z"/><path d="M34.06,139.06a.91.91,0,0,1,.24-.36c.3-.36.42-.66.24-.66s-.36.42-.36.54-.24.18-.24.3-.18.24.06.3C34.06,139.18,34.12,139.12,34.06,139.06Zm3.84,2.7c-.18,0-.24.66,0,.48C38,142.18,38.08,141.64,37.9,141.76Zm-5.34.24c.12,0,0-.24.18-.24a.21.21,0,0,0,.06-.12c-.06-.12.24-.3.18-.42s.42-.36.3-.6.24-.36.18-.48c-.06.06-.18.3-.3.3s-.06,0-.06.06C33.16,140.8,32.32,141.94,32.56,142Zm17.88.54A9.4,9.4,0,0,0,50,144.4c-.06.18,0,.18.06.12s.06-.24.12-.36c.06-.3.24-1,.3-1.32C50.38,142.72,50.62,142.6,50.44,142.54Zm-1.38,6.12c-.12.48-.12.78-.24,1.14-.06.06,0,.3.06.3S49.6,146.68,49.06,148.66ZM67.12,97.78c-.3-.06-.3-.3-.66-.18s-.3.12-.48.12.24-.18.3-.18a2.82,2.82,0,0,0-.54-.18c-.18,0-.6.42-.54.54L65,98c-.48.12-.36.6-.66,1s-1.2,2.52-1.56,3a.45.45,0,0,0-.12.24,8.36,8.36,0,0,1-.9,1.8c-1.26,2.52-2.16,3.66-2.82,5.4-1.2,2.94-3.66,5.88-5.46,8.7A63.16,63.16,0,0,1,50,123.94a12.71,12.71,0,0,1-1,1.62,1,1,0,0,1-.24.42c-.3.36-.6,1-1,1.44a25,25,0,0,0-1.56,2.28c-.54.78-.6,1-.66.9-.18-.3.42-.9.42-1.14-.06,0-.48.48-.6.42-.3.18-.72,1-1,1.26a4.46,4.46,0,0,0-2.52-.6,7.65,7.65,0,0,0-2.64.42c-2.82,1.26-5,5.52-6.48,8.22-.12.12-.12.36-.06.36s.12-.12.54-.84a32.52,32.52,0,0,1,1.86-2.94c-.3.78-1.62,2.76-1.62,3a34,34,0,0,0-1.62,3.3,40.52,40.52,0,0,0-1.5,4.56,9.72,9.72,0,0,0-.54,2.28,6.2,6.2,0,0,1-.18.72c0,.18-.06.36-.12.3a.26.26,0,0,0-.06.18,2.78,2.78,0,0,0,.48,1.5c.24.18.18.6.48.72s.24.42,1,.36c1.44-.06,1.8-.9,3.12-2.16a19.8,19.8,0,0,0,2.1-2.7,25.28,25.28,0,0,0,2-3.3.3.3,0,0,1,.18.06c.3.18.36-.3.6-.66.66-1.08,1.14-2.16,1.92-3.24.42-.42.72-1.5,1-1.62s.24-.54.36-.78a9.55,9.55,0,0,1,.78-1.32c.06-.06.18-.48.24-.24a5.27,5.27,0,0,1-.54,1.26,1.54,1.54,0,0,1-.24.54c-.3.48.72.54,1,.06.24-.3.54-.18.78-.06a9.93,9.93,0,0,0,1.56-2.94,3.24,3.24,0,0,0-.18-2.58,6.44,6.44,0,0,0,.72-1.44c-.12-.12,4.2-6.72,4.68-7.86a54.61,54.61,0,0,1,4.5-8c.36-.36,0,.12.36,0,.54,0-.24.84-.06,1.2s.06.24,0,.18-.24.72-.36.72a17.25,17.25,0,0,0-1.08,2.4,14.15,14.15,0,0,1-.72,1.68c-.06,0-.18.54-.24.54s-.12.06-.12.18a11.85,11.85,0,0,0-.48,1.56,7.88,7.88,0,0,1-.48,1.38c-.18.3-.06.36-.18.6a19.85,19.85,0,0,0-.84,2.46A149.52,149.52,0,0,0,47,146.92a76.9,76.9,0,0,0-1.74,14.82,9.43,9.43,0,0,1-.06,1.92c-.06-.06-.06.06,0,.24-.06.6.24,3.66.72,4.2.06.42.84,1,1,1.32.36.66.84.36,1.32.84.36.18.48-.06.78-.12.54,0,1.26-.48,1.2-.84a4.25,4.25,0,0,1,.66-1.26c.24-.3.24-.66,0-.66a4,4,0,0,0-.66.6c-.54.66-1.62,1.5-2.28.9a9.4,9.4,0,0,1-.48-1.86,59.88,59.88,0,0,1,.12-9.84,10.78,10.78,0,0,0,.12-1.32c.12-.42,0-.42-.24-.66.18,0,.42-.24.24-.36s-.12-.12.06-.18,0-.36.24-1.08c.06-.72.3-1.62.36-2.28.18-1.56.9-3.54,1-5a10.16,10.16,0,0,1,.48-2c.12-.84.48-1.74.6-2.58.36-1.5.78-3.18,1.26-4.62a5.81,5.81,0,0,0,.48-1.44c.24-.66.18-1.44.36-1.92.24-.84.9-2.16,1.08-2.88.66-3,2.76-8,4-11.22.84-2.1,1.44-4,2.46-6a17.37,17.37,0,0,1,1.32-2.82c.6-1.2,1.38-3.18,2-4.38.66-1.38,2.52-5,3.54-6.66C66.94,99.34,67.84,97.78,67.12,97.78ZM36,135.4c.06,0,.06.12-.06.3C35.62,136.36,35.68,135.4,36,135.4Zm-.72,1c.06-.06.06.12,0,.12S35.26,136.42,35.32,136.42Zm-.12.24c.12.06-.24.42,0,.36s0,.24-.12.06-.06-.06-.12.06C34.6,137.5,35.14,136.6,35.2,136.66Zm-3.9,7.86c.12-.36.18.18.06.18S31.3,144.64,31.3,144.52Zm-.12.42c.12-.36.12.24,0,.3S31.12,145.12,31.18,144.94Zm-.18.6c.12,0,.12.12.06.12S30.94,145.54,31,145.54Zm-.36,1.8c.3.3-.12,0-.06.3-.06.12-.06.24-.12.24s0,.42-.06.48-.3,1.74-.06,1.26a9.31,9.31,0,0,1,.24-1.26c.12-.18,0-.36.12-.48s-.12-.06,0-.18c.42-.36-.54,2.52-.42,2.88-.18.9-.3-.78-.18-.72a5.19,5.19,0,0,1,.36-2.52c.06-.12.06-.66.3-.6s.18-.12.06-.36.06-.54.24-.54,1-2.52,1.2-2.82c.06-.18.06-.24-.12-.18a1.35,1.35,0,0,0-.3.66c.06.12-.24.18-.18.36s0,.06-.06.06c-.3.6-.06-.06.18-.66a25.65,25.65,0,0,1,1.08-2.58c.3-.6.6-1.44.66-.54.06-.18.3-.48.3-.6a.22.22,0,0,1,.06-.18c.06,0,.06-.06,0-.06s-.6.78-.3.06a3.86,3.86,0,0,1,.66-1.2c.06-.18.18-.3.18-.24s.24.12.24,0c.18-.12.18.18-.12.66a60.5,60.5,0,0,0-2.94,6.66c-.12.18-.66,2.4-.9,2C30.64,147.1,30.58,147.28,30.64,147.34Zm2.4-4.56c.06.06-.12.18-.12.12s.3-1,.36-.84S33,142.72,33,142.78Zm-.24.54c-.12.06-.06-.18,0-.18S32.86,143.32,32.8,143.32Zm-.06.24a1.27,1.27,0,0,0-.24.6c0,.18-.18.42-.24.66s-.18.72-.3.48A4.57,4.57,0,0,1,32.74,143.56Zm-1.08,2.82c0,.18-.06.18-.06,0S31.66,146.2,31.66,146.38Zm-.24,1.2c-.12.12-.12.48-.18.66-.18.54-.36.48-.12-.24.12-.42.36-1.56.48-1.38s-.18.72-.12.84A.21.21,0,0,1,31.42,147.58Zm4-1.86c-.06-.06.24-.48.3-.48S35.44,145.78,35.44,145.72Zm1-.18a.21.21,0,0,1-.12.06C36.22,145.6,36.52,145.18,36.46,145.54Zm1-.3c-.12.12-.06.18-.18.24s-.12-.24.06-.36S37.54,145.06,37.42,145.24Zm.6-1a.11.11,0,0,1,0-.18C38.14,143.92,38.14,144.58,38,144.22Zm.24-.3c0,.36-.24,0-.12-.12S38.32,143.74,38.26,143.92Zm.36-.78c0-.24.24.06.06.12A.21.21,0,0,1,38.62,143.14Zm.06,1.2c-.06-.06.06-.3.12-.36C38.8,144.1,38.8,144.52,38.68,144.34Zm1.38-3.24c-.18.06,0-.18.06-.06A.06.06,0,0,1,40.06,141.1Zm.36-.66c-.12.06-.12-.06-.06-.06S40.48,140.38,40.42,140.44Zm3.48-6.84c-2.28,3.48-5,7.74-7.62,11.16-.12.18-.12-.06-.24-.06s-.78.84-.84,1a4.3,4.3,0,0,1-.66.9c-.84,1.08-1.5,2.1-2.4,3.06-.42.48-.54.54-.48.36a14.26,14.26,0,0,0,.42-1.86,30.86,30.86,0,0,1,2.52-6.42c.54-1.08.48-1,1-2s1-1.44,1.32-2.16A16.34,16.34,0,0,1,41.2,133a2.64,2.64,0,0,0,.66-.6c.9-1,1.44-.72,2.1.12C44.38,133,44.32,132.94,43.9,133.6Zm14.7-21.84c.42-.36.06.3-.06.42A.37.37,0,0,1,58.6,111.76Zm-1,1.68c.12.06.06.18.06.24C57.64,113.92,57.58,113.44,57.64,113.44Zm-.9,3.6c.12,0,.12.12.06.12S56.68,117.1,56.74,117Zm0,.48c.12-.06.06.06,0,.18S56.62,117.58,56.74,117.52Zm-.12-1v.12C56.62,116.8,56.56,116.5,56.62,116.56Zm0,2.46c.06,0,.12.12,0,.12S56.5,119,56.62,119Zm-.12.6c0,.18-.3.36-.12,0C56.44,119.56,56.5,119.56,56.5,119.62Zm-.12-1.5c.06,0,.12.18,0,.18S56.26,118.12,56.38,118.12Zm-.42,1C56,119,56,119,56,119s.18-.12.06-.36.12-.06.12-.12a.13.13,0,0,1,.12-.12c.24.06-.06.6-.12.6a.13.13,0,0,0-.12.12C56.14,119.32,55.78,119.2,56,119.08ZM45.46,164v.12C45.4,164.26,45.4,164,45.46,164Zm.06.36c.06-.24.24.12.18.18s0,.06-.06.06C45.58,164.44,45.34,164.68,45.52,164.38Zm.12.6a.45.45,0,0,1,.06.24C45.58,165.4,45.52,164.56,45.64,165Zm0,.42c0-.06.06-.06.06.06a8.62,8.62,0,0,0,.72,2.88C46,168.28,45.46,165.64,45.64,165.4Zm.9,2.46a7,7,0,0,1-.42-2.46c-.24-2,0-1.26.18.3.12.72.24,1.56.3,1.86C46.78,168.22,46.72,168.4,46.54,167.86Zm-.48-6.36c-.06-.18.06-.48.18-.48s.06.06.06.12-.06.12.06.18a.11.11,0,0,1,0,.18c0,.06-.06.18,0,.18s-.18.42-.24.36-.12-.36-.06-.36A.11.11,0,0,0,46.06,161.5Zm.84-6.72c-.06-.06,0-.12,0-.18,0-.24-.42-.3,0-.6s.06-.9.3-1,.18.12.06.18.18.12-.06.66.06.9-.36,1.26-.3-.36,0-.24C46.9,154.9,46.9,154.9,46.9,154.78Zm.24-2.88a.06.06,0,0,1,.06.06C47.2,152.08,47,152,47.14,151.9Zm.12-2c.06,0,.18.12.06.12S47.26,149.92,47.26,149.92Zm-.66,8.88c-.06,0-.06-.12,0-.18S46.66,158.74,46.6,158.8Zm0,2c0,.24-.18.3-.18,0S46.66,160.36,46.6,160.78Zm.3,1.68c.06-.06.06.12,0,.18S46.78,162.46,46.9,162.46Zm-.24-6c0-.06.06-.06.12-.12C47.08,156.28,46.66,156.64,46.66,156.46Zm0-.3c.06.12-.18.06-.18,0S46.6,156.1,46.66,156.16Zm-.12.42c.3.18.06,1.68-.3,1.92C46.24,158.2,46.3,156.7,46.54,156.58Zm-.36,6.48c0,.06-.12.06-.12,0S46.18,162.94,46.18,163.06Zm.72,4.74a31.08,31.08,0,0,1-.42-3.36c-.18-1.86.36,1.26.42,1.44a12.67,12.67,0,0,0,.12,1.56,3.73,3.73,0,0,1,.18.6C47.26,168.76,47.14,168.64,46.9,167.8Zm.66-12.12c.06.12,0,.24,0,.3s-.06.6-.12.84-.06,1.56-.24,1.32C47.14,158.14,47.38,154.9,47.56,155.68Zm0-4.86c-.06.18,0,.48-.12.72-.3.72-.06-.24-.12-.48s0-.18.06-.18.06-.42.12-.42-.06-.84.18-.48A1.91,1.91,0,0,1,47.56,150.82Zm.12,2.52c-.12.06-.06-.12,0-.12S47.74,153.28,47.68,153.34Zm.18-4.08c.12.18-.24.36-.18.12.06-.06.06-.54.18-.54s.12.18.06.18S47.8,149.14,47.86,149.26Zm.12,2.22c-.12.06-.12-.18-.06-.18S48,151.42,48,151.48ZM48,148.3c-.18,0,0-.18.06-.06A.06.06,0,0,1,48,148.3Zm.18,1.44c0,.12-.06-.18,0-.12A.08.08,0,0,1,48.22,149.74Zm0-2.76c-.06.06-.06-.12,0-.06S48.34,146.92,48.22,147Zm.18-.24c-.06.12-.12-.18-.06-.18A.22.22,0,0,1,48.4,146.74Zm.24,1c-.06.24-.12-.48,0-.42A.51.51,0,0,1,48.64,147.76Zm.18-.6c-.12.48-.3-.36-.06-.24C48.82,146.92,48.82,147,48.82,147.16Zm0-2.82c-.12.18,0-.48.06-.48S48.88,144.34,48.82,144.34Zm.12,2.22c-.12,0,.06-.18.06-.06S49,146.56,48.94,146.56Zm.24-3.54c-.12.06,0,.42-.12.42s.06.3-.24.3h.06c0-.06.06-.12.06-.18-.06-.24.12-.3.06-.54C48.94,142.54,49.36,142.72,49.18,143Zm0-1.32a.06.06,0,0,1,.06.06c-.06,0-.3.12-.3,0S49.06,141.58,49.18,141.7Zm-.12-.24a2.5,2.5,0,0,1,.12-.36C49.36,141.16,49.18,141.64,49.06,141.46Zm.18,1.08c-.06.18-.12-.24,0-.18S49.3,142.48,49.24,142.54Zm.06-.3c0,.12-.06-.3,0-.18Zm.18,1.44c-.06.06-.06-.12,0-.12S49.54,143.62,49.48,143.68Zm0-2.58c-.18-.12.12-.18.12-.06S49.54,141.22,49.48,141.1Zm-.06-.72v.24C49.42,140.74,49.36,140.26,49.42,140.38Zm.42-.42c.06-.12.12-.12.12-.06a.45.45,0,0,1-.12.24C49.72,140.26,49.66,140.2,49.84,140Zm0,2.16c-.06.06-.12-.06-.06-.12S49.9,142.12,49.84,142.12Zm.12-.36c0,.12-.06-.3,0-.18Zm.24-2.88c-.12.06-.24,0-.18-.12S50.38,138.76,50.2,138.88ZM50,138c0-.12.12-.18.12-.06S50,138.16,50,138Zm.36.12a2.6,2.6,0,0,1-.06.3c-.06.06-.06-.42,0-.36s0-.3.06-.3S50.44,137.92,50.32,138.16Zm0-.54a.13.13,0,0,0-.12-.12c-.24.06-.06-.48.06-.18a.19.19,0,0,0,.12.06C50.62,137.32,50.5,138,50.32,137.62Zm.18,2.16c-.12,0-.06-.24,0-.3S50.56,139.72,50.5,139.78Zm.12-.78c0,.18-.06-.18,0-.12S50.68,139,50.62,139Zm.24-.42c-.18.48-.18-.06-.06-.3S50.92,138.34,50.86,138.58Zm-.12-2.28c.12-.12.12-.12.12.06C50.86,136.78,50.56,136.42,50.74,136.3Zm.18,1.8a.06.06,0,0,1-.06-.06C50.86,137.92,51.1,138,50.92,138.1Zm.06-2.46a1.08,1.08,0,0,1,.24-.54,1.75,1.75,0,0,1-.12.54C51,135.76,50.92,135.76,51,135.64Zm.24,1.32c0,.12-.06-.18,0-.12Zm.18-2.1c-.06.06-.18-.06-.12-.12S51.46,134.8,51.4,134.86Zm0-.24c-.06.06-.06-.18,0-.18S51.46,134.56,51.4,134.62Zm.3.66a6.37,6.37,0,0,1-.24,1.14,5.45,5.45,0,0,1,.18-1.38C51.64,134.74,51.94,134.8,51.7,135.28Zm.18-.6c-.12.24,0-.12-.06-.18s.18-.06.18,0S51.94,134.62,51.88,134.68Zm.6-2a.21.21,0,0,1-.06.12C52.3,132.76,52.54,132.46,52.48,132.7Zm.06-.24c0,.18-.06-.18,0-.12Zm.12-2.1c-.06.36-.18-.12-.06-.12A.21.21,0,0,1,52.66,130.36Zm.24.84c-.06.3-.18.54-.18.48S53,130.78,52.9,131.2Zm.06-2.76c-.06.12-.12.3-.06.36a3.59,3.59,0,0,1-.48,1c-.12.18-.18.54-.36.72s-.3.48-.18.6.06.12,0,.12-.06,0-.06-.06-.12,0-.36.54c-.06.3-.48.84-.3.9s.48-1,.66-1.14.12-.12.06.06a2.19,2.19,0,0,1-.18.84.87.87,0,0,0-.12.42,7.66,7.66,0,0,1-.24.78c-.36,1.08-.6,1.92-1,2.94a3.41,3.41,0,0,0-.54,1.5c.06.12-.18.66.06.48,0-.18.3.06.06.06s-.06.18-.18.18-.18.48-.3.72a1.91,1.91,0,0,0-.12.78c0,.12-.06.18-.06.12s-.12.12-.06.3-.18.36-.18.6-.18.54-.18.78a2.43,2.43,0,0,1-.24,1.14c-.06,0,.06.66,0,.66s-.24.48-.18.6-.06.12-.06.18,0,.3-.12.36-.06.9-.18,1.14,0,.24-.12.42-.18.78,0,.72a.21.21,0,0,1,.12.06c0,.18-.12.18-.18.12-.12-.48-.48,1-.36,1s0,.18-.06.12-.12.6-.12.66a10.86,10.86,0,0,0-.18,1.38c.06.3-.3.54-.18.72s.06.54-.06.54,0,.6-.18.9-.18,1.08-.06.78.06-.18.12-.06c0,.3-.24.42-.24,1s-.06.6-.12.66,0,.48-.06.66a14.67,14.67,0,0,0-.3,2.34,1.69,1.69,0,0,1-.06.66.22.22,0,0,0,.06.18c.06,0,.06.06,0,.12a.63.63,0,0,0,0,.36c0,.36-.12.42-.12.66a20.77,20.77,0,0,1-.36,3.12c-.06.12-.06.12-.06-.12-.12-.6-.18-.12.06-1.44-.06-.66-.06-1.44-.06-2.16.24-2,.12-2,.24-2.7a74,74,0,0,1,1-7.44,134,134,0,0,1,4-16.62c.18-.36,1.14-4.32,1.32-3.42s.66-1.2.66-1.32a.06.06,0,0,1,.06.06C52.9,128.2,53.08,128.08,53,128.44Zm.24,2c0,.18-.12.36-.12.06S53.2,130.24,53.2,130.42Zm.06-.24c-.18,0,0-.3,0-.12A.08.08,0,0,1,53.26,130.18Zm-.06-3.66c-.06-.12,0-.36.12-.36s.06-.06.06-.12,0-.12.06-.06-.12.12,0,.36S53.26,126.76,53.2,126.52Zm.3,3.06c-.06,0-.06.06-.06.12s-.06.06-.06,0a.45.45,0,0,1,.06-.24C53.56,129.16,53.56,129.58,53.5,129.58Zm.06-.3c-.12,0,0-.3.06-.12S53.62,129.28,53.56,129.28Zm-.06-3.78c0-.12.24-.18.24-.06S53.44,126,53.5,125.5Zm.24,3.36c-.12,0-.12-.06-.06-.12S53.8,128.86,53.74,128.86Zm.06-2.1c0,.18-.06-.18,0-.12S53.86,126.76,53.8,126.76Zm.24-2.1c-.06.24-.3.3-.12,0S54.1,124.42,54,124.66Zm-.12-.36c-.06.18-.66,1.26-.78,1,.06-.24.48-1.2.54-1.44s.18-.78.36-1,.12-.12.12-.18a5.44,5.44,0,0,1,.66-1.32c.06-.36.12-.24.18.18a.56.56,0,0,1,0,.54c-.3.42-.06.84-.48,1.26C54.28,123.7,54.16,124.06,53.92,124.3Zm1,1.38c0,.06-.12.12-.12,0S55,125.26,54.88,125.68Zm.24-.84a1.49,1.49,0,0,1-.18.42c-.06,0-.06-.18.12-.6a.74.74,0,0,0,.12-.42C55.3,123.76,55.36,124.3,55.12,124.84Zm.18-3.9c.24-.3.3.12.12.18S55.24,121.06,55.3,120.94Zm.12,2.64c-.12,0,.12-.48.12-.24S55.54,123.58,55.42,123.58Zm.12-2.88c0-.06.3-.72.18-.78s-.06-.42.06-.36,0-.3.18-.06c.06.06-.06.24-.18.24s-.12,0-.06.06.12.06.18,0,.18.18,0,.48C55.78,120.4,55.66,120.88,55.54,120.7Zm1,.18a10,10,0,0,1-.6,1.74c-.06.12-.18.18-.18.06s.24-.18.24-.3c0-.3.36-1,.3-1.2s.3-.6.36-.54A.45.45,0,0,1,56.56,120.88Zm.24-.48c-.12,0-.12-.18-.06-.18S56.86,120.34,56.8,120.4Zm.36-2.58c-.06.12-.12-.24-.06-.18A.22.22,0,0,1,57.16,117.82Zm-.06-1.56c.06-.18.18-.24.18-.12S57,116.8,57.1,116.26Zm.24,2.4c-.06.06-.06,0,0-.12S57.4,118.66,57.34,118.66Zm0-3.72c-.12.18-.06.3-.24.72s-.54.84-.24.12c0,0,.6-1.86.72-1.68C57.94,114.22,57.46,114.82,57.34,114.94Zm.18.78c-.24.12.06-.48.06-.18A.26.26,0,0,1,57.52,115.72Zm.18,2.46c-.24.3,0-.06,0-.18C57.76,117.58,57.88,118,57.7,118.18Zm.06-2.1c.06.06,0,.3,0,.12Zm0-1.14c-.06.18,0-.18.06-.12A.19.19,0,0,1,57.76,114.94Zm.36-.66c-.18.3-.24,0-.06-.18S58.18,114.22,58.12,114.28Zm0-.36c-.06,0-.12-.06-.06-.12S58.36,113.86,58.12,113.92Zm.18-.24c-.06-.12.12-.6.24-.54S58.36,113.92,58.3,113.68Zm.3.72c-.06.12-.18.18-.18.12S58.84,114,58.6,114.4Zm.18-1.8c-.06-.06-.12-.06,0,0s.06.12-.06.24-.24.3-.18.12v-.18c-.06-.18.24,0,.12-.12s.12-.36.24-.24S58.9,112.6,58.78,112.6Zm.42.66c-.18.48-.18-.06-.06-.3S59.26,113.08,59.2,113.26Zm.18-1.86a4.33,4.33,0,0,1,1.14-2.52c.18-.36.36-.54.36-.36s-.18.54-.6,1.38a15.62,15.62,0,0,1-.78,1.44Zm.84-.54c-.06.12,0,.42-.18.6s-.48.78-.18-.06c.24-.6.3-.72.36-.72S60.28,110.8,60.22,110.86ZM61.3,109c-.18.36-.06.48-.42.9s-.36.84-.66.6c.06-.12.24-.06.18-.18s.18-.18.18-.3.18-.36.18-.48.36-.42.36-.66C61.3,108.34,61.54,108.82,61.3,109Zm.12-.84c-.18.3-.12-.18-.06-.24S61.48,108.1,61.42,108.16Zm.18-.48c-.3.42,0-.3.12-.24Zm1.14-3.78a29.89,29.89,0,0,1-2.94,4.56c.78-1.56.84-1.5,2.1-3.66a10.69,10.69,0,0,1,.78-1.26C63,103.36,63,103.48,62.74,103.9Zm1.32-2.34a2.53,2.53,0,0,1-.36.9c-.54.54-.42.18-.06-.36a4,4,0,0,0,.36-.66C64.12,101.14,64.12,101.44,64.06,101.56Z"/><path d="M84.7,86.08c-.12-.18-.24-.18-.9-.36s-.72-.18-.9-.12-.84,0-1,.24a1.78,1.78,0,0,0-.36.78c-.12,0-.12.3-.24.3s-.06.24-.72,1.32a7.15,7.15,0,0,0-.48,1.2c-.06.42-.42,1.26.24.72.12.18-.12.54-.18.84a13.5,13.5,0,0,0-.48,1.44,21.76,21.76,0,0,0-.78,3.42,5,5,0,0,0-.06,2.64c.42.06.36-.66.66-.66s.18.36.48-.12a8.41,8.41,0,0,0,1.38-2.16,11.37,11.37,0,0,0,.54-1.26c0-.12.18-.06.12-.18.24-.66.66-1.2.9-1.8,0-.18.3-.3.36-.48s.12-.3.24-.6c.18-.6.42-1,.6-1.62.06-.12.06-.48.18-.6s.06-.3.12-.36.12-.54.18-.6A2.57,2.57,0,0,0,84.7,86.08ZM79.54,97.24c-.12,0-.12-.12-.06-.12S79.6,97.24,79.54,97.24ZM79.6,97c-.06,0-.12,0-.12.06s-.24-.42-.12-.42.06.36.24.3S79.78,97.12,79.6,97Zm.24-1.74c-.12.06-.06.6-.12.6s0,.24-.12.36,0,.24-.12.3.06-1.32.3-1.32S79.9,95.26,79.84,95.26Zm-.18-.18c0-.06.24-.06.24,0S79.66,95.14,79.66,95.08Zm.12-.18c-.24,0,.12-.12.12-.06S79.9,94.9,79.78,94.9Zm.42-.84c-.06.06-.06.06-.06.12s-.24.06-.18,0a.19.19,0,0,0,.06-.12C80,94,80.26,93.94,80.2,94.06Zm.06-.72c-.06,0-.06-.06,0-.06S80.38,93.34,80.26,93.34Zm.12-.66c-.06.06-.06.06-.12.06S80.5,92.56,80.38,92.68Zm.12.54v-.06C80.44,93.1,80.56,93.16,80.5,93.22Zm.84-2.88a8.56,8.56,0,0,1-.48,1.32c.06.18-.24.36-.36.48s.24-.72.3-.84.06-.24.18-.36.06-.42.12-.48a1.43,1.43,0,0,0,.18-.42C81.52,89.62,81.52,89.86,81.34,90.34Z"/><path d="M83.74,142.84s0-.06.12-.12.12-.12,0-.18-.3.54-.18.54S83.86,142.9,83.74,142.84Zm24.9-4.62-2.58,2.58c-.06.06-.06.24-.3.36s-.54,1-.84.9c0-.18-1.38,1.2-1.32,1.2s-.3.48-.48.48-.18.06-.18.12-.42.48-.42.54a.21.21,0,0,1-.12.06c-.06-.06-.42.48-.54.42s-.06.18-.18.18c-.42.12-.9.54-.12-.24,1.08-1,1.5-1.44,1.5-1.56s.06-.3.42-.66.6-.72.42-.72c-.18.18-.66.72-1,1a30.94,30.94,0,0,1-9.3,6.36c-2.28.9-5.28,1.74-7.62.6-1-.36-.9-1.68-1-2.52-.06-2,.72-3.78,1.32-5.7.36.12,1.26.54,1.74.72,2.7.48,5.76-1.74,7.26-4s4.32-7.14,2.52-9.42a4.94,4.94,0,0,0-3.06-1.2c-.54.12-1.5.24-2.1.42s-.78.24-1.86,1.32a25,25,0,0,0-3.9,5,31.57,31.57,0,0,0-3.48,7.5c-.9,2.76-1,5.46.6,7.68.66,1.56,3,2.34,4.56,2.7a23,23,0,0,0,4.5-.54,33.19,33.19,0,0,0,5.22-2.4,20.11,20.11,0,0,0,3.42-2.52,5.23,5.23,0,0,1,1-.84,22.7,22.7,0,0,0,2.88-3.06C108.64,139.78,110.08,137.5,108.64,138.22Zm-22.14.42c-.06,0-.12.12-.12.3-.06.42-.42.48-.48,1s-.06.36-.24.24-.18-.3-.06-.3c.12-.36,1-2.1,1.14-2.52s.24-.18.42-.54a3.23,3.23,0,0,1,.54-1c.12-.06.3-.54.3-.18a11,11,0,0,1-.84,1.68c0,.12-.6,1.08-.6,1.26A.06.06,0,0,1,86.5,138.64Zm10-5.82c-.18.06.06-.18.06-.06S96.58,132.82,96.52,132.82Zm.42-1.44c.06.06.06.12,0,.12C96.88,131.68,96.88,131.32,96.94,131.38Zm-.6.6a14.26,14.26,0,0,0,.36-2.22,3.3,3.3,0,0,1-.18,2C96.4,132.16,96.22,132.34,96.34,132Zm-.12,1.5s-.06.18-.12.42c-.24.48-.42.72-.36.36S96.16,133.42,96.22,133.48Zm-3-2.58c.42-.3,2.4-2.16,2.76-1.5,1,1.38-1.8,6.18-2.7,7.44a8.77,8.77,0,0,1-5,4c-.72.12-2,.24-1.56-.6C88.42,137.08,90.34,133.12,93.22,130.9Zm-3.78.78c.06-.06.06-.12.12-.12S89.44,132,89.44,131.68Zm-4.92,8.52c.06.06.06.06.06,0s.24-1.14.6-1.14c.06.06.06.06.06-.12s-.06-.18,0-.12.06,0,.06-.12a3.08,3.08,0,0,1,.3-.72c.12-.12,0-.42.18-.48s0,.36,0,.42c.12-.12.42-.42.24-.42s.12-.36.12-.54.18-.3.24-.48.06-.12.06.06.06.24.12,0,.18-.12.24-.24-.18-.06-.24,0v-.12c.06-.24.18-.18.24-.42s.06-.24.12-.24.42-.66.48-.66a.21.21,0,0,0,.06-.12c-.06-.3.54.06.3-.24s.06-.48,0-.18c-.06.06-.06.06.06,0s-.18-.36.12-.54.54-.9.84-1.08c.06,0,.12,0,.06-.06s.36-.66.54-.6.54-.48.54-.3-.3.18-.3.36-.12.06-.12.18-.24.3-.24.42a.26.26,0,0,1-.18.06c-.12,0-.18.06-.12.18a15.18,15.18,0,0,1-.78,1.32c-.06.3-.24,0-.18.24s-.42.78-.54.66-.24.12-.06.12.12.12-.06.3c-.3.72-.78,1.38-1.2,2.28-.12.18-1.08,2.52-1.14,2s-.12.36-.24.48C84.52,140.8,84.34,140.26,84.52,140.2Zm.36.3c.06.06-.3.72-.24.36C84.64,140.8,84.88,140.44,84.88,140.5Zm-1.62,3.72V144C83.32,144.22,83.2,144.7,83.26,144.22Zm0,2.34A4.6,4.6,0,0,1,83.2,145c.12-.36.06.48.24-.6,0-.42,0-.54-.06-.54-.3.18.54-2.82,1.08-3.3.06,0,0,.54-.06.66s-.3-.12-.24.18-.12.06-.06.36c0,.06,0,.12-.06.12s-.12.06-.06.18.36-.24.36-.42l.12-.12c.12-.12.12,0-.12.6a30.18,30.18,0,0,0-1,3.9c-.06-.18-.06.18,0,.18S83.38,146.92,83.26,146.56Zm.6,1c-.06-.18-.06-.66,0-.66S84,147.82,83.86,147.58Zm.78-4.44c-.06,0-.12.06-.12.24s-.12.3-.06.54.06.6-.12.3c0-.18.06.42,0,.3s-.06.66-.18.54-.12.12,0,.24,0,.12-.06.24-.12.3-.18.66c0,.6-.12.72-.12.18a12.65,12.65,0,0,1,1-4.62c.36-.66.18-1.14.6-1.44.06,0,.12.12.12.18.06.3-.3.12-.24.3a12.16,12.16,0,0,1-.48,1.86C84.7,142.9,84.82,143.2,84.64,143.14Zm19.32.72-.24.24c-.06,0,0-.12.12-.24C104.14,143.62,104.2,143.62,104,143.86Zm.6-.54-.06.06C104.26,143.38,104.62,143.2,104.56,143.32Zm.36-.36c-.3.3-.36.24-.06,0S105.28,142.66,104.92,143ZM88.06,134c.12,0,.3-.3.24-.36S87.94,134.08,88.06,134Zm1.14-1.56c0-.06.06-.18.12-.18s.06-.18,0-.18S89,132.76,89.2,132.46ZM98.56,120c-.3-.24-1-.78-1.38-.3a3.64,3.64,0,0,0-1,1c-.78.48-1.8,1.2-2.58,1.8a3.35,3.35,0,0,0-1.26,2c.06.3.42.12.54.24s.12-.06.18.06.18-.06.24,0c.72-.36,1.26-1,2.1-1.38.48-.36,1.2-.78,1.68-1.08S99.7,120.94,98.56,120Z"/><path d="M124.84,131.08a14,14,0,0,1-.66,1.68c-.24.36-1,2.1-1.08,2.16s-.06.3-.18.36-.06.24-.12.24c-.24.06-.24.54-.42.72-.24.42-.54,1-.78,1.44a8,8,0,0,0-.36.72c0,.12-.12.12-.18.3s-.12.12-.18.3-.24.36-.24.54-.36.6-.36.66a2.59,2.59,0,0,0-.42.6c-.42.84-.84,1.56-1.32,2.4-.18.24-.3.72-.54.84s.54-1.32.54-1.44c.18-.36.12-.48.3-.78a8.89,8.89,0,0,0,.48-1c.36-.84.48-1.32.18-.78a5.41,5.41,0,0,0-.3.54,9,9,0,0,1-.66,1c-.18.36-.42.24-.12-.18s.12-.48.36-.78a28.63,28.63,0,0,0,1.44-2.64c.78-1.26,1.62-2.7,2.34-4.08.36-.78,1.44-2.4,1.08-2.64-.36.78-1.2,2-1.56,2.88-.12.48-.42.24-.42.78,0,.24-.42.72-.42.84a.08.08,0,0,1,0,.12c-.06,0-.12.12-.18.18-.06.24-.18.24-.18.42s-.18.12-.24.24-.12.12-.06,0,0-.24-.06-.18-.12.42,0,.42,0,.12-.12.12.06.18-.12.18-.06.6-.18.42v-.18c-.3.78-.84,1.26-1.14,2-.06.24-.24.12-.3.42a7.29,7.29,0,0,1-1,1.86c-.18.18-.24.06-.36.54a3.18,3.18,0,0,1-.48,1c-.48.66-.18.3-1.32,2a13.45,13.45,0,0,1-.84,1.2c-.66,1-2.46,3.06-3.54,3.3-.3-.54-.12-.6-.06-2.82.3-3.72.72-5.94,1.26-9.54a45.37,45.37,0,0,1,1.68-7.68c.6-.9.3-1.44-.72-1.26-.12.06-.12.06-.12,0-.06-.36-.66,0-.84.06s-.36.24-.42.24a2,2,0,0,0-1.2,1.68,13.35,13.35,0,0,1-1.26,3.36c-.48,1.26-1,2.58-1.38,3.9a4.45,4.45,0,0,0-.24,2.46c.18.42.24,0,.36-.24,0,.12.06.54.24.3,0-.06.24-.24.36-.24s.24.06.12,1.38a70.67,70.67,0,0,0-.6,7.38c.12.9.18,1,.78,1.38a2.56,2.56,0,0,1,.72.66c.66.9,1.86.54,2.88.66.18-.18.72-.36.84-.48.24-.3,1.38-1.14,1.62-1.44a15.36,15.36,0,0,0,1.2-1.56c0-.06.06-.12.48-.78a31.43,31.43,0,0,0,2.64-4.5c0-.12.12-.06.12-.12s.3-.66.42-.72.18-.54.36-.84c.78-1.56,1.86-3.72,2.7-5.22.54-1,.72-1.68,1.26-2.64C124.6,133,125.44,130.12,124.84,131.08Zm-15.9,17.7c-.12,0-.12-.3,0-.18S109,148.78,108.94,148.78Zm.42.84a.06.06,0,0,1-.06-.06C109.24,149.44,109.42,149.56,109.36,149.62Zm.42-1c-.12.3-.18.3-.18-.06S109.84,148.24,109.78,148.66Zm-.18-.72c0-.18.12-.18.18.06S109.54,148.12,109.6,147.94Zm.12-.18c-.24-.06-.06-1.08-.06-1.32.12,0,.36-4.2.36-1.86A27.2,27.2,0,0,1,109.72,147.76Zm.24-4.26c.06-.24.12-.78.12-.06C110.14,143.86,109.9,143.92,110,143.5Zm.06-5.16a4.2,4.2,0,0,1,.18-.84C110.26,137.5,110.14,138.64,110,138.34Zm.06,4v-.12C110.14,142.24,110.14,142.3,110.08,142.36Zm.06.48c-.12.18-.06-.18,0-.12S110.2,142.78,110.14,142.84Zm.06-10a30.65,30.65,0,0,1-1.32,4c-.06.18-.24.9-.3.42a39.89,39.89,0,0,1,1.56-4.5C110.26,132.58,110.26,132.58,110.2,132.82Zm.12,4.44c-.06.18-.06-.36,0-.24Zm.12,3.12c-.06.06-.06,0-.06-.06S110.44,140.32,110.44,140.38Zm5.16,5.82c-.06.06-.12.06-.06.06C115.84,145.78,115.84,146,115.6,146.2Zm.54-.72c-.06,0-.06.12-.18.24s-.18.12.06-.18c.36-.54.42-.66.42-.6A1.16,1.16,0,0,1,116.14,145.48Zm1-1.62c-.12-.24,1.08-1.86,1-1.8.36-.42.3-.06-.18.66S117.4,143.44,117.1,143.86Zm5.64-8c-.06.12-.06-.12,0-.06Zm-2.22.6a11,11,0,0,0,.9-1.5c.36-.72.72-1.32,1.08-2,.78-1.2.24-.54,1.5-2.46.42-.72.78-1.38.66-1.44s-.24,0-.3.3-.36.66-.42.84c-.48.66-1,1.74-1.44,2.46s-1.2,2.16-1.68,3c-.12.18-.18.48-.3.6S120.4,136.42,120.52,136.42Zm3.06-3.72c-.06.6,1-1.56,1.08-1.62s.12-.3.24-.36.66-.84.36-.72-.18-.06-.06-.12,0-.48-.18-.42-.36.72-.42.84C124.42,131,123.64,132.28,123.58,132.7Zm1.32-2c-.12.06-.18.06-.12.06S125.14,130.54,124.9,130.66Z"/><path d="M125.38,142.84s0-.06.12-.12.12-.12,0-.18-.3.54-.18.54S125.5,142.9,125.38,142.84Zm24.9-4.62-2.58,2.58c-.06.06-.06.24-.3.36s-.54,1-.84.9c0-.18-1.38,1.2-1.32,1.2s-.3.48-.48.48-.18.06-.18.12-.42.48-.42.54a.21.21,0,0,1-.12.06c-.06-.06-.42.48-.54.42s-.06.18-.18.18c-.42.12-.9.54-.12-.24,1.08-1,1.5-1.44,1.5-1.56s.06-.3.42-.66.6-.72.42-.72c-.18.18-.66.72-1,1a30.94,30.94,0,0,1-9.3,6.36c-2.28.9-5.28,1.74-7.62.6-1-.36-.9-1.68-1-2.52-.06-2,.72-3.78,1.32-5.7.36.12,1.26.54,1.74.72,2.7.48,5.76-1.74,7.26-4s4.32-7.14,2.52-9.42a4.94,4.94,0,0,0-3.06-1.2c-.54.12-1.5.24-2.1.42s-.78.24-1.86,1.32a25,25,0,0,0-3.9,5,31.57,31.57,0,0,0-3.48,7.5c-.9,2.76-1,5.46.6,7.68.66,1.56,3,2.34,4.56,2.7a23,23,0,0,0,4.5-.54,33.19,33.19,0,0,0,5.22-2.4,20.11,20.11,0,0,0,3.42-2.52,5.23,5.23,0,0,1,1-.84,22.7,22.7,0,0,0,2.88-3.06C150.28,139.78,151.72,137.5,150.28,138.22Zm-22.14.42c-.06,0-.12.12-.12.3-.06.42-.42.48-.48,1s-.06.36-.24.24-.18-.3-.06-.3c.12-.36,1-2.1,1.14-2.52s.24-.18.42-.54a3.23,3.23,0,0,1,.54-1c.12-.06.3-.54.3-.18a11,11,0,0,1-.84,1.68c0,.12-.6,1.08-.6,1.26A.06.06,0,0,1,128.14,138.64Zm10-5.82c-.18.06.06-.18.06-.06S138.22,132.82,138.16,132.82Zm.42-1.44c.06.06.06.12,0,.12C138.52,131.68,138.52,131.32,138.58,131.38Zm-.6.6a14.26,14.26,0,0,0,.36-2.22,3.3,3.3,0,0,1-.18,2C138,132.16,137.86,132.34,138,132Zm-.12,1.5s-.06.18-.12.42c-.24.48-.42.72-.36.36S137.8,133.42,137.86,133.48Zm-3-2.58c.42-.3,2.4-2.16,2.76-1.5,1,1.38-1.8,6.18-2.7,7.44a8.77,8.77,0,0,1-5,4c-.72.12-2,.24-1.56-.6C130.06,137.08,132,133.12,134.86,130.9Zm-3.78.78c.06-.06.06-.12.12-.12S131.08,132,131.08,131.68Zm-4.92,8.52c.06.06.06.06.06,0s.24-1.14.6-1.14c.06.06.06.06.06-.12s-.06-.18,0-.12.06,0,.06-.12a3.08,3.08,0,0,1,.3-.72c.12-.12,0-.42.18-.48s0,.36,0,.42c.12-.12.42-.42.24-.42s.12-.36.12-.54.18-.3.24-.48.06-.12.06.06.06.24.12,0,.18-.12.24-.24-.18-.06-.24,0v-.12c.06-.24.18-.18.24-.42s.06-.24.12-.24.42-.66.48-.66a.21.21,0,0,0,.06-.12c-.06-.3.54.06.3-.24s.06-.48,0-.18c-.06.06-.06.06.06,0s-.18-.36.12-.54.54-.9.84-1.08c.06,0,.12,0,.06-.06s.36-.66.54-.6.54-.48.54-.3-.3.18-.3.36-.12.06-.12.18-.24.3-.24.42a.26.26,0,0,1-.18.06c-.12,0-.18.06-.12.18a15.18,15.18,0,0,1-.78,1.32c-.06.3-.24,0-.18.24s-.42.78-.54.66-.24.12-.06.12.12.12-.06.3c-.3.72-.78,1.38-1.2,2.28-.12.18-1.08,2.52-1.14,2s-.12.36-.24.48C126.16,140.8,126,140.26,126.16,140.2Zm.36.3c.06.06-.3.72-.24.36C126.28,140.8,126.52,140.44,126.52,140.5Zm-1.62,3.72V144C125,144.22,124.84,144.7,124.9,144.22Zm0,2.34a4.6,4.6,0,0,1-.06-1.56c.12-.36.06.48.24-.6,0-.42,0-.54-.06-.54-.3.18.54-2.82,1.08-3.3.06,0,0,.54-.06.66s-.3-.12-.24.18-.12.06-.06.36c0,.06,0,.12-.06.12s-.12.06-.06.18.36-.24.36-.42l.12-.12c.12-.12.12,0-.12.6a30.18,30.18,0,0,0-1,3.9c-.06-.18-.06.18,0,.18S125,146.92,124.9,146.56Zm.6,1c-.06-.18-.06-.66,0-.66S125.62,147.82,125.5,147.58Zm.78-4.44c-.06,0-.12.06-.12.24s-.12.3-.06.54.06.6-.12.3c0-.18.06.42,0,.3s-.06.66-.18.54-.12.12,0,.24,0,.12-.06.24-.12.3-.18.66c0,.6-.12.72-.12.18a12.65,12.65,0,0,1,1-4.62c.36-.66.18-1.14.6-1.44.06,0,.12.12.12.18.06.3-.3.12-.24.3a12.16,12.16,0,0,1-.48,1.86C126.34,142.9,126.46,143.2,126.28,143.14Zm19.32.72-.24.24c-.06,0,0-.12.12-.24C145.78,143.62,145.84,143.62,145.6,143.86Zm.6-.54-.06.06C145.9,143.38,146.26,143.2,146.2,143.32Zm.36-.36c-.3.3-.36.24-.06,0S146.92,142.66,146.56,143ZM129.7,134c.12,0,.3-.3.24-.36S129.58,134.08,129.7,134Zm1.14-1.56c0-.06.06-.18.12-.18s.06-.18,0-.18S130.66,132.76,130.84,132.46ZM140.2,120c-.3-.24-1-.78-1.38-.3a3.64,3.64,0,0,0-1,1c-.78.48-1.8,1.2-2.58,1.8a3.35,3.35,0,0,0-1.26,2c.06.3.42.12.54.24s.12-.06.18.06.18-.06.24,0c.72-.36,1.26-1,2.1-1.38.48-.36,1.2-.78,1.68-1.08S141.34,120.94,140.2,120Z"/><path d="M175.24,137.38c-.12,0-.18.12-.3.48-.3.78-.24,1.2-.6,2.16-.12-.06-.3.18-.36.48s-.24.42-.36.72a18,18,0,0,0-1.5,2.46,24.29,24.29,0,0,0,1.74-2.58c-.6,1.8,1-1.68,1-2s.24-.42.3-.9C175.12,137.92,175.3,137.56,175.24,137.38ZM174,140.92v-.06a1,1,0,0,1,.12-.3C174,140.68,174,140.8,174,140.92Zm-3.24,4.5a18.51,18.51,0,0,1-1.74,1.92c-.24.3-.42.42-.48.36s.54-.72.3-.66-.66.84-1,1c.24-.66,1.44-1.68,1.92-2.52a15.3,15.3,0,0,0,.84-1.44c1.56-2.16,3.24-4.08,4-5.64,0-.06-.24.24-.36.42-.18.42-.54.66-.66.9a46.78,46.78,0,0,1-3.36,4.56c-2,2.58-3,4.26-5.22,5.34,0,.12-1,.3-1.2.24-.6-2.46.3-5.7.54-7.8s.6-4,.78-5.88a9.39,9.39,0,0,0,.06-2.58c-.12-.24,0-.54-.18-.72a2.32,2.32,0,0,1-.18-.72A2.39,2.39,0,0,0,163,130a2.45,2.45,0,0,1-.42-.12c-.24-.18-.3-.18-.84-.18-2.52,0-4.26,2.64-5.94,4.32.06-.78.84-2.52.6-3.12-.18-.12-.06-.66-.06-.78s-.36-.66-.66-.6-.36,0-.36-.12-.72-.36-.84-.24c-.72.06-.78.54-1.14,1.14-.6,1.14-1.62,3.18-2,4a30,30,0,0,0-1.86,4.86c-.06.12-.3,1.62-.06,1.86a.36.36,0,0,0,.24.06c.24,0,.42.3.6.36s.18.18-.12,1.08a61.84,61.84,0,0,0-2.28,7.44c.42.24.42.66.78,1s.54-.06.9.36c.12.24.3.24.66.24s.36.06.42-.6c.24-1.44,1.32-4.68,1.62-5.7a13.35,13.35,0,0,0,.54-1.68c.3-.66.54-1.32.84-2,.6-1.38,1.86-3.42,2.28-4.62-.06-.18.12.12.12,0a2.48,2.48,0,0,0,.42-.66.21.21,0,0,1,.06-.12c.06-.06.42-.6.54-.6s.36-.36.36-.48c.18-.42.42-.3.78-.84.84-.78,3.06-3.3,4.08-3.3.9,1.68.48,4.26.36,5.88s-.36,2.34-.54,3.72c-.06.42,0,.66.06.36s.06-1,.24-1.2a10.26,10.26,0,0,1-.48,2.82,10.64,10.64,0,0,0-.3,1.92c-.36,1-.66,4.38.24,5.28.24.18,1,.48,1,.72s.42.42.66.66c.06.3.9.12,1.08.24.78.42,3.06-.66,3.42-1.32a21.18,21.18,0,0,0,2-2.22c.54-.72.72-1.32,1.26-2a7.16,7.16,0,0,0,.48-1C172.24,143.38,171.58,144.28,170.74,145.42Zm-17.46-7.8c-.18.12.06-.36.12-.42S153.4,137.56,153.28,137.62Zm.18-.54c0,.06-.06-.24,0-.12Zm1.5-.3c-.06.06-.12.06-.12,0S155,136.66,155,136.78Zm5.7-6.12a19.3,19.3,0,0,0-2.88,2.58c-.48.12,1.44-1.8,2.34-2.4C160.84,130.36,161.86,130,160.66,130.66Zm3.06,7c.06-.06.06,0,.06,0C163.84,137.86,163.6,137.74,163.72,137.68Zm-.12.42c.06-.48.18,0,.12.12s0,.3-.12.36S163.54,138.46,163.6,138.1Zm-1.08-.12c.06-.18.12-1.38.3-1.26a2.87,2.87,0,0,1-.3,1.8Zm.3,1.86c-.12.12-.12-.3-.06-.18A.22.22,0,0,1,162.82,139.84Zm-.42-.6v-.06C162.4,139,162.46,139.18,162.4,139.24Zm1,2c-.12,2.46-1,5.58-.78,8.28.18.06.66.36.12.24-2-.66-.66-4.26-.48-5.82.06-.9.78-2.94.36-.9-.18.84-.18,1.86-.36,2.46a1.53,1.53,0,0,0-.06.72.47.47,0,0,0,.12.48c.06-.24,0-1.14.06-1.32.24-.72.12-1,.36-2,.24-1.32.48-3.06.78-4.44C163.72,138.58,163.36,140.86,163.36,141.22Zm-1.2,6.12c0,.18-.12.54,0,.54S162.22,146.14,162.16,147.34Zm12-8.7c.12-.18.36-.6.3-.66S173.74,138.94,174.16,138.64Z"/><path d="M172.78,142.84s0-.06.12-.12.12-.12,0-.18-.3.54-.18.54S172.9,142.9,172.78,142.84Zm24.9-4.62-2.58,2.58c-.06.06-.06.24-.3.36s-.54,1-.84.9c0-.18-1.38,1.2-1.32,1.2s-.3.48-.48.48-.18.06-.18.12-.42.48-.42.54a.21.21,0,0,1-.12.06c-.06-.06-.42.48-.54.42s-.06.18-.18.18c-.42.12-.9.54-.12-.24,1.08-1,1.5-1.44,1.5-1.56s.06-.3.42-.66.6-.72.42-.72c-.18.18-.66.72-1,1a30.94,30.94,0,0,1-9.3,6.36c-2.28.9-5.28,1.74-7.62.6-1-.36-.9-1.68-1-2.52-.06-2,.72-3.78,1.32-5.7.36.12,1.26.54,1.74.72,2.7.48,5.76-1.74,7.26-4s4.32-7.14,2.52-9.42a4.94,4.94,0,0,0-3.06-1.2c-.54.12-1.5.24-2.1.42s-.78.24-1.86,1.32a25,25,0,0,0-3.9,5,31.57,31.57,0,0,0-3.48,7.5c-.9,2.76-1,5.46.6,7.68.66,1.56,3,2.34,4.56,2.7a23,23,0,0,0,4.5-.54,33.19,33.19,0,0,0,5.22-2.4,20.11,20.11,0,0,0,3.42-2.52,5.23,5.23,0,0,1,1-.84,22.7,22.7,0,0,0,2.88-3.06C197.68,139.78,199.12,137.5,197.68,138.22Zm-22.14.42c-.06,0-.12.12-.12.3-.06.42-.42.48-.48,1s-.06.36-.24.24-.18-.3-.06-.3c.12-.36,1-2.1,1.14-2.52s.24-.18.42-.54a3.23,3.23,0,0,1,.54-1c.12-.06.3-.54.3-.18a11,11,0,0,1-.84,1.68c0,.12-.6,1.08-.6,1.26A.06.06,0,0,1,175.54,138.64Zm10-5.82c-.18.06.06-.18.06-.06S185.62,132.82,185.56,132.82Zm.42-1.44c.06.06.06.12,0,.12C185.92,131.68,185.92,131.32,186,131.38Zm-.6.6a14.26,14.26,0,0,0,.36-2.22,3.3,3.3,0,0,1-.18,2C185.44,132.16,185.26,132.34,185.38,132Zm-.12,1.5s-.06.18-.12.42c-.24.48-.42.72-.36.36S185.2,133.42,185.26,133.48Zm-3-2.58c.42-.3,2.4-2.16,2.76-1.5,1,1.38-1.8,6.18-2.7,7.44a8.77,8.77,0,0,1-5,4c-.72.12-2,.24-1.56-.6C177.46,137.08,179.38,133.12,182.26,130.9Zm-3.78.78c.06-.06.06-.12.12-.12S178.48,132,178.48,131.68Zm-4.92,8.52c.06.06.06.06.06,0s.24-1.14.6-1.14c.06.06.06.06.06-.12s-.06-.18,0-.12.06,0,.06-.12a3.08,3.08,0,0,1,.3-.72c.12-.12,0-.42.18-.48s0,.36,0,.42c.12-.12.42-.42.24-.42s.12-.36.12-.54.18-.3.24-.48.06-.12.06.06.06.24.12,0,.18-.12.24-.24-.18-.06-.24,0v-.12c.06-.24.18-.18.24-.42s.06-.24.12-.24.42-.66.48-.66a.21.21,0,0,0,.06-.12c-.06-.3.54.06.3-.24s.06-.48,0-.18c-.06.06-.06.06.06,0s-.18-.36.12-.54.54-.9.84-1.08c.06,0,.12,0,.06-.06s.36-.66.54-.6.54-.48.54-.3-.3.18-.3.36-.12.06-.12.18-.24.3-.24.42a.26.26,0,0,1-.18.06c-.12,0-.18.06-.12.18a15.18,15.18,0,0,1-.78,1.32c-.06.3-.24,0-.18.24s-.42.78-.54.66-.24.12-.06.12.12.12-.06.3c-.3.72-.78,1.38-1.2,2.28-.12.18-1.08,2.52-1.14,2s-.12.36-.24.48C173.56,140.8,173.38,140.26,173.56,140.2Zm.36.3c.06.06-.3.72-.24.36C173.68,140.8,173.92,140.44,173.92,140.5Zm-1.62,3.72V144C172.36,144.22,172.24,144.7,172.3,144.22Zm0,2.34a4.6,4.6,0,0,1-.06-1.56c.12-.36.06.48.24-.6,0-.42,0-.54-.06-.54-.3.18.54-2.82,1.08-3.3.06,0,0,.54-.06.66s-.3-.12-.24.18-.12.06-.06.36c0,.06,0,.12-.06.12s-.12.06-.06.18.36-.24.36-.42l.12-.12c.12-.12.12,0-.12.6a30.18,30.18,0,0,0-1,3.9c-.06-.18-.06.18,0,.18S172.42,146.92,172.3,146.56Zm.6,1c-.06-.18-.06-.66,0-.66S173,147.82,172.9,147.58Zm.78-4.44c-.06,0-.12.06-.12.24s-.12.3-.06.54.06.6-.12.3c0-.18.06.42,0,.3s-.06.66-.18.54-.12.12,0,.24,0,.12-.06.24-.12.3-.18.66c0,.6-.12.72-.12.18a12.65,12.65,0,0,1,1-4.62c.36-.66.18-1.14.6-1.44.06,0,.12.12.12.18.06.3-.3.12-.24.3a12.16,12.16,0,0,1-.48,1.86C173.74,142.9,173.86,143.2,173.68,143.14Zm19.32.72-.24.24c-.06,0,0-.12.12-.24C193.18,143.62,193.24,143.62,193,143.86Zm.6-.54-.06.06C193.3,143.38,193.66,143.2,193.6,143.32ZM194,143c-.3.3-.36.24-.06,0S194.32,142.66,194,143ZM177.1,134c.12,0,.3-.3.24-.36S177,134.08,177.1,134Zm1.14-1.56c0-.06.06-.18.12-.18s.06-.18,0-.18S178.06,132.76,178.24,132.46Z"/><path d="M234.1,141.82s.06-.06,0-.06a.21.21,0,0,1,.06-.12c.12,0,.42-.6.42-.72s-.06-.12-.18.06S233.86,141.82,234.1,141.82Zm-.3.54c.12-.06.06-.18.12-.3s.12-.12,0-.12S233.74,142.3,233.8,142.36Zm-27.36,6.72c.12.3.48-.78.36-.84S206.38,149,206.44,149.08Zm13.38-10c0,.12-.18.06-.3.18s-.12.12,0,.12.12-.18.24-.18.12-.06.12-.12S219.82,138.94,219.82,139.06Zm14,4c-.18.24-1.14,2.22-1.44,2-.06,0,1.08-2.4.42-1.74a13,13,0,0,1-2.28,3.12c-.84,1-.84,1.74-2.34,1.8-1.32-2.22-1.08-6.18-2-8.16-.36-.48-.54-1-.9-1.44a4.27,4.27,0,0,0-5.16-.36c.36,0,.6-.24,1-.36s.72-.18.3,0c-3.48,1.32-6.3,4.38-8.82,6.84-.72.6-2.88,3.12-3.78,4.2-1,1.26-1,1.32-1,1.14s.3-1,.42-1.5c.84-2.76,1.8-6.18,2.58-9.12.84-3.3,1.8-6.78,1.32-10.26a6.34,6.34,0,0,0-1.68-3.72,5,5,0,0,0-1.68-1,3.85,3.85,0,0,0-3.42.24c-2.82,1.68-4.62,4.26-6.54,7.14a47.39,47.39,0,0,0-6.66,16.38c-.18,1-1.62,8.46-.66,2.88.06-.54.54-2.88.12-1.86a36.61,36.61,0,0,0-1.08,6.72c-.06.06.06.36.36.66a2.27,2.27,0,0,1,.3,1.32,1.41,1.41,0,0,1,.6.3c1.14.72,1,.48,2.4-2.52s2.64-5.82,3.54-8.1c1.5-3.48,2.64-6.48,3.78-10,.3-1,2.58-6.9,1.44-7.32-.24-.06-.18-.18-.42-.18-.42.06-.06-.42,0-.54a23,23,0,0,1,2.34-2.64c1.14-.9,3.9-2.7,4.38-.84,1.14,1.92.78,4.2.6,6.72-.06.48.06.54-.06.84-.06.06-.12.12-.18.72-.06.24-.12.36-.12.42s.06.18.06.06c.18-.24.18.24.06.3s-.06,1.62.06,1.5a1.11,1.11,0,0,0,.12-.6c0-.18.18-.42.12-.66v-.3c0-.12,0-.12.06-.06.18.3-.06-.72.18-.9s.18-.24.06-.24-.12-.3,0-.36a.19.19,0,0,1,.12.06c.18-.18.18-1.08.36-1.26s.06-.18.12.06-.12.54,0,.78-.12.54-.12,1c-.3,1.86-.84,4.08-1.26,5.88-.42,1.26-.9,2.88-1.2,4.2a15.87,15.87,0,0,0-.84,2.7c-.3,1.5-.84,2.94-1.14,4.5.06.42-.6.24-.54.06s-.12-.48-.06-.66.06-.18,0-.18-.12-.18,0-.3c.48-.42-.12-.48.3-.84.12-.12.12-.42,0-.42s0-.06.06-.06.12-.24.24-.42v-.18c-.06,0-.12-.42,0-.24s.06.12.06-.06.12-.12.06-.24.18-.06.18-.24a15,15,0,0,1,.42-1.56,2.21,2.21,0,0,1,.3-1c.12-.18.12-.48-.06-.54s-.06-.24.06-.36-.12-.06.06-.18,0-.3.12-.3.06,0,.06-.12c-.06-.54.24-.12.3-.42s.42-.9.06-.9c-.18,0,.66-.66.18-.48-.12.06-.12.06-.12-.06s.3,0,.3-.18a.06.06,0,0,0-.06-.06c-.06.06-.18-.12-.06-.12s0-.18.18-.24.12-.18,0-.12-.12,0-.12-.12,0-.12.06,0,.18,0,.3-.54.36-.84.48-.84a5.38,5.38,0,0,0,.6-2.7c-.72.06-.9,1.26-1.14,2-.24.9-.42,1.08-.6,1.8-.06.36-.36,1.08-.36,1.32s-.12.18-.12.48c-.48,1.74-1.14,3.72-1.68,6-.18,1-.72,2.4-.3,3.3.12.12.3.54.42.66s.18.42.36.42.12.24.24.36,1,.36,1,.12l.24-.24c1.5-1.2,2.64-3.3,3.78-4.8a2.12,2.12,0,0,1,.48-.78c.06-.06.42-.72.54-.66s.06,0,0-.06.06-.06.12-.06.24-.24.12-.18-.18-.06-.06-.06.12-.12.12-.18v-.06a11,11,0,0,0,.9-.9c.06-.12.18-.24.24-.18a.26.26,0,0,0,.24-.24c-.06-.12.78-1,.9-.9a.21.21,0,0,0,.06-.12c0-.36.24.24-.06.24-.06,0-.12.06-.06.12s-.12.24-.24.24l-.06.06a2.61,2.61,0,0,1-.78.84c-.06,0,0-.18-.12.06s-.42.66-.54.66-.06.06-.06.12c-.06.3-1.08,1-.78,1.32,1.38-1.2,2.58-2.82,4-3.9,1.74-1.86,4.62-4.44,7.32-4.8,1.26.06,1.2,5.52,2.1,7.38a7.46,7.46,0,0,0,1.44,2,3.11,3.11,0,0,0,1.32,1.32c.06.24,1.5.18,1.68.06.48-.24.9-.48,1-.78a8.4,8.4,0,0,0,1.32-1.92c.12-.36.84-1.56.9-1.92-.06.06.72-1.92.72-2.16C234.46,142.12,234.16,142.24,233.86,143.08Zm-42.12,10c-.06.18,0,.42-.06.54a2.38,2.38,0,0,1,0-1,5.14,5.14,0,0,0,.18-.78c.06-.54.18-1,.18-.66A13.54,13.54,0,0,1,191.74,153Zm.9,4c-.18.36-.12-.18,0-.3C192.82,156.34,192.76,156.88,192.64,157.06Zm0-1c-.6,1.56-.06-1.56,0-1.8a7.79,7.79,0,0,1,.54-2.4c.12-.18.06.36-.06.48a3,3,0,0,0-.12.54c.06.06-.24,1.2-.3,1.8.06.36-.18.6,0,.84.12-.12.18-.54.3-.66.12-.3.06-.48.18-.66.42-.66.84-2.1,1.26-2.7.12,0,.06-.42.18-.42.12-.18-.06-.48.18-.66a2,2,0,0,0,.54-1.08c-.06-.12-.06-.12.06-.06s.12,0,.12-.12a.92.92,0,0,1,.24-.6.22.22,0,0,0,.06-.18c0-.12.24-.3.18-.48.06-.36.24-.12.24-.48s.12-.24.12-.48.12-.12.12-.3,0-.12.06-.12.06.48-.6,2c-.18.48-.36.9-.36,1a6.93,6.93,0,0,1-.9,1.92C194.5,152,193.36,154.72,192.64,156.1Zm3.9-10.8c.12,0-.24.24-.06.48a.19.19,0,0,1,.06.12c-.06.12.12.24.24.18s.12-.06,0,.24-.12.36-.24.18-.36-.12-.3,0-.18.06-.24,0v.06c.06.18-.06.24-.12.12a.06.06,0,0,0-.06-.06c-.06.12.18.18.12.42s-.12.18-.06-.06-.18-.3-.3,0c-.24.54-.24.54-.12.6h0c-.36,0,.18.24.06.3s-.12.42-.18.18a.13.13,0,0,0-.12-.12c-.24,0,.06.18,0,.3s-.18-.24-.12,0a.21.21,0,0,1-.06.12c-.06,0-.18.36-.12.42s-.3.24-.12.3.12.06,0,.06-.24.48-.3.6c-.24.18-.36.66-.48.72s-.06.06,0,.18,0,.18-.06.06-.18.18-.18,0,0-.12.06-.12A20.82,20.82,0,0,0,195,148a22.51,22.51,0,0,1,1-2.34c.18-.36.3-.84.48-1.2.06-.12.06-.12,0,.12C196.42,145.18,196.42,145.3,196.54,145.3Zm.36-1.8c.24-.54,0,.3-.06.36S196.78,143.74,196.9,143.5Zm-3.12,7.56c-.12.06-.12.36-.24.36s-.12-.12,0-.18.06-.3.18-.36S193.84,151,193.78,151.06Zm.12,3.24c-.3.54-.18,1.32-.72,1.62-.06,0-.06-.12,0-.12.12-.18.06-.36.24-.66S194.08,153.64,193.9,154.3Zm1.5-2.58c0,.12-.06-.18,0-.12S195.46,151.66,195.4,151.72Zm.42-.78a.06.06,0,0,1-.06-.06C195.76,150.7,195.88,150.82,195.82,150.94Zm.9-3c-.24.36-.24.78-.42,1-.06,0,0,.18-.12.18s-.06.36-.18.54-.12.66-.3.9a5.25,5.25,0,0,0-.6,1.32c-.06.36-.42.54-.48.84s-.18.18-.18.54-.18.24-.3.6-.12.24-.12.12a1,1,0,0,1,.18-.6c.3-.72.24-.48.36-.84.06-.06.06-.12.12-.12s.06-.06.06-.12a14.21,14.21,0,0,1,.9-2,15.35,15.35,0,0,1,.72-1.92c.06,0,.12-.24.24-.48s.24-.42.24-.66c0-.06,0-.12.06-.06S197,147.34,196.72,147.94Zm.6-1.26c-.06.18-.3.48-.3.42-.12-.24.18-.54.18-.72S197.38,146.38,197.32,146.68Zm0-1.8c.36-1.08.66-1.74,1.08-2.88.24-.48.18-.72.36-.9.06,0,.06,0,0-.12s.36-.54.3-.6c.12-.18.3-.06.06.3-.24.72-.6,1.68-.84,2.34a7.09,7.09,0,0,1-.54,1.38C197.44,145.06,197.08,145.42,197.32,144.88Zm.06-2.34v.12C197.32,142.78,197.32,142.48,197.38,142.54Zm.18-.3c0,.06-.12.06-.12,0s.3-.42.3-.42S197.56,142.18,197.56,142.24Zm.54-1.14c.06.06.06.12,0,.12s-.12,0-.12.06c-.12.24-.12-.24.06-.48s.12-.18.18-.06S198,140.92,198.1,141.1Zm1.08-2c.18.12.18.24.12.3s-.36.9-.42.6c-.06-.06,0-.06,0-.06s.48-.78.18-.78c-.12-.06-.18,0-.36.42-.3.72-.42,1-.42.9a5.85,5.85,0,0,1,.48-1.32c.12-.12.24-1.08.36-.72C199.06,138.76,198.88,138.76,199.18,139.12Zm-1.74,7.08h-.12C197.2,146,197.56,146,197.44,146.2Zm.12-.54v-.12C197.68,145.42,197.68,145.9,197.56,145.66Zm.54-.78c-.18.06-.48.72-.42.48-.06-.06,0-.24.12-.36s.36-1,.6-1.2C198.52,143.8,198.28,144.64,198.1,144.88Zm.42-1.44c-.12.18-.12.18-.06-.06S198.76,143.26,198.52,143.44Zm.9-2c-.06.18-.12.78-.3.78s-.12.06-.18.12c-.12.24.06-.18.06-.24s.12-.18.12-.36S199.6,141,199.42,141.4Zm-.06-3.72c-.06.18-.18.54-.3.6.12-.18.24-.84.36-1S199.48,137.26,199.36,137.68Zm.12-.42c0-.06-.06-.3.06-.3S199.54,137.26,199.48,137.26Zm.12.84c-.06.12-.06-.18-.06-.12A.19.19,0,0,1,199.6,138.1Zm-1.26,0c-.06.24-.12.66-.36.54s-.3.42-.48.72c-.3.78-.42,1-.36,1.14a19.63,19.63,0,0,0-.9,3,6.74,6.74,0,0,1-.66,2.28c-.72,1.5-1.62,4-2.34,5.46-.18-.12.3-1.5.36-1.92.24-1.38.78-3.48,1.14-4.92.06-.54.6-1.5.54-2-.06-.3.6-1,.36-1.14,0-.12-.06-.12,0-.18s0-.3.12-.3c.24-.18.36-.18.54-.54a38.57,38.57,0,0,1,2.1-4.56c.54-1.08,1.32-2.22,2.1-3.66.42-.48-.18,1.08-.24,1.32C199.84,134.56,198.52,137.56,198.34,138.1Zm-4.86,9.84c.06-.3.06.18,0,.24S193.42,148.18,193.48,147.94Zm.12-.6c0,.06.06.12,0,.18S193.54,147.22,193.6,147.34Zm.18-.66c.24-.72,0,.42-.06.48S193.66,147,193.78,146.68Zm.24-1c.18-.3.12.24,0,.24S194,145.84,194,145.72Zm6.42-7.62a.21.21,0,0,1-.06.12C200.26,138.16,200.44,137.8,200.44,138.1Zm.18-.54c-.24.36-.06-.36.06-.42A1,1,0,0,1,200.62,137.56Zm.3-6.42c-.06.06-.06-.18,0-.12S201,131.14,200.92,131.14Zm.3-.42c-.06.3-.3.06-.12-.06s.12-.06.06-.12S201.34,130.42,201.22,130.72Zm.18-.36c-.12,0-.12-.12,0-.12S201.46,130.36,201.4,130.36Zm.6-.6c-.12,0-.06.18-.24.3-.18.3-.24.06-.12,0s.06-.54.12-.54h.18C202.06,129.4,202.06,129.7,202,129.76Zm.48-.6c-.06.06-.12.12-.18.12S202.66,128.8,202.48,129.16Zm.3-.42c-.06,0-.06-.06,0-.12S202.84,128.74,202.78,128.74Zm.18-.18c-.12.06-.06-.12,0-.12S203,128.56,203,128.56Zm1.86-1.74c-.06,0-.06,0-.06-.06S204.94,126.7,204.82,126.82Zm.36-1.14a16.06,16.06,0,0,0-4.08,4.26,32.74,32.74,0,0,0-3.66,5.88c-.36.78-.72,1.2-1,1.92-.3.9-1.32,2.7-1.62,3.78.06.06-.12.42-.24.42a.62.62,0,0,0-.06.24c-.06.78-.54,1.74-.72,2.64s-.36,1.5-.72,2.46c-.18.84-.36,1.5-.6,2.52a2.59,2.59,0,0,1-.24.84c-.06.24-.12.24-.12.06a14,14,0,0,1,.24-1.56c.36-1.74.54-2.28,1-3.9.12-.36.24-1.56.42-1.44s.12.06.06-.06c-.12-.36.24-.84.3-1.2-.06-.12.12-.06.06-.24s0-.12.06-.12c.18-.18.12-.6.36-1,.3-.72.42-1.08.66-1.68a.21.21,0,0,0,.06-.12c.06-.18.3-.36.3-.54s.12-.24.3-.72c.66-1.5.9-1.74,1.44-2.82a14.64,14.64,0,0,1,1.44-2.58c1.86-2.88,3.6-5.52,6.72-7.44C206.2,124.9,206,125.14,205.18,125.68Zm1.14.12q-.18.18-.18,0C206.08,125.74,206.56,125.56,206.32,125.8Zm.72-.36c-.06,0-.06,0-.06-.06S207.22,125.44,207,125.44Zm3.3,7.08a1.22,1.22,0,0,1-.06.3c-.06-.06.06-.36,0-.42C210.28,132.16,210.4,132.28,210.34,132.52Zm-1.38,6.3c.18-.06,0,.18-.06.06A.06.06,0,0,1,209,138.82Zm-1.38,4.32c.18-.06.12.18,0,.18S207.52,143.2,207.58,143.14Zm-.42,1.74c.06,0,.06.06,0,.12S207.1,144.82,207.16,144.88Zm2.28-3.9a51.13,51.13,0,0,0,1.38-6,10.9,10.9,0,0,1-.6,3.72c-.24,1.08-.42,1.38-.48,1.8a2.29,2.29,0,0,1-.18.6C209.44,141.28,209.32,141.16,209.44,141Zm-2.58,9.9a.6.6,0,0,0-.06.18c-.06.24-.06-.3,0-.36C206.92,150.28,206.92,150.82,206.86,150.88Zm.72-2.64c.06.12-.18.06-.12.18s0,.18.06.18.18.18.06.12-.42.36-.18.3c.06-.06.06,0,.06.06v.12c-.06,0-.3.6-.36.54s.24-1,.24-1.26a11.79,11.79,0,0,1,.78-2.34c.18,0-.06-.18,0-.24a12.1,12.1,0,0,1,.48-1.74,11.15,11.15,0,0,1,.72-2.52,2.07,2.07,0,0,1-.06.54,20.93,20.93,0,0,0-.42,2.22c-.12.18-.12.48-.24.42s-.06,0,0,.06-.18.36-.18.48-.12.18-.06.42c-.06.48-.24.42-.18,1a1.78,1.78,0,0,1-.12.84c-.06.24-.3,0-.06-.12.06-.12.06-.42,0-.36s-.24.36-.18.42S207.52,148.18,207.58,148.24Zm13.14-9.78c.12-.06,0,.12-.06.12S220.6,138.52,220.72,138.46Zm-6.06,5.34c-1.08,1-2.46,2.58-2.94,3.12-.54.72-.84,1-1.38,1.74-.36.36-.42-.06-.12-.36.12-.24.3-.48.36-.66a13.28,13.28,0,0,1,1.56-1.92,3,3,0,0,0,.6-.72c1.38-1.62,4.92-5,7-6,.48-.36.84-.42.42-.12-.24.12.06.12.06.06a.06.06,0,0,1,.06-.06c.06,0,.3-.18.18-.24h.06c.48,0,1.8-.6,2.28-.48C219.76,138.94,216.88,141.64,214.66,143.8Zm.72.3a.13.13,0,0,1-.12-.12C215.26,143.68,215.62,144,215.38,144.1Zm7.8-5.52a4,4,0,0,1-1,.48c-.36.12-.36.24-.6.24-.06,0-.12.06-.18.12s-.3.06-.48.24-.3.12-.54.36-.48.18-.84.54a5,5,0,0,0-1.14.9c-.3.3-1,.66-1.56,1.2s-.66.42-1.08,1a.74.74,0,0,1-.12.18c-.12.06-.36-.12-.24-.18a.06.06,0,0,1,.06.06c0,.12.12,0,.12-.12s.18-.18.24-.3h0c.06,0,.3-.18.3-.3s0-.06,0-.06c.9-.66,2-1.68,2.82-2.28a2.78,2.78,0,0,1,.84-.54c.06.06.06.06.06-.06s.3-.12.36-.18.6-.3.6-.42C221.14,139.3,223.36,138.28,223.18,138.58Z"/><path d="M233.5,142.84s0-.06.12-.12.12-.12,0-.18-.3.54-.18.54S233.62,142.9,233.5,142.84Zm24.9-4.62-2.58,2.58c-.06.06-.06.24-.3.36s-.54,1-.84.9c0-.18-1.38,1.2-1.32,1.2s-.3.48-.48.48-.18.06-.18.12-.42.48-.42.54a.21.21,0,0,1-.12.06c-.06-.06-.42.48-.54.42s-.06.18-.18.18c-.42.12-.9.54-.12-.24,1.08-1,1.5-1.44,1.5-1.56s.06-.3.42-.66.6-.72.42-.72c-.18.18-.66.72-1,1a30.94,30.94,0,0,1-9.3,6.36c-2.28.9-5.28,1.74-7.62.6-1-.36-.9-1.68-1-2.52-.06-2,.72-3.78,1.32-5.7.36.12,1.26.54,1.74.72,2.7.48,5.76-1.74,7.26-4s4.32-7.14,2.52-9.42a4.94,4.94,0,0,0-3.06-1.2c-.54.12-1.5.24-2.1.42s-.78.24-1.86,1.32a25,25,0,0,0-3.9,5,31.57,31.57,0,0,0-3.48,7.5c-.9,2.76-1,5.46.6,7.68.66,1.56,3,2.34,4.56,2.7a23,23,0,0,0,4.5-.54,33.19,33.19,0,0,0,5.22-2.4,20.11,20.11,0,0,0,3.42-2.52,5.23,5.23,0,0,1,1-.84,22.7,22.7,0,0,0,2.88-3.06C258.4,139.78,259.84,137.5,258.4,138.22Zm-22.14.42c-.06,0-.12.12-.12.3-.06.42-.42.48-.48,1s-.06.36-.24.24-.18-.3-.06-.3c.12-.36,1-2.1,1.14-2.52s.24-.18.42-.54a3.23,3.23,0,0,1,.54-1c.12-.06.3-.54.3-.18a11,11,0,0,1-.84,1.68c0,.12-.6,1.08-.6,1.26A.06.06,0,0,1,236.26,138.64Zm10-5.82c-.18.06.06-.18.06-.06S246.34,132.82,246.28,132.82Zm.42-1.44c.06.06.06.12,0,.12C246.64,131.68,246.64,131.32,246.7,131.38Zm-.6.6a14.26,14.26,0,0,0,.36-2.22,3.3,3.3,0,0,1-.18,2C246.16,132.16,246,132.34,246.1,132Zm-.12,1.5s-.06.18-.12.42c-.24.48-.42.72-.36.36S245.92,133.42,246,133.48Zm-3-2.58c.42-.3,2.4-2.16,2.76-1.5,1,1.38-1.8,6.18-2.7,7.44a8.77,8.77,0,0,1-5,4c-.72.12-2,.24-1.56-.6C238.18,137.08,240.1,133.12,243,130.9Zm-3.78.78c.06-.06.06-.12.12-.12S239.2,132,239.2,131.68Zm-4.92,8.52c.06.06.06.06.06,0s.24-1.14.6-1.14c.06.06.06.06.06-.12s-.06-.18,0-.12.06,0,.06-.12a3.08,3.08,0,0,1,.3-.72c.12-.12,0-.42.18-.48s0,.36,0,.42c.12-.12.42-.42.24-.42s.12-.36.12-.54.18-.3.24-.48.06-.12.06.06.06.24.12,0,.18-.12.24-.24-.18-.06-.24,0v-.12c.06-.24.18-.18.24-.42s.06-.24.12-.24.42-.66.48-.66a.21.21,0,0,0,.06-.12c-.06-.3.54.06.3-.24s.06-.48,0-.18c-.06.06-.06.06.06,0s-.18-.36.12-.54.54-.9.84-1.08c.06,0,.12,0,.06-.06s.36-.66.54-.6.54-.48.54-.3-.3.18-.3.36-.12.06-.12.18-.24.3-.24.42a.26.26,0,0,1-.18.06c-.12,0-.18.06-.12.18a15.18,15.18,0,0,1-.78,1.32c-.06.3-.24,0-.18.24s-.42.78-.54.66-.24.12-.06.12.12.12-.06.3c-.3.72-.78,1.38-1.2,2.28-.12.18-1.08,2.52-1.14,2s-.12.36-.24.48C234.28,140.8,234.1,140.26,234.28,140.2Zm.36.3c.06.06-.3.72-.24.36C234.4,140.8,234.64,140.44,234.64,140.5ZM233,144.22V144C233.08,144.22,233,144.7,233,144.22Zm0,2.34A4.6,4.6,0,0,1,233,145c.12-.36.06.48.24-.6,0-.42,0-.54-.06-.54-.3.18.54-2.82,1.08-3.3.06,0,0,.54-.06.66s-.3-.12-.24.18-.12.06-.06.36c0,.06,0,.12-.06.12s-.12.06-.06.18.36-.24.36-.42l.12-.12c.12-.12.12,0-.12.6a30.18,30.18,0,0,0-1,3.9c-.06-.18-.06.18,0,.18S233.14,146.92,233,146.56Zm.6,1c-.06-.18-.06-.66,0-.66S233.74,147.82,233.62,147.58Zm.78-4.44c-.06,0-.12.06-.12.24s-.12.3-.06.54.06.6-.12.3c0-.18.06.42,0,.3s-.06.66-.18.54-.12.12,0,.24,0,.12-.06.24-.12.3-.18.66c0,.6-.12.72-.12.18a12.65,12.65,0,0,1,1-4.62c.36-.66.18-1.14.6-1.44.06,0,.12.12.12.18.06.3-.3.12-.24.3a12.16,12.16,0,0,1-.48,1.86C234.46,142.9,234.58,143.2,234.4,143.14Zm19.32.72-.24.24c-.06,0,0-.12.12-.24C253.9,143.62,254,143.62,253.72,143.86Zm.6-.54-.06.06C254,143.38,254.38,143.2,254.32,143.32Zm.36-.36c-.3.3-.36.24-.06,0S255,142.66,254.68,143ZM237.82,134c.12,0,.3-.3.24-.36S237.7,134.08,237.82,134Zm1.14-1.56c0-.06.06-.18.12-.18s.06-.18,0-.18S238.78,132.76,239,132.46Z"/><path d="M283.36,137.38c-.12,0-.18.12-.3.48-.3.78-.24,1.2-.6,2.16-.12-.06-.3.18-.36.48s-.24.42-.36.72a18,18,0,0,0-1.5,2.46A24.29,24.29,0,0,0,282,141.1c-.6,1.8,1-1.68,1-2s.24-.42.3-.9C283.24,137.92,283.42,137.56,283.36,137.38Zm-1.26,3.54v-.06a1,1,0,0,1,.12-.3C282.16,140.68,282.16,140.8,282.1,140.92Zm-3.24,4.5a18.51,18.51,0,0,1-1.74,1.92c-.24.3-.42.42-.48.36s.54-.72.3-.66-.66.84-1,1c.24-.66,1.44-1.68,1.92-2.52a15.3,15.3,0,0,0,.84-1.44c1.56-2.16,3.24-4.08,4-5.64,0-.06-.24.24-.36.42-.18.42-.54.66-.66.9a46.78,46.78,0,0,1-3.36,4.56c-2,2.58-3,4.26-5.22,5.34,0,.12-1,.3-1.2.24-.6-2.46.3-5.7.54-7.8s.6-4,.78-5.88a9.39,9.39,0,0,0,.06-2.58c-.12-.24,0-.54-.18-.72a2.32,2.32,0,0,1-.18-.72,2.39,2.39,0,0,0-1.74-2.16,2.45,2.45,0,0,1-.42-.12c-.24-.18-.3-.18-.84-.18-2.52,0-4.26,2.64-5.94,4.32.06-.78.84-2.52.6-3.12-.18-.12-.06-.66-.06-.78s-.36-.66-.66-.6-.36,0-.36-.12-.72-.36-.84-.24c-.72.06-.78.54-1.14,1.14-.6,1.14-1.62,3.18-2,4a30,30,0,0,0-1.86,4.86c-.06.12-.3,1.62-.06,1.86a.36.36,0,0,0,.24.06c.24,0,.42.3.6.36s.18.18-.12,1.08a61.84,61.84,0,0,0-2.28,7.44c.42.24.42.66.78,1s.54-.06.9.36c.12.24.3.24.66.24s.36.06.42-.6c.24-1.44,1.32-4.68,1.62-5.7a13.35,13.35,0,0,0,.54-1.68c.3-.66.54-1.32.84-2,.6-1.38,1.86-3.42,2.28-4.62-.06-.18.12.12.12,0a2.48,2.48,0,0,0,.42-.66.21.21,0,0,1,.06-.12c.06-.06.42-.6.54-.6s.36-.36.36-.48c.18-.42.42-.3.78-.84.84-.78,3.06-3.3,4.08-3.3.9,1.68.48,4.26.36,5.88s-.36,2.34-.54,3.72c-.06.42,0,.66.06.36s.06-1,.24-1.2a10.26,10.26,0,0,1-.48,2.82,10.64,10.64,0,0,0-.3,1.92c-.36,1-.66,4.38.24,5.28.24.18,1,.48,1,.72s.42.42.66.66c.06.3.9.12,1.08.24.78.42,3.06-.66,3.42-1.32a21.18,21.18,0,0,0,2-2.22c.54-.72.72-1.32,1.26-2a7.16,7.16,0,0,0,.48-1C280.36,143.38,279.7,144.28,278.86,145.42Zm-17.46-7.8c-.18.12.06-.36.12-.42S261.52,137.56,261.4,137.62Zm.18-.54c0,.06-.06-.24,0-.12Zm1.5-.3c-.06.06-.12.06-.12,0S263.08,136.66,263.08,136.78Zm5.7-6.12a19.3,19.3,0,0,0-2.88,2.58c-.48.12,1.44-1.8,2.34-2.4C269,130.36,270,130,268.78,130.66Zm3.06,7c.06-.06.06,0,.06,0C272,137.86,271.72,137.74,271.84,137.68Zm-.12.42c.06-.48.18,0,.12.12s0,.3-.12.36S271.66,138.46,271.72,138.1Zm-1.08-.12c.06-.18.12-1.38.3-1.26a2.87,2.87,0,0,1-.3,1.8Zm.3,1.86c-.12.12-.12-.3-.06-.18A.22.22,0,0,1,270.94,139.84Zm-.42-.6v-.06C270.52,139,270.58,139.18,270.52,139.24Zm1,2c-.12,2.46-1,5.58-.78,8.28.18.06.66.36.12.24-2-.66-.66-4.26-.48-5.82.06-.9.78-2.94.36-.9-.18.84-.18,1.86-.36,2.46a1.53,1.53,0,0,0-.06.72.47.47,0,0,0,.12.48c.06-.24,0-1.14.06-1.32.24-.72.12-1,.36-2,.24-1.32.48-3.06.78-4.44C271.84,138.58,271.48,140.86,271.48,141.22Zm-1.2,6.12c0,.18-.12.54,0,.54S270.34,146.14,270.28,147.34Zm12-8.7c.12-.18.36-.6.3-.66S281.86,138.94,282.28,138.64Z"/><path d="M282.16,141.4c-.12-.36-.12.24,0,.42h0c-.12-.06-.12.18-.24.24s0,.48.12.54.06-.3.12-.36a.88.88,0,0,0,.06-.66C282.22,141.52,282.16,141.46,282.16,141.4Zm15,1.44c-.06.24.18-.06.18-.18S297.22,142.72,297.16,142.84Zm-.36.72c.06-.12.36-.42.24-.54s-.18.36-.36.42S296.62,143.86,296.8,143.56Zm-16.14-1.5c-.12.06,0,.6.06.12C280.78,142.06,280.72,142.06,280.66,142.06ZM295.72,145a.51.51,0,0,1-.18.3c0,.12.12.06.18-.06s.24-.3.3-.42S295.78,144.88,295.72,145Zm-14-5.76c.18-.3,0-.42-.06,0v.24Zm14.88,4.56c-.12,0-.24.24-.24.36S296.8,143.68,296.56,143.8Zm-14.94-6.18a35.91,35.91,0,0,0-.9,4.26c0,.06.06.06.06-.12.3-1,.48-2.28.84-3.6C281.68,137.92,281.68,137.56,281.62,137.62Zm.72-.78c.18-.84.24-1,.18-1v.06c-.06.24-.12.12-.18.42s-.12.24-.12.48,0,.18-.06.24C282,137.44,282,138.16,282.34,136.84Zm1-3.6c.12-.24.12-.42.24-.72C283.66,131.8,282.94,133.66,283.3,133.24Zm-.48,1.68c.06-.18.3-.66.18-.78S282.64,135.4,282.82,134.92Zm20-17.22c.18.06.18.06.18-.06.24-.18-2.94-.06-2.88-.06S302.86,117.64,302.86,117.7Zm-8.34-.42c-.42,0-.48.18,0,.12S294.94,117.16,294.52,117.28Zm8.4-.3a1.23,1.23,0,0,0-.66,0Zm-7.68.24h0Zm6.18-.24a13.43,13.43,0,0,0-1.56,0Zm-5,.54c-.12,0-.54.06-.12.06C296.5,117.58,296.56,117.58,296.44,117.52Zm-2.7-.24c-.9.06-.84.36,0,.18C294.22,117.4,294.22,117.28,293.74,117.28ZM285.1,119a3.44,3.44,0,0,0-1.26.3l1-.12C285.58,119,285.7,118.9,285.1,119Zm24.36.54c-.06-.12-.12-.12-.06.12a.85.85,0,0,1-.06.54,2,2,0,0,0-.72-1.68c-.3-.24-.36-.24-.18-.06s.12.18-.06.12a10.67,10.67,0,0,0-4.92-.84c2,.18,4.08.3,5.22,1.26a1.26,1.26,0,0,1-.72-.18,3.7,3.7,0,0,0-1.44-.48c-1-.24-3.78-.54-4.38-.24a7.76,7.76,0,0,0,1.44.06,3.75,3.75,0,0,1,1.2.06,3,3,0,0,0,1.14.18c.36-.06,1.92.24,1.8.48a36,36,0,0,0-10.5-.24c-.24,0-.36,0-.36-.06s2.34-.3,3.06-.42,1.56.18,2.22-.12c-.84-.36-3.72,0-4.14-.06-2.34.06-4.86.48-7.14.6,0-.12.06-.12.06-.24.54-.06,1.2,0,1.08-.24a4,4,0,0,0-1,.12c.06-.18.18-.36.18-.42,2.1-.18,2.4-.54.06-.18.54-1.38.72-1.44,1.32-2.76.24-.54,1-2.28,1.14-2.58.06,0,.6-1.38.72-1.44s.12-.36.18-.36.06-.18.18-.42a5.28,5.28,0,0,0,.3-.9c0-.24.48-1.08.42-1.26,0-.48-.18-.42-.48-.6a1.43,1.43,0,0,0-1.08-.3c-.18.06-.42-.06-.6.18-.06.06-.12.12-.18.12-.42.3-.54.78-.78,1.38-.06.06-2.28,4.56-1.44,3.48.12-.18.18-.12.12.06-.48.84-.54,1.5-.9,2-.24.12-.12.18-.36.54s-.12.42-.36.72-.48,1.32-.72,1.44a9,9,0,0,0-.48,1c-4.38.54-8.16,1.32-12.66,1.62-1.14.06-2.7.12-3.12-.18a2,2,0,0,1-.36-.18c-.18-.06-.3,0-.42-.24s-.3-.18-.48.06-.3,1-.36,1.56c.84,2,4.68.9,6.54.78,3.24-.42,6.66-1,10.08-1.5a126.55,126.55,0,0,0-5.58,16.68c-.12,1,.6-1.32.54-1.38.48-1.56.9-3.06,1.44-4.68.3-.78.42-.66.18,0-.06.18-.3.84-.18.84s.48-1.74.66-2.16c.06-.06,0-.3.12-.36s.12-.36.3-.84.3-1,.6-1.14c.12,0,.18-.06.06-.12s.12-.42.06-.48.06-.12.06-.18.06-.12.18-.3.18-.6.42-.9c.06-.12.06-.18.12-.12a8.84,8.84,0,0,1-.48,1.68c0,.18-.18.24-.18.42s0,.18-.06.18a1.41,1.41,0,0,0-.12.48,98,98,0,0,0-4.68,18c-.18.3-.6,5.82-.18,6.42.06.12.12.72.18.9-1.14-2.64-.84-6.12-.36-9.24a2.13,2.13,0,0,0,0-.9c-.06.36-.12.66-.18,1.14-.42,2.76-.78,6.72.36,9.24a10.36,10.36,0,0,0,1.14,1.68,2.33,2.33,0,0,0,1.08,1.32c.36.18,1.2.9,1.56.84s.42.12.78.18a4.66,4.66,0,0,0,2.94-.6,14.36,14.36,0,0,0,1.56-1.26c.72-.54.6-.24,1.38-1,2.7-2.88,4.38-6,6.48-9.18a6.9,6.9,0,0,0,.72-1.5c-.12-.12.66-1.2.54-1.2a20.14,20.14,0,0,0-1.38,2.34,18.31,18.31,0,0,1-1.32,1.92c-.36.48-.9,1.38-1.26,1.74-.06.06-.18,0-.18.06s-.3.36-.3.42a1,1,0,0,1-.18.24,27.6,27.6,0,0,1-1.86,2.7c-.24.3-.78.78-.72.6a.22.22,0,0,0,.06-.18c-.06-.12.12.06.12-.06a45.22,45.22,0,0,1,3.06-4.5c1.2-1.8,2.28-3.6,3.42-5.34a39.62,39.62,0,0,0,2.7-4.68,28.52,28.52,0,0,0,1.68-3.3,5.31,5.31,0,0,0-.72,1.32c-1.32,2.46-2.52,4.38-4,6.6-.48,1-1.26,2-1.8,2.94-.24.3-.84,1.26-1.14,1.74s-.78,1.26-1.2,1.74c-.06,0-.18.42-.36.48a6.07,6.07,0,0,0-.9,1.2c-.18.24-.24.24-.18-.06s.48-.9.9-1.44c.6-.78,1.32-1.86,1.8-2.64.12-.3.18-.24.24-.42s.06-.18-.06-.06-.12.24-.18.24a.86.86,0,0,1-.12.18,4.48,4.48,0,0,0-.42.72c-.12.06-.18.36-.36.48s-.12.24-.24.3.48-.78.54-.9c.36-.6,1.08-1.68,1.26-2.1a14.78,14.78,0,0,0,1-1.62,10.91,10.91,0,0,0,.9-1.38c.06,0,.06,0,.06-.06s.36-.48.36-.3c-.06.48,1-1.56,1.08-1.62.6-1.2,1.44-2.28,2-3.36.18-.24-.06-.54-.18-.24s-.18.3-.48.84a18.51,18.51,0,0,0-1,1.74,5,5,0,0,1-.66.9c-.12.12-.06.3-.18.36l-.12.24c-.06.24-.24.24-.06-.12.18-.72-.48.3-.54.48-1.62,2.52-3.24,5.28-5,7.8-.06.12-1.14,1.56-1.14,1.68a2,2,0,0,1-.48.72c-.48.66-.72.54-1.26,1.32-.3.36-1.86,1.8-2.28,2.22a.77.77,0,0,1-.42.3.06.06,0,0,0-.06.06,5.36,5.36,0,0,1-2,.84c-.54.06-1.2.24-1.62-.18a6.61,6.61,0,0,1-1.26-3.12c-.42-1.5-.12-6.78.84-9.66.06-.48.18-.84.24-1.32a15.87,15.87,0,0,1,.84-4,31.84,31.84,0,0,1,1.32-4.38c.24-.9.54-2,.84-2.82,1.44-3.72,2.34-6.66,4-10.56a14.14,14.14,0,0,0,1.74-.18c.36-.06.42-.06.48-.18s.3-.06.12-.06,0,.24.18.12.24.06.54-.06c3.6-.3,8.4-.72,11.94-.3,1.26.18,2.88.12,3.54,1.2.12.12-.48,1.2-.54,1.44.18.3.36-.66.54-.42s.12-.24.24-.3.06-.3.18-.3S309.52,119.44,309.46,119.5Zm-17.7-6.3c.12-.06.06.06,0,.12S291.7,113.2,291.76,113.2Zm-.12.48c.06,0-.06.12-.06.12S291.52,113.62,291.64,113.68Zm-.54-1.86c0-.12.12-.18.06,0S291,112,291.1,111.82Zm0,3.06c.12,0,.06.12,0,.12S291,114.94,291.1,114.88Zm2.7,32.94c.36-.48,0,.3-.12.3S293.62,148.06,293.8,147.82Zm-.3.54c.06-.18.18-.12.06-.06s-.18.3-.24.24A.45.45,0,0,1,293.5,148.36ZM291,152.08c.06-.48,1-1.38,1-1.56s.36-.48.42-.42-.18.18-.12.24a3.77,3.77,0,0,1-.72,1.08C291.52,151.54,290.92,152.32,291,152.08Zm-7-33.3c.12,0,.06.12-.06.12S283.9,118.78,284,118.78Zm-.9.18s.06-.06.06,0S283.06,119,283.12,119Zm-.24,0a.08.08,0,0,1,.12,0C283.06,119,282.88,119,282.88,119Zm-3.48.9c-.48,0,0-.06.12,0Zm.36.18h-.12C279.7,120,280.06,120,279.76,120Zm.54-.12c-.06.06-.12,0-.06,0S280.36,119.92,280.3,119.92Zm.24,0c-.12,0,0-.06.06,0Zm1.08.54c0,.06-.12.06-.36.06-1.2,0,.84-.36,1-.24C282.28,120.34,281.62,120.46,281.62,120.46Zm.6,0c-.06,0-.06,0,0-.06S282.28,120.52,282.22,120.46Zm.54-.06c-.24-.06,0-.12.06-.06S282.82,120.4,282.76,120.4Zm.78-.18c-.06,0-.12,0-.06-.06S283.72,120.22,283.54,120.22Zm.06-.36c-.06-.06-.36.12-.24-.06S284,119.8,283.6,119.86Zm.36-.12c.06,0,0,.12.18.06S283.9,120,284,119.74Zm.3.36c-.18.12-.06-.3,0-.12Zm1.56-.6c0,.06-.78.12-.6,0s.18.06.24,0S286,119.38,285.82,119.5Zm.3-.12c-.18,0-.06-.06.06,0Zm.72-.3c-1.14.18-1.14.18-2,.36a3.92,3.92,0,0,1-.66.12c0,.06-.06.06-.18.06a6.25,6.25,0,0,1-.66.06,1.54,1.54,0,0,0-1,.12.27.27,0,0,1-.3,0,.36.36,0,0,0-.24.06,1.47,1.47,0,0,1-.9.06c-.12-.06-.12-.06-.06-.06.54-.36,1.74-.18,1.62-.6.36-.06,2-.3,2.58-.48,1.08-.24,1.92-.42,3.12-.66-.12.3-.24.6-.3.78C287.56,119,287.2,119,286.84,119.08Zm.9,4.86c-.06.12-.06.12-.06.06C287.68,123.76,287.92,123.76,287.74,123.94Zm-.9.72c.06,0,0-.42.12-.36C287.14,124.9,286.66,124.9,286.84,124.66Zm-.12-1.56c.06,0,.06,0,.06.06S286.6,123.22,286.72,123.1Zm0,2c.12-.06.06.12,0,.12S286.66,125.08,286.72,125.08Zm-.36-.6c-.18-.24-.3.3-.36.42-.3.36.36-1.56.48-1v-.12c.06-.3.18-.36.18-.18s-.12.24-.12.54S286.42,124.6,286.36,124.48Zm-.18,2.1c.18-.36.18-.78.3-1,.06,0,.06-.06.06-.12.06-.24.24-.12.3-.3s.12-.06.12,0a.45.45,0,0,1-.18.18c-.24.18.18.48-.12.42s-.06.36-.24.42-.06.36-.18.48S286.06,126.82,286.18,126.58Zm-.06.3c.24-.06-.18.36,0,.36l.06.06c0,.12-.06.06-.18,0A.37.37,0,0,1,286.12,126.88Zm-.24.72c.18,0-.06.24-.06.06Zm-2,5.94c.06-.24.24-.78.3-1s.3-1,.42-1.2c.06,0,.06.24,0,.3s-.12.54-.18.48c-.06.12,0,.66-.18.78s-.06.6-.12.48-.12,0-.06.12-.06.3-.12.42C283.9,133.84,283.78,133.66,283.9,133.54Zm.54-.18a3,3,0,0,1,.24-.78C285,132.22,284.38,134,284.44,133.36Zm.36-1.86c-.06,0-.06,0-.06-.06C284.74,131.14,284.86,131.44,284.8,131.5ZM284,135c-.06-.18.06-.66.18-.66S284.08,134.92,284,135Zm-.18.9c-.12.12-.06.36-.18.36s-.12,0-.06-.12.06-.3.18-.36a.21.21,0,0,0,.06-.12C283.9,135.46,283.9,135.82,283.84,135.94Zm-.24-1.5c.3-1.14.3-.12.12.12-.06,0-.06.12,0,.18s-.06.66-.06.24S283.48,134.86,283.6,134.44Zm0,.84s.12.12,0,.12S283.54,135.34,283.6,135.28Zm-2.22,15.42c-.06.12-.06-.18,0-.12Zm-.12-.84c-.06-.18-.06-.24.06-.12S281.38,150.16,281.26,149.86Zm.06-.3c-.06.06,0-.54-.06-.54s-.06-.06,0-.18c.18-.3.12,0,.12.3S281.38,149.56,281.32,149.56Zm.06-1.2c0,.18-.06.18-.06.06s-.18-.42,0-.54C281.5,147.94,281.38,148.12,281.38,148.36Zm.12-.9c-.06,0-.12-.18-.06-.18S281.5,147.46,281.5,147.46Zm0-1.14a.21.21,0,0,1,.06-.12C281.8,146.2,281.5,146.56,281.5,146.32Zm.12-.78c0-.06.12-.12.12,0S281.62,145.66,281.62,145.54Zm0,7.26c-.06-.36.18,0,.12.06S281.62,152.92,281.62,152.8Zm.18.54c-.24-.48-.06-.48.06-.12S281.92,153.7,281.8,153.34ZM282,144s-.12-.12-.06-.12S282,144,282,144Zm.12,10v.18L282,154C282,153.7,282.16,153.76,282.1,154Zm.36-12.42c0,.42-.12.42-.18.72,0,.12-.12.48-.18.48a.06.06,0,0,1-.06-.06c0-.06-.06-.12-.12,0s-.12,0-.12.06v.06c.12,0,.06.42-.06.54s-.06.66-.12.72a.22.22,0,0,0-.06.18,6.77,6.77,0,0,0-.12.84c0,.66-.24.42-.12,1,.06.06-.06.6-.06.6s-.06,1.44-.12,1.5a19.38,19.38,0,0,0,0,2.64c.06.06.06,1,.12,1.32.12.12.18.9,0,.3-.84-3.24.06-8.22.84-11.94.54.36-.3,0,.12.66C282.4,141.4,282.46,140.92,282.46,141.58Zm0-.9c-.06-.18.18-.42.18-.54s.06-.06.06,0S282.58,141.1,282.46,140.68Zm.3,1.44c-.3,1.2,0-.06.06-.54C282.94,140.86,283,141.28,282.76,142.12Zm.24-2.94a1.57,1.57,0,0,1-.18.48A1.21,1.21,0,0,1,283,139Zm.06,1.38c-.12.06-.06-.24,0-.06C283.12,140.5,283.12,140.56,283.06,140.56Zm.12-.66c-.06.12-.06-.12-.06-.06A.06.06,0,0,1,283.18,139.9Zm-.06-1.62c0-.06,0-.06.06-.06S283.12,138.52,283.12,138.28Zm.18-.24c-.12.18-.06-.18,0-.18S283.3,138,283.3,138Zm.12.9a.31.31,0,0,1-.12.24C283.18,139.3,283.48,138.52,283.42,138.94Zm-.18-2c0,.12-.06.18-.12.18s-.06,0-.06.06a.06.06,0,0,1-.06.06c-.06,0-.06.24,0,.24s.06-.18.18-.18.12-.06.18-.12c.18-.24,0,.54-.06.66,0-.06-.06-.54-.12-.36s-.06.18-.12.18,0,.24-.18.24-.12.54,0,.48.06.24-.06.3,0,.18-.12.18-.06-.18,0-.18.06-.06.12-.06,0-.06-.12-.06-.12.24,0,.42-.12.18-.12.42-.18.36-.18.6a.31.31,0,0,1-.12.24c-.06.06-.06.18,0,.18s.12.06,0,.12c-.54.24,1.14-5.16,1.26-5.64a2.88,2.88,0,0,0,0,.72c.06.06.06.12-.06.18-.18.24.12.3,0,.36s-.12.12-.12.18-.12,0-.18.18S283.48,136.48,283.24,136.9Zm.18-.12a.46.46,0,0,1,.12-.3c.06-.06.06-.06.06.18S283.42,137.08,283.42,136.78Zm.48.54c-.06.06-.36,1.56-.42,1.2a14.73,14.73,0,0,1,.48-1.74C284.08,136.12,284.08,136.84,283.9,137.32Zm.6-2.22c-.06.06-.36,1.44-.36,1.08,0-.66.36-1.08.42-1.56,0-.12,0-.12.06-.06A4.89,4.89,0,0,1,284.5,135.1Zm.36-1.32c-.24.6-.06-.12,0-.24S284.92,133.6,284.86,133.78Zm-.06-2.58c-.3.06.06-.54.12-.9s.18-.72.24-.18c0,.36-.12.12-.18.3a.45.45,0,0,1-.06.3C284.86,130.78,284.92,131.2,284.8,131.2Zm.24.24a5.19,5.19,0,0,1,.42-1c.06-.06.06-.06,0,.18a6.24,6.24,0,0,1-.48,1.2C284.92,131.8,284.92,131.8,285,131.44Zm.3.84c-.18.48-.3,1-.36,1h0C285,132.64,286.06,129.88,285.34,132.28Zm.3-1.08c-.06,0,0-.12,0-.12S285.7,131.14,285.64,131.2Zm.18-.42c-.18.48,0-.42.06-.3A.8.8,0,0,1,285.82,130.78ZM286,130c0-.18.12-.18.18-.42s.06-.18.06-.12S286,130.12,286,130Zm.48-1.26c-.06.12-.06-.12,0-.06Zm-.36-.06c-.06.24-.12.3-.3.84s-.3.6-.24.36a6.56,6.56,0,0,1,.3-1c.24-.36.24-.54,0-.42s-.18-.36-.24,0c0,.18-.18.3-.18.48a.46.46,0,0,1-.12.3c-.06.18.06.48-.18.54-.06,0-.06-.18,0-.18s.06,0,.06-.06,0-.3.12-.48.48-1.56.42-1c0,.18,0,.18.18.24s.18,0,.18-.12,0-.12.06-.12a5.66,5.66,0,0,0,.18-.54c.12-.24.12-.36.18-.48s0-.18.06-.24.12-.3.24-.66c.24-.6.54-1.5.78-2,.24-.06-.66,2-.66,2.16s-.18.42-.18.54-.12.06-.12.18A13.35,13.35,0,0,1,286.12,128.68Zm.48-.3c-.06-.06.24-.72.24-.48C286.84,127.9,286.6,128.56,286.6,128.38Zm.42-1.14c-.06.12-.06.36-.12.42s0-.48.06-.54S287.08,127.12,287,127.24Zm.84-2.22c-.12.24-.42,1.32-.54,1.2C287.44,125.92,288.34,123.58,287.86,125Zm.24-.72c0,.3-.12-.06,0-.12S288.16,124.24,288.1,124.3Zm.36-1.08c-.18.24,0-.18.06-.24S288.52,123.16,288.46,123.22Zm.24-.66c-.06.24-.06-.12,0-.18S288.76,122.5,288.7,122.56Zm1.44-3.42c-.06,0-.06,0-.06-.06S290.14,119,290.14,119.14Zm.54-.12a.06.06,0,0,1,.06-.06C290.8,119,290.74,119,290.68,119Zm1,.06c-.06,0-.06-.12,0-.12S291.7,119,291.64,119.08Zm.6-.18c-.18.06-.24-.06-.12-.06S292.3,118.84,292.24,118.9Zm2.16-.12c-.12,0-.06-.12,0-.06S294.46,118.78,294.4,118.78Zm1.08-.12c-.24,0,0-.06.06-.06S295.54,118.66,295.48,118.66Zm1.2-.06c-.12,0-.12-.12,0-.12S296.74,118.6,296.68,118.6Z"/></g></g></g></svg>